%TF.GenerationSoftware,KiCad,Pcbnew,9.0.7-9.0.7~ubuntu24.04.1*%
%TF.CreationDate,2026-01-19T15:25:12+01:00*%
%TF.ProjectId,fdcanhat,66646361-6e68-4617-942e-6b696361645f,rev?*%
%TF.SameCoordinates,Original*%
%TF.FileFunction,Copper,L3,Inr*%
%TF.FilePolarity,Positive*%
%FSLAX46Y46*%
G04 Gerber Fmt 4.6, Leading zero omitted, Abs format (unit mm)*
G04 Created by KiCad (PCBNEW 9.0.7-9.0.7~ubuntu24.04.1) date 2026-01-19 15:25:12*
%MOMM*%
%LPD*%
G01*
G04 APERTURE LIST*
%TA.AperFunction,ComponentPad*%
%ADD10C,0.800000*%
%TD*%
%TA.AperFunction,ComponentPad*%
%ADD11C,5.400000*%
%TD*%
%TA.AperFunction,ComponentPad*%
%ADD12C,2.500000*%
%TD*%
%TA.AperFunction,ComponentPad*%
%ADD13C,1.800000*%
%TD*%
%TA.AperFunction,ComponentPad*%
%ADD14R,1.700000X1.700000*%
%TD*%
%TA.AperFunction,ComponentPad*%
%ADD15C,1.700000*%
%TD*%
%TA.AperFunction,ViaPad*%
%ADD16C,0.600000*%
%TD*%
G04 APERTURE END LIST*
D10*
%TO.N,GND*%
%TO.C,H4*%
X169475000Y-117000000D03*
X170068109Y-115568109D03*
X170068109Y-118431891D03*
X171500000Y-114975000D03*
D11*
X171500000Y-117000000D03*
D10*
X171500000Y-119025000D03*
X172931891Y-115568109D03*
X172931891Y-118431891D03*
X173525000Y-117000000D03*
%TD*%
%TO.N,GND*%
%TO.C,H1*%
X111475000Y-68000000D03*
X112068109Y-66568109D03*
X112068109Y-69431891D03*
X113500000Y-65975000D03*
D11*
X113500000Y-68000000D03*
D10*
X113500000Y-70025000D03*
X114931891Y-66568109D03*
X114931891Y-69431891D03*
X115525000Y-68000000D03*
%TD*%
D12*
%TO.N,GND*%
%TO.C,J3*%
X123262500Y-76500000D03*
%TO.N,+BAT*%
X123262500Y-81500000D03*
D13*
%TO.N,unconnected-(J3-PadMP1)*%
X113262500Y-73500000D03*
%TO.N,unconnected-(J3-PadMP2)*%
X113262500Y-84500000D03*
%TD*%
D14*
%TO.N,unconnected-(J1-3V3-Pad1)*%
%TO.C,J1*%
X118375000Y-69275000D03*
D15*
%TO.N,+5V*%
X118375000Y-66735000D03*
%TO.N,/MON_SDA*%
X120915000Y-69275000D03*
%TO.N,+5V*%
X120915000Y-66735000D03*
%TO.N,/MON_SCL*%
X123455000Y-69275000D03*
%TO.N,GND*%
X123455000Y-66735000D03*
%TO.N,/RTK_PPS*%
X125995000Y-69275000D03*
%TO.N,/RTK_TXD*%
X125995000Y-66735000D03*
%TO.N,GND*%
X128535000Y-69275000D03*
%TO.N,/RTK_RXD*%
X128535000Y-66735000D03*
%TO.N,unconnected-(J1-GPIO17{slash}SPI1_~{CE1}-Pad11)*%
X131075000Y-69275000D03*
%TO.N,unconnected-(J1-GPIO18{slash}SPI1_~{CE0}{slash}PCM_CLK{slash}PWM0-Pad12)*%
X131075000Y-66735000D03*
%TO.N,unconnected-(J1-GPIO27{slash}SDIO_DAT3-Pad13)*%
X133615000Y-69275000D03*
%TO.N,GND*%
X133615000Y-66735000D03*
%TO.N,unconnected-(J1-GPIO22{slash}SDIO_CLK-Pad15)*%
X136155000Y-69275000D03*
%TO.N,unconnected-(J1-GPIO23{slash}SDIO_CMD-Pad16)*%
X136155000Y-66735000D03*
%TO.N,unconnected-(J1-3V3-Pad17)*%
X138695000Y-69275000D03*
%TO.N,unconnected-(J1-GPIO24{slash}SDIO_DAT0-Pad18)*%
X138695000Y-66735000D03*
%TO.N,/FDCAN/SPI0_MOSI*%
X141235000Y-69275000D03*
%TO.N,GND*%
X141235000Y-66735000D03*
%TO.N,/FDCAN/SPI0_MISO*%
X143775000Y-69275000D03*
%TO.N,unconnected-(J1-GPIO25{slash}SDIO_DAT1-Pad22)*%
X143775000Y-66735000D03*
%TO.N,/FDCAN/SPI0_SCK*%
X146315000Y-69275000D03*
%TO.N,/FDCAN1_CS*%
X146315000Y-66735000D03*
%TO.N,GND*%
X148855000Y-69275000D03*
%TO.N,/FDCAN2_CS*%
X148855000Y-66735000D03*
%TO.N,unconnected-(J1-ID_SD_I2C0{slash}GPIO00-Pad27)*%
X151395000Y-69275000D03*
%TO.N,unconnected-(J1-ID_SC_I2C0{slash}GPIO01-Pad28)*%
X151395000Y-66735000D03*
%TO.N,/FDCAN1_INT*%
X153935000Y-69275000D03*
%TO.N,GND*%
X153935000Y-66735000D03*
%TO.N,/FDCAN2_INT*%
X156475000Y-69275000D03*
%TO.N,unconnected-(J1-GPIO12{slash}PWM0-Pad32)*%
X156475000Y-66735000D03*
%TO.N,unconnected-(J1-GPIO13{slash}PWM1-Pad33)*%
X159015000Y-69275000D03*
%TO.N,GND*%
X159015000Y-66735000D03*
%TO.N,unconnected-(J1-GPIO19{slash}SPI1_MISO{slash}PCM_FS-Pad35)*%
X161555000Y-69275000D03*
%TO.N,unconnected-(J1-GPIO16{slash}SPI1_~{CE2}-Pad36)*%
X161555000Y-66735000D03*
%TO.N,unconnected-(J1-GPIO26{slash}SDIO_DAT2-Pad37)*%
X164095000Y-69275000D03*
%TO.N,/ADD_LED*%
X164095000Y-66735000D03*
%TO.N,GND*%
X166635000Y-69275000D03*
%TO.N,unconnected-(J1-GPIO21{slash}SPI1_SCLK{slash}PCM_DOUT-Pad40)*%
X166635000Y-66735000D03*
%TD*%
D10*
%TO.N,GND*%
%TO.C,H2*%
X169475000Y-68000000D03*
X170068109Y-66568109D03*
X170068109Y-69431891D03*
X171500000Y-65975000D03*
D11*
X171500000Y-68000000D03*
D10*
X171500000Y-70025000D03*
X172931891Y-66568109D03*
X172931891Y-69431891D03*
X173525000Y-68000000D03*
%TD*%
%TO.N,GND*%
%TO.C,H3*%
X111475000Y-117000000D03*
X112068109Y-115568109D03*
X112068109Y-118431891D03*
X113500000Y-114975000D03*
D11*
X113500000Y-117000000D03*
D10*
X113500000Y-119025000D03*
X114931891Y-115568109D03*
X114931891Y-118431891D03*
X115525000Y-117000000D03*
%TD*%
D16*
%TO.N,GND*%
X123750000Y-110050000D03*
X114000000Y-95500000D03*
X114000000Y-92500000D03*
X111500000Y-95500000D03*
X115000000Y-94076000D03*
%TO.N,+3V3*%
X127000000Y-96000000D03*
%TO.N,GND*%
X112000000Y-103000000D03*
X111000000Y-103000000D03*
X111000000Y-104000000D03*
X112000000Y-104000000D03*
X111000000Y-105000000D03*
X112000000Y-105000000D03*
X132000000Y-104000000D03*
X153500000Y-114400000D03*
X118000000Y-98000000D03*
X167500000Y-114500000D03*
X113000000Y-105000000D03*
X131000000Y-118000000D03*
X140500000Y-110500000D03*
X153200000Y-117600000D03*
X132000000Y-106500000D03*
X139500000Y-79500000D03*
X132000000Y-101500000D03*
X137000000Y-89000000D03*
X113000000Y-103000000D03*
X132500000Y-102700000D03*
X136000000Y-75000000D03*
X164250000Y-115950000D03*
X165100000Y-80600000D03*
X156000000Y-99000000D03*
X143500000Y-96000000D03*
X174000000Y-114500000D03*
X117500000Y-118500000D03*
X143500000Y-111500000D03*
X167500000Y-87500000D03*
X157500000Y-102500000D03*
X159800000Y-117700000D03*
X144500000Y-76500000D03*
X161500000Y-96000000D03*
X116000000Y-76000000D03*
X124500000Y-85000000D03*
X142500000Y-75000000D03*
X112000000Y-109510000D03*
X118000000Y-105000000D03*
X140600000Y-105500000D03*
X168500000Y-77500000D03*
X144500000Y-102500000D03*
X116500000Y-86000000D03*
X168500000Y-80000000D03*
X146800000Y-117600000D03*
X167500000Y-92000000D03*
X174000000Y-87500000D03*
X168500000Y-74500000D03*
X172650000Y-103700000D03*
X167500000Y-105500000D03*
X118750000Y-94800000D03*
X143100000Y-80500000D03*
X130200000Y-114300000D03*
X119500000Y-117000000D03*
X156500000Y-114500000D03*
X117500000Y-115500000D03*
X117800000Y-108600000D03*
X154100000Y-105500000D03*
X157000000Y-103500000D03*
X156000000Y-76500000D03*
X143500000Y-102500000D03*
X142500000Y-76000000D03*
X169750000Y-87750000D03*
X119500000Y-118500000D03*
X174000000Y-101000000D03*
X128000000Y-97100000D03*
X131500000Y-96800000D03*
X169750000Y-96250000D03*
X174000000Y-92000000D03*
X153500000Y-110500000D03*
X166500000Y-76500000D03*
X174000000Y-105500000D03*
X113000000Y-76000000D03*
X149000000Y-99000000D03*
X161500000Y-79460000D03*
X144000000Y-103500000D03*
X174000000Y-83000000D03*
X125500000Y-94000000D03*
X172650000Y-86700000D03*
X174000000Y-110000000D03*
X167500000Y-96500000D03*
X123500000Y-97500000D03*
X111000000Y-86000000D03*
X167500000Y-78500000D03*
X113000000Y-104000000D03*
X111400000Y-99000000D03*
X166200000Y-117700000D03*
X111500000Y-92500000D03*
X115500000Y-83000000D03*
X118000000Y-103000000D03*
X115500000Y-86000000D03*
X136500000Y-118000000D03*
X174000000Y-96500000D03*
X156500000Y-102500000D03*
X167500000Y-101000000D03*
X117500000Y-117000000D03*
X167500000Y-83000000D03*
X151250000Y-115950000D03*
X156500000Y-111500000D03*
X158000000Y-75000000D03*
X173500000Y-78500000D03*
X111000000Y-83000000D03*
X137000000Y-82000000D03*
X164500000Y-75000000D03*
X125500000Y-95000000D03*
X149000000Y-76500000D03*
X143500000Y-114500000D03*
X169750000Y-104750000D03*
X132500000Y-105300000D03*
X167500000Y-110000000D03*
X172650000Y-95200000D03*
X143000000Y-82500000D03*
%TO.N,+5V*%
X154700000Y-108700000D03*
X140600000Y-107000000D03*
X154224265Y-106875735D03*
X141600000Y-108800000D03*
%TO.N,/MON_SDA*%
X132000000Y-89500000D03*
%TO.N,/RTK_RXD*%
X133650000Y-117500000D03*
%TO.N,/FDCAN2_CS*%
X150000000Y-72500000D03*
%TO.N,/RTK_PPS*%
X132400000Y-116000000D03*
%TO.N,/FDCAN2_INT*%
X160900000Y-77520859D03*
%TO.N,/RTK_TXD*%
X134900000Y-117500000D03*
%TO.N,+3V3*%
X130500000Y-94000000D03*
X120000000Y-99000000D03*
X118600000Y-96362500D03*
X121500000Y-93500000D03*
X127500000Y-95000000D03*
X128000000Y-115000000D03*
X131000000Y-92000000D03*
X159500000Y-109500000D03*
X126000000Y-115000000D03*
X146500000Y-109500000D03*
X136400000Y-71500000D03*
X127000000Y-114000000D03*
X157000000Y-73000000D03*
X128000000Y-114000000D03*
X127000000Y-115000000D03*
X126000000Y-114000000D03*
X131500000Y-94000000D03*
X125200000Y-118000000D03*
%TO.N,/MON_SCL*%
X133000000Y-89500000D03*
%TO.N,/FDCAN1_INT*%
X138880000Y-77500000D03*
X143000000Y-73000000D03*
X154000000Y-73000000D03*
%TO.N,/FDCAN/SPI0_MISO*%
X141500000Y-70700000D03*
X138818750Y-70700000D03*
%TO.N,/FDCAN/SPI0_SCK*%
X140118750Y-71800000D03*
%TO.N,/FDCAN/FDCAN1_RX*%
X140000000Y-83500000D03*
X140000000Y-81000000D03*
%TO.N,/FDCAN/FDCAN2_RX*%
X163000000Y-82800000D03*
X163000000Y-81000000D03*
%TD*%
%TA.AperFunction,Conductor*%
%TO.N,GND*%
G36*
X172002992Y-64500681D02*
G01*
X172295309Y-64518362D01*
X172307164Y-64519802D01*
X172592281Y-64572051D01*
X172603883Y-64574911D01*
X172880623Y-64661147D01*
X172891786Y-64665380D01*
X173156119Y-64784347D01*
X173166704Y-64789903D01*
X173414758Y-64939856D01*
X173424583Y-64946638D01*
X173652755Y-65125399D01*
X173661704Y-65133326D01*
X173866673Y-65338295D01*
X173874600Y-65347244D01*
X173995481Y-65501538D01*
X174053356Y-65575409D01*
X174060145Y-65585245D01*
X174110928Y-65669250D01*
X174210096Y-65833295D01*
X174215652Y-65843880D01*
X174334616Y-66108206D01*
X174338855Y-66119384D01*
X174425087Y-66396113D01*
X174427948Y-66407721D01*
X174480196Y-66692828D01*
X174481637Y-66704695D01*
X174499319Y-66997006D01*
X174499500Y-67002984D01*
X174499500Y-117497015D01*
X174499319Y-117502993D01*
X174481637Y-117795304D01*
X174480196Y-117807171D01*
X174427948Y-118092278D01*
X174425087Y-118103886D01*
X174338855Y-118380615D01*
X174334616Y-118391793D01*
X174215652Y-118656119D01*
X174210096Y-118666704D01*
X174060147Y-118914751D01*
X174053356Y-118924590D01*
X173874600Y-119152755D01*
X173866673Y-119161704D01*
X173661704Y-119366673D01*
X173652755Y-119374600D01*
X173424590Y-119553356D01*
X173414751Y-119560147D01*
X173166704Y-119710096D01*
X173156119Y-119715652D01*
X172891793Y-119834616D01*
X172880615Y-119838855D01*
X172603886Y-119925087D01*
X172592278Y-119927948D01*
X172307171Y-119980196D01*
X172295304Y-119981637D01*
X172023993Y-119998048D01*
X172002991Y-119999319D01*
X171997015Y-119999500D01*
X113002985Y-119999500D01*
X112997008Y-119999319D01*
X112973564Y-119997900D01*
X112704695Y-119981637D01*
X112692828Y-119980196D01*
X112407721Y-119927948D01*
X112396113Y-119925087D01*
X112119384Y-119838855D01*
X112108206Y-119834616D01*
X111843880Y-119715652D01*
X111833295Y-119710096D01*
X111585248Y-119560147D01*
X111575413Y-119553358D01*
X111347244Y-119374600D01*
X111338295Y-119366673D01*
X111133326Y-119161704D01*
X111125399Y-119152755D01*
X110946638Y-118924583D01*
X110939856Y-118914758D01*
X110789903Y-118666704D01*
X110784347Y-118656119D01*
X110665380Y-118391786D01*
X110661147Y-118380623D01*
X110574911Y-118103883D01*
X110572051Y-118092278D01*
X110555232Y-118000500D01*
X110543065Y-117934108D01*
X124699500Y-117934108D01*
X124699500Y-118065892D01*
X124729579Y-118178151D01*
X124733609Y-118193190D01*
X124799496Y-118307309D01*
X124799498Y-118307311D01*
X124799500Y-118307314D01*
X124892686Y-118400500D01*
X124892688Y-118400501D01*
X124892690Y-118400503D01*
X125006810Y-118466390D01*
X125006808Y-118466390D01*
X125006812Y-118466391D01*
X125006814Y-118466392D01*
X125134108Y-118500500D01*
X125134110Y-118500500D01*
X125265890Y-118500500D01*
X125265892Y-118500500D01*
X125393186Y-118466392D01*
X125393188Y-118466390D01*
X125393190Y-118466390D01*
X125507309Y-118400503D01*
X125507309Y-118400502D01*
X125507314Y-118400500D01*
X125600500Y-118307314D01*
X125666392Y-118193186D01*
X125700500Y-118065892D01*
X125700500Y-117934108D01*
X125666392Y-117806814D01*
X125666390Y-117806811D01*
X125666390Y-117806809D01*
X125600503Y-117692690D01*
X125600501Y-117692688D01*
X125600500Y-117692686D01*
X125507314Y-117599500D01*
X125507311Y-117599498D01*
X125507309Y-117599496D01*
X125393189Y-117533609D01*
X125393191Y-117533609D01*
X125378722Y-117529732D01*
X125265892Y-117499500D01*
X125134108Y-117499500D01*
X125056200Y-117520375D01*
X125006809Y-117533609D01*
X124892690Y-117599496D01*
X124799496Y-117692690D01*
X124733609Y-117806809D01*
X124733608Y-117806814D01*
X124699500Y-117934108D01*
X110543065Y-117934108D01*
X110519802Y-117807164D01*
X110518362Y-117795303D01*
X110512185Y-117693190D01*
X110500681Y-117502992D01*
X110500500Y-117497015D01*
X110500500Y-117434108D01*
X133149500Y-117434108D01*
X133149500Y-117565892D01*
X133177923Y-117671969D01*
X133183609Y-117693190D01*
X133249496Y-117807309D01*
X133249498Y-117807311D01*
X133249500Y-117807314D01*
X133342686Y-117900500D01*
X133342688Y-117900501D01*
X133342690Y-117900503D01*
X133456810Y-117966390D01*
X133456808Y-117966390D01*
X133456812Y-117966391D01*
X133456814Y-117966392D01*
X133584108Y-118000500D01*
X133584110Y-118000500D01*
X133715890Y-118000500D01*
X133715892Y-118000500D01*
X133843186Y-117966392D01*
X133843188Y-117966390D01*
X133843190Y-117966390D01*
X133957309Y-117900503D01*
X133957309Y-117900502D01*
X133957314Y-117900500D01*
X134050500Y-117807314D01*
X134116392Y-117693186D01*
X134150500Y-117565892D01*
X134150500Y-117434108D01*
X134399500Y-117434108D01*
X134399500Y-117565892D01*
X134427923Y-117671969D01*
X134433609Y-117693190D01*
X134499496Y-117807309D01*
X134499498Y-117807311D01*
X134499500Y-117807314D01*
X134592686Y-117900500D01*
X134592688Y-117900501D01*
X134592690Y-117900503D01*
X134706810Y-117966390D01*
X134706808Y-117966390D01*
X134706812Y-117966391D01*
X134706814Y-117966392D01*
X134834108Y-118000500D01*
X134834110Y-118000500D01*
X134965890Y-118000500D01*
X134965892Y-118000500D01*
X135093186Y-117966392D01*
X135093188Y-117966390D01*
X135093190Y-117966390D01*
X135207309Y-117900503D01*
X135207309Y-117900502D01*
X135207314Y-117900500D01*
X135300500Y-117807314D01*
X135366392Y-117693186D01*
X135400500Y-117565892D01*
X135400500Y-117434108D01*
X135366392Y-117306814D01*
X135366390Y-117306811D01*
X135366390Y-117306809D01*
X135300503Y-117192690D01*
X135300501Y-117192688D01*
X135300500Y-117192686D01*
X135207314Y-117099500D01*
X135207311Y-117099498D01*
X135207309Y-117099496D01*
X135093189Y-117033609D01*
X135093191Y-117033609D01*
X135043799Y-117020375D01*
X134965892Y-116999500D01*
X134834108Y-116999500D01*
X134756200Y-117020375D01*
X134706809Y-117033609D01*
X134592690Y-117099496D01*
X134499496Y-117192690D01*
X134433609Y-117306809D01*
X134433608Y-117306814D01*
X134399500Y-117434108D01*
X134150500Y-117434108D01*
X134116392Y-117306814D01*
X134116390Y-117306811D01*
X134116390Y-117306809D01*
X134050503Y-117192690D01*
X134050501Y-117192688D01*
X134050500Y-117192686D01*
X133957314Y-117099500D01*
X133957311Y-117099498D01*
X133957309Y-117099496D01*
X133843189Y-117033609D01*
X133843191Y-117033609D01*
X133793799Y-117020375D01*
X133715892Y-116999500D01*
X133584108Y-116999500D01*
X133506200Y-117020375D01*
X133456809Y-117033609D01*
X133342690Y-117099496D01*
X133249496Y-117192690D01*
X133183609Y-117306809D01*
X133183608Y-117306814D01*
X133149500Y-117434108D01*
X110500500Y-117434108D01*
X110500500Y-115934108D01*
X131899500Y-115934108D01*
X131899500Y-116065892D01*
X131929579Y-116178151D01*
X131933609Y-116193190D01*
X131999496Y-116307309D01*
X131999498Y-116307311D01*
X131999500Y-116307314D01*
X132092686Y-116400500D01*
X132092688Y-116400501D01*
X132092690Y-116400503D01*
X132206810Y-116466390D01*
X132206808Y-116466390D01*
X132206812Y-116466391D01*
X132206814Y-116466392D01*
X132334108Y-116500500D01*
X132334110Y-116500500D01*
X132465890Y-116500500D01*
X132465892Y-116500500D01*
X132593186Y-116466392D01*
X132593188Y-116466390D01*
X132593190Y-116466390D01*
X132707309Y-116400503D01*
X132707309Y-116400502D01*
X132707314Y-116400500D01*
X132800500Y-116307314D01*
X132866392Y-116193186D01*
X132900500Y-116065892D01*
X132900500Y-115934108D01*
X132866392Y-115806814D01*
X132866390Y-115806811D01*
X132866390Y-115806809D01*
X132800503Y-115692690D01*
X132800501Y-115692688D01*
X132800500Y-115692686D01*
X132707314Y-115599500D01*
X132707311Y-115599498D01*
X132707309Y-115599496D01*
X132593189Y-115533609D01*
X132593191Y-115533609D01*
X132543799Y-115520375D01*
X132465892Y-115499500D01*
X132334108Y-115499500D01*
X132256200Y-115520375D01*
X132206809Y-115533609D01*
X132092690Y-115599496D01*
X131999496Y-115692690D01*
X131933609Y-115806809D01*
X131933608Y-115806814D01*
X131899500Y-115934108D01*
X110500500Y-115934108D01*
X110500500Y-113934108D01*
X125499500Y-113934108D01*
X125499500Y-114065892D01*
X125529579Y-114178151D01*
X125533609Y-114193190D01*
X125599496Y-114307309D01*
X125599498Y-114307311D01*
X125599500Y-114307314D01*
X125692686Y-114400500D01*
X125692688Y-114400501D01*
X125716525Y-114414264D01*
X125757465Y-114459734D01*
X125763860Y-114520584D01*
X125733267Y-114573572D01*
X125716525Y-114585736D01*
X125692688Y-114599498D01*
X125599496Y-114692690D01*
X125533609Y-114806809D01*
X125533608Y-114806814D01*
X125499500Y-114934108D01*
X125499500Y-115065892D01*
X125529579Y-115178151D01*
X125533609Y-115193190D01*
X125599496Y-115307309D01*
X125599498Y-115307311D01*
X125599500Y-115307314D01*
X125692686Y-115400500D01*
X125692688Y-115400501D01*
X125692690Y-115400503D01*
X125806810Y-115466390D01*
X125806808Y-115466390D01*
X125806812Y-115466391D01*
X125806814Y-115466392D01*
X125934108Y-115500500D01*
X125934110Y-115500500D01*
X126065890Y-115500500D01*
X126065892Y-115500500D01*
X126193186Y-115466392D01*
X126193188Y-115466390D01*
X126193190Y-115466390D01*
X126307309Y-115400503D01*
X126307309Y-115400502D01*
X126307314Y-115400500D01*
X126400500Y-115307314D01*
X126414264Y-115283474D01*
X126459733Y-115242534D01*
X126520583Y-115236138D01*
X126573571Y-115266731D01*
X126585734Y-115283471D01*
X126599500Y-115307314D01*
X126692686Y-115400500D01*
X126692688Y-115400501D01*
X126692690Y-115400503D01*
X126806810Y-115466390D01*
X126806808Y-115466390D01*
X126806812Y-115466391D01*
X126806814Y-115466392D01*
X126934108Y-115500500D01*
X126934110Y-115500500D01*
X127065890Y-115500500D01*
X127065892Y-115500500D01*
X127193186Y-115466392D01*
X127193188Y-115466390D01*
X127193190Y-115466390D01*
X127307309Y-115400503D01*
X127307309Y-115400502D01*
X127307314Y-115400500D01*
X127400500Y-115307314D01*
X127414264Y-115283474D01*
X127459733Y-115242534D01*
X127520583Y-115236138D01*
X127573571Y-115266731D01*
X127585734Y-115283471D01*
X127599500Y-115307314D01*
X127692686Y-115400500D01*
X127692688Y-115400501D01*
X127692690Y-115400503D01*
X127806810Y-115466390D01*
X127806808Y-115466390D01*
X127806812Y-115466391D01*
X127806814Y-115466392D01*
X127934108Y-115500500D01*
X127934110Y-115500500D01*
X128065890Y-115500500D01*
X128065892Y-115500500D01*
X128193186Y-115466392D01*
X128193188Y-115466390D01*
X128193190Y-115466390D01*
X128307309Y-115400503D01*
X128307309Y-115400502D01*
X128307314Y-115400500D01*
X128400500Y-115307314D01*
X128400503Y-115307309D01*
X128466390Y-115193190D01*
X128466390Y-115193188D01*
X128466392Y-115193186D01*
X128500500Y-115065892D01*
X128500500Y-114934108D01*
X128466392Y-114806814D01*
X128466390Y-114806811D01*
X128466390Y-114806809D01*
X128400503Y-114692690D01*
X128400501Y-114692688D01*
X128400500Y-114692686D01*
X128307314Y-114599500D01*
X128283474Y-114585735D01*
X128242534Y-114540267D01*
X128236138Y-114479417D01*
X128266731Y-114426429D01*
X128283474Y-114414264D01*
X128307314Y-114400500D01*
X128400500Y-114307314D01*
X128400503Y-114307309D01*
X128466390Y-114193190D01*
X128466390Y-114193188D01*
X128466392Y-114193186D01*
X128500500Y-114065892D01*
X128500500Y-113934108D01*
X128466392Y-113806814D01*
X128466390Y-113806811D01*
X128466390Y-113806809D01*
X128400503Y-113692690D01*
X128400501Y-113692688D01*
X128400500Y-113692686D01*
X128307314Y-113599500D01*
X128307311Y-113599498D01*
X128307309Y-113599496D01*
X128193189Y-113533609D01*
X128193191Y-113533609D01*
X128143799Y-113520375D01*
X128065892Y-113499500D01*
X127934108Y-113499500D01*
X127856200Y-113520375D01*
X127806809Y-113533609D01*
X127692690Y-113599496D01*
X127599498Y-113692688D01*
X127585736Y-113716525D01*
X127540266Y-113757465D01*
X127479416Y-113763860D01*
X127426428Y-113733267D01*
X127414264Y-113716525D01*
X127400501Y-113692688D01*
X127400500Y-113692686D01*
X127307314Y-113599500D01*
X127307311Y-113599498D01*
X127307309Y-113599496D01*
X127193189Y-113533609D01*
X127193191Y-113533609D01*
X127143799Y-113520375D01*
X127065892Y-113499500D01*
X126934108Y-113499500D01*
X126856200Y-113520375D01*
X126806809Y-113533609D01*
X126692690Y-113599496D01*
X126599498Y-113692688D01*
X126585736Y-113716525D01*
X126540266Y-113757465D01*
X126479416Y-113763860D01*
X126426428Y-113733267D01*
X126414264Y-113716525D01*
X126400501Y-113692688D01*
X126400500Y-113692686D01*
X126307314Y-113599500D01*
X126307311Y-113599498D01*
X126307309Y-113599496D01*
X126193189Y-113533609D01*
X126193191Y-113533609D01*
X126143799Y-113520375D01*
X126065892Y-113499500D01*
X125934108Y-113499500D01*
X125856200Y-113520375D01*
X125806809Y-113533609D01*
X125692690Y-113599496D01*
X125599496Y-113692690D01*
X125533609Y-113806809D01*
X125533608Y-113806814D01*
X125499500Y-113934108D01*
X110500500Y-113934108D01*
X110500500Y-109434108D01*
X145999500Y-109434108D01*
X145999500Y-109565892D01*
X146029579Y-109678151D01*
X146033609Y-109693190D01*
X146099496Y-109807309D01*
X146099498Y-109807311D01*
X146099500Y-109807314D01*
X146192686Y-109900500D01*
X146192688Y-109900501D01*
X146192690Y-109900503D01*
X146306810Y-109966390D01*
X146306808Y-109966390D01*
X146306812Y-109966391D01*
X146306814Y-109966392D01*
X146434108Y-110000500D01*
X146434110Y-110000500D01*
X146565890Y-110000500D01*
X146565892Y-110000500D01*
X146693186Y-109966392D01*
X146693188Y-109966390D01*
X146693190Y-109966390D01*
X146807309Y-109900503D01*
X146807309Y-109900502D01*
X146807314Y-109900500D01*
X146900500Y-109807314D01*
X146966392Y-109693186D01*
X147000500Y-109565892D01*
X147000500Y-109434108D01*
X158999500Y-109434108D01*
X158999500Y-109565892D01*
X159029579Y-109678151D01*
X159033609Y-109693190D01*
X159099496Y-109807309D01*
X159099498Y-109807311D01*
X159099500Y-109807314D01*
X159192686Y-109900500D01*
X159192688Y-109900501D01*
X159192690Y-109900503D01*
X159306810Y-109966390D01*
X159306808Y-109966390D01*
X159306812Y-109966391D01*
X159306814Y-109966392D01*
X159434108Y-110000500D01*
X159434110Y-110000500D01*
X159565890Y-110000500D01*
X159565892Y-110000500D01*
X159693186Y-109966392D01*
X159693188Y-109966390D01*
X159693190Y-109966390D01*
X159807309Y-109900503D01*
X159807309Y-109900502D01*
X159807314Y-109900500D01*
X159900500Y-109807314D01*
X159966392Y-109693186D01*
X160000500Y-109565892D01*
X160000500Y-109434108D01*
X159966392Y-109306814D01*
X159966390Y-109306811D01*
X159966390Y-109306809D01*
X159900503Y-109192690D01*
X159900501Y-109192688D01*
X159900500Y-109192686D01*
X159807314Y-109099500D01*
X159807311Y-109099498D01*
X159807309Y-109099496D01*
X159693189Y-109033609D01*
X159693191Y-109033609D01*
X159643799Y-109020375D01*
X159565892Y-108999500D01*
X159434108Y-108999500D01*
X159356200Y-109020375D01*
X159306809Y-109033609D01*
X159192690Y-109099496D01*
X159099496Y-109192690D01*
X159033609Y-109306809D01*
X159033608Y-109306814D01*
X158999500Y-109434108D01*
X147000500Y-109434108D01*
X146966392Y-109306814D01*
X146966390Y-109306811D01*
X146966390Y-109306809D01*
X146900503Y-109192690D01*
X146900501Y-109192688D01*
X146900500Y-109192686D01*
X146807314Y-109099500D01*
X146807311Y-109099498D01*
X146807309Y-109099496D01*
X146693189Y-109033609D01*
X146693191Y-109033609D01*
X146643799Y-109020375D01*
X146565892Y-108999500D01*
X146434108Y-108999500D01*
X146356200Y-109020375D01*
X146306809Y-109033609D01*
X146192690Y-109099496D01*
X146099496Y-109192690D01*
X146033609Y-109306809D01*
X146033608Y-109306814D01*
X145999500Y-109434108D01*
X110500500Y-109434108D01*
X110500500Y-108734108D01*
X141099500Y-108734108D01*
X141099500Y-108865892D01*
X141129579Y-108978151D01*
X141133609Y-108993190D01*
X141199496Y-109107309D01*
X141199498Y-109107311D01*
X141199500Y-109107314D01*
X141292686Y-109200500D01*
X141292688Y-109200501D01*
X141292690Y-109200503D01*
X141406810Y-109266390D01*
X141406808Y-109266390D01*
X141406812Y-109266391D01*
X141406814Y-109266392D01*
X141534108Y-109300500D01*
X141534110Y-109300500D01*
X141665890Y-109300500D01*
X141665892Y-109300500D01*
X141793186Y-109266392D01*
X141793188Y-109266390D01*
X141793190Y-109266390D01*
X141907309Y-109200503D01*
X141907309Y-109200502D01*
X141907314Y-109200500D01*
X142000500Y-109107314D01*
X142004434Y-109100500D01*
X142066390Y-108993190D01*
X142066390Y-108993188D01*
X142066392Y-108993186D01*
X142100500Y-108865892D01*
X142100500Y-108734108D01*
X142073705Y-108634108D01*
X154199500Y-108634108D01*
X154199500Y-108765892D01*
X154226294Y-108865890D01*
X154233609Y-108893190D01*
X154299496Y-109007309D01*
X154299498Y-109007311D01*
X154299500Y-109007314D01*
X154392686Y-109100500D01*
X154392688Y-109100501D01*
X154392690Y-109100503D01*
X154506810Y-109166390D01*
X154506808Y-109166390D01*
X154506812Y-109166391D01*
X154506814Y-109166392D01*
X154634108Y-109200500D01*
X154634110Y-109200500D01*
X154765890Y-109200500D01*
X154765892Y-109200500D01*
X154893186Y-109166392D01*
X154893188Y-109166390D01*
X154893190Y-109166390D01*
X155007309Y-109100503D01*
X155007309Y-109100502D01*
X155007314Y-109100500D01*
X155100500Y-109007314D01*
X155100503Y-109007309D01*
X155166390Y-108893190D01*
X155166390Y-108893188D01*
X155166392Y-108893186D01*
X155200500Y-108765892D01*
X155200500Y-108634108D01*
X155166392Y-108506814D01*
X155166390Y-108506811D01*
X155166390Y-108506809D01*
X155100503Y-108392690D01*
X155100501Y-108392688D01*
X155100500Y-108392686D01*
X155007314Y-108299500D01*
X155007311Y-108299498D01*
X155007309Y-108299496D01*
X154893189Y-108233609D01*
X154893191Y-108233609D01*
X154843799Y-108220375D01*
X154765892Y-108199500D01*
X154634108Y-108199500D01*
X154556200Y-108220375D01*
X154506809Y-108233609D01*
X154392690Y-108299496D01*
X154299496Y-108392690D01*
X154233609Y-108506809D01*
X154233608Y-108506814D01*
X154199500Y-108634108D01*
X142073705Y-108634108D01*
X142066392Y-108606814D01*
X142066390Y-108606811D01*
X142066390Y-108606809D01*
X142000503Y-108492690D01*
X142000501Y-108492688D01*
X142000500Y-108492686D01*
X141907314Y-108399500D01*
X141907311Y-108399498D01*
X141907309Y-108399496D01*
X141793189Y-108333609D01*
X141793191Y-108333609D01*
X141743799Y-108320375D01*
X141665892Y-108299500D01*
X141534108Y-108299500D01*
X141456200Y-108320375D01*
X141406809Y-108333609D01*
X141292690Y-108399496D01*
X141199496Y-108492690D01*
X141133609Y-108606809D01*
X141126294Y-108634109D01*
X141099500Y-108734108D01*
X110500500Y-108734108D01*
X110500500Y-106934108D01*
X140099500Y-106934108D01*
X140099500Y-107065892D01*
X140100312Y-107068921D01*
X140133609Y-107193190D01*
X140199496Y-107307309D01*
X140199498Y-107307311D01*
X140199500Y-107307314D01*
X140292686Y-107400500D01*
X140292688Y-107400501D01*
X140292690Y-107400503D01*
X140406810Y-107466390D01*
X140406808Y-107466390D01*
X140406812Y-107466391D01*
X140406814Y-107466392D01*
X140534108Y-107500500D01*
X140534110Y-107500500D01*
X140665890Y-107500500D01*
X140665892Y-107500500D01*
X140793186Y-107466392D01*
X140793188Y-107466390D01*
X140793190Y-107466390D01*
X140907309Y-107400503D01*
X140907309Y-107400502D01*
X140907314Y-107400500D01*
X141000500Y-107307314D01*
X141066392Y-107193186D01*
X141100500Y-107065892D01*
X141100500Y-106934108D01*
X141067204Y-106809843D01*
X153723765Y-106809843D01*
X153723765Y-106941627D01*
X153753844Y-107053886D01*
X153757874Y-107068925D01*
X153823761Y-107183044D01*
X153823763Y-107183046D01*
X153823765Y-107183049D01*
X153916951Y-107276235D01*
X153916953Y-107276236D01*
X153916955Y-107276238D01*
X154031075Y-107342125D01*
X154031073Y-107342125D01*
X154031077Y-107342126D01*
X154031079Y-107342127D01*
X154158373Y-107376235D01*
X154158375Y-107376235D01*
X154290155Y-107376235D01*
X154290157Y-107376235D01*
X154417451Y-107342127D01*
X154417453Y-107342125D01*
X154417455Y-107342125D01*
X154531574Y-107276238D01*
X154531574Y-107276237D01*
X154531579Y-107276235D01*
X154624765Y-107183049D01*
X154690657Y-107068921D01*
X154724765Y-106941627D01*
X154724765Y-106809843D01*
X154690657Y-106682549D01*
X154690655Y-106682546D01*
X154690655Y-106682544D01*
X154624768Y-106568425D01*
X154624766Y-106568423D01*
X154624765Y-106568421D01*
X154531579Y-106475235D01*
X154531576Y-106475233D01*
X154531574Y-106475231D01*
X154417454Y-106409344D01*
X154417456Y-106409344D01*
X154368064Y-106396110D01*
X154290157Y-106375235D01*
X154158373Y-106375235D01*
X154080465Y-106396110D01*
X154031074Y-106409344D01*
X153916955Y-106475231D01*
X153823761Y-106568425D01*
X153757874Y-106682544D01*
X153738804Y-106753713D01*
X153723765Y-106809843D01*
X141067204Y-106809843D01*
X141066392Y-106806814D01*
X141066390Y-106806811D01*
X141066390Y-106806809D01*
X141000503Y-106692690D01*
X141000501Y-106692688D01*
X141000500Y-106692686D01*
X140907314Y-106599500D01*
X140907311Y-106599498D01*
X140907309Y-106599496D01*
X140793189Y-106533609D01*
X140793191Y-106533609D01*
X140743799Y-106520375D01*
X140665892Y-106499500D01*
X140534108Y-106499500D01*
X140456200Y-106520375D01*
X140406809Y-106533609D01*
X140292690Y-106599496D01*
X140199496Y-106692690D01*
X140133609Y-106806809D01*
X140133608Y-106806814D01*
X140099500Y-106934108D01*
X110500500Y-106934108D01*
X110500500Y-98934108D01*
X119499500Y-98934108D01*
X119499500Y-99065892D01*
X119529579Y-99178151D01*
X119533609Y-99193190D01*
X119599496Y-99307309D01*
X119599498Y-99307311D01*
X119599500Y-99307314D01*
X119692686Y-99400500D01*
X119692688Y-99400501D01*
X119692690Y-99400503D01*
X119806810Y-99466390D01*
X119806808Y-99466390D01*
X119806812Y-99466391D01*
X119806814Y-99466392D01*
X119934108Y-99500500D01*
X119934110Y-99500500D01*
X120065890Y-99500500D01*
X120065892Y-99500500D01*
X120193186Y-99466392D01*
X120193188Y-99466390D01*
X120193190Y-99466390D01*
X120307309Y-99400503D01*
X120307309Y-99400502D01*
X120307314Y-99400500D01*
X120400500Y-99307314D01*
X120466392Y-99193186D01*
X120500500Y-99065892D01*
X120500500Y-98934108D01*
X120466392Y-98806814D01*
X120466390Y-98806811D01*
X120466390Y-98806809D01*
X120400503Y-98692690D01*
X120400501Y-98692688D01*
X120400500Y-98692686D01*
X120307314Y-98599500D01*
X120307311Y-98599498D01*
X120307309Y-98599496D01*
X120193189Y-98533609D01*
X120193191Y-98533609D01*
X120143799Y-98520375D01*
X120065892Y-98499500D01*
X119934108Y-98499500D01*
X119856200Y-98520375D01*
X119806809Y-98533609D01*
X119692690Y-98599496D01*
X119599496Y-98692690D01*
X119533609Y-98806809D01*
X119533608Y-98806814D01*
X119499500Y-98934108D01*
X110500500Y-98934108D01*
X110500500Y-96296608D01*
X118099500Y-96296608D01*
X118099500Y-96428392D01*
X118113730Y-96481500D01*
X118133609Y-96555690D01*
X118199496Y-96669809D01*
X118199498Y-96669811D01*
X118199500Y-96669814D01*
X118292686Y-96763000D01*
X118292688Y-96763001D01*
X118292690Y-96763003D01*
X118406810Y-96828890D01*
X118406808Y-96828890D01*
X118406812Y-96828891D01*
X118406814Y-96828892D01*
X118534108Y-96863000D01*
X118534110Y-96863000D01*
X118665890Y-96863000D01*
X118665892Y-96863000D01*
X118793186Y-96828892D01*
X118793188Y-96828890D01*
X118793190Y-96828890D01*
X118907309Y-96763003D01*
X118907309Y-96763002D01*
X118907314Y-96763000D01*
X119000500Y-96669814D01*
X119066392Y-96555686D01*
X119100500Y-96428392D01*
X119100500Y-96296608D01*
X119066392Y-96169314D01*
X119066390Y-96169311D01*
X119066390Y-96169309D01*
X119000503Y-96055190D01*
X119000501Y-96055188D01*
X119000500Y-96055186D01*
X118907314Y-95962000D01*
X118907311Y-95961998D01*
X118907309Y-95961996D01*
X118859005Y-95934108D01*
X126499500Y-95934108D01*
X126499500Y-96065892D01*
X126527210Y-96169309D01*
X126533609Y-96193190D01*
X126599496Y-96307309D01*
X126599498Y-96307311D01*
X126599500Y-96307314D01*
X126692686Y-96400500D01*
X126692688Y-96400501D01*
X126692690Y-96400503D01*
X126806810Y-96466390D01*
X126806808Y-96466390D01*
X126806812Y-96466391D01*
X126806814Y-96466392D01*
X126934108Y-96500500D01*
X126934110Y-96500500D01*
X127065890Y-96500500D01*
X127065892Y-96500500D01*
X127193186Y-96466392D01*
X127193188Y-96466390D01*
X127193190Y-96466390D01*
X127307309Y-96400503D01*
X127307309Y-96400502D01*
X127307314Y-96400500D01*
X127400500Y-96307314D01*
X127466392Y-96193186D01*
X127500500Y-96065892D01*
X127500500Y-95934108D01*
X127466392Y-95806814D01*
X127466390Y-95806811D01*
X127466390Y-95806809D01*
X127400503Y-95692690D01*
X127400501Y-95692688D01*
X127400500Y-95692686D01*
X127377315Y-95669501D01*
X127349540Y-95614987D01*
X127359111Y-95554555D01*
X127402376Y-95511290D01*
X127447321Y-95500500D01*
X127565890Y-95500500D01*
X127565892Y-95500500D01*
X127693186Y-95466392D01*
X127693188Y-95466390D01*
X127693190Y-95466390D01*
X127807309Y-95400503D01*
X127807309Y-95400502D01*
X127807314Y-95400500D01*
X127900500Y-95307314D01*
X127900503Y-95307309D01*
X127966390Y-95193190D01*
X127966390Y-95193188D01*
X127966392Y-95193186D01*
X128000500Y-95065892D01*
X128000500Y-94934108D01*
X127966392Y-94806814D01*
X127966390Y-94806811D01*
X127966390Y-94806809D01*
X127900503Y-94692690D01*
X127900501Y-94692688D01*
X127900500Y-94692686D01*
X127807314Y-94599500D01*
X127807311Y-94599498D01*
X127807309Y-94599496D01*
X127693189Y-94533609D01*
X127693191Y-94533609D01*
X127643799Y-94520375D01*
X127565892Y-94499500D01*
X127434108Y-94499500D01*
X127356200Y-94520375D01*
X127306809Y-94533609D01*
X127192690Y-94599496D01*
X127099496Y-94692690D01*
X127033609Y-94806809D01*
X127033608Y-94806814D01*
X126999500Y-94934108D01*
X126999500Y-95065892D01*
X127029579Y-95178151D01*
X127033609Y-95193190D01*
X127099496Y-95307309D01*
X127099498Y-95307311D01*
X127099500Y-95307314D01*
X127122684Y-95330498D01*
X127150460Y-95385013D01*
X127140889Y-95445445D01*
X127097624Y-95488710D01*
X127052679Y-95499500D01*
X126934108Y-95499500D01*
X126856200Y-95520375D01*
X126806809Y-95533609D01*
X126692690Y-95599496D01*
X126599496Y-95692690D01*
X126533609Y-95806809D01*
X126533608Y-95806814D01*
X126499500Y-95934108D01*
X118859005Y-95934108D01*
X118793189Y-95896109D01*
X118793191Y-95896109D01*
X118743799Y-95882875D01*
X118665892Y-95862000D01*
X118534108Y-95862000D01*
X118456200Y-95882875D01*
X118406809Y-95896109D01*
X118292690Y-95961996D01*
X118199496Y-96055190D01*
X118133609Y-96169309D01*
X118114539Y-96240478D01*
X118099500Y-96296608D01*
X110500500Y-96296608D01*
X110500500Y-93434108D01*
X120999500Y-93434108D01*
X120999500Y-93565892D01*
X121022035Y-93649994D01*
X121033609Y-93693190D01*
X121099496Y-93807309D01*
X121099498Y-93807311D01*
X121099500Y-93807314D01*
X121192686Y-93900500D01*
X121192688Y-93900501D01*
X121192690Y-93900503D01*
X121306810Y-93966390D01*
X121306808Y-93966390D01*
X121306812Y-93966391D01*
X121306814Y-93966392D01*
X121434108Y-94000500D01*
X121434110Y-94000500D01*
X121565890Y-94000500D01*
X121565892Y-94000500D01*
X121693186Y-93966392D01*
X121693188Y-93966390D01*
X121693190Y-93966390D01*
X121749104Y-93934108D01*
X129999500Y-93934108D01*
X129999500Y-94065892D01*
X130029579Y-94178151D01*
X130033609Y-94193190D01*
X130099496Y-94307309D01*
X130099498Y-94307311D01*
X130099500Y-94307314D01*
X130192686Y-94400500D01*
X130192688Y-94400501D01*
X130192690Y-94400503D01*
X130306810Y-94466390D01*
X130306808Y-94466390D01*
X130306812Y-94466391D01*
X130306814Y-94466392D01*
X130434108Y-94500500D01*
X130434110Y-94500500D01*
X130565890Y-94500500D01*
X130565892Y-94500500D01*
X130693186Y-94466392D01*
X130693188Y-94466390D01*
X130693190Y-94466390D01*
X130807309Y-94400503D01*
X130807309Y-94400502D01*
X130807314Y-94400500D01*
X130900500Y-94307314D01*
X130914264Y-94283474D01*
X130959733Y-94242534D01*
X131020583Y-94236138D01*
X131073571Y-94266731D01*
X131085734Y-94283471D01*
X131099500Y-94307314D01*
X131192686Y-94400500D01*
X131192688Y-94400501D01*
X131192690Y-94400503D01*
X131306810Y-94466390D01*
X131306808Y-94466390D01*
X131306812Y-94466391D01*
X131306814Y-94466392D01*
X131434108Y-94500500D01*
X131434110Y-94500500D01*
X131565890Y-94500500D01*
X131565892Y-94500500D01*
X131693186Y-94466392D01*
X131693188Y-94466390D01*
X131693190Y-94466390D01*
X131807309Y-94400503D01*
X131807309Y-94400502D01*
X131807314Y-94400500D01*
X131900500Y-94307314D01*
X131900503Y-94307309D01*
X131966390Y-94193190D01*
X131966390Y-94193188D01*
X131966392Y-94193186D01*
X132000500Y-94065892D01*
X132000500Y-93934108D01*
X131966392Y-93806814D01*
X131966390Y-93806811D01*
X131966390Y-93806809D01*
X131900503Y-93692690D01*
X131900501Y-93692688D01*
X131900500Y-93692686D01*
X131807314Y-93599500D01*
X131807311Y-93599498D01*
X131807309Y-93599496D01*
X131693189Y-93533609D01*
X131693191Y-93533609D01*
X131643799Y-93520375D01*
X131565892Y-93499500D01*
X131434108Y-93499500D01*
X131356200Y-93520375D01*
X131306809Y-93533609D01*
X131192690Y-93599496D01*
X131099498Y-93692688D01*
X131085736Y-93716525D01*
X131040266Y-93757465D01*
X130979416Y-93763860D01*
X130926428Y-93733267D01*
X130914264Y-93716525D01*
X130900501Y-93692688D01*
X130900500Y-93692686D01*
X130807314Y-93599500D01*
X130807311Y-93599498D01*
X130807309Y-93599496D01*
X130693189Y-93533609D01*
X130693191Y-93533609D01*
X130643799Y-93520375D01*
X130565892Y-93499500D01*
X130434108Y-93499500D01*
X130356200Y-93520375D01*
X130306809Y-93533609D01*
X130192690Y-93599496D01*
X130099496Y-93692690D01*
X130033609Y-93806809D01*
X130033608Y-93806814D01*
X129999500Y-93934108D01*
X121749104Y-93934108D01*
X121807309Y-93900503D01*
X121807309Y-93900502D01*
X121807314Y-93900500D01*
X121900500Y-93807314D01*
X121925588Y-93763860D01*
X121966390Y-93693190D01*
X121966390Y-93693188D01*
X121966392Y-93693186D01*
X122000500Y-93565892D01*
X122000500Y-93434108D01*
X121966392Y-93306814D01*
X121966390Y-93306811D01*
X121966390Y-93306809D01*
X121900503Y-93192690D01*
X121900501Y-93192688D01*
X121900500Y-93192686D01*
X121807314Y-93099500D01*
X121807311Y-93099498D01*
X121807309Y-93099496D01*
X121693189Y-93033609D01*
X121693191Y-93033609D01*
X121643799Y-93020375D01*
X121565892Y-92999500D01*
X121434108Y-92999500D01*
X121356200Y-93020375D01*
X121306809Y-93033609D01*
X121192690Y-93099496D01*
X121099496Y-93192690D01*
X121033609Y-93306809D01*
X121033608Y-93306814D01*
X120999500Y-93434108D01*
X110500500Y-93434108D01*
X110500500Y-91934108D01*
X130499500Y-91934108D01*
X130499500Y-92065892D01*
X130529579Y-92178151D01*
X130533609Y-92193190D01*
X130599496Y-92307309D01*
X130599498Y-92307311D01*
X130599500Y-92307314D01*
X130692686Y-92400500D01*
X130692688Y-92400501D01*
X130692690Y-92400503D01*
X130806810Y-92466390D01*
X130806808Y-92466390D01*
X130806812Y-92466391D01*
X130806814Y-92466392D01*
X130934108Y-92500500D01*
X130934110Y-92500500D01*
X131065890Y-92500500D01*
X131065892Y-92500500D01*
X131193186Y-92466392D01*
X131193188Y-92466390D01*
X131193190Y-92466390D01*
X131307309Y-92400503D01*
X131307309Y-92400502D01*
X131307314Y-92400500D01*
X131400500Y-92307314D01*
X131466392Y-92193186D01*
X131500500Y-92065892D01*
X131500500Y-91934108D01*
X131466392Y-91806814D01*
X131466390Y-91806811D01*
X131466390Y-91806809D01*
X131400503Y-91692690D01*
X131400501Y-91692688D01*
X131400500Y-91692686D01*
X131307314Y-91599500D01*
X131307311Y-91599498D01*
X131307309Y-91599496D01*
X131193189Y-91533609D01*
X131193191Y-91533609D01*
X131143799Y-91520375D01*
X131065892Y-91499500D01*
X130934108Y-91499500D01*
X130856200Y-91520375D01*
X130806809Y-91533609D01*
X130692690Y-91599496D01*
X130599496Y-91692690D01*
X130533609Y-91806809D01*
X130533608Y-91806814D01*
X130499500Y-91934108D01*
X110500500Y-91934108D01*
X110500500Y-89434108D01*
X131499500Y-89434108D01*
X131499500Y-89565892D01*
X131508820Y-89600674D01*
X131533609Y-89693190D01*
X131599496Y-89807309D01*
X131599498Y-89807311D01*
X131599500Y-89807314D01*
X131692686Y-89900500D01*
X131692688Y-89900501D01*
X131692690Y-89900503D01*
X131806810Y-89966390D01*
X131806808Y-89966390D01*
X131806812Y-89966391D01*
X131806814Y-89966392D01*
X131934108Y-90000500D01*
X131934110Y-90000500D01*
X132065890Y-90000500D01*
X132065892Y-90000500D01*
X132193186Y-89966392D01*
X132193188Y-89966390D01*
X132193190Y-89966390D01*
X132307309Y-89900503D01*
X132307309Y-89900502D01*
X132307314Y-89900500D01*
X132400500Y-89807314D01*
X132414264Y-89783474D01*
X132459733Y-89742534D01*
X132520583Y-89736138D01*
X132573571Y-89766731D01*
X132585734Y-89783471D01*
X132599500Y-89807314D01*
X132692686Y-89900500D01*
X132692688Y-89900501D01*
X132692690Y-89900503D01*
X132806810Y-89966390D01*
X132806808Y-89966390D01*
X132806812Y-89966391D01*
X132806814Y-89966392D01*
X132934108Y-90000500D01*
X132934110Y-90000500D01*
X133065890Y-90000500D01*
X133065892Y-90000500D01*
X133193186Y-89966392D01*
X133193188Y-89966390D01*
X133193190Y-89966390D01*
X133307309Y-89900503D01*
X133307309Y-89900502D01*
X133307314Y-89900500D01*
X133400500Y-89807314D01*
X133400503Y-89807309D01*
X133466390Y-89693190D01*
X133466390Y-89693188D01*
X133466392Y-89693186D01*
X133500500Y-89565892D01*
X133500500Y-89434108D01*
X133466392Y-89306814D01*
X133466390Y-89306811D01*
X133466390Y-89306809D01*
X133400503Y-89192690D01*
X133400501Y-89192688D01*
X133400500Y-89192686D01*
X133307314Y-89099500D01*
X133307311Y-89099498D01*
X133307309Y-89099496D01*
X133193189Y-89033609D01*
X133193191Y-89033609D01*
X133143799Y-89020375D01*
X133065892Y-88999500D01*
X132934108Y-88999500D01*
X132856200Y-89020375D01*
X132806809Y-89033609D01*
X132692690Y-89099496D01*
X132599498Y-89192688D01*
X132585736Y-89216525D01*
X132540266Y-89257465D01*
X132479416Y-89263860D01*
X132426428Y-89233267D01*
X132414264Y-89216525D01*
X132400501Y-89192688D01*
X132400500Y-89192686D01*
X132307314Y-89099500D01*
X132307311Y-89099498D01*
X132307309Y-89099496D01*
X132193189Y-89033609D01*
X132193191Y-89033609D01*
X132143799Y-89020375D01*
X132065892Y-88999500D01*
X131934108Y-88999500D01*
X131856200Y-89020375D01*
X131806809Y-89033609D01*
X131692690Y-89099496D01*
X131599496Y-89192690D01*
X131533609Y-89306809D01*
X131533608Y-89306814D01*
X131499500Y-89434108D01*
X110500500Y-89434108D01*
X110500500Y-87702696D01*
X142309500Y-87702696D01*
X142309500Y-88337303D01*
X142347813Y-88970696D01*
X142347815Y-88970722D01*
X142424304Y-89600675D01*
X142538686Y-90224832D01*
X142538695Y-90224877D01*
X142623987Y-90570918D01*
X142690558Y-90841006D01*
X142879348Y-91446856D01*
X143104375Y-92040202D01*
X143104380Y-92040213D01*
X143104381Y-92040216D01*
X143173229Y-92193190D01*
X143364816Y-92618878D01*
X143659722Y-93180774D01*
X143659730Y-93180788D01*
X143659739Y-93180803D01*
X143988002Y-93723817D01*
X143988030Y-93723862D01*
X144346045Y-94242534D01*
X144348500Y-94246090D01*
X144739859Y-94745623D01*
X145160666Y-95220616D01*
X145609384Y-95669334D01*
X146084377Y-96090141D01*
X146583910Y-96481500D01*
X146583934Y-96481517D01*
X146583936Y-96481518D01*
X147106137Y-96841969D01*
X147106155Y-96841980D01*
X147106162Y-96841985D01*
X147649226Y-97170278D01*
X148211122Y-97465184D01*
X148789798Y-97725625D01*
X149383144Y-97950652D01*
X149988994Y-98139442D01*
X150605138Y-98291308D01*
X150893390Y-98344132D01*
X151229324Y-98405695D01*
X151526765Y-98441810D01*
X151859283Y-98482185D01*
X152492696Y-98520499D01*
X152492697Y-98520500D01*
X152492708Y-98520500D01*
X153127303Y-98520500D01*
X153127303Y-98520499D01*
X153760717Y-98482185D01*
X154241954Y-98423752D01*
X154390675Y-98405695D01*
X154558641Y-98374913D01*
X155014862Y-98291308D01*
X155631006Y-98139442D01*
X156236856Y-97950652D01*
X156830202Y-97725625D01*
X157408878Y-97465184D01*
X157970774Y-97170278D01*
X158513838Y-96841985D01*
X158513853Y-96841974D01*
X158513862Y-96841969D01*
X158763278Y-96669809D01*
X159036090Y-96481500D01*
X159535623Y-96090141D01*
X160010616Y-95669334D01*
X160459334Y-95220616D01*
X160880141Y-94745623D01*
X161271500Y-94246090D01*
X161510042Y-93900503D01*
X161631969Y-93723862D01*
X161631974Y-93723853D01*
X161631985Y-93723838D01*
X161960278Y-93180774D01*
X162255184Y-92618878D01*
X162515625Y-92040202D01*
X162740652Y-91446856D01*
X162929442Y-90841006D01*
X163081308Y-90224862D01*
X163195695Y-89600674D01*
X163272185Y-88970717D01*
X163310499Y-88337303D01*
X163310500Y-88337303D01*
X163310500Y-87702697D01*
X163310499Y-87702696D01*
X163272186Y-87069303D01*
X163272185Y-87069283D01*
X163195695Y-86439326D01*
X163081308Y-85815138D01*
X162929442Y-85198994D01*
X162740652Y-84593144D01*
X162515625Y-83999798D01*
X162255184Y-83421122D01*
X161960278Y-82859226D01*
X161960267Y-82859209D01*
X161960260Y-82859195D01*
X161911681Y-82778835D01*
X161884643Y-82734108D01*
X162499500Y-82734108D01*
X162499500Y-82865892D01*
X162529579Y-82978151D01*
X162533609Y-82993190D01*
X162599496Y-83107309D01*
X162599498Y-83107311D01*
X162599500Y-83107314D01*
X162692686Y-83200500D01*
X162692688Y-83200501D01*
X162692690Y-83200503D01*
X162806810Y-83266390D01*
X162806808Y-83266390D01*
X162806812Y-83266391D01*
X162806814Y-83266392D01*
X162934108Y-83300500D01*
X162934110Y-83300500D01*
X163065890Y-83300500D01*
X163065892Y-83300500D01*
X163193186Y-83266392D01*
X163193188Y-83266390D01*
X163193190Y-83266390D01*
X163307309Y-83200503D01*
X163307309Y-83200502D01*
X163307314Y-83200500D01*
X163400500Y-83107314D01*
X163400503Y-83107309D01*
X163466390Y-82993190D01*
X163466390Y-82993188D01*
X163466392Y-82993186D01*
X163500500Y-82865892D01*
X163500500Y-82734108D01*
X163466392Y-82606814D01*
X163466390Y-82606811D01*
X163466390Y-82606809D01*
X163400503Y-82492690D01*
X163400501Y-82492688D01*
X163400500Y-82492686D01*
X163307314Y-82399500D01*
X163307311Y-82399498D01*
X163307309Y-82399496D01*
X163193189Y-82333609D01*
X163193191Y-82333609D01*
X163143799Y-82320375D01*
X163065892Y-82299500D01*
X162934108Y-82299500D01*
X162856200Y-82320375D01*
X162806809Y-82333609D01*
X162692690Y-82399496D01*
X162599496Y-82492690D01*
X162533609Y-82606809D01*
X162533608Y-82606814D01*
X162499500Y-82734108D01*
X161884643Y-82734108D01*
X161631997Y-82316182D01*
X161631969Y-82316137D01*
X161271518Y-81793936D01*
X161271517Y-81793934D01*
X161271500Y-81793910D01*
X160880141Y-81294377D01*
X160560971Y-80934108D01*
X162499500Y-80934108D01*
X162499500Y-81065892D01*
X162509450Y-81103025D01*
X162533609Y-81193190D01*
X162599496Y-81307309D01*
X162599498Y-81307311D01*
X162599500Y-81307314D01*
X162692686Y-81400500D01*
X162692688Y-81400501D01*
X162692690Y-81400503D01*
X162806810Y-81466390D01*
X162806808Y-81466390D01*
X162806812Y-81466391D01*
X162806814Y-81466392D01*
X162934108Y-81500500D01*
X162934110Y-81500500D01*
X163065890Y-81500500D01*
X163065892Y-81500500D01*
X163193186Y-81466392D01*
X163193188Y-81466390D01*
X163193190Y-81466390D01*
X163307309Y-81400503D01*
X163307309Y-81400502D01*
X163307314Y-81400500D01*
X163400500Y-81307314D01*
X163466392Y-81193186D01*
X163500500Y-81065892D01*
X163500500Y-80934108D01*
X163466392Y-80806814D01*
X163466390Y-80806811D01*
X163466390Y-80806809D01*
X163400503Y-80692690D01*
X163400501Y-80692688D01*
X163400500Y-80692686D01*
X163307314Y-80599500D01*
X163307311Y-80599498D01*
X163307309Y-80599496D01*
X163193189Y-80533609D01*
X163193191Y-80533609D01*
X163143799Y-80520375D01*
X163065892Y-80499500D01*
X162934108Y-80499500D01*
X162856200Y-80520375D01*
X162806809Y-80533609D01*
X162692690Y-80599496D01*
X162599496Y-80692690D01*
X162533609Y-80806809D01*
X162533608Y-80806814D01*
X162499500Y-80934108D01*
X160560971Y-80934108D01*
X160459334Y-80819384D01*
X160010616Y-80370666D01*
X159535623Y-79949859D01*
X159036090Y-79558500D01*
X159036071Y-79558486D01*
X159036063Y-79558481D01*
X158513862Y-79198030D01*
X158513817Y-79198002D01*
X157970803Y-78869739D01*
X157970788Y-78869730D01*
X157970774Y-78869722D01*
X157408878Y-78574816D01*
X157264673Y-78509914D01*
X156830216Y-78314381D01*
X156830213Y-78314380D01*
X156830202Y-78314375D01*
X156434372Y-78164256D01*
X156236865Y-78089351D01*
X156236858Y-78089349D01*
X156236856Y-78089348D01*
X156018671Y-78021359D01*
X155631014Y-77900560D01*
X155631007Y-77900558D01*
X155631006Y-77900558D01*
X155476970Y-77862591D01*
X155014877Y-77748695D01*
X155014832Y-77748686D01*
X154390675Y-77634304D01*
X153760722Y-77557815D01*
X153760696Y-77557813D01*
X153586839Y-77547297D01*
X153127303Y-77519500D01*
X153127292Y-77519500D01*
X152492708Y-77519500D01*
X152492697Y-77519500D01*
X151859303Y-77557813D01*
X151859277Y-77557815D01*
X151229324Y-77634304D01*
X150605167Y-77748686D01*
X150605122Y-77748695D01*
X149988998Y-77900557D01*
X149988985Y-77900560D01*
X149383150Y-78089346D01*
X149383134Y-78089351D01*
X149004371Y-78232997D01*
X148789798Y-78314375D01*
X148789791Y-78314377D01*
X148789786Y-78314380D01*
X148789783Y-78314381D01*
X148211119Y-78574817D01*
X147649233Y-78869718D01*
X147649196Y-78869739D01*
X147106182Y-79198002D01*
X147106137Y-79198030D01*
X146583936Y-79558481D01*
X146583902Y-79558506D01*
X146084381Y-79949855D01*
X145609387Y-80370663D01*
X145160663Y-80819387D01*
X144739855Y-81294381D01*
X144348506Y-81793902D01*
X144348481Y-81793936D01*
X143988030Y-82316137D01*
X143988002Y-82316182D01*
X143659739Y-82859196D01*
X143659718Y-82859233D01*
X143364817Y-83421119D01*
X143104381Y-83999783D01*
X143104380Y-83999786D01*
X143104375Y-83999798D01*
X143022997Y-84214371D01*
X142879351Y-84593134D01*
X142879346Y-84593150D01*
X142690560Y-85198985D01*
X142690557Y-85198998D01*
X142538695Y-85815122D01*
X142538686Y-85815167D01*
X142424304Y-86439324D01*
X142347815Y-87069277D01*
X142347813Y-87069303D01*
X142309500Y-87702696D01*
X110500500Y-87702696D01*
X110500500Y-84413385D01*
X112162000Y-84413385D01*
X112162000Y-84586614D01*
X112189097Y-84757702D01*
X112189098Y-84757706D01*
X112242623Y-84922438D01*
X112242625Y-84922441D01*
X112242626Y-84922444D01*
X112242627Y-84922445D01*
X112321268Y-85076788D01*
X112423086Y-85216928D01*
X112545572Y-85339414D01*
X112685712Y-85441232D01*
X112840055Y-85519873D01*
X112840057Y-85519873D01*
X112840058Y-85519874D01*
X112840061Y-85519876D01*
X113004793Y-85573401D01*
X113004797Y-85573402D01*
X113175886Y-85600500D01*
X113175889Y-85600500D01*
X113349114Y-85600500D01*
X113520202Y-85573402D01*
X113520206Y-85573401D01*
X113684938Y-85519876D01*
X113684940Y-85519874D01*
X113684945Y-85519873D01*
X113839288Y-85441232D01*
X113979428Y-85339414D01*
X114101914Y-85216928D01*
X114203732Y-85076788D01*
X114282373Y-84922445D01*
X114282374Y-84922440D01*
X114282376Y-84922438D01*
X114335901Y-84757706D01*
X114335902Y-84757702D01*
X114363000Y-84586614D01*
X114363000Y-84413385D01*
X114335902Y-84242297D01*
X114335901Y-84242293D01*
X114282376Y-84077561D01*
X114282374Y-84077558D01*
X114282373Y-84077557D01*
X114282373Y-84077555D01*
X114203732Y-83923212D01*
X114101914Y-83783072D01*
X113979428Y-83660586D01*
X113839288Y-83558768D01*
X113839287Y-83558767D01*
X113839285Y-83558766D01*
X113755015Y-83515829D01*
X113684941Y-83480125D01*
X113684938Y-83480123D01*
X113543319Y-83434108D01*
X139499500Y-83434108D01*
X139499500Y-83565892D01*
X139524873Y-83660585D01*
X139533609Y-83693190D01*
X139599496Y-83807309D01*
X139599498Y-83807311D01*
X139599500Y-83807314D01*
X139692686Y-83900500D01*
X139692688Y-83900501D01*
X139692690Y-83900503D01*
X139806810Y-83966390D01*
X139806808Y-83966390D01*
X139806812Y-83966391D01*
X139806814Y-83966392D01*
X139934108Y-84000500D01*
X139934110Y-84000500D01*
X140065890Y-84000500D01*
X140065892Y-84000500D01*
X140193186Y-83966392D01*
X140193188Y-83966390D01*
X140193190Y-83966390D01*
X140307309Y-83900503D01*
X140307309Y-83900502D01*
X140307314Y-83900500D01*
X140400500Y-83807314D01*
X140466392Y-83693186D01*
X140500500Y-83565892D01*
X140500500Y-83434108D01*
X140466392Y-83306814D01*
X140466390Y-83306811D01*
X140466390Y-83306809D01*
X140400503Y-83192690D01*
X140400501Y-83192688D01*
X140400500Y-83192686D01*
X140307314Y-83099500D01*
X140307311Y-83099498D01*
X140307309Y-83099496D01*
X140193189Y-83033609D01*
X140193191Y-83033609D01*
X140143799Y-83020375D01*
X140065892Y-82999500D01*
X139934108Y-82999500D01*
X139856200Y-83020375D01*
X139806809Y-83033609D01*
X139692690Y-83099496D01*
X139599496Y-83192690D01*
X139533609Y-83306809D01*
X139533608Y-83306814D01*
X139499500Y-83434108D01*
X113543319Y-83434108D01*
X113520206Y-83426598D01*
X113520202Y-83426597D01*
X113349114Y-83399500D01*
X113349111Y-83399500D01*
X113175889Y-83399500D01*
X113175886Y-83399500D01*
X113004797Y-83426597D01*
X113004793Y-83426598D01*
X112840061Y-83480123D01*
X112840058Y-83480125D01*
X112685714Y-83558766D01*
X112545573Y-83660585D01*
X112423085Y-83783073D01*
X112321266Y-83923214D01*
X112242625Y-84077558D01*
X112242623Y-84077561D01*
X112189098Y-84242293D01*
X112189097Y-84242297D01*
X112162000Y-84413385D01*
X110500500Y-84413385D01*
X110500500Y-81385839D01*
X121812000Y-81385839D01*
X121812000Y-81614160D01*
X121847714Y-81839655D01*
X121918269Y-82056799D01*
X122021920Y-82260227D01*
X122021924Y-82260233D01*
X122156116Y-82444931D01*
X122156118Y-82444933D01*
X122156121Y-82444937D01*
X122317563Y-82606379D01*
X122317566Y-82606381D01*
X122317568Y-82606383D01*
X122502266Y-82740575D01*
X122502272Y-82740579D01*
X122705701Y-82844231D01*
X122922840Y-82914784D01*
X122922841Y-82914784D01*
X122922844Y-82914785D01*
X123148340Y-82950500D01*
X123148343Y-82950500D01*
X123376660Y-82950500D01*
X123602155Y-82914785D01*
X123602156Y-82914784D01*
X123602160Y-82914784D01*
X123819299Y-82844231D01*
X124022728Y-82740579D01*
X124207437Y-82606379D01*
X124368879Y-82444937D01*
X124503079Y-82260228D01*
X124606731Y-82056799D01*
X124677284Y-81839660D01*
X124684530Y-81793910D01*
X124713000Y-81614160D01*
X124713000Y-81385839D01*
X124677285Y-81160344D01*
X124646595Y-81065890D01*
X124606731Y-80943201D01*
X124602098Y-80934108D01*
X139499500Y-80934108D01*
X139499500Y-81065892D01*
X139509450Y-81103025D01*
X139533609Y-81193190D01*
X139599496Y-81307309D01*
X139599498Y-81307311D01*
X139599500Y-81307314D01*
X139692686Y-81400500D01*
X139692688Y-81400501D01*
X139692690Y-81400503D01*
X139806810Y-81466390D01*
X139806808Y-81466390D01*
X139806812Y-81466391D01*
X139806814Y-81466392D01*
X139934108Y-81500500D01*
X139934110Y-81500500D01*
X140065890Y-81500500D01*
X140065892Y-81500500D01*
X140193186Y-81466392D01*
X140193188Y-81466390D01*
X140193190Y-81466390D01*
X140307309Y-81400503D01*
X140307309Y-81400502D01*
X140307314Y-81400500D01*
X140400500Y-81307314D01*
X140466392Y-81193186D01*
X140500500Y-81065892D01*
X140500500Y-80934108D01*
X140466392Y-80806814D01*
X140466390Y-80806811D01*
X140466390Y-80806809D01*
X140400503Y-80692690D01*
X140400501Y-80692688D01*
X140400500Y-80692686D01*
X140307314Y-80599500D01*
X140307311Y-80599498D01*
X140307309Y-80599496D01*
X140193189Y-80533609D01*
X140193191Y-80533609D01*
X140143799Y-80520375D01*
X140065892Y-80499500D01*
X139934108Y-80499500D01*
X139856200Y-80520375D01*
X139806809Y-80533609D01*
X139692690Y-80599496D01*
X139599496Y-80692690D01*
X139533609Y-80806809D01*
X139533608Y-80806814D01*
X139499500Y-80934108D01*
X124602098Y-80934108D01*
X124503079Y-80739772D01*
X124503075Y-80739766D01*
X124368883Y-80555068D01*
X124368881Y-80555066D01*
X124368879Y-80555063D01*
X124207437Y-80393621D01*
X124207433Y-80393618D01*
X124207431Y-80393616D01*
X124022733Y-80259424D01*
X124022727Y-80259420D01*
X123819299Y-80155769D01*
X123602155Y-80085214D01*
X123376660Y-80049500D01*
X123376657Y-80049500D01*
X123148343Y-80049500D01*
X123148340Y-80049500D01*
X122922844Y-80085214D01*
X122705700Y-80155769D01*
X122502272Y-80259420D01*
X122502266Y-80259424D01*
X122317568Y-80393616D01*
X122156116Y-80555068D01*
X122021924Y-80739766D01*
X122021920Y-80739772D01*
X121918269Y-80943200D01*
X121847714Y-81160344D01*
X121812000Y-81385839D01*
X110500500Y-81385839D01*
X110500500Y-76378008D01*
X121712500Y-76378008D01*
X121712500Y-76621991D01*
X121750664Y-76862954D01*
X121826059Y-77094994D01*
X121936820Y-77312376D01*
X121936822Y-77312380D01*
X122063554Y-77486811D01*
X122528668Y-77021696D01*
X122563426Y-77073715D01*
X122688785Y-77199074D01*
X122740800Y-77233829D01*
X122275687Y-77698943D01*
X122450125Y-77825680D01*
X122667505Y-77936440D01*
X122899545Y-78011835D01*
X123140509Y-78050000D01*
X123384491Y-78050000D01*
X123625454Y-78011835D01*
X123857494Y-77936440D01*
X124074874Y-77825680D01*
X124249311Y-77698943D01*
X123784198Y-77233830D01*
X123836215Y-77199074D01*
X123961574Y-77073715D01*
X123996330Y-77021698D01*
X124461443Y-77486811D01*
X124499735Y-77434108D01*
X138379500Y-77434108D01*
X138379500Y-77565892D01*
X138397831Y-77634304D01*
X138413609Y-77693190D01*
X138479496Y-77807309D01*
X138479498Y-77807311D01*
X138479500Y-77807314D01*
X138572686Y-77900500D01*
X138572688Y-77900501D01*
X138572690Y-77900503D01*
X138686810Y-77966390D01*
X138686808Y-77966390D01*
X138686812Y-77966391D01*
X138686814Y-77966392D01*
X138814108Y-78000500D01*
X138814110Y-78000500D01*
X138945890Y-78000500D01*
X138945892Y-78000500D01*
X139073186Y-77966392D01*
X139073188Y-77966390D01*
X139073190Y-77966390D01*
X139187309Y-77900503D01*
X139187309Y-77900502D01*
X139187314Y-77900500D01*
X139280500Y-77807314D01*
X139346392Y-77693186D01*
X139380500Y-77565892D01*
X139380500Y-77454967D01*
X160399500Y-77454967D01*
X160399500Y-77586751D01*
X160412242Y-77634304D01*
X160433609Y-77714049D01*
X160499496Y-77828168D01*
X160499498Y-77828170D01*
X160499500Y-77828173D01*
X160592686Y-77921359D01*
X160592688Y-77921360D01*
X160592690Y-77921362D01*
X160706810Y-77987249D01*
X160706808Y-77987249D01*
X160706812Y-77987250D01*
X160706814Y-77987251D01*
X160834108Y-78021359D01*
X160834110Y-78021359D01*
X160965890Y-78021359D01*
X160965892Y-78021359D01*
X161093186Y-77987251D01*
X161093188Y-77987249D01*
X161093190Y-77987249D01*
X161207309Y-77921362D01*
X161207309Y-77921361D01*
X161207314Y-77921359D01*
X161300500Y-77828173D01*
X161346387Y-77748695D01*
X161366390Y-77714049D01*
X161366390Y-77714047D01*
X161366392Y-77714045D01*
X161400500Y-77586751D01*
X161400500Y-77454967D01*
X161366392Y-77327673D01*
X161366390Y-77327670D01*
X161366390Y-77327668D01*
X161300503Y-77213549D01*
X161300501Y-77213547D01*
X161300500Y-77213545D01*
X161207314Y-77120359D01*
X161207311Y-77120357D01*
X161207309Y-77120355D01*
X161093189Y-77054468D01*
X161093191Y-77054468D01*
X161043799Y-77041234D01*
X160965892Y-77020359D01*
X160834108Y-77020359D01*
X160756200Y-77041234D01*
X160706809Y-77054468D01*
X160592690Y-77120355D01*
X160499496Y-77213549D01*
X160433609Y-77327668D01*
X160433608Y-77327673D01*
X160399500Y-77454967D01*
X139380500Y-77454967D01*
X139380500Y-77434108D01*
X139346392Y-77306814D01*
X139346390Y-77306811D01*
X139346390Y-77306809D01*
X139280503Y-77192690D01*
X139280501Y-77192688D01*
X139280500Y-77192686D01*
X139187314Y-77099500D01*
X139187311Y-77099498D01*
X139187309Y-77099496D01*
X139073189Y-77033609D01*
X139073191Y-77033609D01*
X139023740Y-77020359D01*
X138945892Y-76999500D01*
X138814108Y-76999500D01*
X138736260Y-77020359D01*
X138686809Y-77033609D01*
X138572690Y-77099496D01*
X138479496Y-77192690D01*
X138413609Y-77306809D01*
X138412116Y-77312382D01*
X138379500Y-77434108D01*
X124499735Y-77434108D01*
X124546728Y-77369428D01*
X124546730Y-77369426D01*
X124588175Y-77312382D01*
X124588179Y-77312376D01*
X124698940Y-77094994D01*
X124774335Y-76862954D01*
X124812500Y-76621991D01*
X124812500Y-76378008D01*
X124774335Y-76137045D01*
X124698940Y-75905005D01*
X124588180Y-75687625D01*
X124461443Y-75513187D01*
X123996329Y-75978300D01*
X123961574Y-75926285D01*
X123836215Y-75800926D01*
X123784196Y-75766168D01*
X124249311Y-75301054D01*
X124074880Y-75174322D01*
X124074876Y-75174320D01*
X123857494Y-75063559D01*
X123625454Y-74988164D01*
X123384491Y-74950000D01*
X123140509Y-74950000D01*
X122899545Y-74988164D01*
X122667505Y-75063559D01*
X122450123Y-75174320D01*
X122450119Y-75174322D01*
X122275687Y-75301054D01*
X122740802Y-75766169D01*
X122688785Y-75800926D01*
X122563426Y-75926285D01*
X122528669Y-75978302D01*
X122063554Y-75513187D01*
X121936822Y-75687619D01*
X121936820Y-75687623D01*
X121826059Y-75905005D01*
X121750664Y-76137045D01*
X121712500Y-76378008D01*
X110500500Y-76378008D01*
X110500500Y-73413385D01*
X112162000Y-73413385D01*
X112162000Y-73586614D01*
X112189097Y-73757702D01*
X112189098Y-73757706D01*
X112242623Y-73922438D01*
X112242625Y-73922441D01*
X112242626Y-73922444D01*
X112242627Y-73922445D01*
X112321268Y-74076788D01*
X112423086Y-74216928D01*
X112545572Y-74339414D01*
X112685712Y-74441232D01*
X112840055Y-74519873D01*
X112840057Y-74519873D01*
X112840058Y-74519874D01*
X112840061Y-74519876D01*
X113004793Y-74573401D01*
X113004797Y-74573402D01*
X113175886Y-74600500D01*
X113175889Y-74600500D01*
X113349114Y-74600500D01*
X113520202Y-74573402D01*
X113520206Y-74573401D01*
X113684938Y-74519876D01*
X113684940Y-74519874D01*
X113684945Y-74519873D01*
X113839288Y-74441232D01*
X113979428Y-74339414D01*
X114101914Y-74216928D01*
X114203732Y-74076788D01*
X114282373Y-73922445D01*
X114282374Y-73922440D01*
X114282376Y-73922438D01*
X114335901Y-73757706D01*
X114335902Y-73757702D01*
X114363000Y-73586614D01*
X114363000Y-73413385D01*
X114335902Y-73242297D01*
X114335901Y-73242293D01*
X114282376Y-73077561D01*
X114282374Y-73077558D01*
X114282373Y-73077557D01*
X114282373Y-73077555D01*
X114209284Y-72934108D01*
X142499500Y-72934108D01*
X142499500Y-73065892D01*
X142502626Y-73077558D01*
X142533609Y-73193190D01*
X142599496Y-73307309D01*
X142599498Y-73307311D01*
X142599500Y-73307314D01*
X142692686Y-73400500D01*
X142692688Y-73400501D01*
X142692690Y-73400503D01*
X142806810Y-73466390D01*
X142806808Y-73466390D01*
X142806812Y-73466391D01*
X142806814Y-73466392D01*
X142934108Y-73500500D01*
X142934110Y-73500500D01*
X143065890Y-73500500D01*
X143065892Y-73500500D01*
X143193186Y-73466392D01*
X143193188Y-73466390D01*
X143193190Y-73466390D01*
X143307309Y-73400503D01*
X143307309Y-73400502D01*
X143307314Y-73400500D01*
X143400500Y-73307314D01*
X143466392Y-73193186D01*
X143500500Y-73065892D01*
X143500500Y-72934108D01*
X143466392Y-72806814D01*
X143466390Y-72806811D01*
X143466390Y-72806809D01*
X143400503Y-72692690D01*
X143400501Y-72692688D01*
X143400500Y-72692686D01*
X143307314Y-72599500D01*
X143307311Y-72599498D01*
X143307309Y-72599496D01*
X143193189Y-72533609D01*
X143193191Y-72533609D01*
X143178722Y-72529732D01*
X143065892Y-72499500D01*
X142934108Y-72499500D01*
X142856200Y-72520375D01*
X142806809Y-72533609D01*
X142692690Y-72599496D01*
X142599496Y-72692690D01*
X142533609Y-72806809D01*
X142533608Y-72806814D01*
X142499500Y-72934108D01*
X114209284Y-72934108D01*
X114203732Y-72923212D01*
X114101914Y-72783072D01*
X113979428Y-72660586D01*
X113839288Y-72558768D01*
X113839287Y-72558767D01*
X113839285Y-72558766D01*
X113684941Y-72480125D01*
X113684938Y-72480123D01*
X113543319Y-72434108D01*
X149499500Y-72434108D01*
X149499500Y-72565892D01*
X149524873Y-72660585D01*
X149533609Y-72693190D01*
X149599496Y-72807309D01*
X149599498Y-72807311D01*
X149599500Y-72807314D01*
X149692686Y-72900500D01*
X149692688Y-72900501D01*
X149692690Y-72900503D01*
X149806810Y-72966390D01*
X149806808Y-72966390D01*
X149806812Y-72966391D01*
X149806814Y-72966392D01*
X149934108Y-73000500D01*
X149934110Y-73000500D01*
X150065890Y-73000500D01*
X150065892Y-73000500D01*
X150193186Y-72966392D01*
X150193188Y-72966390D01*
X150193190Y-72966390D01*
X150249104Y-72934108D01*
X153499500Y-72934108D01*
X153499500Y-73065892D01*
X153502626Y-73077558D01*
X153533609Y-73193190D01*
X153599496Y-73307309D01*
X153599498Y-73307311D01*
X153599500Y-73307314D01*
X153692686Y-73400500D01*
X153692688Y-73400501D01*
X153692690Y-73400503D01*
X153806810Y-73466390D01*
X153806808Y-73466390D01*
X153806812Y-73466391D01*
X153806814Y-73466392D01*
X153934108Y-73500500D01*
X153934110Y-73500500D01*
X154065890Y-73500500D01*
X154065892Y-73500500D01*
X154193186Y-73466392D01*
X154193188Y-73466390D01*
X154193190Y-73466390D01*
X154307309Y-73400503D01*
X154307309Y-73400502D01*
X154307314Y-73400500D01*
X154400500Y-73307314D01*
X154466392Y-73193186D01*
X154500500Y-73065892D01*
X154500500Y-72934108D01*
X156499500Y-72934108D01*
X156499500Y-73065892D01*
X156502626Y-73077558D01*
X156533609Y-73193190D01*
X156599496Y-73307309D01*
X156599498Y-73307311D01*
X156599500Y-73307314D01*
X156692686Y-73400500D01*
X156692688Y-73400501D01*
X156692690Y-73400503D01*
X156806810Y-73466390D01*
X156806808Y-73466390D01*
X156806812Y-73466391D01*
X156806814Y-73466392D01*
X156934108Y-73500500D01*
X156934110Y-73500500D01*
X157065890Y-73500500D01*
X157065892Y-73500500D01*
X157193186Y-73466392D01*
X157193188Y-73466390D01*
X157193190Y-73466390D01*
X157307309Y-73400503D01*
X157307309Y-73400502D01*
X157307314Y-73400500D01*
X157400500Y-73307314D01*
X157466392Y-73193186D01*
X157500500Y-73065892D01*
X157500500Y-72934108D01*
X157466392Y-72806814D01*
X157466390Y-72806811D01*
X157466390Y-72806809D01*
X157400503Y-72692690D01*
X157400501Y-72692688D01*
X157400500Y-72692686D01*
X157307314Y-72599500D01*
X157307311Y-72599498D01*
X157307309Y-72599496D01*
X157193189Y-72533609D01*
X157193191Y-72533609D01*
X157143799Y-72520375D01*
X157065892Y-72499500D01*
X156934108Y-72499500D01*
X156856200Y-72520375D01*
X156806809Y-72533609D01*
X156692690Y-72599496D01*
X156599496Y-72692690D01*
X156533609Y-72806809D01*
X156533608Y-72806814D01*
X156499500Y-72934108D01*
X154500500Y-72934108D01*
X154466392Y-72806814D01*
X154466390Y-72806811D01*
X154466390Y-72806809D01*
X154400503Y-72692690D01*
X154400501Y-72692688D01*
X154400500Y-72692686D01*
X154307314Y-72599500D01*
X154307311Y-72599498D01*
X154307309Y-72599496D01*
X154193189Y-72533609D01*
X154193191Y-72533609D01*
X154143799Y-72520375D01*
X154065892Y-72499500D01*
X153934108Y-72499500D01*
X153856200Y-72520375D01*
X153806809Y-72533609D01*
X153692690Y-72599496D01*
X153599496Y-72692690D01*
X153533609Y-72806809D01*
X153533608Y-72806814D01*
X153499500Y-72934108D01*
X150249104Y-72934108D01*
X150307309Y-72900503D01*
X150307309Y-72900502D01*
X150307314Y-72900500D01*
X150400500Y-72807314D01*
X150466392Y-72693186D01*
X150500500Y-72565892D01*
X150500500Y-72434108D01*
X150466392Y-72306814D01*
X150466390Y-72306811D01*
X150466390Y-72306809D01*
X150400503Y-72192690D01*
X150400501Y-72192688D01*
X150400500Y-72192686D01*
X150307314Y-72099500D01*
X150307311Y-72099498D01*
X150307309Y-72099496D01*
X150193189Y-72033609D01*
X150193191Y-72033609D01*
X150143799Y-72020375D01*
X150065892Y-71999500D01*
X149934108Y-71999500D01*
X149856200Y-72020375D01*
X149806809Y-72033609D01*
X149692690Y-72099496D01*
X149599496Y-72192690D01*
X149533609Y-72306809D01*
X149533608Y-72306814D01*
X149499500Y-72434108D01*
X113543319Y-72434108D01*
X113520206Y-72426598D01*
X113520202Y-72426597D01*
X113349114Y-72399500D01*
X113349111Y-72399500D01*
X113175889Y-72399500D01*
X113175886Y-72399500D01*
X113004797Y-72426597D01*
X113004793Y-72426598D01*
X112840061Y-72480123D01*
X112840058Y-72480125D01*
X112685714Y-72558766D01*
X112545573Y-72660585D01*
X112423085Y-72783073D01*
X112321266Y-72923214D01*
X112242625Y-73077558D01*
X112242623Y-73077561D01*
X112189098Y-73242293D01*
X112189097Y-73242297D01*
X112162000Y-73413385D01*
X110500500Y-73413385D01*
X110500500Y-71434108D01*
X135899500Y-71434108D01*
X135899500Y-71565892D01*
X135910464Y-71606809D01*
X135933609Y-71693190D01*
X135999496Y-71807309D01*
X135999498Y-71807311D01*
X135999500Y-71807314D01*
X136092686Y-71900500D01*
X136092688Y-71900501D01*
X136092690Y-71900503D01*
X136206810Y-71966390D01*
X136206808Y-71966390D01*
X136206812Y-71966391D01*
X136206814Y-71966392D01*
X136334108Y-72000500D01*
X136334110Y-72000500D01*
X136465890Y-72000500D01*
X136465892Y-72000500D01*
X136593186Y-71966392D01*
X136593188Y-71966390D01*
X136593190Y-71966390D01*
X136707309Y-71900503D01*
X136707309Y-71900502D01*
X136707314Y-71900500D01*
X136800500Y-71807314D01*
X136842766Y-71734108D01*
X139618250Y-71734108D01*
X139618250Y-71865892D01*
X139627523Y-71900500D01*
X139652359Y-71993190D01*
X139718246Y-72107309D01*
X139718248Y-72107311D01*
X139718250Y-72107314D01*
X139811436Y-72200500D01*
X139811438Y-72200501D01*
X139811440Y-72200503D01*
X139925560Y-72266390D01*
X139925558Y-72266390D01*
X139925562Y-72266391D01*
X139925564Y-72266392D01*
X140052858Y-72300500D01*
X140052860Y-72300500D01*
X140184640Y-72300500D01*
X140184642Y-72300500D01*
X140311936Y-72266392D01*
X140311938Y-72266390D01*
X140311940Y-72266390D01*
X140426059Y-72200503D01*
X140426059Y-72200502D01*
X140426064Y-72200500D01*
X140519250Y-72107314D01*
X140519253Y-72107309D01*
X140585140Y-71993190D01*
X140585140Y-71993188D01*
X140585142Y-71993186D01*
X140619250Y-71865892D01*
X140619250Y-71734108D01*
X140585142Y-71606814D01*
X140585140Y-71606811D01*
X140585140Y-71606809D01*
X140519253Y-71492690D01*
X140519251Y-71492688D01*
X140519250Y-71492686D01*
X140426064Y-71399500D01*
X140426061Y-71399498D01*
X140426059Y-71399496D01*
X140311939Y-71333609D01*
X140311941Y-71333609D01*
X140262549Y-71320375D01*
X140184642Y-71299500D01*
X140052858Y-71299500D01*
X139974950Y-71320375D01*
X139925559Y-71333609D01*
X139811440Y-71399496D01*
X139718246Y-71492690D01*
X139652359Y-71606809D01*
X139652358Y-71606814D01*
X139618250Y-71734108D01*
X136842766Y-71734108D01*
X136866392Y-71693186D01*
X136900500Y-71565892D01*
X136900500Y-71434108D01*
X136866392Y-71306814D01*
X136866390Y-71306811D01*
X136866390Y-71306809D01*
X136800503Y-71192690D01*
X136800501Y-71192688D01*
X136800500Y-71192686D01*
X136707314Y-71099500D01*
X136707311Y-71099498D01*
X136707309Y-71099496D01*
X136593189Y-71033609D01*
X136593191Y-71033609D01*
X136543799Y-71020375D01*
X136465892Y-70999500D01*
X136334108Y-70999500D01*
X136256200Y-71020375D01*
X136206809Y-71033609D01*
X136092690Y-71099496D01*
X135999496Y-71192690D01*
X135933609Y-71306809D01*
X135926428Y-71333609D01*
X135899500Y-71434108D01*
X110500500Y-71434108D01*
X110500500Y-68405253D01*
X117324500Y-68405253D01*
X117324500Y-70144746D01*
X117324501Y-70144758D01*
X117336132Y-70203227D01*
X117336134Y-70203233D01*
X117374781Y-70261071D01*
X117380448Y-70269552D01*
X117446769Y-70313867D01*
X117491231Y-70322711D01*
X117505241Y-70325498D01*
X117505246Y-70325498D01*
X117505252Y-70325500D01*
X117505253Y-70325500D01*
X119244747Y-70325500D01*
X119244748Y-70325500D01*
X119303231Y-70313867D01*
X119369552Y-70269552D01*
X119413867Y-70203231D01*
X119425500Y-70144748D01*
X119425500Y-69171532D01*
X119864500Y-69171532D01*
X119864500Y-69378467D01*
X119904869Y-69581418D01*
X119984058Y-69772597D01*
X120099020Y-69944651D01*
X120099023Y-69944655D01*
X120245345Y-70090977D01*
X120417402Y-70205941D01*
X120608580Y-70285130D01*
X120811535Y-70325500D01*
X120811536Y-70325500D01*
X121018464Y-70325500D01*
X121018465Y-70325500D01*
X121221420Y-70285130D01*
X121412598Y-70205941D01*
X121584655Y-70090977D01*
X121730977Y-69944655D01*
X121845941Y-69772598D01*
X121925130Y-69581420D01*
X121965500Y-69378465D01*
X121965500Y-69171535D01*
X121965499Y-69171532D01*
X122404500Y-69171532D01*
X122404500Y-69378467D01*
X122444869Y-69581418D01*
X122524058Y-69772597D01*
X122639020Y-69944651D01*
X122639023Y-69944655D01*
X122785345Y-70090977D01*
X122957402Y-70205941D01*
X123148580Y-70285130D01*
X123351535Y-70325500D01*
X123351536Y-70325500D01*
X123558464Y-70325500D01*
X123558465Y-70325500D01*
X123761420Y-70285130D01*
X123952598Y-70205941D01*
X124124655Y-70090977D01*
X124270977Y-69944655D01*
X124385941Y-69772598D01*
X124465130Y-69581420D01*
X124505500Y-69378465D01*
X124505500Y-69171535D01*
X124505499Y-69171532D01*
X124944500Y-69171532D01*
X124944500Y-69378467D01*
X124984869Y-69581418D01*
X125064058Y-69772597D01*
X125179020Y-69944651D01*
X125179023Y-69944655D01*
X125325345Y-70090977D01*
X125497402Y-70205941D01*
X125688580Y-70285130D01*
X125891535Y-70325500D01*
X125891536Y-70325500D01*
X126098464Y-70325500D01*
X126098465Y-70325500D01*
X126301420Y-70285130D01*
X126492598Y-70205941D01*
X126664655Y-70090977D01*
X126810977Y-69944655D01*
X126925941Y-69772598D01*
X127005130Y-69581420D01*
X127045500Y-69378465D01*
X127045500Y-69184489D01*
X127385000Y-69184489D01*
X127385000Y-69365510D01*
X127413316Y-69544289D01*
X127469250Y-69716440D01*
X127551430Y-69877728D01*
X127622424Y-69975442D01*
X128091328Y-69506536D01*
X128134901Y-69582007D01*
X128227993Y-69675099D01*
X128303460Y-69718670D01*
X127834556Y-70187574D01*
X127834556Y-70187575D01*
X127932263Y-70258564D01*
X127932269Y-70258568D01*
X128093559Y-70340749D01*
X128265710Y-70396683D01*
X128444490Y-70425000D01*
X128625510Y-70425000D01*
X128804289Y-70396683D01*
X128976440Y-70340749D01*
X129137730Y-70258568D01*
X129137735Y-70258564D01*
X129235442Y-70187575D01*
X129235442Y-70187574D01*
X128766538Y-69718670D01*
X128842007Y-69675099D01*
X128935099Y-69582007D01*
X128978670Y-69506538D01*
X129447574Y-69975442D01*
X129447575Y-69975442D01*
X129518564Y-69877735D01*
X129518568Y-69877730D01*
X129600749Y-69716440D01*
X129656683Y-69544289D01*
X129685000Y-69365510D01*
X129685000Y-69184489D01*
X129684630Y-69182153D01*
X129684630Y-69182152D01*
X129682948Y-69171532D01*
X130024500Y-69171532D01*
X130024500Y-69378467D01*
X130064869Y-69581418D01*
X130144058Y-69772597D01*
X130259020Y-69944651D01*
X130259023Y-69944655D01*
X130405345Y-70090977D01*
X130577402Y-70205941D01*
X130768580Y-70285130D01*
X130971535Y-70325500D01*
X130971536Y-70325500D01*
X131178464Y-70325500D01*
X131178465Y-70325500D01*
X131381420Y-70285130D01*
X131572598Y-70205941D01*
X131744655Y-70090977D01*
X131890977Y-69944655D01*
X132005941Y-69772598D01*
X132085130Y-69581420D01*
X132125500Y-69378465D01*
X132125500Y-69171535D01*
X132125499Y-69171532D01*
X132564500Y-69171532D01*
X132564500Y-69378467D01*
X132604869Y-69581418D01*
X132684058Y-69772597D01*
X132799020Y-69944651D01*
X132799023Y-69944655D01*
X132945345Y-70090977D01*
X133117402Y-70205941D01*
X133308580Y-70285130D01*
X133511535Y-70325500D01*
X133511536Y-70325500D01*
X133718464Y-70325500D01*
X133718465Y-70325500D01*
X133921420Y-70285130D01*
X134112598Y-70205941D01*
X134284655Y-70090977D01*
X134430977Y-69944655D01*
X134545941Y-69772598D01*
X134625130Y-69581420D01*
X134665500Y-69378465D01*
X134665500Y-69171535D01*
X134665499Y-69171532D01*
X135104500Y-69171532D01*
X135104500Y-69378467D01*
X135144869Y-69581418D01*
X135224058Y-69772597D01*
X135339020Y-69944651D01*
X135339023Y-69944655D01*
X135485345Y-70090977D01*
X135657402Y-70205941D01*
X135848580Y-70285130D01*
X136051535Y-70325500D01*
X136051536Y-70325500D01*
X136258464Y-70325500D01*
X136258465Y-70325500D01*
X136461420Y-70285130D01*
X136652598Y-70205941D01*
X136824655Y-70090977D01*
X136970977Y-69944655D01*
X137085941Y-69772598D01*
X137165130Y-69581420D01*
X137205500Y-69378465D01*
X137205500Y-69171535D01*
X137205499Y-69171532D01*
X137644500Y-69171532D01*
X137644500Y-69378467D01*
X137684869Y-69581418D01*
X137764058Y-69772597D01*
X137879020Y-69944651D01*
X137879023Y-69944655D01*
X138025345Y-70090977D01*
X138197402Y-70205941D01*
X138358342Y-70272605D01*
X138404867Y-70312340D01*
X138419151Y-70371835D01*
X138406193Y-70413568D01*
X138352358Y-70506812D01*
X138329619Y-70591676D01*
X138318250Y-70634108D01*
X138318250Y-70765892D01*
X138348329Y-70878151D01*
X138352359Y-70893190D01*
X138418246Y-71007309D01*
X138418248Y-71007311D01*
X138418250Y-71007314D01*
X138511436Y-71100500D01*
X138511438Y-71100501D01*
X138511440Y-71100503D01*
X138625560Y-71166390D01*
X138625558Y-71166390D01*
X138625562Y-71166391D01*
X138625564Y-71166392D01*
X138752858Y-71200500D01*
X138752860Y-71200500D01*
X138884640Y-71200500D01*
X138884642Y-71200500D01*
X139011936Y-71166392D01*
X139011938Y-71166390D01*
X139011940Y-71166390D01*
X139126059Y-71100503D01*
X139126059Y-71100502D01*
X139126064Y-71100500D01*
X139219250Y-71007314D01*
X139219253Y-71007309D01*
X139285140Y-70893190D01*
X139285140Y-70893188D01*
X139285142Y-70893186D01*
X139319250Y-70765892D01*
X139319250Y-70634108D01*
X139285142Y-70506814D01*
X139285140Y-70506810D01*
X139285140Y-70506809D01*
X139219253Y-70392690D01*
X139219251Y-70392688D01*
X139219250Y-70392686D01*
X139181926Y-70355362D01*
X139154151Y-70300848D01*
X139163722Y-70240416D01*
X139196929Y-70203046D01*
X139364655Y-70090977D01*
X139510977Y-69944655D01*
X139625941Y-69772598D01*
X139705130Y-69581420D01*
X139745500Y-69378465D01*
X139745500Y-69171535D01*
X139745499Y-69171532D01*
X140184500Y-69171532D01*
X140184500Y-69378467D01*
X140224869Y-69581418D01*
X140304058Y-69772597D01*
X140419020Y-69944651D01*
X140419023Y-69944655D01*
X140565345Y-70090977D01*
X140737402Y-70205941D01*
X140928580Y-70285130D01*
X141002092Y-70299752D01*
X141055477Y-70329648D01*
X141081093Y-70385213D01*
X141069156Y-70445223D01*
X141068516Y-70446349D01*
X141033609Y-70506810D01*
X141033608Y-70506814D01*
X140999500Y-70634108D01*
X140999500Y-70765892D01*
X141029579Y-70878151D01*
X141033609Y-70893190D01*
X141099496Y-71007309D01*
X141099498Y-71007311D01*
X141099500Y-71007314D01*
X141192686Y-71100500D01*
X141192688Y-71100501D01*
X141192690Y-71100503D01*
X141306810Y-71166390D01*
X141306808Y-71166390D01*
X141306812Y-71166391D01*
X141306814Y-71166392D01*
X141434108Y-71200500D01*
X141434110Y-71200500D01*
X141565890Y-71200500D01*
X141565892Y-71200500D01*
X141693186Y-71166392D01*
X141693188Y-71166390D01*
X141693190Y-71166390D01*
X141807309Y-71100503D01*
X141807309Y-71100502D01*
X141807314Y-71100500D01*
X141900500Y-71007314D01*
X141900503Y-71007309D01*
X141966390Y-70893190D01*
X141966390Y-70893188D01*
X141966392Y-70893186D01*
X142000500Y-70765892D01*
X142000500Y-70634108D01*
X141966392Y-70506814D01*
X141966390Y-70506810D01*
X141966390Y-70506809D01*
X141900503Y-70392690D01*
X141900501Y-70392688D01*
X141900500Y-70392686D01*
X141807314Y-70299500D01*
X141807311Y-70299498D01*
X141806601Y-70298788D01*
X141778824Y-70244271D01*
X141788395Y-70183839D01*
X141821603Y-70146470D01*
X141904655Y-70090977D01*
X142050977Y-69944655D01*
X142165941Y-69772598D01*
X142245130Y-69581420D01*
X142285500Y-69378465D01*
X142285500Y-69171535D01*
X142285499Y-69171532D01*
X142724500Y-69171532D01*
X142724500Y-69378467D01*
X142764869Y-69581418D01*
X142844058Y-69772597D01*
X142959020Y-69944651D01*
X142959023Y-69944655D01*
X143105345Y-70090977D01*
X143277402Y-70205941D01*
X143468580Y-70285130D01*
X143671535Y-70325500D01*
X143671536Y-70325500D01*
X143878464Y-70325500D01*
X143878465Y-70325500D01*
X144081420Y-70285130D01*
X144272598Y-70205941D01*
X144444655Y-70090977D01*
X144590977Y-69944655D01*
X144705941Y-69772598D01*
X144785130Y-69581420D01*
X144825500Y-69378465D01*
X144825500Y-69171535D01*
X144825499Y-69171532D01*
X145264500Y-69171532D01*
X145264500Y-69378467D01*
X145304869Y-69581418D01*
X145384058Y-69772597D01*
X145499020Y-69944651D01*
X145499023Y-69944655D01*
X145645345Y-70090977D01*
X145817402Y-70205941D01*
X146008580Y-70285130D01*
X146211535Y-70325500D01*
X146211536Y-70325500D01*
X146418464Y-70325500D01*
X146418465Y-70325500D01*
X146621420Y-70285130D01*
X146812598Y-70205941D01*
X146984655Y-70090977D01*
X147130977Y-69944655D01*
X147245941Y-69772598D01*
X147325130Y-69581420D01*
X147365500Y-69378465D01*
X147365500Y-69184489D01*
X147705000Y-69184489D01*
X147705000Y-69365510D01*
X147733316Y-69544289D01*
X147789250Y-69716440D01*
X147871430Y-69877728D01*
X147942424Y-69975442D01*
X148411328Y-69506536D01*
X148454901Y-69582007D01*
X148547993Y-69675099D01*
X148623460Y-69718670D01*
X148154556Y-70187574D01*
X148154556Y-70187575D01*
X148252263Y-70258564D01*
X148252269Y-70258568D01*
X148413559Y-70340749D01*
X148585710Y-70396683D01*
X148764490Y-70425000D01*
X148945510Y-70425000D01*
X149124289Y-70396683D01*
X149296440Y-70340749D01*
X149457730Y-70258568D01*
X149457735Y-70258564D01*
X149555442Y-70187575D01*
X149555442Y-70187574D01*
X149086538Y-69718670D01*
X149162007Y-69675099D01*
X149255099Y-69582007D01*
X149298670Y-69506538D01*
X149767574Y-69975442D01*
X149767575Y-69975442D01*
X149838564Y-69877735D01*
X149838568Y-69877730D01*
X149920749Y-69716440D01*
X149976683Y-69544289D01*
X150005000Y-69365510D01*
X150005000Y-69184489D01*
X150004630Y-69182153D01*
X150004630Y-69182152D01*
X150002948Y-69171532D01*
X150344500Y-69171532D01*
X150344500Y-69378467D01*
X150384869Y-69581418D01*
X150464058Y-69772597D01*
X150579020Y-69944651D01*
X150579023Y-69944655D01*
X150725345Y-70090977D01*
X150897402Y-70205941D01*
X151088580Y-70285130D01*
X151291535Y-70325500D01*
X151291536Y-70325500D01*
X151498464Y-70325500D01*
X151498465Y-70325500D01*
X151701420Y-70285130D01*
X151892598Y-70205941D01*
X152064655Y-70090977D01*
X152210977Y-69944655D01*
X152325941Y-69772598D01*
X152405130Y-69581420D01*
X152445500Y-69378465D01*
X152445500Y-69171535D01*
X152445499Y-69171532D01*
X152884500Y-69171532D01*
X152884500Y-69378467D01*
X152924869Y-69581418D01*
X153004058Y-69772597D01*
X153119020Y-69944651D01*
X153119023Y-69944655D01*
X153265345Y-70090977D01*
X153437402Y-70205941D01*
X153628580Y-70285130D01*
X153831535Y-70325500D01*
X153831536Y-70325500D01*
X154038464Y-70325500D01*
X154038465Y-70325500D01*
X154241420Y-70285130D01*
X154432598Y-70205941D01*
X154604655Y-70090977D01*
X154750977Y-69944655D01*
X154865941Y-69772598D01*
X154945130Y-69581420D01*
X154985500Y-69378465D01*
X154985500Y-69171535D01*
X154985499Y-69171532D01*
X155424500Y-69171532D01*
X155424500Y-69378467D01*
X155464869Y-69581418D01*
X155544058Y-69772597D01*
X155659020Y-69944651D01*
X155659023Y-69944655D01*
X155805345Y-70090977D01*
X155977402Y-70205941D01*
X156168580Y-70285130D01*
X156371535Y-70325500D01*
X156371536Y-70325500D01*
X156578464Y-70325500D01*
X156578465Y-70325500D01*
X156781420Y-70285130D01*
X156972598Y-70205941D01*
X157144655Y-70090977D01*
X157290977Y-69944655D01*
X157405941Y-69772598D01*
X157485130Y-69581420D01*
X157525500Y-69378465D01*
X157525500Y-69171535D01*
X157525499Y-69171532D01*
X157964500Y-69171532D01*
X157964500Y-69378467D01*
X158004869Y-69581418D01*
X158084058Y-69772597D01*
X158199020Y-69944651D01*
X158199023Y-69944655D01*
X158345345Y-70090977D01*
X158517402Y-70205941D01*
X158708580Y-70285130D01*
X158911535Y-70325500D01*
X158911536Y-70325500D01*
X159118464Y-70325500D01*
X159118465Y-70325500D01*
X159321420Y-70285130D01*
X159512598Y-70205941D01*
X159684655Y-70090977D01*
X159830977Y-69944655D01*
X159945941Y-69772598D01*
X160025130Y-69581420D01*
X160065500Y-69378465D01*
X160065500Y-69171535D01*
X160065499Y-69171532D01*
X160504500Y-69171532D01*
X160504500Y-69378467D01*
X160544869Y-69581418D01*
X160624058Y-69772597D01*
X160739020Y-69944651D01*
X160739023Y-69944655D01*
X160885345Y-70090977D01*
X161057402Y-70205941D01*
X161248580Y-70285130D01*
X161451535Y-70325500D01*
X161451536Y-70325500D01*
X161658464Y-70325500D01*
X161658465Y-70325500D01*
X161861420Y-70285130D01*
X162052598Y-70205941D01*
X162224655Y-70090977D01*
X162370977Y-69944655D01*
X162485941Y-69772598D01*
X162565130Y-69581420D01*
X162605500Y-69378465D01*
X162605500Y-69171535D01*
X162605499Y-69171532D01*
X163044500Y-69171532D01*
X163044500Y-69378467D01*
X163084869Y-69581418D01*
X163164058Y-69772597D01*
X163279020Y-69944651D01*
X163279023Y-69944655D01*
X163425345Y-70090977D01*
X163597402Y-70205941D01*
X163788580Y-70285130D01*
X163991535Y-70325500D01*
X163991536Y-70325500D01*
X164198464Y-70325500D01*
X164198465Y-70325500D01*
X164401420Y-70285130D01*
X164592598Y-70205941D01*
X164764655Y-70090977D01*
X164910977Y-69944655D01*
X165025941Y-69772598D01*
X165105130Y-69581420D01*
X165145500Y-69378465D01*
X165145500Y-69184489D01*
X165485000Y-69184489D01*
X165485000Y-69365510D01*
X165513316Y-69544289D01*
X165569250Y-69716440D01*
X165651430Y-69877728D01*
X165722424Y-69975442D01*
X166191328Y-69506536D01*
X166234901Y-69582007D01*
X166327993Y-69675099D01*
X166403460Y-69718670D01*
X165934556Y-70187574D01*
X165934556Y-70187575D01*
X166032263Y-70258564D01*
X166032269Y-70258568D01*
X166193559Y-70340749D01*
X166365710Y-70396683D01*
X166544490Y-70425000D01*
X166725510Y-70425000D01*
X166904289Y-70396683D01*
X167076440Y-70340749D01*
X167237730Y-70258568D01*
X167237735Y-70258564D01*
X167335442Y-70187575D01*
X167335442Y-70187574D01*
X166866538Y-69718670D01*
X166942007Y-69675099D01*
X167035099Y-69582007D01*
X167078670Y-69506538D01*
X167547574Y-69975442D01*
X167547575Y-69975442D01*
X167618564Y-69877735D01*
X167618568Y-69877730D01*
X167700749Y-69716440D01*
X167756683Y-69544289D01*
X167785000Y-69365510D01*
X167785000Y-69184489D01*
X167756683Y-69005710D01*
X167700749Y-68833559D01*
X167618568Y-68672269D01*
X167618564Y-68672263D01*
X167547575Y-68574556D01*
X167547574Y-68574556D01*
X167078670Y-69043460D01*
X167035099Y-68967993D01*
X166942007Y-68874901D01*
X166866536Y-68831328D01*
X167335442Y-68362424D01*
X167237728Y-68291430D01*
X167076440Y-68209250D01*
X166904289Y-68153316D01*
X166725510Y-68125000D01*
X166544490Y-68125000D01*
X166365710Y-68153316D01*
X166193559Y-68209250D01*
X166032269Y-68291431D01*
X166032265Y-68291433D01*
X165934556Y-68362423D01*
X166403461Y-68831328D01*
X166327993Y-68874901D01*
X166234901Y-68967993D01*
X166191328Y-69043461D01*
X165722423Y-68574556D01*
X165651433Y-68672265D01*
X165651431Y-68672269D01*
X165569250Y-68833559D01*
X165513316Y-69005710D01*
X165485000Y-69184489D01*
X165145500Y-69184489D01*
X165145500Y-69171535D01*
X165105130Y-68968580D01*
X165025941Y-68777402D01*
X164910977Y-68605345D01*
X164764655Y-68459023D01*
X164684182Y-68405253D01*
X164592597Y-68344058D01*
X164401418Y-68264869D01*
X164198467Y-68224500D01*
X164198465Y-68224500D01*
X163991535Y-68224500D01*
X163991532Y-68224500D01*
X163788581Y-68264869D01*
X163597402Y-68344058D01*
X163425348Y-68459020D01*
X163279020Y-68605348D01*
X163164058Y-68777402D01*
X163084869Y-68968581D01*
X163044500Y-69171532D01*
X162605499Y-69171532D01*
X162565130Y-68968580D01*
X162485941Y-68777402D01*
X162370977Y-68605345D01*
X162224655Y-68459023D01*
X162144182Y-68405253D01*
X162052597Y-68344058D01*
X161861418Y-68264869D01*
X161658467Y-68224500D01*
X161658465Y-68224500D01*
X161451535Y-68224500D01*
X161451532Y-68224500D01*
X161248581Y-68264869D01*
X161057402Y-68344058D01*
X160885348Y-68459020D01*
X160739020Y-68605348D01*
X160624058Y-68777402D01*
X160544869Y-68968581D01*
X160504500Y-69171532D01*
X160065499Y-69171532D01*
X160025130Y-68968580D01*
X159945941Y-68777402D01*
X159830977Y-68605345D01*
X159684655Y-68459023D01*
X159604182Y-68405253D01*
X159512597Y-68344058D01*
X159321418Y-68264869D01*
X159118467Y-68224500D01*
X159118465Y-68224500D01*
X158911535Y-68224500D01*
X158911532Y-68224500D01*
X158708581Y-68264869D01*
X158517402Y-68344058D01*
X158345348Y-68459020D01*
X158199020Y-68605348D01*
X158084058Y-68777402D01*
X158004869Y-68968581D01*
X157964500Y-69171532D01*
X157525499Y-69171532D01*
X157485130Y-68968580D01*
X157405941Y-68777402D01*
X157290977Y-68605345D01*
X157144655Y-68459023D01*
X157064182Y-68405253D01*
X156972597Y-68344058D01*
X156781418Y-68264869D01*
X156578467Y-68224500D01*
X156578465Y-68224500D01*
X156371535Y-68224500D01*
X156371532Y-68224500D01*
X156168581Y-68264869D01*
X155977402Y-68344058D01*
X155805348Y-68459020D01*
X155659020Y-68605348D01*
X155544058Y-68777402D01*
X155464869Y-68968581D01*
X155424500Y-69171532D01*
X154985499Y-69171532D01*
X154945130Y-68968580D01*
X154865941Y-68777402D01*
X154750977Y-68605345D01*
X154604655Y-68459023D01*
X154524182Y-68405253D01*
X154432597Y-68344058D01*
X154241418Y-68264869D01*
X154038467Y-68224500D01*
X154038465Y-68224500D01*
X153831535Y-68224500D01*
X153831532Y-68224500D01*
X153628581Y-68264869D01*
X153437402Y-68344058D01*
X153265348Y-68459020D01*
X153119020Y-68605348D01*
X153004058Y-68777402D01*
X152924869Y-68968581D01*
X152884500Y-69171532D01*
X152445499Y-69171532D01*
X152405130Y-68968580D01*
X152325941Y-68777402D01*
X152210977Y-68605345D01*
X152064655Y-68459023D01*
X151984182Y-68405253D01*
X151892597Y-68344058D01*
X151701418Y-68264869D01*
X151498467Y-68224500D01*
X151498465Y-68224500D01*
X151291535Y-68224500D01*
X151291532Y-68224500D01*
X151088581Y-68264869D01*
X150897402Y-68344058D01*
X150725348Y-68459020D01*
X150579020Y-68605348D01*
X150464058Y-68777402D01*
X150384869Y-68968581D01*
X150344500Y-69171532D01*
X150002948Y-69171532D01*
X149976683Y-69005710D01*
X149920749Y-68833559D01*
X149838568Y-68672269D01*
X149838564Y-68672263D01*
X149767575Y-68574556D01*
X149767574Y-68574556D01*
X149298670Y-69043460D01*
X149255099Y-68967993D01*
X149162007Y-68874901D01*
X149086536Y-68831328D01*
X149555442Y-68362424D01*
X149457728Y-68291430D01*
X149296440Y-68209250D01*
X149124289Y-68153316D01*
X148945510Y-68125000D01*
X148764490Y-68125000D01*
X148585710Y-68153316D01*
X148413559Y-68209250D01*
X148252269Y-68291431D01*
X148252265Y-68291433D01*
X148154556Y-68362423D01*
X148623461Y-68831328D01*
X148547993Y-68874901D01*
X148454901Y-68967993D01*
X148411328Y-69043461D01*
X147942423Y-68574556D01*
X147871433Y-68672265D01*
X147871431Y-68672269D01*
X147789250Y-68833559D01*
X147733316Y-69005710D01*
X147705000Y-69184489D01*
X147365500Y-69184489D01*
X147365500Y-69171535D01*
X147325130Y-68968580D01*
X147245941Y-68777402D01*
X147130977Y-68605345D01*
X146984655Y-68459023D01*
X146904182Y-68405253D01*
X146812597Y-68344058D01*
X146621418Y-68264869D01*
X146418467Y-68224500D01*
X146418465Y-68224500D01*
X146211535Y-68224500D01*
X146211532Y-68224500D01*
X146008581Y-68264869D01*
X145817402Y-68344058D01*
X145645348Y-68459020D01*
X145499020Y-68605348D01*
X145384058Y-68777402D01*
X145304869Y-68968581D01*
X145264500Y-69171532D01*
X144825499Y-69171532D01*
X144785130Y-68968580D01*
X144705941Y-68777402D01*
X144590977Y-68605345D01*
X144444655Y-68459023D01*
X144364182Y-68405253D01*
X144272597Y-68344058D01*
X144081418Y-68264869D01*
X143878467Y-68224500D01*
X143878465Y-68224500D01*
X143671535Y-68224500D01*
X143671532Y-68224500D01*
X143468581Y-68264869D01*
X143277402Y-68344058D01*
X143105348Y-68459020D01*
X142959020Y-68605348D01*
X142844058Y-68777402D01*
X142764869Y-68968581D01*
X142724500Y-69171532D01*
X142285499Y-69171532D01*
X142245130Y-68968580D01*
X142165941Y-68777402D01*
X142050977Y-68605345D01*
X141904655Y-68459023D01*
X141824182Y-68405253D01*
X141732597Y-68344058D01*
X141541418Y-68264869D01*
X141338467Y-68224500D01*
X141338465Y-68224500D01*
X141131535Y-68224500D01*
X141131532Y-68224500D01*
X140928581Y-68264869D01*
X140737402Y-68344058D01*
X140565348Y-68459020D01*
X140419020Y-68605348D01*
X140304058Y-68777402D01*
X140224869Y-68968581D01*
X140184500Y-69171532D01*
X139745499Y-69171532D01*
X139705130Y-68968580D01*
X139625941Y-68777402D01*
X139510977Y-68605345D01*
X139364655Y-68459023D01*
X139284182Y-68405253D01*
X139192597Y-68344058D01*
X139001418Y-68264869D01*
X138798467Y-68224500D01*
X138798465Y-68224500D01*
X138591535Y-68224500D01*
X138591532Y-68224500D01*
X138388581Y-68264869D01*
X138197402Y-68344058D01*
X138025348Y-68459020D01*
X137879020Y-68605348D01*
X137764058Y-68777402D01*
X137684869Y-68968581D01*
X137644500Y-69171532D01*
X137205499Y-69171532D01*
X137165130Y-68968580D01*
X137085941Y-68777402D01*
X136970977Y-68605345D01*
X136824655Y-68459023D01*
X136744182Y-68405253D01*
X136652597Y-68344058D01*
X136461418Y-68264869D01*
X136258467Y-68224500D01*
X136258465Y-68224500D01*
X136051535Y-68224500D01*
X136051532Y-68224500D01*
X135848581Y-68264869D01*
X135657402Y-68344058D01*
X135485348Y-68459020D01*
X135339020Y-68605348D01*
X135224058Y-68777402D01*
X135144869Y-68968581D01*
X135104500Y-69171532D01*
X134665499Y-69171532D01*
X134625130Y-68968580D01*
X134545941Y-68777402D01*
X134430977Y-68605345D01*
X134284655Y-68459023D01*
X134204182Y-68405253D01*
X134112597Y-68344058D01*
X133921418Y-68264869D01*
X133718467Y-68224500D01*
X133718465Y-68224500D01*
X133511535Y-68224500D01*
X133511532Y-68224500D01*
X133308581Y-68264869D01*
X133117402Y-68344058D01*
X132945348Y-68459020D01*
X132799020Y-68605348D01*
X132684058Y-68777402D01*
X132604869Y-68968581D01*
X132564500Y-69171532D01*
X132125499Y-69171532D01*
X132085130Y-68968580D01*
X132005941Y-68777402D01*
X131890977Y-68605345D01*
X131744655Y-68459023D01*
X131664182Y-68405253D01*
X131572597Y-68344058D01*
X131381418Y-68264869D01*
X131178467Y-68224500D01*
X131178465Y-68224500D01*
X130971535Y-68224500D01*
X130971532Y-68224500D01*
X130768581Y-68264869D01*
X130577402Y-68344058D01*
X130405348Y-68459020D01*
X130259020Y-68605348D01*
X130144058Y-68777402D01*
X130064869Y-68968581D01*
X130024500Y-69171532D01*
X129682948Y-69171532D01*
X129656683Y-69005710D01*
X129600749Y-68833559D01*
X129518568Y-68672269D01*
X129518564Y-68672263D01*
X129447575Y-68574556D01*
X129447574Y-68574556D01*
X128978670Y-69043460D01*
X128935099Y-68967993D01*
X128842007Y-68874901D01*
X128766536Y-68831328D01*
X129235442Y-68362424D01*
X129137728Y-68291430D01*
X128976440Y-68209250D01*
X128804289Y-68153316D01*
X128625510Y-68125000D01*
X128444490Y-68125000D01*
X128265710Y-68153316D01*
X128093559Y-68209250D01*
X127932269Y-68291431D01*
X127932265Y-68291433D01*
X127834556Y-68362423D01*
X128303461Y-68831328D01*
X128227993Y-68874901D01*
X128134901Y-68967993D01*
X128091328Y-69043461D01*
X127622423Y-68574556D01*
X127551433Y-68672265D01*
X127551431Y-68672269D01*
X127469250Y-68833559D01*
X127413316Y-69005710D01*
X127385000Y-69184489D01*
X127045500Y-69184489D01*
X127045500Y-69171535D01*
X127005130Y-68968580D01*
X126925941Y-68777402D01*
X126810977Y-68605345D01*
X126664655Y-68459023D01*
X126584182Y-68405253D01*
X126492597Y-68344058D01*
X126301418Y-68264869D01*
X126098467Y-68224500D01*
X126098465Y-68224500D01*
X125891535Y-68224500D01*
X125891532Y-68224500D01*
X125688581Y-68264869D01*
X125497402Y-68344058D01*
X125325348Y-68459020D01*
X125179020Y-68605348D01*
X125064058Y-68777402D01*
X124984869Y-68968581D01*
X124944500Y-69171532D01*
X124505499Y-69171532D01*
X124465130Y-68968580D01*
X124385941Y-68777402D01*
X124270977Y-68605345D01*
X124124655Y-68459023D01*
X124044182Y-68405253D01*
X123952597Y-68344058D01*
X123761418Y-68264869D01*
X123558467Y-68224500D01*
X123558465Y-68224500D01*
X123351535Y-68224500D01*
X123351532Y-68224500D01*
X123148581Y-68264869D01*
X122957402Y-68344058D01*
X122785348Y-68459020D01*
X122639020Y-68605348D01*
X122524058Y-68777402D01*
X122444869Y-68968581D01*
X122404500Y-69171532D01*
X121965499Y-69171532D01*
X121925130Y-68968580D01*
X121845941Y-68777402D01*
X121730977Y-68605345D01*
X121584655Y-68459023D01*
X121504182Y-68405253D01*
X121412597Y-68344058D01*
X121221418Y-68264869D01*
X121018467Y-68224500D01*
X121018465Y-68224500D01*
X120811535Y-68224500D01*
X120811532Y-68224500D01*
X120608581Y-68264869D01*
X120417402Y-68344058D01*
X120245348Y-68459020D01*
X120099020Y-68605348D01*
X119984058Y-68777402D01*
X119904869Y-68968581D01*
X119864500Y-69171532D01*
X119425500Y-69171532D01*
X119425500Y-68405252D01*
X119413867Y-68346769D01*
X119369552Y-68280448D01*
X119369548Y-68280445D01*
X119303233Y-68236134D01*
X119303231Y-68236133D01*
X119303228Y-68236132D01*
X119303227Y-68236132D01*
X119244758Y-68224501D01*
X119244748Y-68224500D01*
X117505252Y-68224500D01*
X117505251Y-68224500D01*
X117505241Y-68224501D01*
X117446772Y-68236132D01*
X117446766Y-68236134D01*
X117380451Y-68280445D01*
X117380445Y-68280451D01*
X117336134Y-68346766D01*
X117336132Y-68346772D01*
X117324501Y-68405241D01*
X117324500Y-68405253D01*
X110500500Y-68405253D01*
X110500500Y-67002984D01*
X110500681Y-66997007D01*
X110504486Y-66934108D01*
X110518362Y-66704688D01*
X110519801Y-66692837D01*
X110531036Y-66631532D01*
X117324500Y-66631532D01*
X117324500Y-66838467D01*
X117364869Y-67041418D01*
X117444058Y-67232597D01*
X117559020Y-67404651D01*
X117559023Y-67404655D01*
X117705345Y-67550977D01*
X117877402Y-67665941D01*
X118068580Y-67745130D01*
X118271535Y-67785500D01*
X118271536Y-67785500D01*
X118478464Y-67785500D01*
X118478465Y-67785500D01*
X118681420Y-67745130D01*
X118872598Y-67665941D01*
X119044655Y-67550977D01*
X119190977Y-67404655D01*
X119305941Y-67232598D01*
X119385130Y-67041420D01*
X119425500Y-66838465D01*
X119425500Y-66631535D01*
X119425499Y-66631532D01*
X119864500Y-66631532D01*
X119864500Y-66838467D01*
X119904869Y-67041418D01*
X119984058Y-67232597D01*
X120099020Y-67404651D01*
X120099023Y-67404655D01*
X120245345Y-67550977D01*
X120417402Y-67665941D01*
X120608580Y-67745130D01*
X120811535Y-67785500D01*
X120811536Y-67785500D01*
X121018464Y-67785500D01*
X121018465Y-67785500D01*
X121221420Y-67745130D01*
X121412598Y-67665941D01*
X121584655Y-67550977D01*
X121730977Y-67404655D01*
X121845941Y-67232598D01*
X121925130Y-67041420D01*
X121965500Y-66838465D01*
X121965500Y-66644489D01*
X122305000Y-66644489D01*
X122305000Y-66825510D01*
X122333316Y-67004289D01*
X122389250Y-67176440D01*
X122471430Y-67337728D01*
X122542424Y-67435442D01*
X123011328Y-66966536D01*
X123054901Y-67042007D01*
X123147993Y-67135099D01*
X123223460Y-67178670D01*
X122754556Y-67647574D01*
X122754556Y-67647575D01*
X122852263Y-67718564D01*
X122852269Y-67718568D01*
X123013559Y-67800749D01*
X123185710Y-67856683D01*
X123364490Y-67885000D01*
X123545510Y-67885000D01*
X123724289Y-67856683D01*
X123896440Y-67800749D01*
X124057730Y-67718568D01*
X124057735Y-67718564D01*
X124155442Y-67647575D01*
X124155442Y-67647574D01*
X123686538Y-67178670D01*
X123762007Y-67135099D01*
X123855099Y-67042007D01*
X123898670Y-66966538D01*
X124367574Y-67435442D01*
X124367575Y-67435442D01*
X124438564Y-67337735D01*
X124438568Y-67337730D01*
X124520749Y-67176440D01*
X124576683Y-67004289D01*
X124605000Y-66825510D01*
X124605000Y-66644489D01*
X124604630Y-66642153D01*
X124604630Y-66642152D01*
X124602948Y-66631532D01*
X124944500Y-66631532D01*
X124944500Y-66838467D01*
X124984869Y-67041418D01*
X125064058Y-67232597D01*
X125179020Y-67404651D01*
X125179023Y-67404655D01*
X125325345Y-67550977D01*
X125497402Y-67665941D01*
X125688580Y-67745130D01*
X125891535Y-67785500D01*
X125891536Y-67785500D01*
X126098464Y-67785500D01*
X126098465Y-67785500D01*
X126301420Y-67745130D01*
X126492598Y-67665941D01*
X126664655Y-67550977D01*
X126810977Y-67404655D01*
X126925941Y-67232598D01*
X127005130Y-67041420D01*
X127045500Y-66838465D01*
X127045500Y-66631535D01*
X127045499Y-66631532D01*
X127484500Y-66631532D01*
X127484500Y-66838467D01*
X127524869Y-67041418D01*
X127604058Y-67232597D01*
X127719020Y-67404651D01*
X127719023Y-67404655D01*
X127865345Y-67550977D01*
X128037402Y-67665941D01*
X128228580Y-67745130D01*
X128431535Y-67785500D01*
X128431536Y-67785500D01*
X128638464Y-67785500D01*
X128638465Y-67785500D01*
X128841420Y-67745130D01*
X129032598Y-67665941D01*
X129204655Y-67550977D01*
X129350977Y-67404655D01*
X129465941Y-67232598D01*
X129545130Y-67041420D01*
X129585500Y-66838465D01*
X129585500Y-66631535D01*
X129585499Y-66631532D01*
X130024500Y-66631532D01*
X130024500Y-66838467D01*
X130064869Y-67041418D01*
X130144058Y-67232597D01*
X130259020Y-67404651D01*
X130259023Y-67404655D01*
X130405345Y-67550977D01*
X130577402Y-67665941D01*
X130768580Y-67745130D01*
X130971535Y-67785500D01*
X130971536Y-67785500D01*
X131178464Y-67785500D01*
X131178465Y-67785500D01*
X131381420Y-67745130D01*
X131572598Y-67665941D01*
X131744655Y-67550977D01*
X131890977Y-67404655D01*
X132005941Y-67232598D01*
X132085130Y-67041420D01*
X132125500Y-66838465D01*
X132125500Y-66644489D01*
X132465000Y-66644489D01*
X132465000Y-66825510D01*
X132493316Y-67004289D01*
X132549250Y-67176440D01*
X132631430Y-67337728D01*
X132702424Y-67435442D01*
X133171328Y-66966536D01*
X133214901Y-67042007D01*
X133307993Y-67135099D01*
X133383460Y-67178670D01*
X132914556Y-67647574D01*
X132914556Y-67647575D01*
X133012263Y-67718564D01*
X133012269Y-67718568D01*
X133173559Y-67800749D01*
X133345710Y-67856683D01*
X133524490Y-67885000D01*
X133705510Y-67885000D01*
X133884289Y-67856683D01*
X134056440Y-67800749D01*
X134217730Y-67718568D01*
X134217735Y-67718564D01*
X134315442Y-67647575D01*
X134315442Y-67647574D01*
X133846538Y-67178670D01*
X133922007Y-67135099D01*
X134015099Y-67042007D01*
X134058670Y-66966538D01*
X134527574Y-67435442D01*
X134527575Y-67435442D01*
X134598564Y-67337735D01*
X134598568Y-67337730D01*
X134680749Y-67176440D01*
X134736683Y-67004289D01*
X134765000Y-66825510D01*
X134765000Y-66644489D01*
X134764630Y-66642153D01*
X134764630Y-66642152D01*
X134762948Y-66631532D01*
X135104500Y-66631532D01*
X135104500Y-66838467D01*
X135144869Y-67041418D01*
X135224058Y-67232597D01*
X135339020Y-67404651D01*
X135339023Y-67404655D01*
X135485345Y-67550977D01*
X135657402Y-67665941D01*
X135848580Y-67745130D01*
X136051535Y-67785500D01*
X136051536Y-67785500D01*
X136258464Y-67785500D01*
X136258465Y-67785500D01*
X136461420Y-67745130D01*
X136652598Y-67665941D01*
X136824655Y-67550977D01*
X136970977Y-67404655D01*
X137085941Y-67232598D01*
X137165130Y-67041420D01*
X137205500Y-66838465D01*
X137205500Y-66631535D01*
X137205499Y-66631532D01*
X137644500Y-66631532D01*
X137644500Y-66838467D01*
X137684869Y-67041418D01*
X137764058Y-67232597D01*
X137879020Y-67404651D01*
X137879023Y-67404655D01*
X138025345Y-67550977D01*
X138197402Y-67665941D01*
X138388580Y-67745130D01*
X138591535Y-67785500D01*
X138591536Y-67785500D01*
X138798464Y-67785500D01*
X138798465Y-67785500D01*
X139001420Y-67745130D01*
X139192598Y-67665941D01*
X139364655Y-67550977D01*
X139510977Y-67404655D01*
X139625941Y-67232598D01*
X139705130Y-67041420D01*
X139745500Y-66838465D01*
X139745500Y-66644489D01*
X140085000Y-66644489D01*
X140085000Y-66825510D01*
X140113316Y-67004289D01*
X140169250Y-67176440D01*
X140251430Y-67337728D01*
X140322424Y-67435442D01*
X140791328Y-66966536D01*
X140834901Y-67042007D01*
X140927993Y-67135099D01*
X141003460Y-67178670D01*
X140534556Y-67647574D01*
X140534556Y-67647575D01*
X140632263Y-67718564D01*
X140632269Y-67718568D01*
X140793559Y-67800749D01*
X140965710Y-67856683D01*
X141144490Y-67885000D01*
X141325510Y-67885000D01*
X141504289Y-67856683D01*
X141676440Y-67800749D01*
X141837730Y-67718568D01*
X141837735Y-67718564D01*
X141935442Y-67647575D01*
X141935442Y-67647574D01*
X141466538Y-67178670D01*
X141542007Y-67135099D01*
X141635099Y-67042007D01*
X141678670Y-66966538D01*
X142147574Y-67435442D01*
X142147575Y-67435442D01*
X142218564Y-67337735D01*
X142218568Y-67337730D01*
X142300749Y-67176440D01*
X142356683Y-67004289D01*
X142385000Y-66825510D01*
X142385000Y-66644489D01*
X142384630Y-66642153D01*
X142384630Y-66642152D01*
X142382948Y-66631532D01*
X142724500Y-66631532D01*
X142724500Y-66838467D01*
X142764869Y-67041418D01*
X142844058Y-67232597D01*
X142959020Y-67404651D01*
X142959023Y-67404655D01*
X143105345Y-67550977D01*
X143277402Y-67665941D01*
X143468580Y-67745130D01*
X143671535Y-67785500D01*
X143671536Y-67785500D01*
X143878464Y-67785500D01*
X143878465Y-67785500D01*
X144081420Y-67745130D01*
X144272598Y-67665941D01*
X144444655Y-67550977D01*
X144590977Y-67404655D01*
X144705941Y-67232598D01*
X144785130Y-67041420D01*
X144825500Y-66838465D01*
X144825500Y-66631535D01*
X144825499Y-66631532D01*
X145264500Y-66631532D01*
X145264500Y-66838467D01*
X145304869Y-67041418D01*
X145384058Y-67232597D01*
X145499020Y-67404651D01*
X145499023Y-67404655D01*
X145645345Y-67550977D01*
X145817402Y-67665941D01*
X146008580Y-67745130D01*
X146211535Y-67785500D01*
X146211536Y-67785500D01*
X146418464Y-67785500D01*
X146418465Y-67785500D01*
X146621420Y-67745130D01*
X146812598Y-67665941D01*
X146984655Y-67550977D01*
X147130977Y-67404655D01*
X147245941Y-67232598D01*
X147325130Y-67041420D01*
X147365500Y-66838465D01*
X147365500Y-66631535D01*
X147365499Y-66631532D01*
X147804500Y-66631532D01*
X147804500Y-66838467D01*
X147844869Y-67041418D01*
X147924058Y-67232597D01*
X148039020Y-67404651D01*
X148039023Y-67404655D01*
X148185345Y-67550977D01*
X148357402Y-67665941D01*
X148548580Y-67745130D01*
X148751535Y-67785500D01*
X148751536Y-67785500D01*
X148958464Y-67785500D01*
X148958465Y-67785500D01*
X149161420Y-67745130D01*
X149352598Y-67665941D01*
X149524655Y-67550977D01*
X149670977Y-67404655D01*
X149785941Y-67232598D01*
X149865130Y-67041420D01*
X149905500Y-66838465D01*
X149905500Y-66631535D01*
X149905499Y-66631532D01*
X150344500Y-66631532D01*
X150344500Y-66838467D01*
X150384869Y-67041418D01*
X150464058Y-67232597D01*
X150579020Y-67404651D01*
X150579023Y-67404655D01*
X150725345Y-67550977D01*
X150897402Y-67665941D01*
X151088580Y-67745130D01*
X151291535Y-67785500D01*
X151291536Y-67785500D01*
X151498464Y-67785500D01*
X151498465Y-67785500D01*
X151701420Y-67745130D01*
X151892598Y-67665941D01*
X152064655Y-67550977D01*
X152210977Y-67404655D01*
X152325941Y-67232598D01*
X152405130Y-67041420D01*
X152445500Y-66838465D01*
X152445500Y-66644489D01*
X152785000Y-66644489D01*
X152785000Y-66825510D01*
X152813316Y-67004289D01*
X152869250Y-67176440D01*
X152951430Y-67337728D01*
X153022424Y-67435442D01*
X153491328Y-66966536D01*
X153534901Y-67042007D01*
X153627993Y-67135099D01*
X153703460Y-67178670D01*
X153234556Y-67647574D01*
X153234556Y-67647575D01*
X153332263Y-67718564D01*
X153332269Y-67718568D01*
X153493559Y-67800749D01*
X153665710Y-67856683D01*
X153844490Y-67885000D01*
X154025510Y-67885000D01*
X154204289Y-67856683D01*
X154376440Y-67800749D01*
X154537730Y-67718568D01*
X154537735Y-67718564D01*
X154635442Y-67647575D01*
X154635442Y-67647574D01*
X154166538Y-67178670D01*
X154242007Y-67135099D01*
X154335099Y-67042007D01*
X154378670Y-66966538D01*
X154847574Y-67435442D01*
X154847575Y-67435442D01*
X154918564Y-67337735D01*
X154918568Y-67337730D01*
X155000749Y-67176440D01*
X155056683Y-67004289D01*
X155085000Y-66825510D01*
X155085000Y-66644489D01*
X155084630Y-66642153D01*
X155084630Y-66642152D01*
X155082948Y-66631532D01*
X155424500Y-66631532D01*
X155424500Y-66838467D01*
X155464869Y-67041418D01*
X155544058Y-67232597D01*
X155659020Y-67404651D01*
X155659023Y-67404655D01*
X155805345Y-67550977D01*
X155977402Y-67665941D01*
X156168580Y-67745130D01*
X156371535Y-67785500D01*
X156371536Y-67785500D01*
X156578464Y-67785500D01*
X156578465Y-67785500D01*
X156781420Y-67745130D01*
X156972598Y-67665941D01*
X157144655Y-67550977D01*
X157290977Y-67404655D01*
X157405941Y-67232598D01*
X157485130Y-67041420D01*
X157525500Y-66838465D01*
X157525500Y-66644489D01*
X157865000Y-66644489D01*
X157865000Y-66825510D01*
X157893316Y-67004289D01*
X157949250Y-67176440D01*
X158031430Y-67337728D01*
X158102424Y-67435442D01*
X158571328Y-66966536D01*
X158614901Y-67042007D01*
X158707993Y-67135099D01*
X158783460Y-67178670D01*
X158314556Y-67647574D01*
X158314556Y-67647575D01*
X158412263Y-67718564D01*
X158412269Y-67718568D01*
X158573559Y-67800749D01*
X158745710Y-67856683D01*
X158924490Y-67885000D01*
X159105510Y-67885000D01*
X159284289Y-67856683D01*
X159456440Y-67800749D01*
X159617730Y-67718568D01*
X159617735Y-67718564D01*
X159715442Y-67647575D01*
X159715442Y-67647574D01*
X159246538Y-67178670D01*
X159322007Y-67135099D01*
X159415099Y-67042007D01*
X159458670Y-66966538D01*
X159927574Y-67435442D01*
X159927575Y-67435442D01*
X159998564Y-67337735D01*
X159998568Y-67337730D01*
X160080749Y-67176440D01*
X160136683Y-67004289D01*
X160165000Y-66825510D01*
X160165000Y-66644489D01*
X160164630Y-66642153D01*
X160164630Y-66642152D01*
X160162948Y-66631532D01*
X160504500Y-66631532D01*
X160504500Y-66838467D01*
X160544869Y-67041418D01*
X160624058Y-67232597D01*
X160739020Y-67404651D01*
X160739023Y-67404655D01*
X160885345Y-67550977D01*
X161057402Y-67665941D01*
X161248580Y-67745130D01*
X161451535Y-67785500D01*
X161451536Y-67785500D01*
X161658464Y-67785500D01*
X161658465Y-67785500D01*
X161861420Y-67745130D01*
X162052598Y-67665941D01*
X162224655Y-67550977D01*
X162370977Y-67404655D01*
X162485941Y-67232598D01*
X162565130Y-67041420D01*
X162605500Y-66838465D01*
X162605500Y-66631535D01*
X162605499Y-66631532D01*
X163044500Y-66631532D01*
X163044500Y-66838467D01*
X163084869Y-67041418D01*
X163164058Y-67232597D01*
X163279020Y-67404651D01*
X163279023Y-67404655D01*
X163425345Y-67550977D01*
X163597402Y-67665941D01*
X163788580Y-67745130D01*
X163991535Y-67785500D01*
X163991536Y-67785500D01*
X164198464Y-67785500D01*
X164198465Y-67785500D01*
X164401420Y-67745130D01*
X164592598Y-67665941D01*
X164764655Y-67550977D01*
X164910977Y-67404655D01*
X165025941Y-67232598D01*
X165105130Y-67041420D01*
X165145500Y-66838465D01*
X165145500Y-66631535D01*
X165145499Y-66631532D01*
X165584500Y-66631532D01*
X165584500Y-66838467D01*
X165624869Y-67041418D01*
X165704058Y-67232597D01*
X165819020Y-67404651D01*
X165819023Y-67404655D01*
X165965345Y-67550977D01*
X166137402Y-67665941D01*
X166328580Y-67745130D01*
X166531535Y-67785500D01*
X166531536Y-67785500D01*
X166738464Y-67785500D01*
X166738465Y-67785500D01*
X166941420Y-67745130D01*
X167132598Y-67665941D01*
X167304655Y-67550977D01*
X167450977Y-67404655D01*
X167565941Y-67232598D01*
X167645130Y-67041420D01*
X167685500Y-66838465D01*
X167685500Y-66631535D01*
X167645130Y-66428580D01*
X167565941Y-66237402D01*
X167450977Y-66065345D01*
X167304655Y-65919023D01*
X167192195Y-65843880D01*
X167132597Y-65804058D01*
X166941418Y-65724869D01*
X166738467Y-65684500D01*
X166738465Y-65684500D01*
X166531535Y-65684500D01*
X166531532Y-65684500D01*
X166328581Y-65724869D01*
X166137402Y-65804058D01*
X165965348Y-65919020D01*
X165819020Y-66065348D01*
X165704058Y-66237402D01*
X165624869Y-66428581D01*
X165584500Y-66631532D01*
X165145499Y-66631532D01*
X165105130Y-66428580D01*
X165025941Y-66237402D01*
X164910977Y-66065345D01*
X164764655Y-65919023D01*
X164652195Y-65843880D01*
X164592597Y-65804058D01*
X164401418Y-65724869D01*
X164198467Y-65684500D01*
X164198465Y-65684500D01*
X163991535Y-65684500D01*
X163991532Y-65684500D01*
X163788581Y-65724869D01*
X163597402Y-65804058D01*
X163425348Y-65919020D01*
X163279020Y-66065348D01*
X163164058Y-66237402D01*
X163084869Y-66428581D01*
X163044500Y-66631532D01*
X162605499Y-66631532D01*
X162565130Y-66428580D01*
X162485941Y-66237402D01*
X162370977Y-66065345D01*
X162224655Y-65919023D01*
X162112195Y-65843880D01*
X162052597Y-65804058D01*
X161861418Y-65724869D01*
X161658467Y-65684500D01*
X161658465Y-65684500D01*
X161451535Y-65684500D01*
X161451532Y-65684500D01*
X161248581Y-65724869D01*
X161057402Y-65804058D01*
X160885348Y-65919020D01*
X160739020Y-66065348D01*
X160624058Y-66237402D01*
X160544869Y-66428581D01*
X160504500Y-66631532D01*
X160162948Y-66631532D01*
X160136683Y-66465710D01*
X160080749Y-66293559D01*
X159998568Y-66132269D01*
X159998564Y-66132263D01*
X159927575Y-66034556D01*
X159927574Y-66034556D01*
X159458670Y-66503460D01*
X159415099Y-66427993D01*
X159322007Y-66334901D01*
X159246536Y-66291328D01*
X159715442Y-65822424D01*
X159617728Y-65751430D01*
X159456440Y-65669250D01*
X159284289Y-65613316D01*
X159105510Y-65585000D01*
X158924490Y-65585000D01*
X158745710Y-65613316D01*
X158573559Y-65669250D01*
X158412269Y-65751431D01*
X158412265Y-65751433D01*
X158314556Y-65822423D01*
X158783461Y-66291328D01*
X158707993Y-66334901D01*
X158614901Y-66427993D01*
X158571328Y-66503461D01*
X158102423Y-66034556D01*
X158031433Y-66132265D01*
X158031431Y-66132269D01*
X157949250Y-66293559D01*
X157893316Y-66465710D01*
X157865000Y-66644489D01*
X157525500Y-66644489D01*
X157525500Y-66631535D01*
X157485130Y-66428580D01*
X157405941Y-66237402D01*
X157290977Y-66065345D01*
X157144655Y-65919023D01*
X157032195Y-65843880D01*
X156972597Y-65804058D01*
X156781418Y-65724869D01*
X156578467Y-65684500D01*
X156578465Y-65684500D01*
X156371535Y-65684500D01*
X156371532Y-65684500D01*
X156168581Y-65724869D01*
X155977402Y-65804058D01*
X155805348Y-65919020D01*
X155659020Y-66065348D01*
X155544058Y-66237402D01*
X155464869Y-66428581D01*
X155424500Y-66631532D01*
X155082948Y-66631532D01*
X155056683Y-66465710D01*
X155000749Y-66293559D01*
X154918568Y-66132269D01*
X154918564Y-66132263D01*
X154847575Y-66034556D01*
X154847574Y-66034556D01*
X154378670Y-66503460D01*
X154335099Y-66427993D01*
X154242007Y-66334901D01*
X154166536Y-66291328D01*
X154635442Y-65822424D01*
X154537728Y-65751430D01*
X154376440Y-65669250D01*
X154204289Y-65613316D01*
X154025510Y-65585000D01*
X153844490Y-65585000D01*
X153665710Y-65613316D01*
X153493559Y-65669250D01*
X153332269Y-65751431D01*
X153332265Y-65751433D01*
X153234556Y-65822423D01*
X153703461Y-66291328D01*
X153627993Y-66334901D01*
X153534901Y-66427993D01*
X153491328Y-66503461D01*
X153022423Y-66034556D01*
X152951433Y-66132265D01*
X152951431Y-66132269D01*
X152869250Y-66293559D01*
X152813316Y-66465710D01*
X152785000Y-66644489D01*
X152445500Y-66644489D01*
X152445500Y-66631535D01*
X152405130Y-66428580D01*
X152325941Y-66237402D01*
X152210977Y-66065345D01*
X152064655Y-65919023D01*
X151952195Y-65843880D01*
X151892597Y-65804058D01*
X151701418Y-65724869D01*
X151498467Y-65684500D01*
X151498465Y-65684500D01*
X151291535Y-65684500D01*
X151291532Y-65684500D01*
X151088581Y-65724869D01*
X150897402Y-65804058D01*
X150725348Y-65919020D01*
X150579020Y-66065348D01*
X150464058Y-66237402D01*
X150384869Y-66428581D01*
X150344500Y-66631532D01*
X149905499Y-66631532D01*
X149865130Y-66428580D01*
X149785941Y-66237402D01*
X149670977Y-66065345D01*
X149524655Y-65919023D01*
X149412195Y-65843880D01*
X149352597Y-65804058D01*
X149161418Y-65724869D01*
X148958467Y-65684500D01*
X148958465Y-65684500D01*
X148751535Y-65684500D01*
X148751532Y-65684500D01*
X148548581Y-65724869D01*
X148357402Y-65804058D01*
X148185348Y-65919020D01*
X148039020Y-66065348D01*
X147924058Y-66237402D01*
X147844869Y-66428581D01*
X147804500Y-66631532D01*
X147365499Y-66631532D01*
X147325130Y-66428580D01*
X147245941Y-66237402D01*
X147130977Y-66065345D01*
X146984655Y-65919023D01*
X146872195Y-65843880D01*
X146812597Y-65804058D01*
X146621418Y-65724869D01*
X146418467Y-65684500D01*
X146418465Y-65684500D01*
X146211535Y-65684500D01*
X146211532Y-65684500D01*
X146008581Y-65724869D01*
X145817402Y-65804058D01*
X145645348Y-65919020D01*
X145499020Y-66065348D01*
X145384058Y-66237402D01*
X145304869Y-66428581D01*
X145264500Y-66631532D01*
X144825499Y-66631532D01*
X144785130Y-66428580D01*
X144705941Y-66237402D01*
X144590977Y-66065345D01*
X144444655Y-65919023D01*
X144332195Y-65843880D01*
X144272597Y-65804058D01*
X144081418Y-65724869D01*
X143878467Y-65684500D01*
X143878465Y-65684500D01*
X143671535Y-65684500D01*
X143671532Y-65684500D01*
X143468581Y-65724869D01*
X143277402Y-65804058D01*
X143105348Y-65919020D01*
X142959020Y-66065348D01*
X142844058Y-66237402D01*
X142764869Y-66428581D01*
X142724500Y-66631532D01*
X142382948Y-66631532D01*
X142356683Y-66465710D01*
X142300749Y-66293559D01*
X142218568Y-66132269D01*
X142218564Y-66132263D01*
X142147575Y-66034556D01*
X142147574Y-66034556D01*
X141678670Y-66503460D01*
X141635099Y-66427993D01*
X141542007Y-66334901D01*
X141466536Y-66291328D01*
X141935442Y-65822424D01*
X141837728Y-65751430D01*
X141676440Y-65669250D01*
X141504289Y-65613316D01*
X141325510Y-65585000D01*
X141144490Y-65585000D01*
X140965710Y-65613316D01*
X140793559Y-65669250D01*
X140632269Y-65751431D01*
X140632265Y-65751433D01*
X140534556Y-65822423D01*
X141003461Y-66291328D01*
X140927993Y-66334901D01*
X140834901Y-66427993D01*
X140791328Y-66503461D01*
X140322423Y-66034556D01*
X140251433Y-66132265D01*
X140251431Y-66132269D01*
X140169250Y-66293559D01*
X140113316Y-66465710D01*
X140085000Y-66644489D01*
X139745500Y-66644489D01*
X139745500Y-66631535D01*
X139705130Y-66428580D01*
X139625941Y-66237402D01*
X139510977Y-66065345D01*
X139364655Y-65919023D01*
X139252195Y-65843880D01*
X139192597Y-65804058D01*
X139001418Y-65724869D01*
X138798467Y-65684500D01*
X138798465Y-65684500D01*
X138591535Y-65684500D01*
X138591532Y-65684500D01*
X138388581Y-65724869D01*
X138197402Y-65804058D01*
X138025348Y-65919020D01*
X137879020Y-66065348D01*
X137764058Y-66237402D01*
X137684869Y-66428581D01*
X137644500Y-66631532D01*
X137205499Y-66631532D01*
X137165130Y-66428580D01*
X137085941Y-66237402D01*
X136970977Y-66065345D01*
X136824655Y-65919023D01*
X136712195Y-65843880D01*
X136652597Y-65804058D01*
X136461418Y-65724869D01*
X136258467Y-65684500D01*
X136258465Y-65684500D01*
X136051535Y-65684500D01*
X136051532Y-65684500D01*
X135848581Y-65724869D01*
X135657402Y-65804058D01*
X135485348Y-65919020D01*
X135339020Y-66065348D01*
X135224058Y-66237402D01*
X135144869Y-66428581D01*
X135104500Y-66631532D01*
X134762948Y-66631532D01*
X134736683Y-66465710D01*
X134680749Y-66293559D01*
X134598568Y-66132269D01*
X134598564Y-66132263D01*
X134527575Y-66034556D01*
X134527574Y-66034556D01*
X134058670Y-66503460D01*
X134015099Y-66427993D01*
X133922007Y-66334901D01*
X133846536Y-66291328D01*
X134315442Y-65822424D01*
X134217728Y-65751430D01*
X134056440Y-65669250D01*
X133884289Y-65613316D01*
X133705510Y-65585000D01*
X133524490Y-65585000D01*
X133345710Y-65613316D01*
X133173559Y-65669250D01*
X133012269Y-65751431D01*
X133012265Y-65751433D01*
X132914556Y-65822423D01*
X133383461Y-66291328D01*
X133307993Y-66334901D01*
X133214901Y-66427993D01*
X133171328Y-66503461D01*
X132702423Y-66034556D01*
X132631433Y-66132265D01*
X132631431Y-66132269D01*
X132549250Y-66293559D01*
X132493316Y-66465710D01*
X132465000Y-66644489D01*
X132125500Y-66644489D01*
X132125500Y-66631535D01*
X132085130Y-66428580D01*
X132005941Y-66237402D01*
X131890977Y-66065345D01*
X131744655Y-65919023D01*
X131632195Y-65843880D01*
X131572597Y-65804058D01*
X131381418Y-65724869D01*
X131178467Y-65684500D01*
X131178465Y-65684500D01*
X130971535Y-65684500D01*
X130971532Y-65684500D01*
X130768581Y-65724869D01*
X130577402Y-65804058D01*
X130405348Y-65919020D01*
X130259020Y-66065348D01*
X130144058Y-66237402D01*
X130064869Y-66428581D01*
X130024500Y-66631532D01*
X129585499Y-66631532D01*
X129545130Y-66428580D01*
X129465941Y-66237402D01*
X129350977Y-66065345D01*
X129204655Y-65919023D01*
X129092195Y-65843880D01*
X129032597Y-65804058D01*
X128841418Y-65724869D01*
X128638467Y-65684500D01*
X128638465Y-65684500D01*
X128431535Y-65684500D01*
X128431532Y-65684500D01*
X128228581Y-65724869D01*
X128037402Y-65804058D01*
X127865348Y-65919020D01*
X127719020Y-66065348D01*
X127604058Y-66237402D01*
X127524869Y-66428581D01*
X127484500Y-66631532D01*
X127045499Y-66631532D01*
X127005130Y-66428580D01*
X126925941Y-66237402D01*
X126810977Y-66065345D01*
X126664655Y-65919023D01*
X126552195Y-65843880D01*
X126492597Y-65804058D01*
X126301418Y-65724869D01*
X126098467Y-65684500D01*
X126098465Y-65684500D01*
X125891535Y-65684500D01*
X125891532Y-65684500D01*
X125688581Y-65724869D01*
X125497402Y-65804058D01*
X125325348Y-65919020D01*
X125179020Y-66065348D01*
X125064058Y-66237402D01*
X124984869Y-66428581D01*
X124944500Y-66631532D01*
X124602948Y-66631532D01*
X124576683Y-66465710D01*
X124520749Y-66293559D01*
X124438568Y-66132269D01*
X124438564Y-66132263D01*
X124367575Y-66034556D01*
X124367574Y-66034556D01*
X123898670Y-66503460D01*
X123855099Y-66427993D01*
X123762007Y-66334901D01*
X123686536Y-66291328D01*
X124155442Y-65822424D01*
X124057728Y-65751430D01*
X123896440Y-65669250D01*
X123724289Y-65613316D01*
X123545510Y-65585000D01*
X123364490Y-65585000D01*
X123185710Y-65613316D01*
X123013559Y-65669250D01*
X122852269Y-65751431D01*
X122852265Y-65751433D01*
X122754556Y-65822423D01*
X123223461Y-66291328D01*
X123147993Y-66334901D01*
X123054901Y-66427993D01*
X123011328Y-66503461D01*
X122542423Y-66034556D01*
X122471433Y-66132265D01*
X122471431Y-66132269D01*
X122389250Y-66293559D01*
X122333316Y-66465710D01*
X122305000Y-66644489D01*
X121965500Y-66644489D01*
X121965500Y-66631535D01*
X121925130Y-66428580D01*
X121845941Y-66237402D01*
X121730977Y-66065345D01*
X121584655Y-65919023D01*
X121472195Y-65843880D01*
X121412597Y-65804058D01*
X121221418Y-65724869D01*
X121018467Y-65684500D01*
X121018465Y-65684500D01*
X120811535Y-65684500D01*
X120811532Y-65684500D01*
X120608581Y-65724869D01*
X120417402Y-65804058D01*
X120245348Y-65919020D01*
X120099020Y-66065348D01*
X119984058Y-66237402D01*
X119904869Y-66428581D01*
X119864500Y-66631532D01*
X119425499Y-66631532D01*
X119385130Y-66428580D01*
X119305941Y-66237402D01*
X119190977Y-66065345D01*
X119044655Y-65919023D01*
X118932195Y-65843880D01*
X118872597Y-65804058D01*
X118681418Y-65724869D01*
X118478467Y-65684500D01*
X118478465Y-65684500D01*
X118271535Y-65684500D01*
X118271532Y-65684500D01*
X118068581Y-65724869D01*
X117877402Y-65804058D01*
X117705348Y-65919020D01*
X117559020Y-66065348D01*
X117444058Y-66237402D01*
X117364869Y-66428581D01*
X117324500Y-66631532D01*
X110531036Y-66631532D01*
X110572052Y-66407714D01*
X110574912Y-66396113D01*
X110661148Y-66119370D01*
X110665378Y-66108218D01*
X110784350Y-65843873D01*
X110789899Y-65833302D01*
X110939861Y-65585233D01*
X110946632Y-65575423D01*
X111125406Y-65347235D01*
X111133318Y-65338303D01*
X111338303Y-65133318D01*
X111347235Y-65125406D01*
X111575423Y-64946632D01*
X111585233Y-64939861D01*
X111833302Y-64789899D01*
X111843873Y-64784350D01*
X112108218Y-64665378D01*
X112119370Y-64661148D01*
X112396120Y-64574910D01*
X112407714Y-64572052D01*
X112692837Y-64519801D01*
X112704688Y-64518362D01*
X112997008Y-64500681D01*
X113002985Y-64500500D01*
X113065892Y-64500500D01*
X171934108Y-64500500D01*
X171997015Y-64500500D01*
X172002992Y-64500681D01*
G37*
%TD.AperFunction*%
%TD*%
M02*
