%TF.GenerationSoftware,KiCad,Pcbnew,9.0.6*%
%TF.CreationDate,2026-01-16T00:05:44+01:00*%
%TF.ProjectId,fdcanhat,66646361-6e68-4617-942e-6b696361645f,rev?*%
%TF.SameCoordinates,Original*%
%TF.FileFunction,Copper,L2,Inr*%
%TF.FilePolarity,Positive*%
%FSLAX46Y46*%
G04 Gerber Fmt 4.6, Leading zero omitted, Abs format (unit mm)*
G04 Created by KiCad (PCBNEW 9.0.6) date 2026-01-16 00:05:44*
%MOMM*%
%LPD*%
G01*
G04 APERTURE LIST*
%TA.AperFunction,ComponentPad*%
%ADD10C,2.500000*%
%TD*%
%TA.AperFunction,ComponentPad*%
%ADD11C,1.800000*%
%TD*%
%TA.AperFunction,ComponentPad*%
%ADD12R,1.700000X1.700000*%
%TD*%
%TA.AperFunction,ComponentPad*%
%ADD13C,1.700000*%
%TD*%
%TA.AperFunction,ComponentPad*%
%ADD14C,0.800000*%
%TD*%
%TA.AperFunction,ComponentPad*%
%ADD15C,5.400000*%
%TD*%
%TA.AperFunction,ViaPad*%
%ADD16C,0.600000*%
%TD*%
G04 APERTURE END LIST*
D10*
%TO.N,GND*%
%TO.C,J3*%
X123262500Y-77000000D03*
%TO.N,+BAT*%
X123262500Y-82000000D03*
D11*
%TO.N,unconnected-(J3-PadMP1)*%
X113262500Y-74000000D03*
%TO.N,unconnected-(J3-PadMP2)*%
X113262500Y-85000000D03*
%TD*%
D12*
%TO.N,unconnected-(J1-3V3-Pad1)*%
%TO.C,J1*%
X118375000Y-69275000D03*
D13*
%TO.N,+5V*%
X118375000Y-66735000D03*
%TO.N,/MON_SDA*%
X120915000Y-69275000D03*
%TO.N,+5V*%
X120915000Y-66735000D03*
%TO.N,/MON_SCL*%
X123455000Y-69275000D03*
%TO.N,GND*%
X123455000Y-66735000D03*
%TO.N,/RTK_PPS*%
X125995000Y-69275000D03*
%TO.N,/RTK_TXD*%
X125995000Y-66735000D03*
%TO.N,GND*%
X128535000Y-69275000D03*
%TO.N,/RTK_RXD*%
X128535000Y-66735000D03*
%TO.N,unconnected-(J1-GPIO17{slash}SPI1_~{CE1}-Pad11)*%
X131075000Y-69275000D03*
%TO.N,unconnected-(J1-GPIO18{slash}SPI1_~{CE0}{slash}PCM_CLK{slash}PWM0-Pad12)*%
X131075000Y-66735000D03*
%TO.N,unconnected-(J1-GPIO27{slash}SDIO_DAT3-Pad13)*%
X133615000Y-69275000D03*
%TO.N,GND*%
X133615000Y-66735000D03*
%TO.N,unconnected-(J1-GPIO22{slash}SDIO_CLK-Pad15)*%
X136155000Y-69275000D03*
%TO.N,unconnected-(J1-GPIO23{slash}SDIO_CMD-Pad16)*%
X136155000Y-66735000D03*
%TO.N,unconnected-(J1-3V3-Pad17)*%
X138695000Y-69275000D03*
%TO.N,unconnected-(J1-GPIO24{slash}SDIO_DAT0-Pad18)*%
X138695000Y-66735000D03*
%TO.N,/FDCAN/SPI0_MOSI*%
X141235000Y-69275000D03*
%TO.N,GND*%
X141235000Y-66735000D03*
%TO.N,/FDCAN/SPI0_MISO*%
X143775000Y-69275000D03*
%TO.N,unconnected-(J1-GPIO25{slash}SDIO_DAT1-Pad22)*%
X143775000Y-66735000D03*
%TO.N,/FDCAN/SPI0_SCK*%
X146315000Y-69275000D03*
%TO.N,/FDCAN1_CS*%
X146315000Y-66735000D03*
%TO.N,GND*%
X148855000Y-69275000D03*
%TO.N,/FDCAN2_CS*%
X148855000Y-66735000D03*
%TO.N,unconnected-(J1-ID_SD_I2C0{slash}GPIO00-Pad27)*%
X151395000Y-69275000D03*
%TO.N,unconnected-(J1-ID_SC_I2C0{slash}GPIO01-Pad28)*%
X151395000Y-66735000D03*
%TO.N,/FDCAN1_INT*%
X153935000Y-69275000D03*
%TO.N,GND*%
X153935000Y-66735000D03*
%TO.N,/FDCAN2_INT*%
X156475000Y-69275000D03*
%TO.N,unconnected-(J1-GPIO12{slash}PWM0-Pad32)*%
X156475000Y-66735000D03*
%TO.N,unconnected-(J1-GPIO13{slash}PWM1-Pad33)*%
X159015000Y-69275000D03*
%TO.N,GND*%
X159015000Y-66735000D03*
%TO.N,unconnected-(J1-GPIO19{slash}SPI1_MISO{slash}PCM_FS-Pad35)*%
X161555000Y-69275000D03*
%TO.N,unconnected-(J1-GPIO16{slash}SPI1_~{CE2}-Pad36)*%
X161555000Y-66735000D03*
%TO.N,/ADD_LED*%
X164095000Y-69275000D03*
%TO.N,unconnected-(J1-GPIO20{slash}SPI1_MOSI{slash}PCM_DIN{slash}PWM1-Pad38)*%
X164095000Y-66735000D03*
%TO.N,GND*%
X166635000Y-69275000D03*
%TO.N,unconnected-(J1-GPIO21{slash}SPI1_SCLK{slash}PCM_DOUT-Pad40)*%
X166635000Y-66735000D03*
%TD*%
D14*
%TO.N,GND*%
%TO.C,H4*%
X169475000Y-117000000D03*
X170068109Y-115568109D03*
X170068109Y-118431891D03*
X171500000Y-114975000D03*
D15*
X171500000Y-117000000D03*
D14*
X171500000Y-119025000D03*
X172931891Y-115568109D03*
X172931891Y-118431891D03*
X173525000Y-117000000D03*
%TD*%
%TO.N,GND*%
%TO.C,H1*%
X111475000Y-68000000D03*
X112068109Y-66568109D03*
X112068109Y-69431891D03*
X113500000Y-65975000D03*
D15*
X113500000Y-68000000D03*
D14*
X113500000Y-70025000D03*
X114931891Y-66568109D03*
X114931891Y-69431891D03*
X115525000Y-68000000D03*
%TD*%
%TO.N,GND*%
%TO.C,H2*%
X169475000Y-68000000D03*
X170068109Y-66568109D03*
X170068109Y-69431891D03*
X171500000Y-65975000D03*
D15*
X171500000Y-68000000D03*
D14*
X171500000Y-70025000D03*
X172931891Y-66568109D03*
X172931891Y-69431891D03*
X173525000Y-68000000D03*
%TD*%
%TO.N,GND*%
%TO.C,H3*%
X111475000Y-117000000D03*
X112068109Y-115568109D03*
X112068109Y-118431891D03*
X113500000Y-114975000D03*
D15*
X113500000Y-117000000D03*
D14*
X113500000Y-119025000D03*
X114931891Y-115568109D03*
X114931891Y-118431891D03*
X115525000Y-117000000D03*
%TD*%
D16*
%TO.N,GND*%
X113000000Y-105000000D03*
X113000000Y-104000000D03*
X113000000Y-103000000D03*
%TO.N,+3V3*%
X128000000Y-115000000D03*
X127000000Y-115000000D03*
X128000000Y-114000000D03*
X127000000Y-114000000D03*
%TO.N,GND*%
X130200000Y-114300000D03*
X136500000Y-118000000D03*
X131000000Y-118000000D03*
%TO.N,/RTK_TXD*%
X134900000Y-117500000D03*
%TO.N,/RTK_RXD*%
X133650000Y-117500000D03*
%TO.N,/RTK_PPS*%
X132400000Y-116000000D03*
%TO.N,+3V3*%
X157000000Y-73000000D03*
X136400000Y-71500000D03*
%TO.N,/FDCAN1_INT*%
X154000000Y-73000000D03*
X143000000Y-73000000D03*
%TO.N,/FDCAN2_INT*%
X160900000Y-77520859D03*
%TO.N,/FDCAN1_INT*%
X138880000Y-77500000D03*
%TO.N,/FDCAN2_CS*%
X150000000Y-72500000D03*
%TO.N,GND*%
X142500000Y-75000000D03*
X164500000Y-75000000D03*
X158000000Y-75000000D03*
X136000000Y-75000000D03*
X165100000Y-80600000D03*
X143100000Y-80500000D03*
X132500000Y-102700000D03*
X132500000Y-105300000D03*
X132000000Y-101500000D03*
X132000000Y-106500000D03*
X132000000Y-104000000D03*
%TO.N,/MON_SCL*%
X133000000Y-89500000D03*
%TO.N,/MON_SDA*%
X132000000Y-89500000D03*
%TO.N,GND*%
X119500000Y-117000000D03*
X119500000Y-118500000D03*
X117500000Y-118500000D03*
X117500000Y-117000000D03*
X117500000Y-115500000D03*
X143500000Y-111500000D03*
X156500000Y-111500000D03*
X157000000Y-103500000D03*
X144000000Y-103500000D03*
X144500000Y-102500000D03*
X143500000Y-102500000D03*
X157500000Y-102500000D03*
X156500000Y-102500000D03*
X154100000Y-105500000D03*
X140600000Y-105500000D03*
%TO.N,+5V*%
X139000000Y-106500000D03*
X152500000Y-106500000D03*
%TO.N,GND*%
X152400000Y-114400000D03*
X165400000Y-114400000D03*
X164835000Y-117500000D03*
X160165000Y-117500000D03*
X151835000Y-117500000D03*
X147165000Y-117500000D03*
%TO.N,+5V*%
X140600000Y-107000000D03*
%TO.N,/FDCAN/FDCAN1_RX*%
X140900000Y-83000000D03*
%TO.N,/FDCAN/FDCAN2_RX*%
X163000000Y-83000000D03*
%TO.N,+3V3*%
X159500000Y-109500000D03*
X146500000Y-109500000D03*
%TO.N,/FDCAN/FDCAN1_RX*%
X141000000Y-81000000D03*
%TO.N,/FDCAN/FDCAN2_RX*%
X163000000Y-81000000D03*
%TO.N,GND*%
X161500000Y-79460000D03*
X166500000Y-76500000D03*
X142500000Y-76000000D03*
X139500000Y-79500000D03*
X144500000Y-76500000D03*
%TO.N,/FDCAN/SPI0_SCK*%
X140118750Y-71800000D03*
%TO.N,/FDCAN/SPI0_MISO*%
X141500000Y-70700000D03*
X138818750Y-70700000D03*
%TO.N,GND*%
X118000000Y-98000000D03*
X173500000Y-104000000D03*
X132000000Y-97500000D03*
X173500000Y-87000000D03*
X123000000Y-84500000D03*
X111510000Y-109510000D03*
X118000000Y-105000000D03*
X168500000Y-77500000D03*
X116500000Y-86000000D03*
X168500000Y-80000000D03*
X168500000Y-74500000D03*
X111500000Y-87500000D03*
X118750000Y-94800000D03*
X117800000Y-108600000D03*
X170000000Y-87500000D03*
X123750000Y-110050000D03*
X128000000Y-97500000D03*
X170000000Y-96000000D03*
X125500000Y-94000000D03*
X123500000Y-97500000D03*
X115500000Y-86000000D03*
X111400000Y-99000000D03*
X118000000Y-103000000D03*
X111500000Y-86500000D03*
X173500000Y-78500000D03*
X120520000Y-95480000D03*
X125500000Y-95000000D03*
X170000000Y-104500000D03*
X173500000Y-95500000D03*
%TO.N,+3V3*%
X130500000Y-94000000D03*
X120000000Y-99000000D03*
X118600000Y-96362500D03*
X121500000Y-93500000D03*
X127500000Y-95000000D03*
X131000000Y-92000000D03*
X126000000Y-115000000D03*
X126000000Y-114000000D03*
X132000000Y-93600000D03*
X125200000Y-118000000D03*
%TO.N,+5V*%
X154224265Y-106875735D03*
%TD*%
%TA.AperFunction,Conductor*%
%TO.N,GND*%
G36*
X127332644Y-67192388D02*
G01*
X127389962Y-67243996D01*
X127397759Y-67257503D01*
X127465476Y-67390405D01*
X127581172Y-67549646D01*
X127720354Y-67688828D01*
X127879595Y-67804524D01*
X128012496Y-67872240D01*
X128027800Y-67880038D01*
X128054975Y-67893884D01*
X128123440Y-67916129D01*
X128188121Y-67958134D01*
X128223137Y-68026855D01*
X128219101Y-68103878D01*
X128177094Y-68168563D01*
X128123441Y-68199541D01*
X128093550Y-68209254D01*
X127932267Y-68291432D01*
X127932266Y-68291433D01*
X127834556Y-68362424D01*
X128303461Y-68831329D01*
X128227993Y-68874901D01*
X128134901Y-68967993D01*
X128091329Y-69043461D01*
X127622424Y-68574556D01*
X127551433Y-68672266D01*
X127551432Y-68672267D01*
X127469254Y-68833550D01*
X127459541Y-68863441D01*
X127417532Y-68928125D01*
X127348809Y-68963138D01*
X127271787Y-68959099D01*
X127207103Y-68917090D01*
X127176130Y-68863441D01*
X127153884Y-68794975D01*
X127064524Y-68619595D01*
X126948828Y-68460354D01*
X126809646Y-68321172D01*
X126650405Y-68205476D01*
X126517503Y-68137759D01*
X126460186Y-68086152D01*
X126436352Y-68012799D01*
X126452388Y-67937356D01*
X126503996Y-67880038D01*
X126517504Y-67872240D01*
X126650405Y-67804524D01*
X126809646Y-67688828D01*
X126948828Y-67549646D01*
X127064524Y-67390405D01*
X127132240Y-67257503D01*
X127183848Y-67200186D01*
X127257201Y-67176352D01*
X127332644Y-67192388D01*
G37*
%TD.AperFunction*%
%TA.AperFunction,Conductor*%
G36*
X147652644Y-67192388D02*
G01*
X147709962Y-67243996D01*
X147717759Y-67257503D01*
X147785476Y-67390405D01*
X147901172Y-67549646D01*
X148040354Y-67688828D01*
X148199595Y-67804524D01*
X148332496Y-67872240D01*
X148347800Y-67880038D01*
X148374975Y-67893884D01*
X148443440Y-67916129D01*
X148508121Y-67958134D01*
X148543137Y-68026855D01*
X148539101Y-68103878D01*
X148497094Y-68168563D01*
X148443441Y-68199541D01*
X148413550Y-68209254D01*
X148252267Y-68291432D01*
X148252266Y-68291433D01*
X148154556Y-68362424D01*
X148623461Y-68831329D01*
X148547993Y-68874901D01*
X148454901Y-68967993D01*
X148411329Y-69043461D01*
X147942424Y-68574556D01*
X147871433Y-68672266D01*
X147871432Y-68672267D01*
X147789254Y-68833550D01*
X147779541Y-68863441D01*
X147737532Y-68928125D01*
X147668809Y-68963138D01*
X147591787Y-68959099D01*
X147527103Y-68917090D01*
X147496130Y-68863441D01*
X147473884Y-68794975D01*
X147384524Y-68619595D01*
X147268828Y-68460354D01*
X147129646Y-68321172D01*
X146970405Y-68205476D01*
X146837503Y-68137759D01*
X146780186Y-68086152D01*
X146756352Y-68012799D01*
X146772388Y-67937356D01*
X146823996Y-67880038D01*
X146837504Y-67872240D01*
X146970405Y-67804524D01*
X147129646Y-67688828D01*
X147268828Y-67549646D01*
X147384524Y-67390405D01*
X147452240Y-67257503D01*
X147503848Y-67200186D01*
X147577201Y-67176352D01*
X147652644Y-67192388D01*
G37*
%TD.AperFunction*%
%TA.AperFunction,Conductor*%
G36*
X165432644Y-67192388D02*
G01*
X165489962Y-67243996D01*
X165497759Y-67257503D01*
X165565476Y-67390405D01*
X165681172Y-67549646D01*
X165820354Y-67688828D01*
X165979595Y-67804524D01*
X166112496Y-67872240D01*
X166127800Y-67880038D01*
X166154975Y-67893884D01*
X166223440Y-67916129D01*
X166288121Y-67958134D01*
X166323137Y-68026855D01*
X166319101Y-68103878D01*
X166277094Y-68168563D01*
X166223441Y-68199541D01*
X166193550Y-68209254D01*
X166032267Y-68291432D01*
X166032266Y-68291433D01*
X165934556Y-68362424D01*
X166403461Y-68831329D01*
X166327993Y-68874901D01*
X166234901Y-68967993D01*
X166191329Y-69043461D01*
X165722424Y-68574556D01*
X165651433Y-68672266D01*
X165651432Y-68672267D01*
X165569254Y-68833550D01*
X165559541Y-68863441D01*
X165517532Y-68928125D01*
X165448809Y-68963138D01*
X165371787Y-68959099D01*
X165307103Y-68917090D01*
X165276130Y-68863441D01*
X165253884Y-68794975D01*
X165164524Y-68619595D01*
X165048828Y-68460354D01*
X164909646Y-68321172D01*
X164750405Y-68205476D01*
X164617503Y-68137759D01*
X164560186Y-68086152D01*
X164536352Y-68012799D01*
X164552388Y-67937356D01*
X164603996Y-67880038D01*
X164617504Y-67872240D01*
X164750405Y-67804524D01*
X164909646Y-67688828D01*
X165048828Y-67549646D01*
X165164524Y-67390405D01*
X165232240Y-67257503D01*
X165283848Y-67200186D01*
X165357201Y-67176352D01*
X165432644Y-67192388D01*
G37*
%TD.AperFunction*%
%TA.AperFunction,Conductor*%
G36*
X129872644Y-67192388D02*
G01*
X129929962Y-67243996D01*
X129937759Y-67257503D01*
X130005476Y-67390405D01*
X130121172Y-67549646D01*
X130260354Y-67688828D01*
X130419595Y-67804524D01*
X130487744Y-67839247D01*
X130552495Y-67872240D01*
X130609813Y-67923849D01*
X130633647Y-67997202D01*
X130617611Y-68072644D01*
X130566002Y-68129962D01*
X130552495Y-68137760D01*
X130419598Y-68205474D01*
X130419593Y-68205477D01*
X130260363Y-68321165D01*
X130260352Y-68321174D01*
X130121174Y-68460352D01*
X130121165Y-68460363D01*
X130005477Y-68619593D01*
X130005474Y-68619598D01*
X129916121Y-68794963D01*
X129916113Y-68794981D01*
X129893871Y-68863437D01*
X129851864Y-68928122D01*
X129783142Y-68963137D01*
X129706120Y-68959100D01*
X129641435Y-68917093D01*
X129610457Y-68863438D01*
X129600745Y-68833549D01*
X129518566Y-68672267D01*
X129447575Y-68574556D01*
X129447574Y-68574556D01*
X128978670Y-69043460D01*
X128935099Y-68967993D01*
X128842007Y-68874901D01*
X128766537Y-68831328D01*
X129235442Y-68362424D01*
X129137728Y-68291430D01*
X128976448Y-68209253D01*
X128946559Y-68199541D01*
X128881875Y-68157533D01*
X128846861Y-68088810D01*
X128850900Y-68011788D01*
X128892908Y-67947104D01*
X128946558Y-67916130D01*
X129015025Y-67893884D01*
X129190405Y-67804524D01*
X129349646Y-67688828D01*
X129488828Y-67549646D01*
X129604524Y-67390405D01*
X129672240Y-67257503D01*
X129723848Y-67200186D01*
X129797201Y-67176352D01*
X129872644Y-67192388D01*
G37*
%TD.AperFunction*%
%TA.AperFunction,Conductor*%
G36*
X150192644Y-67192388D02*
G01*
X150249962Y-67243996D01*
X150257759Y-67257503D01*
X150325476Y-67390405D01*
X150441172Y-67549646D01*
X150580354Y-67688828D01*
X150739595Y-67804524D01*
X150807744Y-67839247D01*
X150872495Y-67872240D01*
X150929813Y-67923849D01*
X150953647Y-67997202D01*
X150937611Y-68072644D01*
X150886002Y-68129962D01*
X150872495Y-68137760D01*
X150739598Y-68205474D01*
X150739593Y-68205477D01*
X150580363Y-68321165D01*
X150580352Y-68321174D01*
X150441174Y-68460352D01*
X150441165Y-68460363D01*
X150325477Y-68619593D01*
X150325474Y-68619598D01*
X150236121Y-68794963D01*
X150236113Y-68794981D01*
X150213871Y-68863437D01*
X150171864Y-68928122D01*
X150103142Y-68963137D01*
X150026120Y-68959100D01*
X149961435Y-68917093D01*
X149930457Y-68863438D01*
X149920745Y-68833549D01*
X149838566Y-68672267D01*
X149767575Y-68574556D01*
X149767574Y-68574556D01*
X149298670Y-69043460D01*
X149255099Y-68967993D01*
X149162007Y-68874901D01*
X149086537Y-68831328D01*
X149555442Y-68362424D01*
X149457728Y-68291430D01*
X149296448Y-68209253D01*
X149266559Y-68199541D01*
X149201875Y-68157533D01*
X149166861Y-68088810D01*
X149170900Y-68011788D01*
X149212908Y-67947104D01*
X149266558Y-67916130D01*
X149335025Y-67893884D01*
X149510405Y-67804524D01*
X149669646Y-67688828D01*
X149808828Y-67549646D01*
X149924524Y-67390405D01*
X149992240Y-67257503D01*
X150043848Y-67200186D01*
X150117201Y-67176352D01*
X150192644Y-67192388D01*
G37*
%TD.AperFunction*%
%TA.AperFunction,Conductor*%
G36*
X123054901Y-67042007D02*
G01*
X123147993Y-67135099D01*
X123223460Y-67178670D01*
X122754556Y-67647574D01*
X122754556Y-67647575D01*
X122852267Y-67718566D01*
X122852267Y-67718567D01*
X123013549Y-67800745D01*
X123043438Y-67810457D01*
X123108122Y-67852464D01*
X123143137Y-67921186D01*
X123139100Y-67998209D01*
X123097093Y-68062893D01*
X123043437Y-68093871D01*
X122974981Y-68116113D01*
X122974963Y-68116121D01*
X122799598Y-68205474D01*
X122799593Y-68205477D01*
X122640363Y-68321165D01*
X122640352Y-68321174D01*
X122501174Y-68460352D01*
X122501165Y-68460363D01*
X122385477Y-68619593D01*
X122385474Y-68619598D01*
X122317760Y-68752495D01*
X122266151Y-68809813D01*
X122192798Y-68833647D01*
X122117356Y-68817611D01*
X122060038Y-68766002D01*
X122052240Y-68752495D01*
X122019247Y-68687744D01*
X121984524Y-68619595D01*
X121868828Y-68460354D01*
X121729646Y-68321172D01*
X121570405Y-68205476D01*
X121437503Y-68137759D01*
X121380186Y-68086152D01*
X121356352Y-68012799D01*
X121372388Y-67937356D01*
X121423996Y-67880038D01*
X121437504Y-67872240D01*
X121570405Y-67804524D01*
X121729646Y-67688828D01*
X121868828Y-67549646D01*
X121984524Y-67390405D01*
X122073884Y-67215025D01*
X122096129Y-67146559D01*
X122138133Y-67081878D01*
X122206855Y-67046862D01*
X122283877Y-67050898D01*
X122348563Y-67092904D01*
X122379541Y-67146559D01*
X122389253Y-67176448D01*
X122471430Y-67337728D01*
X122542424Y-67435442D01*
X123011328Y-66966537D01*
X123054901Y-67042007D01*
G37*
%TD.AperFunction*%
%TA.AperFunction,Conductor*%
G36*
X124367575Y-67435443D02*
G01*
X124367575Y-67435442D01*
X124438566Y-67337732D01*
X124438567Y-67337732D01*
X124520746Y-67176447D01*
X124530457Y-67146563D01*
X124572463Y-67081878D01*
X124641185Y-67046862D01*
X124718207Y-67050899D01*
X124782892Y-67092905D01*
X124813870Y-67146561D01*
X124836116Y-67215025D01*
X124836119Y-67215030D01*
X124836121Y-67215036D01*
X124850877Y-67243996D01*
X124925476Y-67390405D01*
X125041172Y-67549646D01*
X125180354Y-67688828D01*
X125339595Y-67804524D01*
X125407744Y-67839247D01*
X125472495Y-67872240D01*
X125529813Y-67923849D01*
X125553647Y-67997202D01*
X125537611Y-68072644D01*
X125486002Y-68129962D01*
X125472495Y-68137760D01*
X125339598Y-68205474D01*
X125339593Y-68205477D01*
X125180363Y-68321165D01*
X125180352Y-68321174D01*
X125041174Y-68460352D01*
X125041165Y-68460363D01*
X124925477Y-68619593D01*
X124925474Y-68619598D01*
X124857760Y-68752495D01*
X124806151Y-68809813D01*
X124732798Y-68833647D01*
X124657356Y-68817611D01*
X124600038Y-68766002D01*
X124592240Y-68752495D01*
X124559247Y-68687744D01*
X124524524Y-68619595D01*
X124408828Y-68460354D01*
X124269646Y-68321172D01*
X124110405Y-68205476D01*
X124098757Y-68199541D01*
X123935036Y-68116121D01*
X123935030Y-68116119D01*
X123935025Y-68116116D01*
X123866561Y-68093870D01*
X123801877Y-68051864D01*
X123766862Y-67983142D01*
X123770899Y-67906120D01*
X123812906Y-67841435D01*
X123866563Y-67810457D01*
X123896447Y-67800746D01*
X124057732Y-67718567D01*
X124057732Y-67718566D01*
X124155442Y-67647575D01*
X124155443Y-67647575D01*
X123686538Y-67178670D01*
X123762007Y-67135099D01*
X123855099Y-67042007D01*
X123898670Y-66966538D01*
X124367575Y-67435443D01*
G37*
%TD.AperFunction*%
%TA.AperFunction,Conductor*%
G36*
X133214901Y-67042007D02*
G01*
X133307993Y-67135099D01*
X133383460Y-67178670D01*
X132914556Y-67647574D01*
X132914556Y-67647575D01*
X133012267Y-67718566D01*
X133012267Y-67718567D01*
X133173549Y-67800745D01*
X133203438Y-67810457D01*
X133268122Y-67852464D01*
X133303137Y-67921186D01*
X133299100Y-67998209D01*
X133257093Y-68062893D01*
X133203437Y-68093871D01*
X133134981Y-68116113D01*
X133134963Y-68116121D01*
X132959598Y-68205474D01*
X132959593Y-68205477D01*
X132800363Y-68321165D01*
X132800352Y-68321174D01*
X132661174Y-68460352D01*
X132661165Y-68460363D01*
X132545477Y-68619593D01*
X132545474Y-68619598D01*
X132477760Y-68752495D01*
X132426151Y-68809813D01*
X132352798Y-68833647D01*
X132277356Y-68817611D01*
X132220038Y-68766002D01*
X132212240Y-68752495D01*
X132179247Y-68687744D01*
X132144524Y-68619595D01*
X132028828Y-68460354D01*
X131889646Y-68321172D01*
X131730405Y-68205476D01*
X131597503Y-68137759D01*
X131540186Y-68086152D01*
X131516352Y-68012799D01*
X131532388Y-67937356D01*
X131583996Y-67880038D01*
X131597504Y-67872240D01*
X131730405Y-67804524D01*
X131889646Y-67688828D01*
X132028828Y-67549646D01*
X132144524Y-67390405D01*
X132233884Y-67215025D01*
X132256129Y-67146559D01*
X132298133Y-67081878D01*
X132366855Y-67046862D01*
X132443877Y-67050898D01*
X132508563Y-67092904D01*
X132539541Y-67146559D01*
X132549253Y-67176448D01*
X132631430Y-67337728D01*
X132702424Y-67435442D01*
X133171328Y-66966537D01*
X133214901Y-67042007D01*
G37*
%TD.AperFunction*%
%TA.AperFunction,Conductor*%
G36*
X134527575Y-67435443D02*
G01*
X134527575Y-67435442D01*
X134598566Y-67337732D01*
X134598567Y-67337732D01*
X134680746Y-67176447D01*
X134690457Y-67146563D01*
X134732463Y-67081878D01*
X134801185Y-67046862D01*
X134878207Y-67050899D01*
X134942892Y-67092905D01*
X134973870Y-67146561D01*
X134996116Y-67215025D01*
X134996119Y-67215030D01*
X134996121Y-67215036D01*
X135010877Y-67243996D01*
X135085476Y-67390405D01*
X135201172Y-67549646D01*
X135340354Y-67688828D01*
X135499595Y-67804524D01*
X135567744Y-67839247D01*
X135632495Y-67872240D01*
X135689813Y-67923849D01*
X135713647Y-67997202D01*
X135697611Y-68072644D01*
X135646002Y-68129962D01*
X135632495Y-68137760D01*
X135499598Y-68205474D01*
X135499593Y-68205477D01*
X135340363Y-68321165D01*
X135340352Y-68321174D01*
X135201174Y-68460352D01*
X135201165Y-68460363D01*
X135085477Y-68619593D01*
X135085474Y-68619598D01*
X135017760Y-68752495D01*
X134966151Y-68809813D01*
X134892798Y-68833647D01*
X134817356Y-68817611D01*
X134760038Y-68766002D01*
X134752240Y-68752495D01*
X134719247Y-68687744D01*
X134684524Y-68619595D01*
X134568828Y-68460354D01*
X134429646Y-68321172D01*
X134270405Y-68205476D01*
X134258757Y-68199541D01*
X134095036Y-68116121D01*
X134095030Y-68116119D01*
X134095025Y-68116116D01*
X134026561Y-68093870D01*
X133961877Y-68051864D01*
X133926862Y-67983142D01*
X133930899Y-67906120D01*
X133972906Y-67841435D01*
X134026563Y-67810457D01*
X134056447Y-67800746D01*
X134217732Y-67718567D01*
X134217732Y-67718566D01*
X134315442Y-67647575D01*
X134315443Y-67647575D01*
X133846538Y-67178670D01*
X133922007Y-67135099D01*
X134015099Y-67042007D01*
X134058670Y-66966538D01*
X134527575Y-67435443D01*
G37*
%TD.AperFunction*%
%TA.AperFunction,Conductor*%
G36*
X140834901Y-67042007D02*
G01*
X140927993Y-67135099D01*
X141003460Y-67178670D01*
X140534556Y-67647574D01*
X140534556Y-67647575D01*
X140632267Y-67718566D01*
X140632267Y-67718567D01*
X140793549Y-67800745D01*
X140823438Y-67810457D01*
X140888122Y-67852464D01*
X140923137Y-67921186D01*
X140919100Y-67998209D01*
X140877093Y-68062893D01*
X140823437Y-68093871D01*
X140754981Y-68116113D01*
X140754963Y-68116121D01*
X140579598Y-68205474D01*
X140579593Y-68205477D01*
X140420363Y-68321165D01*
X140420352Y-68321174D01*
X140281174Y-68460352D01*
X140281165Y-68460363D01*
X140165477Y-68619593D01*
X140165474Y-68619598D01*
X140097760Y-68752495D01*
X140046151Y-68809813D01*
X139972798Y-68833647D01*
X139897356Y-68817611D01*
X139840038Y-68766002D01*
X139832240Y-68752495D01*
X139799247Y-68687744D01*
X139764524Y-68619595D01*
X139648828Y-68460354D01*
X139509646Y-68321172D01*
X139350405Y-68205476D01*
X139217503Y-68137759D01*
X139160186Y-68086152D01*
X139136352Y-68012799D01*
X139152388Y-67937356D01*
X139203996Y-67880038D01*
X139217504Y-67872240D01*
X139350405Y-67804524D01*
X139509646Y-67688828D01*
X139648828Y-67549646D01*
X139764524Y-67390405D01*
X139853884Y-67215025D01*
X139876129Y-67146559D01*
X139918133Y-67081878D01*
X139986855Y-67046862D01*
X140063877Y-67050898D01*
X140128563Y-67092904D01*
X140159541Y-67146559D01*
X140169253Y-67176448D01*
X140251430Y-67337728D01*
X140322424Y-67435442D01*
X140791328Y-66966537D01*
X140834901Y-67042007D01*
G37*
%TD.AperFunction*%
%TA.AperFunction,Conductor*%
G36*
X142147575Y-67435443D02*
G01*
X142147575Y-67435442D01*
X142218566Y-67337732D01*
X142218567Y-67337732D01*
X142300746Y-67176447D01*
X142310457Y-67146563D01*
X142352463Y-67081878D01*
X142421185Y-67046862D01*
X142498207Y-67050899D01*
X142562892Y-67092905D01*
X142593870Y-67146561D01*
X142616116Y-67215025D01*
X142616119Y-67215030D01*
X142616121Y-67215036D01*
X142630877Y-67243996D01*
X142705476Y-67390405D01*
X142821172Y-67549646D01*
X142960354Y-67688828D01*
X143119595Y-67804524D01*
X143187744Y-67839247D01*
X143252495Y-67872240D01*
X143309813Y-67923849D01*
X143333647Y-67997202D01*
X143317611Y-68072644D01*
X143266002Y-68129962D01*
X143252495Y-68137760D01*
X143119598Y-68205474D01*
X143119593Y-68205477D01*
X142960363Y-68321165D01*
X142960352Y-68321174D01*
X142821174Y-68460352D01*
X142821165Y-68460363D01*
X142705477Y-68619593D01*
X142705474Y-68619598D01*
X142637760Y-68752495D01*
X142586151Y-68809813D01*
X142512798Y-68833647D01*
X142437356Y-68817611D01*
X142380038Y-68766002D01*
X142372240Y-68752495D01*
X142339247Y-68687744D01*
X142304524Y-68619595D01*
X142188828Y-68460354D01*
X142049646Y-68321172D01*
X141890405Y-68205476D01*
X141878757Y-68199541D01*
X141715036Y-68116121D01*
X141715030Y-68116119D01*
X141715025Y-68116116D01*
X141646561Y-68093870D01*
X141581877Y-68051864D01*
X141546862Y-67983142D01*
X141550899Y-67906120D01*
X141592906Y-67841435D01*
X141646563Y-67810457D01*
X141676447Y-67800746D01*
X141837732Y-67718567D01*
X141837732Y-67718566D01*
X141935442Y-67647575D01*
X141935443Y-67647575D01*
X141466538Y-67178670D01*
X141542007Y-67135099D01*
X141635099Y-67042007D01*
X141678670Y-66966538D01*
X142147575Y-67435443D01*
G37*
%TD.AperFunction*%
%TA.AperFunction,Conductor*%
G36*
X153534901Y-67042007D02*
G01*
X153627993Y-67135099D01*
X153703460Y-67178670D01*
X153234556Y-67647574D01*
X153234556Y-67647575D01*
X153332267Y-67718566D01*
X153332267Y-67718567D01*
X153493549Y-67800745D01*
X153523438Y-67810457D01*
X153588122Y-67852464D01*
X153623137Y-67921186D01*
X153619100Y-67998209D01*
X153577093Y-68062893D01*
X153523437Y-68093871D01*
X153454981Y-68116113D01*
X153454963Y-68116121D01*
X153279598Y-68205474D01*
X153279593Y-68205477D01*
X153120363Y-68321165D01*
X153120352Y-68321174D01*
X152981174Y-68460352D01*
X152981165Y-68460363D01*
X152865477Y-68619593D01*
X152865474Y-68619598D01*
X152797760Y-68752495D01*
X152746151Y-68809813D01*
X152672798Y-68833647D01*
X152597356Y-68817611D01*
X152540038Y-68766002D01*
X152532240Y-68752495D01*
X152499247Y-68687744D01*
X152464524Y-68619595D01*
X152348828Y-68460354D01*
X152209646Y-68321172D01*
X152050405Y-68205476D01*
X151917503Y-68137759D01*
X151860186Y-68086152D01*
X151836352Y-68012799D01*
X151852388Y-67937356D01*
X151903996Y-67880038D01*
X151917504Y-67872240D01*
X152050405Y-67804524D01*
X152209646Y-67688828D01*
X152348828Y-67549646D01*
X152464524Y-67390405D01*
X152553884Y-67215025D01*
X152576129Y-67146559D01*
X152618133Y-67081878D01*
X152686855Y-67046862D01*
X152763877Y-67050898D01*
X152828563Y-67092904D01*
X152859541Y-67146559D01*
X152869253Y-67176448D01*
X152951430Y-67337728D01*
X153022424Y-67435442D01*
X153491328Y-66966537D01*
X153534901Y-67042007D01*
G37*
%TD.AperFunction*%
%TA.AperFunction,Conductor*%
G36*
X154847575Y-67435443D02*
G01*
X154847575Y-67435442D01*
X154918566Y-67337732D01*
X154918567Y-67337732D01*
X155000746Y-67176447D01*
X155010457Y-67146563D01*
X155052463Y-67081878D01*
X155121185Y-67046862D01*
X155198207Y-67050899D01*
X155262892Y-67092905D01*
X155293870Y-67146561D01*
X155316116Y-67215025D01*
X155316119Y-67215030D01*
X155316121Y-67215036D01*
X155330877Y-67243996D01*
X155405476Y-67390405D01*
X155521172Y-67549646D01*
X155660354Y-67688828D01*
X155819595Y-67804524D01*
X155887744Y-67839247D01*
X155952495Y-67872240D01*
X156009813Y-67923849D01*
X156033647Y-67997202D01*
X156017611Y-68072644D01*
X155966002Y-68129962D01*
X155952495Y-68137760D01*
X155819598Y-68205474D01*
X155819593Y-68205477D01*
X155660363Y-68321165D01*
X155660352Y-68321174D01*
X155521174Y-68460352D01*
X155521165Y-68460363D01*
X155405477Y-68619593D01*
X155405474Y-68619598D01*
X155337760Y-68752495D01*
X155286151Y-68809813D01*
X155212798Y-68833647D01*
X155137356Y-68817611D01*
X155080038Y-68766002D01*
X155072240Y-68752495D01*
X155039247Y-68687744D01*
X155004524Y-68619595D01*
X154888828Y-68460354D01*
X154749646Y-68321172D01*
X154590405Y-68205476D01*
X154578757Y-68199541D01*
X154415036Y-68116121D01*
X154415030Y-68116119D01*
X154415025Y-68116116D01*
X154346561Y-68093870D01*
X154281877Y-68051864D01*
X154246862Y-67983142D01*
X154250899Y-67906120D01*
X154292906Y-67841435D01*
X154346563Y-67810457D01*
X154376447Y-67800746D01*
X154537732Y-67718567D01*
X154537732Y-67718566D01*
X154635442Y-67647575D01*
X154635443Y-67647575D01*
X154166538Y-67178670D01*
X154242007Y-67135099D01*
X154335099Y-67042007D01*
X154378670Y-66966538D01*
X154847575Y-67435443D01*
G37*
%TD.AperFunction*%
%TA.AperFunction,Conductor*%
G36*
X158614901Y-67042007D02*
G01*
X158707993Y-67135099D01*
X158783460Y-67178670D01*
X158314556Y-67647574D01*
X158314556Y-67647575D01*
X158412267Y-67718566D01*
X158412267Y-67718567D01*
X158573549Y-67800745D01*
X158603438Y-67810457D01*
X158668122Y-67852464D01*
X158703137Y-67921186D01*
X158699100Y-67998209D01*
X158657093Y-68062893D01*
X158603437Y-68093871D01*
X158534981Y-68116113D01*
X158534963Y-68116121D01*
X158359598Y-68205474D01*
X158359593Y-68205477D01*
X158200363Y-68321165D01*
X158200352Y-68321174D01*
X158061174Y-68460352D01*
X158061165Y-68460363D01*
X157945477Y-68619593D01*
X157945474Y-68619598D01*
X157877760Y-68752495D01*
X157826151Y-68809813D01*
X157752798Y-68833647D01*
X157677356Y-68817611D01*
X157620038Y-68766002D01*
X157612240Y-68752495D01*
X157579247Y-68687744D01*
X157544524Y-68619595D01*
X157428828Y-68460354D01*
X157289646Y-68321172D01*
X157130405Y-68205476D01*
X156997503Y-68137759D01*
X156940186Y-68086152D01*
X156916352Y-68012799D01*
X156932388Y-67937356D01*
X156983996Y-67880038D01*
X156997504Y-67872240D01*
X157130405Y-67804524D01*
X157289646Y-67688828D01*
X157428828Y-67549646D01*
X157544524Y-67390405D01*
X157633884Y-67215025D01*
X157656129Y-67146559D01*
X157698133Y-67081878D01*
X157766855Y-67046862D01*
X157843877Y-67050898D01*
X157908563Y-67092904D01*
X157939541Y-67146559D01*
X157949253Y-67176448D01*
X158031430Y-67337728D01*
X158102424Y-67435442D01*
X158571328Y-66966537D01*
X158614901Y-67042007D01*
G37*
%TD.AperFunction*%
%TA.AperFunction,Conductor*%
G36*
X159927575Y-67435443D02*
G01*
X159927575Y-67435442D01*
X159998566Y-67337732D01*
X159998567Y-67337732D01*
X160080746Y-67176447D01*
X160090457Y-67146563D01*
X160132463Y-67081878D01*
X160201185Y-67046862D01*
X160278207Y-67050899D01*
X160342892Y-67092905D01*
X160373870Y-67146561D01*
X160396116Y-67215025D01*
X160396119Y-67215030D01*
X160396121Y-67215036D01*
X160410877Y-67243996D01*
X160485476Y-67390405D01*
X160601172Y-67549646D01*
X160740354Y-67688828D01*
X160899595Y-67804524D01*
X160967744Y-67839247D01*
X161032495Y-67872240D01*
X161089813Y-67923849D01*
X161113647Y-67997202D01*
X161097611Y-68072644D01*
X161046002Y-68129962D01*
X161032495Y-68137760D01*
X160899598Y-68205474D01*
X160899593Y-68205477D01*
X160740363Y-68321165D01*
X160740352Y-68321174D01*
X160601174Y-68460352D01*
X160601165Y-68460363D01*
X160485477Y-68619593D01*
X160485474Y-68619598D01*
X160417760Y-68752495D01*
X160366151Y-68809813D01*
X160292798Y-68833647D01*
X160217356Y-68817611D01*
X160160038Y-68766002D01*
X160152240Y-68752495D01*
X160119247Y-68687744D01*
X160084524Y-68619595D01*
X159968828Y-68460354D01*
X159829646Y-68321172D01*
X159670405Y-68205476D01*
X159658757Y-68199541D01*
X159495036Y-68116121D01*
X159495030Y-68116119D01*
X159495025Y-68116116D01*
X159426561Y-68093870D01*
X159361877Y-68051864D01*
X159326862Y-67983142D01*
X159330899Y-67906120D01*
X159372906Y-67841435D01*
X159426563Y-67810457D01*
X159456447Y-67800746D01*
X159617732Y-67718567D01*
X159617732Y-67718566D01*
X159715442Y-67647575D01*
X159715443Y-67647575D01*
X159246538Y-67178670D01*
X159322007Y-67135099D01*
X159415099Y-67042007D01*
X159458670Y-66966538D01*
X159927575Y-67435443D01*
G37*
%TD.AperFunction*%
%TA.AperFunction,Conductor*%
G36*
X172004496Y-64500771D02*
G01*
X172292298Y-64518180D01*
X172310134Y-64520346D01*
X172589307Y-64571506D01*
X172606772Y-64575811D01*
X172877730Y-64660245D01*
X172894546Y-64666622D01*
X173153362Y-64783106D01*
X173169293Y-64791468D01*
X173412163Y-64938288D01*
X173426971Y-64948509D01*
X173650377Y-65123536D01*
X173663845Y-65135467D01*
X173864532Y-65336154D01*
X173876463Y-65349622D01*
X174051490Y-65573028D01*
X174061711Y-65587836D01*
X174208531Y-65830706D01*
X174216893Y-65846637D01*
X174333375Y-66105449D01*
X174339755Y-66122273D01*
X174424187Y-66393225D01*
X174428493Y-66410695D01*
X174479651Y-66689852D01*
X174481820Y-66707714D01*
X174499228Y-66995503D01*
X174499500Y-67004499D01*
X174499500Y-117495500D01*
X174499228Y-117504496D01*
X174481820Y-117792285D01*
X174479651Y-117810147D01*
X174428493Y-118089304D01*
X174424187Y-118106774D01*
X174339755Y-118377726D01*
X174333375Y-118394550D01*
X174216893Y-118653362D01*
X174208531Y-118669293D01*
X174061711Y-118912163D01*
X174051490Y-118926971D01*
X173876463Y-119150377D01*
X173864532Y-119163845D01*
X173663845Y-119364532D01*
X173650377Y-119376463D01*
X173426971Y-119551490D01*
X173412163Y-119561711D01*
X173169293Y-119708531D01*
X173153362Y-119716893D01*
X172894550Y-119833375D01*
X172877726Y-119839755D01*
X172606774Y-119924187D01*
X172589304Y-119928493D01*
X172310147Y-119979651D01*
X172292285Y-119981820D01*
X172004497Y-119999228D01*
X171995501Y-119999500D01*
X113004499Y-119999500D01*
X112995503Y-119999228D01*
X112707714Y-119981820D01*
X112689852Y-119979651D01*
X112410695Y-119928493D01*
X112393225Y-119924187D01*
X112122273Y-119839755D01*
X112105449Y-119833375D01*
X111846637Y-119716893D01*
X111830706Y-119708531D01*
X111587836Y-119561711D01*
X111573028Y-119551490D01*
X111349622Y-119376463D01*
X111336154Y-119364532D01*
X111135467Y-119163845D01*
X111123536Y-119150377D01*
X111004518Y-118998462D01*
X110948509Y-118926971D01*
X110938288Y-118912163D01*
X110791468Y-118669293D01*
X110783106Y-118653362D01*
X110768440Y-118620775D01*
X110666622Y-118394546D01*
X110660244Y-118377726D01*
X110645936Y-118331811D01*
X110575811Y-118106772D01*
X110571506Y-118089304D01*
X110563225Y-118044116D01*
X110542497Y-117931006D01*
X124499500Y-117931006D01*
X124499500Y-118068993D01*
X124526419Y-118204325D01*
X124526420Y-118204329D01*
X124579224Y-118331809D01*
X124579227Y-118331815D01*
X124655883Y-118446538D01*
X124655886Y-118446542D01*
X124753458Y-118544114D01*
X124753461Y-118544116D01*
X124868184Y-118620772D01*
X124868186Y-118620773D01*
X124868189Y-118620775D01*
X124995672Y-118673580D01*
X125131007Y-118700500D01*
X125268993Y-118700500D01*
X125404328Y-118673580D01*
X125531811Y-118620775D01*
X125646542Y-118544114D01*
X125744114Y-118446542D01*
X125820775Y-118331811D01*
X125873580Y-118204328D01*
X125900500Y-118068993D01*
X125900500Y-117931007D01*
X125873580Y-117795672D01*
X125820775Y-117668189D01*
X125744114Y-117553458D01*
X125646542Y-117455886D01*
X125646538Y-117455883D01*
X125609307Y-117431006D01*
X132949500Y-117431006D01*
X132949500Y-117568993D01*
X132976419Y-117704325D01*
X132976420Y-117704329D01*
X133029224Y-117831809D01*
X133029227Y-117831815D01*
X133105883Y-117946538D01*
X133105886Y-117946542D01*
X133203458Y-118044114D01*
X133203461Y-118044116D01*
X133318184Y-118120772D01*
X133318186Y-118120773D01*
X133318189Y-118120775D01*
X133445672Y-118173580D01*
X133581007Y-118200500D01*
X133718993Y-118200500D01*
X133854328Y-118173580D01*
X133981811Y-118120775D01*
X134096542Y-118044114D01*
X134169641Y-117971015D01*
X134236436Y-117932451D01*
X134313564Y-117932451D01*
X134380359Y-117971015D01*
X134453458Y-118044114D01*
X134453461Y-118044116D01*
X134568184Y-118120772D01*
X134568186Y-118120773D01*
X134568189Y-118120775D01*
X134695672Y-118173580D01*
X134831007Y-118200500D01*
X134968993Y-118200500D01*
X135104328Y-118173580D01*
X135231811Y-118120775D01*
X135346542Y-118044114D01*
X135444114Y-117946542D01*
X135520775Y-117831811D01*
X135573580Y-117704328D01*
X135600500Y-117568993D01*
X135600500Y-117431007D01*
X135573580Y-117295672D01*
X135520775Y-117168189D01*
X135444114Y-117053458D01*
X135346542Y-116955886D01*
X135346538Y-116955883D01*
X135231815Y-116879227D01*
X135231809Y-116879224D01*
X135104329Y-116826420D01*
X135104325Y-116826419D01*
X134968993Y-116799500D01*
X134831007Y-116799500D01*
X134695674Y-116826419D01*
X134695670Y-116826420D01*
X134568190Y-116879224D01*
X134568184Y-116879227D01*
X134453461Y-116955883D01*
X134453454Y-116955889D01*
X134380359Y-117028985D01*
X134313564Y-117067549D01*
X134236436Y-117067549D01*
X134169641Y-117028985D01*
X134096545Y-116955889D01*
X134096542Y-116955886D01*
X134096538Y-116955883D01*
X133981815Y-116879227D01*
X133981809Y-116879224D01*
X133854329Y-116826420D01*
X133854325Y-116826419D01*
X133718993Y-116799500D01*
X133581007Y-116799500D01*
X133445674Y-116826419D01*
X133445670Y-116826420D01*
X133318190Y-116879224D01*
X133318184Y-116879227D01*
X133203461Y-116955883D01*
X133203454Y-116955889D01*
X133105889Y-117053454D01*
X133105883Y-117053461D01*
X133029227Y-117168184D01*
X133029224Y-117168190D01*
X132976420Y-117295670D01*
X132976419Y-117295674D01*
X132949500Y-117431006D01*
X125609307Y-117431006D01*
X125531815Y-117379227D01*
X125531809Y-117379224D01*
X125404329Y-117326420D01*
X125404325Y-117326419D01*
X125268993Y-117299500D01*
X125131007Y-117299500D01*
X124995674Y-117326419D01*
X124995670Y-117326420D01*
X124868190Y-117379224D01*
X124868184Y-117379227D01*
X124753461Y-117455883D01*
X124753454Y-117455889D01*
X124655889Y-117553454D01*
X124655883Y-117553461D01*
X124579227Y-117668184D01*
X124579224Y-117668190D01*
X124526420Y-117795670D01*
X124526419Y-117795674D01*
X124499500Y-117931006D01*
X110542497Y-117931006D01*
X110520346Y-117810134D01*
X110518180Y-117792298D01*
X110500772Y-117504496D01*
X110500500Y-117495500D01*
X110500500Y-115931006D01*
X131699500Y-115931006D01*
X131699500Y-116068993D01*
X131726419Y-116204325D01*
X131726420Y-116204329D01*
X131779224Y-116331809D01*
X131779227Y-116331815D01*
X131855883Y-116446538D01*
X131855886Y-116446542D01*
X131953458Y-116544114D01*
X131953461Y-116544116D01*
X132068184Y-116620772D01*
X132068186Y-116620773D01*
X132068189Y-116620775D01*
X132195672Y-116673580D01*
X132331007Y-116700500D01*
X132468993Y-116700500D01*
X132604328Y-116673580D01*
X132731811Y-116620775D01*
X132846542Y-116544114D01*
X132944114Y-116446542D01*
X133020775Y-116331811D01*
X133073580Y-116204328D01*
X133100500Y-116068993D01*
X133100500Y-115931007D01*
X133073580Y-115795672D01*
X133020775Y-115668189D01*
X132944114Y-115553458D01*
X132846542Y-115455886D01*
X132846538Y-115455883D01*
X132731815Y-115379227D01*
X132731809Y-115379224D01*
X132604329Y-115326420D01*
X132604325Y-115326419D01*
X132468993Y-115299500D01*
X132331007Y-115299500D01*
X132195674Y-115326419D01*
X132195670Y-115326420D01*
X132068190Y-115379224D01*
X132068184Y-115379227D01*
X131953461Y-115455883D01*
X131953454Y-115455889D01*
X131855889Y-115553454D01*
X131855883Y-115553461D01*
X131779227Y-115668184D01*
X131779224Y-115668190D01*
X131726420Y-115795670D01*
X131726419Y-115795674D01*
X131699500Y-115931006D01*
X110500500Y-115931006D01*
X110500500Y-113931006D01*
X125299500Y-113931006D01*
X125299500Y-114068993D01*
X125326419Y-114204325D01*
X125326420Y-114204329D01*
X125379224Y-114331809D01*
X125379225Y-114331813D01*
X125436293Y-114417220D01*
X125461085Y-114490255D01*
X125446038Y-114565901D01*
X125436293Y-114582780D01*
X125379225Y-114668186D01*
X125379224Y-114668190D01*
X125326420Y-114795670D01*
X125326419Y-114795674D01*
X125299500Y-114931006D01*
X125299500Y-115068993D01*
X125326419Y-115204325D01*
X125326420Y-115204329D01*
X125379224Y-115331809D01*
X125379227Y-115331815D01*
X125410905Y-115379224D01*
X125455886Y-115446542D01*
X125553458Y-115544114D01*
X125553461Y-115544116D01*
X125668184Y-115620772D01*
X125668186Y-115620773D01*
X125668189Y-115620775D01*
X125795672Y-115673580D01*
X125931007Y-115700500D01*
X126068993Y-115700500D01*
X126204328Y-115673580D01*
X126331811Y-115620775D01*
X126417219Y-115563706D01*
X126490254Y-115538914D01*
X126565900Y-115553960D01*
X126582781Y-115563707D01*
X126668184Y-115620772D01*
X126668186Y-115620773D01*
X126668189Y-115620775D01*
X126795672Y-115673580D01*
X126931007Y-115700500D01*
X127068993Y-115700500D01*
X127204328Y-115673580D01*
X127331811Y-115620775D01*
X127417219Y-115563706D01*
X127490254Y-115538914D01*
X127565900Y-115553960D01*
X127582781Y-115563707D01*
X127668184Y-115620772D01*
X127668186Y-115620773D01*
X127668189Y-115620775D01*
X127795672Y-115673580D01*
X127931007Y-115700500D01*
X128068993Y-115700500D01*
X128204328Y-115673580D01*
X128331811Y-115620775D01*
X128446542Y-115544114D01*
X128544114Y-115446542D01*
X128620775Y-115331811D01*
X128673580Y-115204328D01*
X128700500Y-115068993D01*
X128700500Y-114931007D01*
X128673580Y-114795672D01*
X128620775Y-114668189D01*
X128563706Y-114582780D01*
X128538914Y-114509746D01*
X128553960Y-114434100D01*
X128563707Y-114417219D01*
X128620772Y-114331815D01*
X128620775Y-114331811D01*
X128673580Y-114204328D01*
X128700500Y-114068993D01*
X128700500Y-113931007D01*
X128673580Y-113795672D01*
X128620775Y-113668189D01*
X128544114Y-113553458D01*
X128446542Y-113455886D01*
X128446538Y-113455883D01*
X128331815Y-113379227D01*
X128331809Y-113379224D01*
X128204329Y-113326420D01*
X128204325Y-113326419D01*
X128068993Y-113299500D01*
X127931007Y-113299500D01*
X127795674Y-113326419D01*
X127795670Y-113326420D01*
X127668190Y-113379224D01*
X127668186Y-113379225D01*
X127582780Y-113436293D01*
X127509745Y-113461085D01*
X127434099Y-113446038D01*
X127417220Y-113436293D01*
X127331813Y-113379225D01*
X127331809Y-113379224D01*
X127204329Y-113326420D01*
X127204325Y-113326419D01*
X127068993Y-113299500D01*
X126931007Y-113299500D01*
X126795674Y-113326419D01*
X126795670Y-113326420D01*
X126668190Y-113379224D01*
X126668186Y-113379225D01*
X126582780Y-113436293D01*
X126509745Y-113461085D01*
X126434099Y-113446038D01*
X126417220Y-113436293D01*
X126331813Y-113379225D01*
X126331809Y-113379224D01*
X126204329Y-113326420D01*
X126204325Y-113326419D01*
X126068993Y-113299500D01*
X125931007Y-113299500D01*
X125795674Y-113326419D01*
X125795670Y-113326420D01*
X125668190Y-113379224D01*
X125668184Y-113379227D01*
X125553461Y-113455883D01*
X125553454Y-113455889D01*
X125455889Y-113553454D01*
X125455883Y-113553461D01*
X125379227Y-113668184D01*
X125379224Y-113668190D01*
X125326420Y-113795670D01*
X125326419Y-113795674D01*
X125299500Y-113931006D01*
X110500500Y-113931006D01*
X110500500Y-109431006D01*
X145799500Y-109431006D01*
X145799500Y-109568993D01*
X145826419Y-109704325D01*
X145826420Y-109704329D01*
X145879224Y-109831809D01*
X145879227Y-109831815D01*
X145955883Y-109946538D01*
X145955886Y-109946542D01*
X146053458Y-110044114D01*
X146053461Y-110044116D01*
X146168184Y-110120772D01*
X146168186Y-110120773D01*
X146168189Y-110120775D01*
X146295672Y-110173580D01*
X146431007Y-110200500D01*
X146568993Y-110200500D01*
X146704328Y-110173580D01*
X146831811Y-110120775D01*
X146946542Y-110044114D01*
X147044114Y-109946542D01*
X147120775Y-109831811D01*
X147173580Y-109704328D01*
X147200500Y-109568993D01*
X147200500Y-109431007D01*
X147200500Y-109431006D01*
X158799500Y-109431006D01*
X158799500Y-109568993D01*
X158826419Y-109704325D01*
X158826420Y-109704329D01*
X158879224Y-109831809D01*
X158879227Y-109831815D01*
X158955883Y-109946538D01*
X158955886Y-109946542D01*
X159053458Y-110044114D01*
X159053461Y-110044116D01*
X159168184Y-110120772D01*
X159168186Y-110120773D01*
X159168189Y-110120775D01*
X159295672Y-110173580D01*
X159431007Y-110200500D01*
X159568993Y-110200500D01*
X159704328Y-110173580D01*
X159831811Y-110120775D01*
X159946542Y-110044114D01*
X160044114Y-109946542D01*
X160120775Y-109831811D01*
X160173580Y-109704328D01*
X160200500Y-109568993D01*
X160200500Y-109431007D01*
X160173580Y-109295672D01*
X160120775Y-109168189D01*
X160044114Y-109053458D01*
X159946542Y-108955886D01*
X159946538Y-108955883D01*
X159831815Y-108879227D01*
X159831809Y-108879224D01*
X159704329Y-108826420D01*
X159704325Y-108826419D01*
X159568993Y-108799500D01*
X159431007Y-108799500D01*
X159295674Y-108826419D01*
X159295670Y-108826420D01*
X159168190Y-108879224D01*
X159168184Y-108879227D01*
X159053461Y-108955883D01*
X159053454Y-108955889D01*
X158955889Y-109053454D01*
X158955883Y-109053461D01*
X158879227Y-109168184D01*
X158879224Y-109168190D01*
X158826420Y-109295670D01*
X158826419Y-109295674D01*
X158799500Y-109431006D01*
X147200500Y-109431006D01*
X147173580Y-109295672D01*
X147120775Y-109168189D01*
X147044114Y-109053458D01*
X146946542Y-108955886D01*
X146946538Y-108955883D01*
X146831815Y-108879227D01*
X146831809Y-108879224D01*
X146704329Y-108826420D01*
X146704325Y-108826419D01*
X146568993Y-108799500D01*
X146431007Y-108799500D01*
X146295674Y-108826419D01*
X146295670Y-108826420D01*
X146168190Y-108879224D01*
X146168184Y-108879227D01*
X146053461Y-108955883D01*
X146053454Y-108955889D01*
X145955889Y-109053454D01*
X145955883Y-109053461D01*
X145879227Y-109168184D01*
X145879224Y-109168190D01*
X145826420Y-109295670D01*
X145826419Y-109295674D01*
X145799500Y-109431006D01*
X110500500Y-109431006D01*
X110500500Y-106431006D01*
X138299500Y-106431006D01*
X138299500Y-106568993D01*
X138326419Y-106704325D01*
X138326420Y-106704329D01*
X138379224Y-106831809D01*
X138379227Y-106831815D01*
X138454674Y-106944728D01*
X138455886Y-106946542D01*
X138553458Y-107044114D01*
X138553461Y-107044116D01*
X138668184Y-107120772D01*
X138668186Y-107120773D01*
X138668189Y-107120775D01*
X138795672Y-107173580D01*
X138931007Y-107200500D01*
X139068993Y-107200500D01*
X139204328Y-107173580D01*
X139331811Y-107120775D01*
X139446542Y-107044114D01*
X139544114Y-106946542D01*
X139620775Y-106831811D01*
X139620779Y-106831800D01*
X139622616Y-106828366D01*
X139624227Y-106826645D01*
X139624843Y-106825724D01*
X139624994Y-106825825D01*
X139675335Y-106772069D01*
X139749140Y-106749673D01*
X139824255Y-106767181D01*
X139880552Y-106819900D01*
X139902948Y-106893705D01*
X139900166Y-106927654D01*
X139899500Y-106931003D01*
X139899500Y-107068993D01*
X139926419Y-107204325D01*
X139926420Y-107204329D01*
X139979224Y-107331809D01*
X139979227Y-107331815D01*
X140055883Y-107446538D01*
X140055886Y-107446542D01*
X140153458Y-107544114D01*
X140153461Y-107544116D01*
X140268184Y-107620772D01*
X140268186Y-107620773D01*
X140268189Y-107620775D01*
X140395672Y-107673580D01*
X140531007Y-107700500D01*
X140668993Y-107700500D01*
X140804328Y-107673580D01*
X140931811Y-107620775D01*
X141046542Y-107544114D01*
X141144114Y-107446542D01*
X141220775Y-107331811D01*
X141273580Y-107204328D01*
X141300500Y-107068993D01*
X141300500Y-106931007D01*
X141273580Y-106795672D01*
X141220775Y-106668189D01*
X141144114Y-106553458D01*
X141046542Y-106455886D01*
X141046538Y-106455883D01*
X141009307Y-106431006D01*
X151799500Y-106431006D01*
X151799500Y-106568993D01*
X151826419Y-106704325D01*
X151826420Y-106704329D01*
X151879224Y-106831809D01*
X151879227Y-106831815D01*
X151954674Y-106944728D01*
X151955886Y-106946542D01*
X152053458Y-107044114D01*
X152053461Y-107044116D01*
X152168184Y-107120772D01*
X152168186Y-107120773D01*
X152168189Y-107120775D01*
X152295672Y-107173580D01*
X152431007Y-107200500D01*
X152568993Y-107200500D01*
X152704328Y-107173580D01*
X152831811Y-107120775D01*
X152946542Y-107044114D01*
X153044114Y-106946542D01*
X153120775Y-106831811D01*
X153131159Y-106806741D01*
X153523765Y-106806741D01*
X153523765Y-106944728D01*
X153550684Y-107080060D01*
X153550685Y-107080064D01*
X153603489Y-107207544D01*
X153603492Y-107207550D01*
X153680148Y-107322273D01*
X153680151Y-107322277D01*
X153777723Y-107419849D01*
X153777726Y-107419851D01*
X153892449Y-107496507D01*
X153892451Y-107496508D01*
X153892454Y-107496510D01*
X154019937Y-107549315D01*
X154155272Y-107576235D01*
X154293258Y-107576235D01*
X154428593Y-107549315D01*
X154556076Y-107496510D01*
X154670807Y-107419849D01*
X154768379Y-107322277D01*
X154845040Y-107207546D01*
X154897845Y-107080063D01*
X154924765Y-106944728D01*
X154924765Y-106806742D01*
X154922563Y-106795674D01*
X154909090Y-106727940D01*
X154897845Y-106671407D01*
X154845040Y-106543924D01*
X154768379Y-106429193D01*
X154670807Y-106331621D01*
X154670803Y-106331618D01*
X154556080Y-106254962D01*
X154556074Y-106254959D01*
X154428594Y-106202155D01*
X154428590Y-106202154D01*
X154293258Y-106175235D01*
X154155272Y-106175235D01*
X154019939Y-106202154D01*
X154019935Y-106202155D01*
X153892455Y-106254959D01*
X153892449Y-106254962D01*
X153777726Y-106331618D01*
X153777719Y-106331624D01*
X153680154Y-106429189D01*
X153680148Y-106429196D01*
X153603492Y-106543919D01*
X153603489Y-106543925D01*
X153550685Y-106671405D01*
X153550684Y-106671409D01*
X153523765Y-106806741D01*
X153131159Y-106806741D01*
X153173580Y-106704328D01*
X153200500Y-106568993D01*
X153200500Y-106431007D01*
X153200138Y-106429189D01*
X153173580Y-106295674D01*
X153173579Y-106295670D01*
X153156717Y-106254962D01*
X153120775Y-106168189D01*
X153044114Y-106053458D01*
X152946542Y-105955886D01*
X152946538Y-105955883D01*
X152831815Y-105879227D01*
X152831809Y-105879224D01*
X152704329Y-105826420D01*
X152704325Y-105826419D01*
X152568993Y-105799500D01*
X152431007Y-105799500D01*
X152295674Y-105826419D01*
X152295670Y-105826420D01*
X152168190Y-105879224D01*
X152168184Y-105879227D01*
X152053461Y-105955883D01*
X152053454Y-105955889D01*
X151955889Y-106053454D01*
X151955883Y-106053461D01*
X151879227Y-106168184D01*
X151879224Y-106168190D01*
X151826420Y-106295670D01*
X151826419Y-106295674D01*
X151799500Y-106431006D01*
X141009307Y-106431006D01*
X140931815Y-106379227D01*
X140931809Y-106379224D01*
X140804329Y-106326420D01*
X140804325Y-106326419D01*
X140668993Y-106299500D01*
X140531007Y-106299500D01*
X140395674Y-106326419D01*
X140395670Y-106326420D01*
X140268190Y-106379224D01*
X140268184Y-106379227D01*
X140153461Y-106455883D01*
X140153454Y-106455889D01*
X140055889Y-106553454D01*
X140055883Y-106553461D01*
X139979225Y-106668186D01*
X139977375Y-106671649D01*
X139975760Y-106673372D01*
X139975157Y-106674276D01*
X139975007Y-106674176D01*
X139924649Y-106727940D01*
X139850841Y-106750326D01*
X139775728Y-106732810D01*
X139719437Y-106680084D01*
X139697051Y-106606276D01*
X139699836Y-106572329D01*
X139700500Y-106568991D01*
X139700500Y-106431006D01*
X139673580Y-106295674D01*
X139673579Y-106295670D01*
X139656717Y-106254962D01*
X139620775Y-106168189D01*
X139544114Y-106053458D01*
X139446542Y-105955886D01*
X139446538Y-105955883D01*
X139331815Y-105879227D01*
X139331809Y-105879224D01*
X139204329Y-105826420D01*
X139204325Y-105826419D01*
X139068993Y-105799500D01*
X138931007Y-105799500D01*
X138795674Y-105826419D01*
X138795670Y-105826420D01*
X138668190Y-105879224D01*
X138668184Y-105879227D01*
X138553461Y-105955883D01*
X138553454Y-105955889D01*
X138455889Y-106053454D01*
X138455883Y-106053461D01*
X138379227Y-106168184D01*
X138379224Y-106168190D01*
X138326420Y-106295670D01*
X138326419Y-106295674D01*
X138299500Y-106431006D01*
X110500500Y-106431006D01*
X110500500Y-98931006D01*
X119299500Y-98931006D01*
X119299500Y-99068993D01*
X119326419Y-99204325D01*
X119326420Y-99204329D01*
X119379224Y-99331809D01*
X119379227Y-99331815D01*
X119455883Y-99446538D01*
X119455886Y-99446542D01*
X119553458Y-99544114D01*
X119553461Y-99544116D01*
X119668184Y-99620772D01*
X119668186Y-99620773D01*
X119668189Y-99620775D01*
X119795672Y-99673580D01*
X119931007Y-99700500D01*
X120068993Y-99700500D01*
X120204328Y-99673580D01*
X120331811Y-99620775D01*
X120446542Y-99544114D01*
X120544114Y-99446542D01*
X120620775Y-99331811D01*
X120673580Y-99204328D01*
X120700500Y-99068993D01*
X120700500Y-98931007D01*
X120673580Y-98795672D01*
X120620775Y-98668189D01*
X120544114Y-98553458D01*
X120446542Y-98455886D01*
X120446538Y-98455883D01*
X120331815Y-98379227D01*
X120331809Y-98379224D01*
X120204329Y-98326420D01*
X120204325Y-98326419D01*
X120068993Y-98299500D01*
X119931007Y-98299500D01*
X119795674Y-98326419D01*
X119795670Y-98326420D01*
X119668190Y-98379224D01*
X119668184Y-98379227D01*
X119553461Y-98455883D01*
X119553454Y-98455889D01*
X119455889Y-98553454D01*
X119455883Y-98553461D01*
X119379227Y-98668184D01*
X119379224Y-98668190D01*
X119326420Y-98795670D01*
X119326419Y-98795674D01*
X119299500Y-98931006D01*
X110500500Y-98931006D01*
X110500500Y-96293506D01*
X117899500Y-96293506D01*
X117899500Y-96431493D01*
X117926419Y-96566825D01*
X117926420Y-96566829D01*
X117979224Y-96694309D01*
X117979227Y-96694315D01*
X118055883Y-96809038D01*
X118055886Y-96809042D01*
X118153458Y-96906614D01*
X118153461Y-96906616D01*
X118268184Y-96983272D01*
X118268186Y-96983273D01*
X118268189Y-96983275D01*
X118395672Y-97036080D01*
X118531007Y-97063000D01*
X118668993Y-97063000D01*
X118804328Y-97036080D01*
X118931811Y-96983275D01*
X119046542Y-96906614D01*
X119144114Y-96809042D01*
X119220775Y-96694311D01*
X119273580Y-96566828D01*
X119300500Y-96431493D01*
X119300500Y-96293507D01*
X119273580Y-96158172D01*
X119220775Y-96030689D01*
X119144114Y-95915958D01*
X119046542Y-95818386D01*
X119046538Y-95818383D01*
X118931815Y-95741727D01*
X118931809Y-95741724D01*
X118804329Y-95688920D01*
X118804325Y-95688919D01*
X118668993Y-95662000D01*
X118531007Y-95662000D01*
X118395674Y-95688919D01*
X118395670Y-95688920D01*
X118268190Y-95741724D01*
X118268184Y-95741727D01*
X118153461Y-95818383D01*
X118153454Y-95818389D01*
X118055889Y-95915954D01*
X118055883Y-95915961D01*
X117979227Y-96030684D01*
X117979224Y-96030690D01*
X117926420Y-96158170D01*
X117926419Y-96158174D01*
X117899500Y-96293506D01*
X110500500Y-96293506D01*
X110500500Y-94931006D01*
X126799500Y-94931006D01*
X126799500Y-95068993D01*
X126826419Y-95204325D01*
X126826420Y-95204329D01*
X126879224Y-95331809D01*
X126879227Y-95331815D01*
X126955883Y-95446538D01*
X126955886Y-95446542D01*
X127053458Y-95544114D01*
X127053461Y-95544116D01*
X127168184Y-95620772D01*
X127168186Y-95620773D01*
X127168189Y-95620775D01*
X127295672Y-95673580D01*
X127431007Y-95700500D01*
X127568993Y-95700500D01*
X127704328Y-95673580D01*
X127831811Y-95620775D01*
X127946542Y-95544114D01*
X128044114Y-95446542D01*
X128120775Y-95331811D01*
X128173580Y-95204328D01*
X128200500Y-95068993D01*
X128200500Y-94931007D01*
X128173580Y-94795672D01*
X128120775Y-94668189D01*
X128044114Y-94553458D01*
X127946542Y-94455886D01*
X127946538Y-94455883D01*
X127831815Y-94379227D01*
X127831809Y-94379224D01*
X127704329Y-94326420D01*
X127704325Y-94326419D01*
X127568993Y-94299500D01*
X127431007Y-94299500D01*
X127295674Y-94326419D01*
X127295670Y-94326420D01*
X127168190Y-94379224D01*
X127168184Y-94379227D01*
X127053461Y-94455883D01*
X127053454Y-94455889D01*
X126955889Y-94553454D01*
X126955883Y-94553461D01*
X126879227Y-94668184D01*
X126879224Y-94668190D01*
X126826420Y-94795670D01*
X126826419Y-94795674D01*
X126799500Y-94931006D01*
X110500500Y-94931006D01*
X110500500Y-93431006D01*
X120799500Y-93431006D01*
X120799500Y-93568993D01*
X120826419Y-93704325D01*
X120826420Y-93704329D01*
X120879224Y-93831809D01*
X120879227Y-93831815D01*
X120955883Y-93946538D01*
X120955886Y-93946542D01*
X121053458Y-94044114D01*
X121053461Y-94044116D01*
X121168184Y-94120772D01*
X121168186Y-94120773D01*
X121168189Y-94120775D01*
X121295672Y-94173580D01*
X121431007Y-94200500D01*
X121568993Y-94200500D01*
X121704328Y-94173580D01*
X121831811Y-94120775D01*
X121946542Y-94044114D01*
X122044114Y-93946542D01*
X122054495Y-93931006D01*
X129799500Y-93931006D01*
X129799500Y-94068993D01*
X129826419Y-94204325D01*
X129826420Y-94204329D01*
X129879224Y-94331809D01*
X129879227Y-94331815D01*
X129910905Y-94379224D01*
X129955886Y-94446542D01*
X130053458Y-94544114D01*
X130053461Y-94544116D01*
X130168184Y-94620772D01*
X130168186Y-94620773D01*
X130168189Y-94620775D01*
X130295672Y-94673580D01*
X130431007Y-94700500D01*
X130568993Y-94700500D01*
X130704328Y-94673580D01*
X130831811Y-94620775D01*
X130946542Y-94544114D01*
X131044114Y-94446542D01*
X131120775Y-94331811D01*
X131173580Y-94204328D01*
X131174342Y-94200500D01*
X131185558Y-94144110D01*
X131192458Y-94109421D01*
X131226569Y-94040249D01*
X131290698Y-93997399D01*
X131367661Y-93992354D01*
X131436836Y-94026466D01*
X131453776Y-94043970D01*
X131455883Y-94046538D01*
X131455886Y-94046542D01*
X131553458Y-94144114D01*
X131553461Y-94144116D01*
X131668184Y-94220772D01*
X131668186Y-94220773D01*
X131668189Y-94220775D01*
X131795672Y-94273580D01*
X131931007Y-94300500D01*
X132068993Y-94300500D01*
X132204328Y-94273580D01*
X132331811Y-94220775D01*
X132446542Y-94144114D01*
X132544114Y-94046542D01*
X132620775Y-93931811D01*
X132673580Y-93804328D01*
X132700500Y-93668993D01*
X132700500Y-93531007D01*
X132673580Y-93395672D01*
X132620775Y-93268189D01*
X132544114Y-93153458D01*
X132446542Y-93055886D01*
X132442913Y-93053461D01*
X132331815Y-92979227D01*
X132331809Y-92979224D01*
X132204329Y-92926420D01*
X132204325Y-92926419D01*
X132068993Y-92899500D01*
X131931007Y-92899500D01*
X131795674Y-92926419D01*
X131795670Y-92926420D01*
X131668190Y-92979224D01*
X131668184Y-92979227D01*
X131553461Y-93055883D01*
X131553454Y-93055889D01*
X131455889Y-93153454D01*
X131455883Y-93153461D01*
X131379227Y-93268184D01*
X131379224Y-93268190D01*
X131326420Y-93395670D01*
X131326419Y-93395672D01*
X131307542Y-93490577D01*
X131273429Y-93559751D01*
X131209299Y-93602601D01*
X131132336Y-93607645D01*
X131063162Y-93573532D01*
X131046222Y-93556027D01*
X131044113Y-93553457D01*
X130946545Y-93455889D01*
X130946542Y-93455886D01*
X130946538Y-93455883D01*
X130831815Y-93379227D01*
X130831809Y-93379224D01*
X130704329Y-93326420D01*
X130704325Y-93326419D01*
X130568993Y-93299500D01*
X130431007Y-93299500D01*
X130295674Y-93326419D01*
X130295670Y-93326420D01*
X130168190Y-93379224D01*
X130168184Y-93379227D01*
X130053461Y-93455883D01*
X130053454Y-93455889D01*
X129955889Y-93553454D01*
X129955883Y-93553461D01*
X129879227Y-93668184D01*
X129879224Y-93668190D01*
X129826420Y-93795670D01*
X129826419Y-93795674D01*
X129799500Y-93931006D01*
X122054495Y-93931006D01*
X122070896Y-93906459D01*
X122114699Y-93840906D01*
X122114699Y-93840905D01*
X122120772Y-93831816D01*
X122120772Y-93831814D01*
X122120775Y-93831811D01*
X122173580Y-93704328D01*
X122200500Y-93568993D01*
X122200500Y-93431007D01*
X122173580Y-93295672D01*
X122120775Y-93168189D01*
X122110929Y-93153454D01*
X122044116Y-93053461D01*
X122044114Y-93053458D01*
X121946542Y-92955886D01*
X121946538Y-92955883D01*
X121831815Y-92879227D01*
X121831809Y-92879224D01*
X121704329Y-92826420D01*
X121704325Y-92826419D01*
X121568993Y-92799500D01*
X121431007Y-92799500D01*
X121295674Y-92826419D01*
X121295670Y-92826420D01*
X121168190Y-92879224D01*
X121168184Y-92879227D01*
X121053461Y-92955883D01*
X121053454Y-92955889D01*
X120955889Y-93053454D01*
X120955883Y-93053461D01*
X120879227Y-93168184D01*
X120879224Y-93168190D01*
X120826420Y-93295670D01*
X120826419Y-93295674D01*
X120799500Y-93431006D01*
X110500500Y-93431006D01*
X110500500Y-91931006D01*
X130299500Y-91931006D01*
X130299500Y-92068993D01*
X130326419Y-92204325D01*
X130326420Y-92204329D01*
X130379224Y-92331809D01*
X130379227Y-92331815D01*
X130455883Y-92446538D01*
X130455886Y-92446542D01*
X130553458Y-92544114D01*
X130553461Y-92544116D01*
X130668184Y-92620772D01*
X130668186Y-92620773D01*
X130668189Y-92620775D01*
X130795672Y-92673580D01*
X130931007Y-92700500D01*
X131068993Y-92700500D01*
X131204328Y-92673580D01*
X131331811Y-92620775D01*
X131446542Y-92544114D01*
X131544114Y-92446542D01*
X131620775Y-92331811D01*
X131673580Y-92204328D01*
X131700500Y-92068993D01*
X131700500Y-91931007D01*
X131673580Y-91795672D01*
X131620775Y-91668189D01*
X131612163Y-91655301D01*
X131544116Y-91553461D01*
X131544114Y-91553458D01*
X131446542Y-91455886D01*
X131433028Y-91446856D01*
X131331815Y-91379227D01*
X131331809Y-91379224D01*
X131204329Y-91326420D01*
X131204325Y-91326419D01*
X131068993Y-91299500D01*
X130931007Y-91299500D01*
X130795674Y-91326419D01*
X130795670Y-91326420D01*
X130668190Y-91379224D01*
X130668184Y-91379227D01*
X130553461Y-91455883D01*
X130553454Y-91455889D01*
X130455889Y-91553454D01*
X130455883Y-91553461D01*
X130379227Y-91668184D01*
X130379224Y-91668190D01*
X130326420Y-91795670D01*
X130326419Y-91795674D01*
X130299500Y-91931006D01*
X110500500Y-91931006D01*
X110500500Y-89431006D01*
X131299500Y-89431006D01*
X131299500Y-89568993D01*
X131326419Y-89704325D01*
X131326420Y-89704329D01*
X131379224Y-89831809D01*
X131379227Y-89831815D01*
X131455883Y-89946538D01*
X131455886Y-89946542D01*
X131553458Y-90044114D01*
X131553461Y-90044116D01*
X131668184Y-90120772D01*
X131668186Y-90120773D01*
X131668189Y-90120775D01*
X131795672Y-90173580D01*
X131931007Y-90200500D01*
X132068993Y-90200500D01*
X132204328Y-90173580D01*
X132331811Y-90120775D01*
X132417219Y-90063706D01*
X132490254Y-90038914D01*
X132565900Y-90053960D01*
X132582781Y-90063707D01*
X132668184Y-90120772D01*
X132668186Y-90120773D01*
X132668189Y-90120775D01*
X132795672Y-90173580D01*
X132931007Y-90200500D01*
X133068993Y-90200500D01*
X133204328Y-90173580D01*
X133331811Y-90120775D01*
X133446542Y-90044114D01*
X133544114Y-89946542D01*
X133620775Y-89831811D01*
X133673580Y-89704328D01*
X133700500Y-89568993D01*
X133700500Y-89431007D01*
X133673580Y-89295672D01*
X133620775Y-89168189D01*
X133544114Y-89053458D01*
X133446542Y-88955886D01*
X133446538Y-88955883D01*
X133331815Y-88879227D01*
X133331809Y-88879224D01*
X133204329Y-88826420D01*
X133204325Y-88826419D01*
X133068993Y-88799500D01*
X132931007Y-88799500D01*
X132795674Y-88826419D01*
X132795670Y-88826420D01*
X132668190Y-88879224D01*
X132668186Y-88879225D01*
X132582780Y-88936293D01*
X132509745Y-88961085D01*
X132434099Y-88946038D01*
X132417220Y-88936293D01*
X132331813Y-88879225D01*
X132331809Y-88879224D01*
X132204329Y-88826420D01*
X132204325Y-88826419D01*
X132068993Y-88799500D01*
X131931007Y-88799500D01*
X131795674Y-88826419D01*
X131795670Y-88826420D01*
X131668190Y-88879224D01*
X131668184Y-88879227D01*
X131553461Y-88955883D01*
X131553454Y-88955889D01*
X131455889Y-89053454D01*
X131455883Y-89053461D01*
X131379227Y-89168184D01*
X131379224Y-89168190D01*
X131326420Y-89295670D01*
X131326419Y-89295674D01*
X131299500Y-89431006D01*
X110500500Y-89431006D01*
X110500500Y-87702701D01*
X142309500Y-87702701D01*
X142309500Y-88337298D01*
X142347814Y-88970707D01*
X142347815Y-88970720D01*
X142424307Y-89600690D01*
X142538690Y-90224857D01*
X142690555Y-90840997D01*
X142690558Y-90841008D01*
X142879335Y-91446819D01*
X142879345Y-91446847D01*
X142879348Y-91446856D01*
X142882773Y-91455886D01*
X143104368Y-92040184D01*
X143104378Y-92040210D01*
X143364816Y-92618879D01*
X143364821Y-92618889D01*
X143541693Y-92955889D01*
X143653117Y-93168190D01*
X143659719Y-93180768D01*
X143659734Y-93180795D01*
X143976221Y-93704329D01*
X143988015Y-93723838D01*
X144348500Y-94246090D01*
X144348504Y-94246095D01*
X144348506Y-94246098D01*
X144739862Y-94745627D01*
X144739868Y-94745634D01*
X145160648Y-95220597D01*
X145160658Y-95220607D01*
X145160666Y-95220616D01*
X145609384Y-95669334D01*
X145609392Y-95669341D01*
X145609402Y-95669351D01*
X146084365Y-96090131D01*
X146084372Y-96090137D01*
X146084377Y-96090141D01*
X146583910Y-96481500D01*
X147106162Y-96841985D01*
X147649226Y-97170278D01*
X147911475Y-97307917D01*
X148211110Y-97465178D01*
X148211120Y-97465183D01*
X148211122Y-97465184D01*
X148789798Y-97725625D01*
X149383144Y-97950652D01*
X149383164Y-97950658D01*
X149383180Y-97950664D01*
X149942390Y-98124919D01*
X149988994Y-98139442D01*
X149989000Y-98139443D01*
X149989002Y-98139444D01*
X150605142Y-98291309D01*
X151229309Y-98405692D01*
X151229310Y-98405692D01*
X151229326Y-98405695D01*
X151859283Y-98482185D01*
X152492708Y-98520500D01*
X152492709Y-98520500D01*
X153127291Y-98520500D01*
X153127292Y-98520500D01*
X153760717Y-98482185D01*
X154390674Y-98405695D01*
X155014862Y-98291308D01*
X155631006Y-98139442D01*
X155900450Y-98055480D01*
X156236819Y-97950664D01*
X156236828Y-97950660D01*
X156236856Y-97950652D01*
X156830202Y-97725625D01*
X157408878Y-97465184D01*
X157970774Y-97170278D01*
X158513838Y-96841985D01*
X159036090Y-96481500D01*
X159535623Y-96090141D01*
X159928901Y-95741727D01*
X160010597Y-95669351D01*
X160010598Y-95669349D01*
X160010616Y-95669334D01*
X160459334Y-95220616D01*
X160880141Y-94745623D01*
X161271500Y-94246090D01*
X161631985Y-93723838D01*
X161960278Y-93180774D01*
X162255184Y-92618878D01*
X162515625Y-92040202D01*
X162740652Y-91446856D01*
X162778182Y-91326420D01*
X162929441Y-90841008D01*
X162929444Y-90840997D01*
X163081309Y-90224857D01*
X163195692Y-89600690D01*
X163195695Y-89600674D01*
X163272185Y-88970717D01*
X163310500Y-88337292D01*
X163310500Y-87702708D01*
X163272185Y-87069283D01*
X163195695Y-86439326D01*
X163164386Y-86268477D01*
X163081309Y-85815142D01*
X162929444Y-85199002D01*
X162929441Y-85198991D01*
X162740664Y-84593180D01*
X162740658Y-84593164D01*
X162740652Y-84593144D01*
X162515625Y-83999798D01*
X162419196Y-83785543D01*
X162406825Y-83709414D01*
X162434175Y-83637298D01*
X162493918Y-83588519D01*
X162570048Y-83576147D01*
X162637851Y-83600504D01*
X162668185Y-83620773D01*
X162668187Y-83620774D01*
X162668189Y-83620775D01*
X162795672Y-83673580D01*
X162931007Y-83700500D01*
X163068993Y-83700500D01*
X163204328Y-83673580D01*
X163331811Y-83620775D01*
X163446542Y-83544114D01*
X163544114Y-83446542D01*
X163620775Y-83331811D01*
X163673580Y-83204328D01*
X163700500Y-83068993D01*
X163700500Y-82931007D01*
X163673580Y-82795672D01*
X163620775Y-82668189D01*
X163544114Y-82553458D01*
X163446542Y-82455886D01*
X163446538Y-82455883D01*
X163331815Y-82379227D01*
X163331809Y-82379224D01*
X163204329Y-82326420D01*
X163204325Y-82326419D01*
X163068993Y-82299500D01*
X162931007Y-82299500D01*
X162795674Y-82326419D01*
X162795670Y-82326420D01*
X162668190Y-82379224D01*
X162668184Y-82379227D01*
X162553461Y-82455883D01*
X162553454Y-82455889D01*
X162455889Y-82553454D01*
X162455883Y-82553461D01*
X162379227Y-82668184D01*
X162379224Y-82668190D01*
X162326420Y-82795670D01*
X162326419Y-82795672D01*
X162298842Y-82934313D01*
X162264729Y-83003487D01*
X162200599Y-83046337D01*
X162123636Y-83051381D01*
X162054462Y-83017268D01*
X162020772Y-82974488D01*
X161960278Y-82859226D01*
X161958353Y-82856042D01*
X161638186Y-82326420D01*
X161631985Y-82316162D01*
X161271500Y-81793910D01*
X161177227Y-81673580D01*
X160880137Y-81294372D01*
X160880131Y-81294365D01*
X160639273Y-81022492D01*
X160558223Y-80931006D01*
X162299500Y-80931006D01*
X162299500Y-81068993D01*
X162326419Y-81204325D01*
X162326420Y-81204329D01*
X162379224Y-81331809D01*
X162379227Y-81331815D01*
X162402353Y-81366425D01*
X162455886Y-81446542D01*
X162553458Y-81544114D01*
X162553461Y-81544116D01*
X162668184Y-81620772D01*
X162668186Y-81620773D01*
X162668189Y-81620775D01*
X162795672Y-81673580D01*
X162931007Y-81700500D01*
X163068993Y-81700500D01*
X163204328Y-81673580D01*
X163331811Y-81620775D01*
X163446542Y-81544114D01*
X163544114Y-81446542D01*
X163620775Y-81331811D01*
X163673580Y-81204328D01*
X163700500Y-81068993D01*
X163700500Y-80931007D01*
X163673580Y-80795672D01*
X163620775Y-80668189D01*
X163544114Y-80553458D01*
X163446542Y-80455886D01*
X163446538Y-80455883D01*
X163331815Y-80379227D01*
X163331809Y-80379224D01*
X163204329Y-80326420D01*
X163204325Y-80326419D01*
X163068993Y-80299500D01*
X162931007Y-80299500D01*
X162795674Y-80326419D01*
X162795670Y-80326420D01*
X162668190Y-80379224D01*
X162668184Y-80379227D01*
X162553461Y-80455883D01*
X162553454Y-80455889D01*
X162455889Y-80553454D01*
X162455883Y-80553461D01*
X162379227Y-80668184D01*
X162379224Y-80668190D01*
X162326420Y-80795670D01*
X162326419Y-80795674D01*
X162299500Y-80931006D01*
X160558223Y-80931006D01*
X160459351Y-80819402D01*
X160459341Y-80819392D01*
X160459334Y-80819384D01*
X160010616Y-80370666D01*
X160010607Y-80370658D01*
X160010597Y-80370648D01*
X159535634Y-79949868D01*
X159535627Y-79949862D01*
X159036098Y-79558506D01*
X159036095Y-79558504D01*
X159036090Y-79558500D01*
X158513838Y-79198015D01*
X158513825Y-79198007D01*
X158513822Y-79198005D01*
X157970795Y-78869734D01*
X157970780Y-78869726D01*
X157970774Y-78869722D01*
X157879966Y-78822062D01*
X157408889Y-78574821D01*
X157408879Y-78574816D01*
X156830210Y-78314378D01*
X156830184Y-78314368D01*
X156525834Y-78198943D01*
X156236856Y-78089348D01*
X156236847Y-78089345D01*
X156236819Y-78089335D01*
X155631008Y-77900558D01*
X155630997Y-77900555D01*
X155014857Y-77748690D01*
X154390690Y-77634307D01*
X154390674Y-77634305D01*
X153890628Y-77573588D01*
X153760720Y-77557815D01*
X153760707Y-77557814D01*
X153127298Y-77519500D01*
X153127292Y-77519500D01*
X152492708Y-77519500D01*
X152492701Y-77519500D01*
X151859292Y-77557814D01*
X151859279Y-77557815D01*
X151229309Y-77634307D01*
X150605142Y-77748690D01*
X149989002Y-77900555D01*
X149988991Y-77900558D01*
X149383180Y-78089335D01*
X149383125Y-78089355D01*
X148789815Y-78314368D01*
X148789789Y-78314378D01*
X148211120Y-78574816D01*
X148211110Y-78574821D01*
X147649231Y-78869719D01*
X147649204Y-78869734D01*
X147106177Y-79198005D01*
X147106166Y-79198012D01*
X147106162Y-79198015D01*
X146698923Y-79479112D01*
X146583910Y-79558500D01*
X146583901Y-79558506D01*
X146084372Y-79949862D01*
X146084365Y-79949868D01*
X145609402Y-80370648D01*
X145160648Y-80819402D01*
X144739868Y-81294365D01*
X144739862Y-81294372D01*
X144348506Y-81793901D01*
X144348500Y-81793910D01*
X143988005Y-82316177D01*
X143659734Y-82859204D01*
X143659719Y-82859231D01*
X143364821Y-83421110D01*
X143364816Y-83421120D01*
X143104378Y-83999789D01*
X143104368Y-83999815D01*
X142879355Y-84593125D01*
X142879335Y-84593180D01*
X142690558Y-85198991D01*
X142690555Y-85199002D01*
X142538690Y-85815142D01*
X142424307Y-86439309D01*
X142347815Y-87069279D01*
X142347814Y-87069292D01*
X142309500Y-87702701D01*
X110500500Y-87702701D01*
X110500500Y-84897648D01*
X111962000Y-84897648D01*
X111962000Y-85102352D01*
X111994023Y-85304534D01*
X112057278Y-85499212D01*
X112057282Y-85499224D01*
X112150214Y-85681612D01*
X112270528Y-85847212D01*
X112270535Y-85847220D01*
X112415279Y-85991964D01*
X112415287Y-85991971D01*
X112462447Y-86026234D01*
X112580890Y-86112287D01*
X112763281Y-86205220D01*
X112957966Y-86268477D01*
X113160148Y-86300500D01*
X113160153Y-86300500D01*
X113364847Y-86300500D01*
X113364852Y-86300500D01*
X113567034Y-86268477D01*
X113761719Y-86205220D01*
X113944110Y-86112287D01*
X114109719Y-85991966D01*
X114254466Y-85847219D01*
X114374787Y-85681610D01*
X114467720Y-85499219D01*
X114530977Y-85304534D01*
X114563000Y-85102352D01*
X114563000Y-84897648D01*
X114530977Y-84695466D01*
X114467720Y-84500781D01*
X114374787Y-84318390D01*
X114374785Y-84318387D01*
X114254471Y-84152787D01*
X114254464Y-84152779D01*
X114109720Y-84008035D01*
X114109712Y-84008028D01*
X113944112Y-83887714D01*
X113761724Y-83794782D01*
X113761720Y-83794780D01*
X113761719Y-83794780D01*
X113567034Y-83731523D01*
X113364852Y-83699500D01*
X113160148Y-83699500D01*
X112991663Y-83726185D01*
X112957965Y-83731523D01*
X112763287Y-83794778D01*
X112763275Y-83794782D01*
X112580887Y-83887714D01*
X112415287Y-84008028D01*
X112415279Y-84008035D01*
X112270535Y-84152779D01*
X112270528Y-84152787D01*
X112150214Y-84318387D01*
X112057282Y-84500775D01*
X112057278Y-84500787D01*
X112027276Y-84593125D01*
X111994023Y-84695466D01*
X111962000Y-84897648D01*
X110500500Y-84897648D01*
X110500500Y-81870103D01*
X121612000Y-81870103D01*
X121612000Y-82129897D01*
X121652640Y-82386493D01*
X121675186Y-82455883D01*
X121732921Y-82633574D01*
X121812544Y-82789840D01*
X121850866Y-82865051D01*
X122003569Y-83075229D01*
X122187271Y-83258931D01*
X122397449Y-83411634D01*
X122547869Y-83488277D01*
X122628925Y-83529578D01*
X122628927Y-83529578D01*
X122628928Y-83529579D01*
X122876007Y-83609860D01*
X123132603Y-83650500D01*
X123132608Y-83650500D01*
X123392392Y-83650500D01*
X123392397Y-83650500D01*
X123648993Y-83609860D01*
X123896072Y-83529579D01*
X124127551Y-83411634D01*
X124337729Y-83258931D01*
X124521431Y-83075229D01*
X124626215Y-82931006D01*
X140199500Y-82931006D01*
X140199500Y-83068993D01*
X140226419Y-83204325D01*
X140226420Y-83204329D01*
X140279224Y-83331809D01*
X140279227Y-83331815D01*
X140355883Y-83446538D01*
X140355886Y-83446542D01*
X140453458Y-83544114D01*
X140453461Y-83544116D01*
X140568184Y-83620772D01*
X140568186Y-83620773D01*
X140568189Y-83620775D01*
X140695672Y-83673580D01*
X140831007Y-83700500D01*
X140968993Y-83700500D01*
X141104328Y-83673580D01*
X141231811Y-83620775D01*
X141346542Y-83544114D01*
X141444114Y-83446542D01*
X141520775Y-83331811D01*
X141573580Y-83204328D01*
X141600500Y-83068993D01*
X141600500Y-82931007D01*
X141573580Y-82795672D01*
X141520775Y-82668189D01*
X141444114Y-82553458D01*
X141346542Y-82455886D01*
X141346538Y-82455883D01*
X141231815Y-82379227D01*
X141231809Y-82379224D01*
X141104329Y-82326420D01*
X141104325Y-82326419D01*
X140968993Y-82299500D01*
X140831007Y-82299500D01*
X140695674Y-82326419D01*
X140695670Y-82326420D01*
X140568190Y-82379224D01*
X140568184Y-82379227D01*
X140453461Y-82455883D01*
X140453454Y-82455889D01*
X140355889Y-82553454D01*
X140355883Y-82553461D01*
X140279227Y-82668184D01*
X140279224Y-82668190D01*
X140226420Y-82795670D01*
X140226419Y-82795674D01*
X140199500Y-82931006D01*
X124626215Y-82931006D01*
X124674134Y-82865051D01*
X124792079Y-82633572D01*
X124872360Y-82386493D01*
X124913000Y-82129897D01*
X124913000Y-81870103D01*
X124872360Y-81613507D01*
X124792079Y-81366428D01*
X124792078Y-81366427D01*
X124792078Y-81366425D01*
X124709485Y-81204329D01*
X124674134Y-81134949D01*
X124525962Y-80931007D01*
X124525961Y-80931006D01*
X140299500Y-80931006D01*
X140299500Y-81068993D01*
X140326419Y-81204325D01*
X140326420Y-81204329D01*
X140379224Y-81331809D01*
X140379227Y-81331815D01*
X140402353Y-81366425D01*
X140455886Y-81446542D01*
X140553458Y-81544114D01*
X140553461Y-81544116D01*
X140668184Y-81620772D01*
X140668186Y-81620773D01*
X140668189Y-81620775D01*
X140795672Y-81673580D01*
X140931007Y-81700500D01*
X141068993Y-81700500D01*
X141204328Y-81673580D01*
X141331811Y-81620775D01*
X141446542Y-81544114D01*
X141544114Y-81446542D01*
X141620775Y-81331811D01*
X141673580Y-81204328D01*
X141700500Y-81068993D01*
X141700500Y-80931007D01*
X141673580Y-80795672D01*
X141620775Y-80668189D01*
X141544114Y-80553458D01*
X141446542Y-80455886D01*
X141446538Y-80455883D01*
X141331815Y-80379227D01*
X141331809Y-80379224D01*
X141204329Y-80326420D01*
X141204325Y-80326419D01*
X141068993Y-80299500D01*
X140931007Y-80299500D01*
X140795674Y-80326419D01*
X140795670Y-80326420D01*
X140668190Y-80379224D01*
X140668184Y-80379227D01*
X140553461Y-80455883D01*
X140553454Y-80455889D01*
X140455889Y-80553454D01*
X140455883Y-80553461D01*
X140379227Y-80668184D01*
X140379224Y-80668190D01*
X140326420Y-80795670D01*
X140326419Y-80795674D01*
X140299500Y-80931006D01*
X124525961Y-80931006D01*
X124521436Y-80924777D01*
X124521433Y-80924774D01*
X124521431Y-80924771D01*
X124337729Y-80741069D01*
X124127551Y-80588366D01*
X124052340Y-80550044D01*
X123896074Y-80470421D01*
X123731352Y-80416900D01*
X123648993Y-80390140D01*
X123392397Y-80349500D01*
X123132603Y-80349500D01*
X122876007Y-80390140D01*
X122628925Y-80470421D01*
X122397447Y-80588367D01*
X122187274Y-80741066D01*
X122003566Y-80924774D01*
X121850867Y-81134947D01*
X121732921Y-81366425D01*
X121652640Y-81613507D01*
X121612000Y-81870103D01*
X110500500Y-81870103D01*
X110500500Y-76878015D01*
X121712500Y-76878015D01*
X121712500Y-77121984D01*
X121750665Y-77362958D01*
X121826057Y-77594987D01*
X121826062Y-77594999D01*
X121936822Y-77812378D01*
X122063555Y-77986811D01*
X122528668Y-77521697D01*
X122563426Y-77573715D01*
X122688785Y-77699074D01*
X122740800Y-77733830D01*
X122275687Y-78198943D01*
X122275687Y-78198945D01*
X122450112Y-78325672D01*
X122450121Y-78325677D01*
X122667500Y-78436437D01*
X122667512Y-78436442D01*
X122899541Y-78511834D01*
X123140516Y-78550000D01*
X123384484Y-78550000D01*
X123625458Y-78511834D01*
X123857487Y-78436442D01*
X123857499Y-78436437D01*
X124074878Y-78325677D01*
X124249311Y-78198944D01*
X124249311Y-78198943D01*
X123784198Y-77733830D01*
X123836215Y-77699074D01*
X123961574Y-77573715D01*
X123996330Y-77521698D01*
X124461443Y-77986811D01*
X124461444Y-77986811D01*
X124588177Y-77812378D01*
X124698937Y-77594999D01*
X124698942Y-77594987D01*
X124752224Y-77431006D01*
X138179500Y-77431006D01*
X138179500Y-77568993D01*
X138206419Y-77704325D01*
X138206420Y-77704329D01*
X138259224Y-77831809D01*
X138259227Y-77831815D01*
X138304786Y-77899998D01*
X138335886Y-77946542D01*
X138433458Y-78044114D01*
X138433461Y-78044116D01*
X138548184Y-78120772D01*
X138548186Y-78120773D01*
X138548189Y-78120775D01*
X138675672Y-78173580D01*
X138811007Y-78200500D01*
X138948993Y-78200500D01*
X139084328Y-78173580D01*
X139211811Y-78120775D01*
X139326542Y-78044114D01*
X139424114Y-77946542D01*
X139500775Y-77831811D01*
X139553580Y-77704328D01*
X139580500Y-77568993D01*
X139580500Y-77451865D01*
X160199500Y-77451865D01*
X160199500Y-77589852D01*
X160226419Y-77725184D01*
X160226420Y-77725188D01*
X160279224Y-77852668D01*
X160279227Y-77852674D01*
X160341948Y-77946542D01*
X160355886Y-77967401D01*
X160453458Y-78064973D01*
X160453461Y-78064975D01*
X160568184Y-78141631D01*
X160568186Y-78141632D01*
X160568189Y-78141634D01*
X160695672Y-78194439D01*
X160831007Y-78221359D01*
X160968993Y-78221359D01*
X161104328Y-78194439D01*
X161231811Y-78141634D01*
X161346542Y-78064973D01*
X161444114Y-77967401D01*
X161520775Y-77852670D01*
X161573580Y-77725187D01*
X161600500Y-77589852D01*
X161600500Y-77451866D01*
X161573580Y-77316531D01*
X161520775Y-77189048D01*
X161506837Y-77168189D01*
X161444116Y-77074320D01*
X161444114Y-77074317D01*
X161346542Y-76976745D01*
X161346538Y-76976742D01*
X161231815Y-76900086D01*
X161231809Y-76900083D01*
X161104329Y-76847279D01*
X161104325Y-76847278D01*
X160968993Y-76820359D01*
X160831007Y-76820359D01*
X160695674Y-76847278D01*
X160695670Y-76847279D01*
X160568190Y-76900083D01*
X160568184Y-76900086D01*
X160453461Y-76976742D01*
X160453454Y-76976748D01*
X160355889Y-77074313D01*
X160355883Y-77074320D01*
X160279227Y-77189043D01*
X160279224Y-77189049D01*
X160226420Y-77316529D01*
X160226419Y-77316533D01*
X160199500Y-77451865D01*
X139580500Y-77451865D01*
X139580500Y-77431007D01*
X139553580Y-77295672D01*
X139500775Y-77168189D01*
X139424114Y-77053458D01*
X139326542Y-76955886D01*
X139326538Y-76955883D01*
X139211815Y-76879227D01*
X139211809Y-76879224D01*
X139084329Y-76826420D01*
X139084325Y-76826419D01*
X138948993Y-76799500D01*
X138811007Y-76799500D01*
X138675674Y-76826419D01*
X138675670Y-76826420D01*
X138548190Y-76879224D01*
X138548184Y-76879227D01*
X138433461Y-76955883D01*
X138433454Y-76955889D01*
X138335889Y-77053454D01*
X138335883Y-77053461D01*
X138259227Y-77168184D01*
X138259224Y-77168190D01*
X138206420Y-77295670D01*
X138206419Y-77295674D01*
X138179500Y-77431006D01*
X124752224Y-77431006D01*
X124769563Y-77377643D01*
X124774334Y-77362956D01*
X124812500Y-77121984D01*
X124812500Y-76878015D01*
X124774334Y-76637041D01*
X124698942Y-76405012D01*
X124698937Y-76405000D01*
X124588177Y-76187621D01*
X124588172Y-76187612D01*
X124461445Y-76013187D01*
X124461443Y-76013187D01*
X123996329Y-76478300D01*
X123961574Y-76426285D01*
X123836215Y-76300926D01*
X123784197Y-76266168D01*
X124249311Y-75801055D01*
X124249311Y-75801054D01*
X124074878Y-75674322D01*
X123857499Y-75563562D01*
X123857487Y-75563557D01*
X123625458Y-75488165D01*
X123384484Y-75450000D01*
X123140516Y-75450000D01*
X122899541Y-75488165D01*
X122667512Y-75563557D01*
X122667500Y-75563562D01*
X122450120Y-75674322D01*
X122275687Y-75801054D01*
X122275687Y-75801055D01*
X122740801Y-76266169D01*
X122688785Y-76300926D01*
X122563426Y-76426285D01*
X122528669Y-76478301D01*
X122063555Y-76013187D01*
X122063554Y-76013187D01*
X121936822Y-76187620D01*
X121826062Y-76405000D01*
X121826057Y-76405012D01*
X121750665Y-76637041D01*
X121712500Y-76878015D01*
X110500500Y-76878015D01*
X110500500Y-73897648D01*
X111962000Y-73897648D01*
X111962000Y-74102352D01*
X111994023Y-74304534D01*
X112057278Y-74499212D01*
X112057282Y-74499224D01*
X112150214Y-74681612D01*
X112270528Y-74847212D01*
X112270535Y-74847220D01*
X112415279Y-74991964D01*
X112415287Y-74991971D01*
X112580887Y-75112285D01*
X112580890Y-75112287D01*
X112763281Y-75205220D01*
X112957966Y-75268477D01*
X113160148Y-75300500D01*
X113160153Y-75300500D01*
X113364847Y-75300500D01*
X113364852Y-75300500D01*
X113567034Y-75268477D01*
X113761719Y-75205220D01*
X113944110Y-75112287D01*
X114109719Y-74991966D01*
X114254466Y-74847219D01*
X114374787Y-74681610D01*
X114467720Y-74499219D01*
X114530977Y-74304534D01*
X114563000Y-74102352D01*
X114563000Y-73897648D01*
X114530977Y-73695466D01*
X114467720Y-73500781D01*
X114374787Y-73318390D01*
X114289136Y-73200500D01*
X114254471Y-73152787D01*
X114254464Y-73152779D01*
X114109720Y-73008035D01*
X114109712Y-73008028D01*
X114003699Y-72931006D01*
X142299500Y-72931006D01*
X142299500Y-73068993D01*
X142326419Y-73204325D01*
X142326420Y-73204329D01*
X142379224Y-73331809D01*
X142379227Y-73331815D01*
X142455883Y-73446538D01*
X142455886Y-73446542D01*
X142553458Y-73544114D01*
X142553461Y-73544116D01*
X142668184Y-73620772D01*
X142668186Y-73620773D01*
X142668189Y-73620775D01*
X142795672Y-73673580D01*
X142931007Y-73700500D01*
X143068993Y-73700500D01*
X143204328Y-73673580D01*
X143331811Y-73620775D01*
X143446542Y-73544114D01*
X143544114Y-73446542D01*
X143620775Y-73331811D01*
X143673580Y-73204328D01*
X143700500Y-73068993D01*
X143700500Y-72931007D01*
X143673580Y-72795672D01*
X143620775Y-72668189D01*
X143544114Y-72553458D01*
X143446542Y-72455886D01*
X143446538Y-72455883D01*
X143409307Y-72431006D01*
X149299500Y-72431006D01*
X149299500Y-72568993D01*
X149326419Y-72704325D01*
X149326420Y-72704329D01*
X149379224Y-72831809D01*
X149379227Y-72831815D01*
X149455883Y-72946538D01*
X149455886Y-72946542D01*
X149553458Y-73044114D01*
X149553461Y-73044116D01*
X149668184Y-73120772D01*
X149668186Y-73120773D01*
X149668189Y-73120775D01*
X149795672Y-73173580D01*
X149931007Y-73200500D01*
X150068993Y-73200500D01*
X150204328Y-73173580D01*
X150331811Y-73120775D01*
X150446542Y-73044114D01*
X150544114Y-72946542D01*
X150554495Y-72931006D01*
X153299500Y-72931006D01*
X153299500Y-73068993D01*
X153326419Y-73204325D01*
X153326420Y-73204329D01*
X153379224Y-73331809D01*
X153379227Y-73331815D01*
X153455883Y-73446538D01*
X153455886Y-73446542D01*
X153553458Y-73544114D01*
X153553461Y-73544116D01*
X153668184Y-73620772D01*
X153668186Y-73620773D01*
X153668189Y-73620775D01*
X153795672Y-73673580D01*
X153931007Y-73700500D01*
X154068993Y-73700500D01*
X154204328Y-73673580D01*
X154331811Y-73620775D01*
X154446542Y-73544114D01*
X154544114Y-73446542D01*
X154620775Y-73331811D01*
X154673580Y-73204328D01*
X154700500Y-73068993D01*
X154700500Y-72931007D01*
X154700500Y-72931006D01*
X156299500Y-72931006D01*
X156299500Y-73068993D01*
X156326419Y-73204325D01*
X156326420Y-73204329D01*
X156379224Y-73331809D01*
X156379227Y-73331815D01*
X156455883Y-73446538D01*
X156455886Y-73446542D01*
X156553458Y-73544114D01*
X156553461Y-73544116D01*
X156668184Y-73620772D01*
X156668186Y-73620773D01*
X156668189Y-73620775D01*
X156795672Y-73673580D01*
X156931007Y-73700500D01*
X157068993Y-73700500D01*
X157204328Y-73673580D01*
X157331811Y-73620775D01*
X157446542Y-73544114D01*
X157544114Y-73446542D01*
X157620775Y-73331811D01*
X157673580Y-73204328D01*
X157700500Y-73068993D01*
X157700500Y-72931007D01*
X157673580Y-72795672D01*
X157620775Y-72668189D01*
X157544114Y-72553458D01*
X157446542Y-72455886D01*
X157446538Y-72455883D01*
X157331815Y-72379227D01*
X157331809Y-72379224D01*
X157204329Y-72326420D01*
X157204325Y-72326419D01*
X157068993Y-72299500D01*
X156931007Y-72299500D01*
X156795674Y-72326419D01*
X156795670Y-72326420D01*
X156668190Y-72379224D01*
X156668184Y-72379227D01*
X156553461Y-72455883D01*
X156553454Y-72455889D01*
X156455889Y-72553454D01*
X156455883Y-72553461D01*
X156379227Y-72668184D01*
X156379224Y-72668190D01*
X156326420Y-72795670D01*
X156326419Y-72795674D01*
X156299500Y-72931006D01*
X154700500Y-72931006D01*
X154673580Y-72795672D01*
X154620775Y-72668189D01*
X154544114Y-72553458D01*
X154446542Y-72455886D01*
X154446538Y-72455883D01*
X154331815Y-72379227D01*
X154331809Y-72379224D01*
X154204329Y-72326420D01*
X154204325Y-72326419D01*
X154068993Y-72299500D01*
X153931007Y-72299500D01*
X153795674Y-72326419D01*
X153795670Y-72326420D01*
X153668190Y-72379224D01*
X153668184Y-72379227D01*
X153553461Y-72455883D01*
X153553454Y-72455889D01*
X153455889Y-72553454D01*
X153455883Y-72553461D01*
X153379227Y-72668184D01*
X153379224Y-72668190D01*
X153326420Y-72795670D01*
X153326419Y-72795674D01*
X153299500Y-72931006D01*
X150554495Y-72931006D01*
X150583422Y-72887714D01*
X150614699Y-72840906D01*
X150614699Y-72840905D01*
X150620772Y-72831816D01*
X150620772Y-72831814D01*
X150620775Y-72831811D01*
X150673580Y-72704328D01*
X150700500Y-72568993D01*
X150700500Y-72431007D01*
X150673580Y-72295672D01*
X150620775Y-72168189D01*
X150544114Y-72053458D01*
X150446542Y-71955886D01*
X150446538Y-71955883D01*
X150331815Y-71879227D01*
X150331809Y-71879224D01*
X150204329Y-71826420D01*
X150204325Y-71826419D01*
X150068993Y-71799500D01*
X149931007Y-71799500D01*
X149795674Y-71826419D01*
X149795670Y-71826420D01*
X149668190Y-71879224D01*
X149668184Y-71879227D01*
X149553461Y-71955883D01*
X149553454Y-71955889D01*
X149455889Y-72053454D01*
X149455883Y-72053461D01*
X149379227Y-72168184D01*
X149379224Y-72168190D01*
X149326420Y-72295670D01*
X149326419Y-72295674D01*
X149299500Y-72431006D01*
X143409307Y-72431006D01*
X143331815Y-72379227D01*
X143331809Y-72379224D01*
X143204329Y-72326420D01*
X143204325Y-72326419D01*
X143068993Y-72299500D01*
X142931007Y-72299500D01*
X142795674Y-72326419D01*
X142795670Y-72326420D01*
X142668190Y-72379224D01*
X142668184Y-72379227D01*
X142553461Y-72455883D01*
X142553454Y-72455889D01*
X142455889Y-72553454D01*
X142455883Y-72553461D01*
X142379227Y-72668184D01*
X142379224Y-72668190D01*
X142326420Y-72795670D01*
X142326419Y-72795674D01*
X142299500Y-72931006D01*
X114003699Y-72931006D01*
X113944112Y-72887714D01*
X113761724Y-72794782D01*
X113761720Y-72794780D01*
X113761719Y-72794780D01*
X113567034Y-72731523D01*
X113364852Y-72699500D01*
X113160148Y-72699500D01*
X112991663Y-72726185D01*
X112957965Y-72731523D01*
X112763287Y-72794778D01*
X112763275Y-72794782D01*
X112580887Y-72887714D01*
X112415287Y-73008028D01*
X112415279Y-73008035D01*
X112270535Y-73152779D01*
X112270528Y-73152787D01*
X112150214Y-73318387D01*
X112057282Y-73500775D01*
X112057278Y-73500787D01*
X112001135Y-73673579D01*
X111994023Y-73695466D01*
X111962000Y-73897648D01*
X110500500Y-73897648D01*
X110500500Y-71431006D01*
X135699500Y-71431006D01*
X135699500Y-71568993D01*
X135726419Y-71704325D01*
X135726420Y-71704329D01*
X135779224Y-71831809D01*
X135779227Y-71831815D01*
X135804069Y-71868993D01*
X135855886Y-71946542D01*
X135953458Y-72044114D01*
X135953461Y-72044116D01*
X136068184Y-72120772D01*
X136068186Y-72120773D01*
X136068189Y-72120775D01*
X136195672Y-72173580D01*
X136331007Y-72200500D01*
X136468993Y-72200500D01*
X136604328Y-72173580D01*
X136731811Y-72120775D01*
X136846542Y-72044114D01*
X136944114Y-71946542D01*
X137020775Y-71831811D01*
X137062530Y-71731006D01*
X139418250Y-71731006D01*
X139418250Y-71868993D01*
X139445169Y-72004325D01*
X139445170Y-72004329D01*
X139497974Y-72131809D01*
X139497977Y-72131815D01*
X139574633Y-72246538D01*
X139574636Y-72246542D01*
X139672208Y-72344114D01*
X139672211Y-72344116D01*
X139786934Y-72420772D01*
X139786936Y-72420773D01*
X139786939Y-72420775D01*
X139914422Y-72473580D01*
X140049757Y-72500500D01*
X140187743Y-72500500D01*
X140323078Y-72473580D01*
X140450561Y-72420775D01*
X140565292Y-72344114D01*
X140662864Y-72246542D01*
X140739525Y-72131811D01*
X140792330Y-72004328D01*
X140819250Y-71868993D01*
X140819250Y-71731007D01*
X140792330Y-71595672D01*
X140739525Y-71468189D01*
X140676308Y-71373579D01*
X140662866Y-71353461D01*
X140662864Y-71353458D01*
X140565292Y-71255886D01*
X140565288Y-71255883D01*
X140450565Y-71179227D01*
X140450559Y-71179224D01*
X140323079Y-71126420D01*
X140323075Y-71126419D01*
X140187743Y-71099500D01*
X140049757Y-71099500D01*
X139914424Y-71126419D01*
X139914420Y-71126420D01*
X139786940Y-71179224D01*
X139786934Y-71179227D01*
X139672211Y-71255883D01*
X139672204Y-71255889D01*
X139591733Y-71336359D01*
X139591710Y-71336383D01*
X139574636Y-71353458D01*
X139570891Y-71359062D01*
X139570887Y-71359067D01*
X139497975Y-71468186D01*
X139497974Y-71468190D01*
X139445170Y-71595670D01*
X139445169Y-71595674D01*
X139418250Y-71731006D01*
X137062530Y-71731006D01*
X137073580Y-71704328D01*
X137100500Y-71568993D01*
X137100500Y-71431007D01*
X137073580Y-71295672D01*
X137020775Y-71168189D01*
X137006308Y-71146538D01*
X136944116Y-71053461D01*
X136944114Y-71053458D01*
X136846542Y-70955886D01*
X136846538Y-70955883D01*
X136731815Y-70879227D01*
X136731809Y-70879224D01*
X136604329Y-70826420D01*
X136604325Y-70826419D01*
X136468993Y-70799500D01*
X136331007Y-70799500D01*
X136218310Y-70821916D01*
X136218300Y-70821918D01*
X136195672Y-70826419D01*
X136195670Y-70826420D01*
X136068190Y-70879224D01*
X136068184Y-70879227D01*
X135953461Y-70955883D01*
X135953454Y-70955889D01*
X135855889Y-71053454D01*
X135855883Y-71053461D01*
X135779227Y-71168184D01*
X135779224Y-71168190D01*
X135726420Y-71295670D01*
X135726419Y-71295674D01*
X135699500Y-71431006D01*
X110500500Y-71431006D01*
X110500500Y-67004499D01*
X110500772Y-66995503D01*
X110503698Y-66947132D01*
X110518180Y-66707699D01*
X110520345Y-66689869D01*
X110530110Y-66636583D01*
X117124500Y-66636583D01*
X117124500Y-66833417D01*
X117155291Y-67027826D01*
X117216116Y-67215025D01*
X117216119Y-67215030D01*
X117216121Y-67215036D01*
X117230877Y-67243996D01*
X117305476Y-67390405D01*
X117421172Y-67549646D01*
X117560354Y-67688828D01*
X117651376Y-67754959D01*
X117699911Y-67814896D01*
X117711977Y-67891075D01*
X117684337Y-67963080D01*
X117624397Y-68011618D01*
X117563795Y-68024500D01*
X117493481Y-68024500D01*
X117399695Y-68039354D01*
X117399693Y-68039355D01*
X117286657Y-68096950D01*
X117196950Y-68186657D01*
X117139354Y-68299694D01*
X117135952Y-68321174D01*
X117124500Y-68393481D01*
X117124500Y-68393482D01*
X117124500Y-68393485D01*
X117124500Y-70156518D01*
X117137963Y-70241520D01*
X117139354Y-70250304D01*
X117196950Y-70363342D01*
X117286658Y-70453050D01*
X117399696Y-70510646D01*
X117493481Y-70525500D01*
X119256518Y-70525499D01*
X119350304Y-70510646D01*
X119463342Y-70453050D01*
X119553050Y-70363342D01*
X119610646Y-70250304D01*
X119625500Y-70156519D01*
X119625499Y-70086205D01*
X119645460Y-70011709D01*
X119699997Y-69957170D01*
X119774497Y-69937207D01*
X119848997Y-69957168D01*
X119895041Y-69998625D01*
X119961172Y-70089646D01*
X120100354Y-70228828D01*
X120259595Y-70344524D01*
X120434975Y-70433884D01*
X120622174Y-70494709D01*
X120816583Y-70525500D01*
X120816588Y-70525500D01*
X121013412Y-70525500D01*
X121013417Y-70525500D01*
X121207826Y-70494709D01*
X121395025Y-70433884D01*
X121570405Y-70344524D01*
X121729646Y-70228828D01*
X121868828Y-70089646D01*
X121984524Y-69930405D01*
X122052240Y-69797503D01*
X122103848Y-69740186D01*
X122177201Y-69716352D01*
X122252644Y-69732388D01*
X122309962Y-69783996D01*
X122317759Y-69797503D01*
X122385476Y-69930405D01*
X122501172Y-70089646D01*
X122640354Y-70228828D01*
X122799595Y-70344524D01*
X122974975Y-70433884D01*
X123162174Y-70494709D01*
X123356583Y-70525500D01*
X123356588Y-70525500D01*
X123553412Y-70525500D01*
X123553417Y-70525500D01*
X123747826Y-70494709D01*
X123935025Y-70433884D01*
X124110405Y-70344524D01*
X124269646Y-70228828D01*
X124408828Y-70089646D01*
X124524524Y-69930405D01*
X124592240Y-69797503D01*
X124643848Y-69740186D01*
X124717201Y-69716352D01*
X124792644Y-69732388D01*
X124849962Y-69783996D01*
X124857759Y-69797503D01*
X124925476Y-69930405D01*
X125041172Y-70089646D01*
X125180354Y-70228828D01*
X125339595Y-70344524D01*
X125514975Y-70433884D01*
X125702174Y-70494709D01*
X125896583Y-70525500D01*
X125896588Y-70525500D01*
X126093412Y-70525500D01*
X126093417Y-70525500D01*
X126287826Y-70494709D01*
X126475025Y-70433884D01*
X126650405Y-70344524D01*
X126809646Y-70228828D01*
X126948828Y-70089646D01*
X127064524Y-69930405D01*
X127153884Y-69755025D01*
X127176129Y-69686559D01*
X127218133Y-69621878D01*
X127286855Y-69586862D01*
X127363877Y-69590898D01*
X127428563Y-69632904D01*
X127459541Y-69686559D01*
X127469253Y-69716448D01*
X127551430Y-69877728D01*
X127622424Y-69975442D01*
X128091328Y-69506537D01*
X128134901Y-69582007D01*
X128227993Y-69675099D01*
X128303460Y-69718670D01*
X127834556Y-70187574D01*
X127834556Y-70187575D01*
X127932267Y-70258566D01*
X127932267Y-70258567D01*
X128093550Y-70340746D01*
X128265702Y-70396681D01*
X128265702Y-70396682D01*
X128444497Y-70425000D01*
X128625503Y-70425000D01*
X128804297Y-70396682D01*
X128804297Y-70396681D01*
X128976449Y-70340746D01*
X129137732Y-70258567D01*
X129137732Y-70258566D01*
X129235442Y-70187575D01*
X129235443Y-70187575D01*
X128766538Y-69718670D01*
X128842007Y-69675099D01*
X128935099Y-69582007D01*
X128978670Y-69506538D01*
X129447575Y-69975443D01*
X129447575Y-69975442D01*
X129518566Y-69877732D01*
X129518567Y-69877732D01*
X129600746Y-69716447D01*
X129610457Y-69686563D01*
X129652463Y-69621878D01*
X129721185Y-69586862D01*
X129798207Y-69590899D01*
X129862892Y-69632905D01*
X129893870Y-69686561D01*
X129916116Y-69755025D01*
X129916119Y-69755030D01*
X129916121Y-69755036D01*
X129930877Y-69783996D01*
X130005476Y-69930405D01*
X130121172Y-70089646D01*
X130260354Y-70228828D01*
X130419595Y-70344524D01*
X130594975Y-70433884D01*
X130782174Y-70494709D01*
X130976583Y-70525500D01*
X130976588Y-70525500D01*
X131173412Y-70525500D01*
X131173417Y-70525500D01*
X131367826Y-70494709D01*
X131555025Y-70433884D01*
X131730405Y-70344524D01*
X131889646Y-70228828D01*
X132028828Y-70089646D01*
X132144524Y-69930405D01*
X132212240Y-69797503D01*
X132263848Y-69740186D01*
X132337201Y-69716352D01*
X132412644Y-69732388D01*
X132469962Y-69783996D01*
X132477759Y-69797503D01*
X132545476Y-69930405D01*
X132661172Y-70089646D01*
X132800354Y-70228828D01*
X132959595Y-70344524D01*
X133134975Y-70433884D01*
X133322174Y-70494709D01*
X133516583Y-70525500D01*
X133516588Y-70525500D01*
X133713412Y-70525500D01*
X133713417Y-70525500D01*
X133907826Y-70494709D01*
X134095025Y-70433884D01*
X134270405Y-70344524D01*
X134429646Y-70228828D01*
X134568828Y-70089646D01*
X134684524Y-69930405D01*
X134752240Y-69797503D01*
X134803848Y-69740186D01*
X134877201Y-69716352D01*
X134952644Y-69732388D01*
X135009962Y-69783996D01*
X135017759Y-69797503D01*
X135085476Y-69930405D01*
X135201172Y-70089646D01*
X135340354Y-70228828D01*
X135499595Y-70344524D01*
X135674975Y-70433884D01*
X135862174Y-70494709D01*
X136056583Y-70525500D01*
X136056588Y-70525500D01*
X136187610Y-70525500D01*
X136253417Y-70525500D01*
X136447826Y-70494709D01*
X136635025Y-70433884D01*
X136810405Y-70344524D01*
X136969646Y-70228828D01*
X137108828Y-70089646D01*
X137224524Y-69930405D01*
X137292240Y-69797503D01*
X137343848Y-69740186D01*
X137417201Y-69716352D01*
X137492644Y-69732388D01*
X137549962Y-69783996D01*
X137557759Y-69797503D01*
X137625476Y-69930405D01*
X137741172Y-70089646D01*
X137880354Y-70228828D01*
X138039594Y-70344523D01*
X138039593Y-70344523D01*
X138062254Y-70356069D01*
X138119572Y-70407677D01*
X138143407Y-70481030D01*
X138140748Y-70517898D01*
X138118250Y-70631006D01*
X138118250Y-70768993D01*
X138145169Y-70904325D01*
X138145170Y-70904329D01*
X138197974Y-71031809D01*
X138197977Y-71031815D01*
X138274633Y-71146538D01*
X138274636Y-71146542D01*
X138372208Y-71244114D01*
X138372211Y-71244116D01*
X138486934Y-71320772D01*
X138486936Y-71320773D01*
X138486939Y-71320775D01*
X138614422Y-71373580D01*
X138749757Y-71400500D01*
X138887743Y-71400500D01*
X139023078Y-71373580D01*
X139150561Y-71320775D01*
X139265292Y-71244114D01*
X139362864Y-71146542D01*
X139439525Y-71031811D01*
X139492330Y-70904328D01*
X139519250Y-70768993D01*
X139519250Y-70631007D01*
X139492330Y-70495672D01*
X139478247Y-70461673D01*
X139456325Y-70408746D01*
X139446258Y-70332277D01*
X139475774Y-70261021D01*
X139506414Y-70231176D01*
X139509646Y-70228828D01*
X139648828Y-70089646D01*
X139764524Y-69930405D01*
X139832240Y-69797503D01*
X139883848Y-69740186D01*
X139957201Y-69716352D01*
X140032644Y-69732388D01*
X140089962Y-69783996D01*
X140097759Y-69797503D01*
X140165476Y-69930405D01*
X140281172Y-70089646D01*
X140420354Y-70228828D01*
X140579595Y-70344524D01*
X140703541Y-70407677D01*
X140730507Y-70421417D01*
X140787825Y-70473025D01*
X140811659Y-70546378D01*
X140809000Y-70583244D01*
X140799500Y-70631005D01*
X140799500Y-70768993D01*
X140826419Y-70904325D01*
X140826420Y-70904329D01*
X140879224Y-71031809D01*
X140879227Y-71031815D01*
X140955883Y-71146538D01*
X140955886Y-71146542D01*
X141053458Y-71244114D01*
X141053461Y-71244116D01*
X141168184Y-71320772D01*
X141168186Y-71320773D01*
X141168189Y-71320775D01*
X141295672Y-71373580D01*
X141431007Y-71400500D01*
X141568993Y-71400500D01*
X141704328Y-71373580D01*
X141831811Y-71320775D01*
X141946542Y-71244114D01*
X142044114Y-71146542D01*
X142120775Y-71031811D01*
X142173580Y-70904328D01*
X142200500Y-70768993D01*
X142200500Y-70631007D01*
X142173580Y-70495672D01*
X142120775Y-70368189D01*
X142120774Y-70368188D01*
X142120773Y-70368184D01*
X142104401Y-70343683D01*
X142079608Y-70270648D01*
X142094654Y-70195002D01*
X142122927Y-70155546D01*
X142188828Y-70089646D01*
X142304524Y-69930405D01*
X142372240Y-69797503D01*
X142423848Y-69740186D01*
X142497201Y-69716352D01*
X142572644Y-69732388D01*
X142629962Y-69783996D01*
X142637759Y-69797503D01*
X142705476Y-69930405D01*
X142821172Y-70089646D01*
X142960354Y-70228828D01*
X143119595Y-70344524D01*
X143294975Y-70433884D01*
X143482174Y-70494709D01*
X143676583Y-70525500D01*
X143676588Y-70525500D01*
X143873412Y-70525500D01*
X143873417Y-70525500D01*
X144067826Y-70494709D01*
X144255025Y-70433884D01*
X144430405Y-70344524D01*
X144589646Y-70228828D01*
X144728828Y-70089646D01*
X144844524Y-69930405D01*
X144912240Y-69797503D01*
X144963848Y-69740186D01*
X145037201Y-69716352D01*
X145112644Y-69732388D01*
X145169962Y-69783996D01*
X145177759Y-69797503D01*
X145245476Y-69930405D01*
X145361172Y-70089646D01*
X145500354Y-70228828D01*
X145659595Y-70344524D01*
X145834975Y-70433884D01*
X146022174Y-70494709D01*
X146216583Y-70525500D01*
X146216588Y-70525500D01*
X146413412Y-70525500D01*
X146413417Y-70525500D01*
X146607826Y-70494709D01*
X146795025Y-70433884D01*
X146970405Y-70344524D01*
X147129646Y-70228828D01*
X147268828Y-70089646D01*
X147384524Y-69930405D01*
X147473884Y-69755025D01*
X147496129Y-69686559D01*
X147538133Y-69621878D01*
X147606855Y-69586862D01*
X147683877Y-69590898D01*
X147748563Y-69632904D01*
X147779541Y-69686559D01*
X147789253Y-69716448D01*
X147871430Y-69877728D01*
X147942424Y-69975442D01*
X148411328Y-69506537D01*
X148454901Y-69582007D01*
X148547993Y-69675099D01*
X148623460Y-69718670D01*
X148154556Y-70187574D01*
X148154556Y-70187575D01*
X148252267Y-70258566D01*
X148252267Y-70258567D01*
X148413550Y-70340746D01*
X148585702Y-70396681D01*
X148585702Y-70396682D01*
X148764497Y-70425000D01*
X148945503Y-70425000D01*
X149124297Y-70396682D01*
X149124297Y-70396681D01*
X149296449Y-70340746D01*
X149457732Y-70258567D01*
X149457732Y-70258566D01*
X149555442Y-70187575D01*
X149555443Y-70187575D01*
X149086538Y-69718670D01*
X149162007Y-69675099D01*
X149255099Y-69582007D01*
X149298670Y-69506538D01*
X149767575Y-69975443D01*
X149767575Y-69975442D01*
X149838566Y-69877732D01*
X149838567Y-69877732D01*
X149920746Y-69716447D01*
X149930457Y-69686563D01*
X149972463Y-69621878D01*
X150041185Y-69586862D01*
X150118207Y-69590899D01*
X150182892Y-69632905D01*
X150213870Y-69686561D01*
X150236116Y-69755025D01*
X150236119Y-69755030D01*
X150236121Y-69755036D01*
X150250877Y-69783996D01*
X150325476Y-69930405D01*
X150441172Y-70089646D01*
X150580354Y-70228828D01*
X150739595Y-70344524D01*
X150914975Y-70433884D01*
X151102174Y-70494709D01*
X151296583Y-70525500D01*
X151296588Y-70525500D01*
X151493412Y-70525500D01*
X151493417Y-70525500D01*
X151687826Y-70494709D01*
X151875025Y-70433884D01*
X152050405Y-70344524D01*
X152209646Y-70228828D01*
X152348828Y-70089646D01*
X152464524Y-69930405D01*
X152532240Y-69797503D01*
X152583848Y-69740186D01*
X152657201Y-69716352D01*
X152732644Y-69732388D01*
X152789962Y-69783996D01*
X152797759Y-69797503D01*
X152865476Y-69930405D01*
X152981172Y-70089646D01*
X153120354Y-70228828D01*
X153279595Y-70344524D01*
X153454975Y-70433884D01*
X153642174Y-70494709D01*
X153836583Y-70525500D01*
X153836588Y-70525500D01*
X154033412Y-70525500D01*
X154033417Y-70525500D01*
X154227826Y-70494709D01*
X154415025Y-70433884D01*
X154590405Y-70344524D01*
X154749646Y-70228828D01*
X154888828Y-70089646D01*
X155004524Y-69930405D01*
X155072240Y-69797503D01*
X155123848Y-69740186D01*
X155197201Y-69716352D01*
X155272644Y-69732388D01*
X155329962Y-69783996D01*
X155337759Y-69797503D01*
X155405476Y-69930405D01*
X155521172Y-70089646D01*
X155660354Y-70228828D01*
X155819595Y-70344524D01*
X155994975Y-70433884D01*
X156182174Y-70494709D01*
X156376583Y-70525500D01*
X156376588Y-70525500D01*
X156573412Y-70525500D01*
X156573417Y-70525500D01*
X156767826Y-70494709D01*
X156955025Y-70433884D01*
X157130405Y-70344524D01*
X157289646Y-70228828D01*
X157428828Y-70089646D01*
X157544524Y-69930405D01*
X157612240Y-69797503D01*
X157663848Y-69740186D01*
X157737201Y-69716352D01*
X157812644Y-69732388D01*
X157869962Y-69783996D01*
X157877759Y-69797503D01*
X157945476Y-69930405D01*
X158061172Y-70089646D01*
X158200354Y-70228828D01*
X158359595Y-70344524D01*
X158534975Y-70433884D01*
X158722174Y-70494709D01*
X158916583Y-70525500D01*
X158916588Y-70525500D01*
X159113412Y-70525500D01*
X159113417Y-70525500D01*
X159307826Y-70494709D01*
X159495025Y-70433884D01*
X159670405Y-70344524D01*
X159829646Y-70228828D01*
X159968828Y-70089646D01*
X160084524Y-69930405D01*
X160152240Y-69797503D01*
X160203848Y-69740186D01*
X160277201Y-69716352D01*
X160352644Y-69732388D01*
X160409962Y-69783996D01*
X160417759Y-69797503D01*
X160485476Y-69930405D01*
X160601172Y-70089646D01*
X160740354Y-70228828D01*
X160899595Y-70344524D01*
X161074975Y-70433884D01*
X161262174Y-70494709D01*
X161456583Y-70525500D01*
X161456588Y-70525500D01*
X161653412Y-70525500D01*
X161653417Y-70525500D01*
X161847826Y-70494709D01*
X162035025Y-70433884D01*
X162210405Y-70344524D01*
X162369646Y-70228828D01*
X162508828Y-70089646D01*
X162624524Y-69930405D01*
X162692240Y-69797503D01*
X162743848Y-69740186D01*
X162817201Y-69716352D01*
X162892644Y-69732388D01*
X162949962Y-69783996D01*
X162957759Y-69797503D01*
X163025476Y-69930405D01*
X163141172Y-70089646D01*
X163280354Y-70228828D01*
X163439595Y-70344524D01*
X163614975Y-70433884D01*
X163802174Y-70494709D01*
X163996583Y-70525500D01*
X163996588Y-70525500D01*
X164193412Y-70525500D01*
X164193417Y-70525500D01*
X164387826Y-70494709D01*
X164575025Y-70433884D01*
X164750405Y-70344524D01*
X164909646Y-70228828D01*
X165048828Y-70089646D01*
X165164524Y-69930405D01*
X165253884Y-69755025D01*
X165276129Y-69686559D01*
X165318133Y-69621878D01*
X165386855Y-69586862D01*
X165463877Y-69590898D01*
X165528563Y-69632904D01*
X165559541Y-69686559D01*
X165569253Y-69716448D01*
X165651430Y-69877728D01*
X165722424Y-69975442D01*
X166191328Y-69506537D01*
X166234901Y-69582007D01*
X166327993Y-69675099D01*
X166403460Y-69718670D01*
X165934556Y-70187574D01*
X165934556Y-70187575D01*
X166032267Y-70258566D01*
X166032267Y-70258567D01*
X166193550Y-70340746D01*
X166365702Y-70396681D01*
X166365702Y-70396682D01*
X166544497Y-70425000D01*
X166725503Y-70425000D01*
X166904297Y-70396682D01*
X166904297Y-70396681D01*
X167076449Y-70340746D01*
X167237732Y-70258567D01*
X167237732Y-70258566D01*
X167335442Y-70187575D01*
X167335443Y-70187575D01*
X166866538Y-69718670D01*
X166942007Y-69675099D01*
X167035099Y-69582007D01*
X167078670Y-69506538D01*
X167547575Y-69975443D01*
X167547575Y-69975442D01*
X167618566Y-69877732D01*
X167618567Y-69877732D01*
X167700746Y-69716449D01*
X167756681Y-69544297D01*
X167756682Y-69544297D01*
X167785000Y-69365503D01*
X167785000Y-69184496D01*
X167756682Y-69005702D01*
X167700746Y-68833550D01*
X167618566Y-68672267D01*
X167547575Y-68574556D01*
X167547574Y-68574556D01*
X167078670Y-69043460D01*
X167035099Y-68967993D01*
X166942007Y-68874901D01*
X166866537Y-68831328D01*
X167335442Y-68362424D01*
X167237728Y-68291430D01*
X167076448Y-68209253D01*
X167046559Y-68199541D01*
X166981875Y-68157533D01*
X166946861Y-68088810D01*
X166950900Y-68011788D01*
X166992908Y-67947104D01*
X167046558Y-67916130D01*
X167115025Y-67893884D01*
X167290405Y-67804524D01*
X167449646Y-67688828D01*
X167588828Y-67549646D01*
X167704524Y-67390405D01*
X167793884Y-67215025D01*
X167854709Y-67027826D01*
X167885500Y-66833417D01*
X167885500Y-66636583D01*
X167854709Y-66442174D01*
X167793884Y-66254975D01*
X167704524Y-66079595D01*
X167588828Y-65920354D01*
X167449646Y-65781172D01*
X167290405Y-65665476D01*
X167188037Y-65613317D01*
X167115036Y-65576121D01*
X167115030Y-65576119D01*
X167115025Y-65576116D01*
X166927826Y-65515291D01*
X166733417Y-65484500D01*
X166536583Y-65484500D01*
X166342174Y-65515291D01*
X166154975Y-65576116D01*
X166154972Y-65576117D01*
X166154963Y-65576121D01*
X165979598Y-65665474D01*
X165979593Y-65665477D01*
X165820363Y-65781165D01*
X165820357Y-65781169D01*
X165820354Y-65781172D01*
X165681172Y-65920354D01*
X165681169Y-65920357D01*
X165681165Y-65920363D01*
X165565477Y-66079593D01*
X165565474Y-66079598D01*
X165497760Y-66212495D01*
X165446151Y-66269813D01*
X165372798Y-66293647D01*
X165297356Y-66277611D01*
X165240038Y-66226002D01*
X165232240Y-66212495D01*
X165199247Y-66147744D01*
X165164524Y-66079595D01*
X165048828Y-65920354D01*
X164909646Y-65781172D01*
X164750405Y-65665476D01*
X164648037Y-65613317D01*
X164575036Y-65576121D01*
X164575030Y-65576119D01*
X164575025Y-65576116D01*
X164387826Y-65515291D01*
X164193417Y-65484500D01*
X163996583Y-65484500D01*
X163802174Y-65515291D01*
X163614975Y-65576116D01*
X163614972Y-65576117D01*
X163614963Y-65576121D01*
X163439598Y-65665474D01*
X163439593Y-65665477D01*
X163280363Y-65781165D01*
X163280357Y-65781169D01*
X163280354Y-65781172D01*
X163141172Y-65920354D01*
X163141169Y-65920357D01*
X163141165Y-65920363D01*
X163025477Y-66079593D01*
X163025474Y-66079598D01*
X162957760Y-66212495D01*
X162906151Y-66269813D01*
X162832798Y-66293647D01*
X162757356Y-66277611D01*
X162700038Y-66226002D01*
X162692240Y-66212495D01*
X162659247Y-66147744D01*
X162624524Y-66079595D01*
X162508828Y-65920354D01*
X162369646Y-65781172D01*
X162210405Y-65665476D01*
X162108037Y-65613317D01*
X162035036Y-65576121D01*
X162035030Y-65576119D01*
X162035025Y-65576116D01*
X161847826Y-65515291D01*
X161653417Y-65484500D01*
X161456583Y-65484500D01*
X161262174Y-65515291D01*
X161074975Y-65576116D01*
X161074972Y-65576117D01*
X161074963Y-65576121D01*
X160899598Y-65665474D01*
X160899593Y-65665477D01*
X160740363Y-65781165D01*
X160740357Y-65781169D01*
X160740354Y-65781172D01*
X160601172Y-65920354D01*
X160601169Y-65920357D01*
X160601165Y-65920363D01*
X160485477Y-66079593D01*
X160485474Y-66079598D01*
X160396121Y-66254963D01*
X160396113Y-66254981D01*
X160373871Y-66323437D01*
X160331864Y-66388122D01*
X160263142Y-66423137D01*
X160186120Y-66419100D01*
X160121435Y-66377093D01*
X160090457Y-66323438D01*
X160080745Y-66293549D01*
X159998566Y-66132267D01*
X159927575Y-66034556D01*
X159927574Y-66034556D01*
X159458670Y-66503460D01*
X159415099Y-66427993D01*
X159322007Y-66334901D01*
X159246537Y-66291328D01*
X159715442Y-65822424D01*
X159617728Y-65751430D01*
X159456449Y-65669253D01*
X159284297Y-65613318D01*
X159284297Y-65613317D01*
X159105503Y-65585000D01*
X158924497Y-65585000D01*
X158745702Y-65613317D01*
X158745702Y-65613318D01*
X158573550Y-65669253D01*
X158412267Y-65751432D01*
X158412266Y-65751433D01*
X158314556Y-65822424D01*
X158783461Y-66291329D01*
X158707993Y-66334901D01*
X158614901Y-66427993D01*
X158571329Y-66503461D01*
X158102424Y-66034556D01*
X158031433Y-66132266D01*
X158031432Y-66132267D01*
X157949254Y-66293550D01*
X157939541Y-66323441D01*
X157897532Y-66388125D01*
X157828809Y-66423138D01*
X157751787Y-66419099D01*
X157687103Y-66377090D01*
X157656130Y-66323441D01*
X157633884Y-66254975D01*
X157619122Y-66226002D01*
X157544526Y-66079598D01*
X157544524Y-66079595D01*
X157428828Y-65920354D01*
X157289646Y-65781172D01*
X157130405Y-65665476D01*
X157028037Y-65613317D01*
X156955036Y-65576121D01*
X156955030Y-65576119D01*
X156955025Y-65576116D01*
X156767826Y-65515291D01*
X156573417Y-65484500D01*
X156376583Y-65484500D01*
X156182174Y-65515291D01*
X155994975Y-65576116D01*
X155994972Y-65576117D01*
X155994963Y-65576121D01*
X155819598Y-65665474D01*
X155819593Y-65665477D01*
X155660363Y-65781165D01*
X155660357Y-65781169D01*
X155660354Y-65781172D01*
X155521172Y-65920354D01*
X155521169Y-65920357D01*
X155521165Y-65920363D01*
X155405477Y-66079593D01*
X155405474Y-66079598D01*
X155316121Y-66254963D01*
X155316113Y-66254981D01*
X155293871Y-66323437D01*
X155251864Y-66388122D01*
X155183142Y-66423137D01*
X155106120Y-66419100D01*
X155041435Y-66377093D01*
X155010457Y-66323438D01*
X155000745Y-66293549D01*
X154918566Y-66132267D01*
X154847575Y-66034556D01*
X154847574Y-66034556D01*
X154378670Y-66503460D01*
X154335099Y-66427993D01*
X154242007Y-66334901D01*
X154166537Y-66291328D01*
X154635442Y-65822424D01*
X154537728Y-65751430D01*
X154376449Y-65669253D01*
X154204297Y-65613318D01*
X154204297Y-65613317D01*
X154025503Y-65585000D01*
X153844497Y-65585000D01*
X153665702Y-65613317D01*
X153665702Y-65613318D01*
X153493550Y-65669253D01*
X153332267Y-65751432D01*
X153332266Y-65751433D01*
X153234556Y-65822424D01*
X153703461Y-66291329D01*
X153627993Y-66334901D01*
X153534901Y-66427993D01*
X153491329Y-66503461D01*
X153022424Y-66034556D01*
X152951433Y-66132266D01*
X152951432Y-66132267D01*
X152869254Y-66293550D01*
X152859541Y-66323441D01*
X152817532Y-66388125D01*
X152748809Y-66423138D01*
X152671787Y-66419099D01*
X152607103Y-66377090D01*
X152576130Y-66323441D01*
X152553884Y-66254975D01*
X152539122Y-66226002D01*
X152464526Y-66079598D01*
X152464524Y-66079595D01*
X152348828Y-65920354D01*
X152209646Y-65781172D01*
X152050405Y-65665476D01*
X151948037Y-65613317D01*
X151875036Y-65576121D01*
X151875030Y-65576119D01*
X151875025Y-65576116D01*
X151687826Y-65515291D01*
X151493417Y-65484500D01*
X151296583Y-65484500D01*
X151102174Y-65515291D01*
X150914975Y-65576116D01*
X150914972Y-65576117D01*
X150914963Y-65576121D01*
X150739598Y-65665474D01*
X150739593Y-65665477D01*
X150580363Y-65781165D01*
X150580357Y-65781169D01*
X150580354Y-65781172D01*
X150441172Y-65920354D01*
X150441169Y-65920357D01*
X150441165Y-65920363D01*
X150325477Y-66079593D01*
X150325474Y-66079598D01*
X150257760Y-66212495D01*
X150206151Y-66269813D01*
X150132798Y-66293647D01*
X150057356Y-66277611D01*
X150000038Y-66226002D01*
X149992240Y-66212495D01*
X149959247Y-66147744D01*
X149924524Y-66079595D01*
X149808828Y-65920354D01*
X149669646Y-65781172D01*
X149510405Y-65665476D01*
X149408037Y-65613317D01*
X149335036Y-65576121D01*
X149335030Y-65576119D01*
X149335025Y-65576116D01*
X149147826Y-65515291D01*
X148953417Y-65484500D01*
X148756583Y-65484500D01*
X148562174Y-65515291D01*
X148374975Y-65576116D01*
X148374972Y-65576117D01*
X148374963Y-65576121D01*
X148199598Y-65665474D01*
X148199593Y-65665477D01*
X148040363Y-65781165D01*
X148040357Y-65781169D01*
X148040354Y-65781172D01*
X147901172Y-65920354D01*
X147901169Y-65920357D01*
X147901165Y-65920363D01*
X147785477Y-66079593D01*
X147785474Y-66079598D01*
X147717760Y-66212495D01*
X147666151Y-66269813D01*
X147592798Y-66293647D01*
X147517356Y-66277611D01*
X147460038Y-66226002D01*
X147452240Y-66212495D01*
X147419247Y-66147744D01*
X147384524Y-66079595D01*
X147268828Y-65920354D01*
X147129646Y-65781172D01*
X146970405Y-65665476D01*
X146868037Y-65613317D01*
X146795036Y-65576121D01*
X146795030Y-65576119D01*
X146795025Y-65576116D01*
X146607826Y-65515291D01*
X146413417Y-65484500D01*
X146216583Y-65484500D01*
X146022174Y-65515291D01*
X145834975Y-65576116D01*
X145834972Y-65576117D01*
X145834963Y-65576121D01*
X145659598Y-65665474D01*
X145659593Y-65665477D01*
X145500363Y-65781165D01*
X145500357Y-65781169D01*
X145500354Y-65781172D01*
X145361172Y-65920354D01*
X145361169Y-65920357D01*
X145361165Y-65920363D01*
X145245477Y-66079593D01*
X145245474Y-66079598D01*
X145177760Y-66212495D01*
X145126151Y-66269813D01*
X145052798Y-66293647D01*
X144977356Y-66277611D01*
X144920038Y-66226002D01*
X144912240Y-66212495D01*
X144879247Y-66147744D01*
X144844524Y-66079595D01*
X144728828Y-65920354D01*
X144589646Y-65781172D01*
X144430405Y-65665476D01*
X144328037Y-65613317D01*
X144255036Y-65576121D01*
X144255030Y-65576119D01*
X144255025Y-65576116D01*
X144067826Y-65515291D01*
X143873417Y-65484500D01*
X143676583Y-65484500D01*
X143482174Y-65515291D01*
X143294975Y-65576116D01*
X143294972Y-65576117D01*
X143294963Y-65576121D01*
X143119598Y-65665474D01*
X143119593Y-65665477D01*
X142960363Y-65781165D01*
X142960357Y-65781169D01*
X142960354Y-65781172D01*
X142821172Y-65920354D01*
X142821169Y-65920357D01*
X142821165Y-65920363D01*
X142705477Y-66079593D01*
X142705474Y-66079598D01*
X142616121Y-66254963D01*
X142616113Y-66254981D01*
X142593871Y-66323437D01*
X142551864Y-66388122D01*
X142483142Y-66423137D01*
X142406120Y-66419100D01*
X142341435Y-66377093D01*
X142310457Y-66323438D01*
X142300745Y-66293549D01*
X142218566Y-66132267D01*
X142147575Y-66034556D01*
X142147574Y-66034556D01*
X141678670Y-66503460D01*
X141635099Y-66427993D01*
X141542007Y-66334901D01*
X141466537Y-66291328D01*
X141935442Y-65822424D01*
X141837728Y-65751430D01*
X141676449Y-65669253D01*
X141504297Y-65613318D01*
X141504297Y-65613317D01*
X141325503Y-65585000D01*
X141144497Y-65585000D01*
X140965702Y-65613317D01*
X140965702Y-65613318D01*
X140793550Y-65669253D01*
X140632267Y-65751432D01*
X140632266Y-65751433D01*
X140534556Y-65822424D01*
X141003461Y-66291329D01*
X140927993Y-66334901D01*
X140834901Y-66427993D01*
X140791329Y-66503461D01*
X140322424Y-66034556D01*
X140251433Y-66132266D01*
X140251432Y-66132267D01*
X140169254Y-66293550D01*
X140159541Y-66323441D01*
X140117532Y-66388125D01*
X140048809Y-66423138D01*
X139971787Y-66419099D01*
X139907103Y-66377090D01*
X139876130Y-66323441D01*
X139853884Y-66254975D01*
X139839122Y-66226002D01*
X139764526Y-66079598D01*
X139764524Y-66079595D01*
X139648828Y-65920354D01*
X139509646Y-65781172D01*
X139350405Y-65665476D01*
X139248037Y-65613317D01*
X139175036Y-65576121D01*
X139175030Y-65576119D01*
X139175025Y-65576116D01*
X138987826Y-65515291D01*
X138793417Y-65484500D01*
X138596583Y-65484500D01*
X138402174Y-65515291D01*
X138214975Y-65576116D01*
X138214972Y-65576117D01*
X138214963Y-65576121D01*
X138039598Y-65665474D01*
X138039593Y-65665477D01*
X137880363Y-65781165D01*
X137880357Y-65781169D01*
X137880354Y-65781172D01*
X137741172Y-65920354D01*
X137741169Y-65920357D01*
X137741165Y-65920363D01*
X137625477Y-66079593D01*
X137625474Y-66079598D01*
X137557760Y-66212495D01*
X137506151Y-66269813D01*
X137432798Y-66293647D01*
X137357356Y-66277611D01*
X137300038Y-66226002D01*
X137292240Y-66212495D01*
X137259247Y-66147744D01*
X137224524Y-66079595D01*
X137108828Y-65920354D01*
X136969646Y-65781172D01*
X136810405Y-65665476D01*
X136708037Y-65613317D01*
X136635036Y-65576121D01*
X136635030Y-65576119D01*
X136635025Y-65576116D01*
X136447826Y-65515291D01*
X136253417Y-65484500D01*
X136056583Y-65484500D01*
X135862174Y-65515291D01*
X135674975Y-65576116D01*
X135674972Y-65576117D01*
X135674963Y-65576121D01*
X135499598Y-65665474D01*
X135499593Y-65665477D01*
X135340363Y-65781165D01*
X135340357Y-65781169D01*
X135340354Y-65781172D01*
X135201172Y-65920354D01*
X135201169Y-65920357D01*
X135201165Y-65920363D01*
X135085477Y-66079593D01*
X135085474Y-66079598D01*
X134996121Y-66254963D01*
X134996113Y-66254981D01*
X134973871Y-66323437D01*
X134931864Y-66388122D01*
X134863142Y-66423137D01*
X134786120Y-66419100D01*
X134721435Y-66377093D01*
X134690457Y-66323438D01*
X134680745Y-66293549D01*
X134598566Y-66132267D01*
X134527575Y-66034556D01*
X134527574Y-66034556D01*
X134058670Y-66503460D01*
X134015099Y-66427993D01*
X133922007Y-66334901D01*
X133846537Y-66291328D01*
X134315442Y-65822424D01*
X134217728Y-65751430D01*
X134056449Y-65669253D01*
X133884297Y-65613318D01*
X133884297Y-65613317D01*
X133705503Y-65585000D01*
X133524497Y-65585000D01*
X133345702Y-65613317D01*
X133345702Y-65613318D01*
X133173550Y-65669253D01*
X133012267Y-65751432D01*
X133012266Y-65751433D01*
X132914556Y-65822424D01*
X133383461Y-66291329D01*
X133307993Y-66334901D01*
X133214901Y-66427993D01*
X133171329Y-66503461D01*
X132702424Y-66034556D01*
X132631433Y-66132266D01*
X132631432Y-66132267D01*
X132549254Y-66293550D01*
X132539541Y-66323441D01*
X132497532Y-66388125D01*
X132428809Y-66423138D01*
X132351787Y-66419099D01*
X132287103Y-66377090D01*
X132256130Y-66323441D01*
X132233884Y-66254975D01*
X132219122Y-66226002D01*
X132144526Y-66079598D01*
X132144524Y-66079595D01*
X132028828Y-65920354D01*
X131889646Y-65781172D01*
X131730405Y-65665476D01*
X131628037Y-65613317D01*
X131555036Y-65576121D01*
X131555030Y-65576119D01*
X131555025Y-65576116D01*
X131367826Y-65515291D01*
X131173417Y-65484500D01*
X130976583Y-65484500D01*
X130782174Y-65515291D01*
X130594975Y-65576116D01*
X130594972Y-65576117D01*
X130594963Y-65576121D01*
X130419598Y-65665474D01*
X130419593Y-65665477D01*
X130260363Y-65781165D01*
X130260357Y-65781169D01*
X130260354Y-65781172D01*
X130121172Y-65920354D01*
X130121169Y-65920357D01*
X130121165Y-65920363D01*
X130005477Y-66079593D01*
X130005474Y-66079598D01*
X129937760Y-66212495D01*
X129886151Y-66269813D01*
X129812798Y-66293647D01*
X129737356Y-66277611D01*
X129680038Y-66226002D01*
X129672240Y-66212495D01*
X129639247Y-66147744D01*
X129604524Y-66079595D01*
X129488828Y-65920354D01*
X129349646Y-65781172D01*
X129190405Y-65665476D01*
X129088037Y-65613317D01*
X129015036Y-65576121D01*
X129015030Y-65576119D01*
X129015025Y-65576116D01*
X128827826Y-65515291D01*
X128633417Y-65484500D01*
X128436583Y-65484500D01*
X128242174Y-65515291D01*
X128054975Y-65576116D01*
X128054972Y-65576117D01*
X128054963Y-65576121D01*
X127879598Y-65665474D01*
X127879593Y-65665477D01*
X127720363Y-65781165D01*
X127720357Y-65781169D01*
X127720354Y-65781172D01*
X127581172Y-65920354D01*
X127581169Y-65920357D01*
X127581165Y-65920363D01*
X127465477Y-66079593D01*
X127465474Y-66079598D01*
X127397760Y-66212495D01*
X127346151Y-66269813D01*
X127272798Y-66293647D01*
X127197356Y-66277611D01*
X127140038Y-66226002D01*
X127132240Y-66212495D01*
X127099247Y-66147744D01*
X127064524Y-66079595D01*
X126948828Y-65920354D01*
X126809646Y-65781172D01*
X126650405Y-65665476D01*
X126548037Y-65613317D01*
X126475036Y-65576121D01*
X126475030Y-65576119D01*
X126475025Y-65576116D01*
X126287826Y-65515291D01*
X126093417Y-65484500D01*
X125896583Y-65484500D01*
X125702174Y-65515291D01*
X125514975Y-65576116D01*
X125514972Y-65576117D01*
X125514963Y-65576121D01*
X125339598Y-65665474D01*
X125339593Y-65665477D01*
X125180363Y-65781165D01*
X125180357Y-65781169D01*
X125180354Y-65781172D01*
X125041172Y-65920354D01*
X125041169Y-65920357D01*
X125041165Y-65920363D01*
X124925477Y-66079593D01*
X124925474Y-66079598D01*
X124836121Y-66254963D01*
X124836113Y-66254981D01*
X124813871Y-66323437D01*
X124771864Y-66388122D01*
X124703142Y-66423137D01*
X124626120Y-66419100D01*
X124561435Y-66377093D01*
X124530457Y-66323438D01*
X124520745Y-66293549D01*
X124438566Y-66132267D01*
X124367575Y-66034556D01*
X124367574Y-66034556D01*
X123898670Y-66503460D01*
X123855099Y-66427993D01*
X123762007Y-66334901D01*
X123686537Y-66291328D01*
X124155442Y-65822424D01*
X124057728Y-65751430D01*
X123896449Y-65669253D01*
X123724297Y-65613318D01*
X123724297Y-65613317D01*
X123545503Y-65585000D01*
X123364497Y-65585000D01*
X123185702Y-65613317D01*
X123185702Y-65613318D01*
X123013550Y-65669253D01*
X122852267Y-65751432D01*
X122852266Y-65751433D01*
X122754556Y-65822424D01*
X123223461Y-66291329D01*
X123147993Y-66334901D01*
X123054901Y-66427993D01*
X123011329Y-66503461D01*
X122542424Y-66034556D01*
X122471433Y-66132266D01*
X122471432Y-66132267D01*
X122389254Y-66293550D01*
X122379541Y-66323441D01*
X122337532Y-66388125D01*
X122268809Y-66423138D01*
X122191787Y-66419099D01*
X122127103Y-66377090D01*
X122096130Y-66323441D01*
X122073884Y-66254975D01*
X122059122Y-66226002D01*
X121984526Y-66079598D01*
X121984524Y-66079595D01*
X121868828Y-65920354D01*
X121729646Y-65781172D01*
X121570405Y-65665476D01*
X121468037Y-65613317D01*
X121395036Y-65576121D01*
X121395030Y-65576119D01*
X121395025Y-65576116D01*
X121207826Y-65515291D01*
X121013417Y-65484500D01*
X120816583Y-65484500D01*
X120622174Y-65515291D01*
X120434975Y-65576116D01*
X120434972Y-65576117D01*
X120434963Y-65576121D01*
X120259598Y-65665474D01*
X120259593Y-65665477D01*
X120100363Y-65781165D01*
X120100357Y-65781169D01*
X120100354Y-65781172D01*
X119961172Y-65920354D01*
X119961169Y-65920357D01*
X119961165Y-65920363D01*
X119845477Y-66079593D01*
X119845474Y-66079598D01*
X119777760Y-66212495D01*
X119726151Y-66269813D01*
X119652798Y-66293647D01*
X119577356Y-66277611D01*
X119520038Y-66226002D01*
X119512240Y-66212495D01*
X119479247Y-66147744D01*
X119444524Y-66079595D01*
X119328828Y-65920354D01*
X119189646Y-65781172D01*
X119030405Y-65665476D01*
X118928037Y-65613317D01*
X118855036Y-65576121D01*
X118855030Y-65576119D01*
X118855025Y-65576116D01*
X118667826Y-65515291D01*
X118473417Y-65484500D01*
X118276583Y-65484500D01*
X118082174Y-65515291D01*
X117894975Y-65576116D01*
X117894972Y-65576117D01*
X117894963Y-65576121D01*
X117719598Y-65665474D01*
X117719593Y-65665477D01*
X117560363Y-65781165D01*
X117560357Y-65781169D01*
X117560354Y-65781172D01*
X117421172Y-65920354D01*
X117421169Y-65920357D01*
X117421165Y-65920363D01*
X117305477Y-66079593D01*
X117305474Y-66079598D01*
X117216121Y-66254963D01*
X117216117Y-66254972D01*
X117216116Y-66254975D01*
X117155291Y-66442174D01*
X117124500Y-66636583D01*
X110530110Y-66636583D01*
X110571507Y-66410688D01*
X110575812Y-66393225D01*
X110660247Y-66122263D01*
X110666620Y-66105459D01*
X110783110Y-65846628D01*
X110791463Y-65830714D01*
X110938293Y-65587827D01*
X110948503Y-65573036D01*
X111123543Y-65349613D01*
X111135459Y-65336162D01*
X111336162Y-65135459D01*
X111349613Y-65123543D01*
X111573036Y-64948503D01*
X111587827Y-64938293D01*
X111830714Y-64791463D01*
X111846628Y-64783110D01*
X112105459Y-64666620D01*
X112122263Y-64660247D01*
X112393231Y-64575810D01*
X112410688Y-64571507D01*
X112689867Y-64520346D01*
X112707699Y-64518180D01*
X112995503Y-64500771D01*
X113004499Y-64500500D01*
X113065892Y-64500500D01*
X171934108Y-64500500D01*
X171995501Y-64500500D01*
X172004496Y-64500771D01*
G37*
%TD.AperFunction*%
%TD*%
M02*
