M48
; DRILL file {KiCad 9.0.6} date 2026-01-16T00:05:44+0100
; FORMAT={-:-/ absolute / inch / decimal}
; #@! TF.CreationDate,2026-01-16T00:05:44+01:00
; #@! TF.GenerationSoftware,Kicad,Pcbnew,9.0.6
; #@! TF.FileFunction,Plated,1,4,PTH
FMAT,2
INCH
; #@! TA.AperFunction,Plated,PTH,ViaDrill
T1C0.0118
; #@! TA.AperFunction,Plated,PTH,ComponentDrill
T2C0.0197
; #@! TA.AperFunction,Plated,PTH,ComponentDrill
T3C0.0394
; #@! TA.AperFunction,Plated,PTH,ComponentDrill
T4C0.0433
; #@! TA.AperFunction,Plated,PTH,ComponentDrill
T5C0.0709
; #@! TA.AperFunction,Plated,PTH,ComponentDrill
T6C0.1063
%
G90
G05
T1
X4.3858Y-3.8976
X4.3898Y-3.4055
X4.3898Y-3.4449
X4.3902Y-4.3114
X4.4488Y-4.0551
X4.4488Y-4.0945
X4.4488Y-4.1339
X4.5472Y-3.3858
X4.5866Y-3.3858
X4.626Y-4.5472
X4.626Y-4.6063
X4.626Y-4.6654
X4.6378Y-4.2756
X4.6457Y-3.8583
X4.6457Y-4.0551
X4.6457Y-4.1339
X4.6693Y-3.7938
X4.6752Y-3.7323
X4.7047Y-4.6063
X4.7047Y-4.6654
X4.7244Y-3.8976
X4.7449Y-3.7591
X4.7835Y-3.6811
X4.8425Y-3.3268
X4.8622Y-3.8386
X4.872Y-4.3327
X4.9291Y-4.6457
X4.9409Y-3.7008
X4.9409Y-3.7402
X4.9606Y-4.4882
X4.9606Y-4.5276
X5.0Y-4.4882
X5.0Y-4.5276
X5.0197Y-3.7402
X5.0394Y-3.8386
X5.0394Y-4.4882
X5.0394Y-4.5276
X5.126Y-4.5
X5.1378Y-3.7008
X5.1575Y-3.622
X5.1575Y-4.6457
X5.1969Y-3.5236
X5.1969Y-3.685
X5.1969Y-3.8386
X5.1969Y-3.9961
X5.1969Y-4.0945
X5.1969Y-4.1929
X5.2126Y-4.5669
X5.2165Y-4.0433
X5.2165Y-4.1457
X5.2362Y-3.5236
X5.2618Y-4.626
X5.311Y-4.626
X5.3543Y-2.9528
X5.3701Y-2.815
X5.374Y-4.6457
X5.4653Y-2.7835
X5.4677Y-3.0512
X5.4724Y-4.1929
X5.4921Y-3.1299
X5.5165Y-2.8268
X5.5354Y-4.1535
X5.5354Y-4.2126
X5.5472Y-3.2677
X5.5512Y-3.189
X5.5709Y-2.7835
X5.6102Y-2.9528
X5.6102Y-2.9921
X5.6299Y-2.874
X5.6339Y-3.1693
X5.6496Y-4.0354
X5.6496Y-4.3898
X5.6693Y-4.0748
X5.689Y-3.0118
X5.689Y-4.0354
X5.7677Y-4.311
X5.7939Y-4.626
X5.9055Y-2.8543
X5.9778Y-4.626
X6.0Y-4.5039
X6.0039Y-4.1929
X6.063Y-2.874
X6.0669Y-4.1535
X6.0718Y-4.2077
X6.1614Y-4.0354
X6.1614Y-4.3898
X6.1811Y-2.874
X6.1811Y-4.0748
X6.2008Y-4.0354
X6.2205Y-2.9528
X6.2795Y-4.311
X6.3057Y-4.626
X6.3346Y-3.052
X6.3583Y-3.1283
X6.4173Y-3.189
X6.4173Y-3.2677
X6.4764Y-2.9528
X6.4896Y-4.626
X6.5Y-3.1732
X6.5118Y-4.5039
X6.5551Y-3.0118
X6.6339Y-2.9331
X6.6339Y-3.0512
X6.6339Y-3.1496
X6.6929Y-3.4449
X6.6929Y-3.7795
X6.6929Y-4.1142
X6.8307Y-3.0906
X6.8307Y-3.4252
X6.8307Y-3.7598
X6.8307Y-4.0945
T2
X4.3888Y-2.6772
X4.3888Y-4.6063
X4.4121Y-2.6208
X4.4121Y-2.7335
X4.4121Y-4.5499
X4.4121Y-4.6627
X4.4685Y-2.5974
X4.4685Y-2.7569
X4.4685Y-4.5266
X4.4685Y-4.686
X4.5249Y-2.6208
X4.5249Y-2.7335
X4.5249Y-4.5499
X4.5249Y-4.6627
X4.5482Y-2.6772
X4.5482Y-4.6063
X6.6722Y-2.6772
X6.6722Y-4.6063
X6.6956Y-2.6208
X6.6956Y-2.7335
X6.6956Y-4.5499
X6.6956Y-4.6627
X6.752Y-2.5974
X6.752Y-2.7569
X6.752Y-4.5266
X6.752Y-4.686
X6.8083Y-2.6208
X6.8083Y-2.7335
X6.8083Y-4.5499
X6.8083Y-4.6627
X6.8317Y-2.6772
X6.8317Y-4.6063
T3
X4.6604Y-2.6274
X4.6604Y-2.7274
X4.7604Y-2.6274
X4.7604Y-2.7274
X4.8604Y-2.6274
X4.8604Y-2.7274
X4.9604Y-2.6274
X4.9604Y-2.7274
X5.0604Y-2.6274
X5.0604Y-2.7274
X5.1604Y-2.6274
X5.1604Y-2.7274
X5.2604Y-2.6274
X5.2604Y-2.7274
X5.3604Y-2.6274
X5.3604Y-2.7274
X5.4604Y-2.6274
X5.4604Y-2.7274
X5.5604Y-2.6274
X5.5604Y-2.7274
X5.6604Y-2.6274
X5.6604Y-2.7274
X5.7604Y-2.6274
X5.7604Y-2.7274
X5.8604Y-2.6274
X5.8604Y-2.7274
X5.9604Y-2.6274
X5.9604Y-2.7274
X6.0604Y-2.6274
X6.0604Y-2.7274
X6.1604Y-2.6274
X6.1604Y-2.7274
X6.2604Y-2.6274
X6.2604Y-2.7274
X6.3604Y-2.6274
X6.3604Y-2.7274
X6.4604Y-2.6274
X6.4604Y-2.7274
X6.5604Y-2.6274
X6.5604Y-2.7274
T4
X4.4592Y-2.9134
X4.4592Y-3.3465
T5
X4.8529Y-3.0315
X4.8529Y-3.2283
T6
X4.4685Y-2.6772
X4.4685Y-4.6063
X6.752Y-2.6772
X6.752Y-4.6063
M30
