%TF.GenerationSoftware,KiCad,Pcbnew,9.0.6*%
%TF.CreationDate,2026-01-16T00:05:44+01:00*%
%TF.ProjectId,fdcanhat,66646361-6e68-4617-942e-6b696361645f,rev?*%
%TF.SameCoordinates,Original*%
%TF.FileFunction,Copper,L3,Inr*%
%TF.FilePolarity,Positive*%
%FSLAX46Y46*%
G04 Gerber Fmt 4.6, Leading zero omitted, Abs format (unit mm)*
G04 Created by KiCad (PCBNEW 9.0.6) date 2026-01-16 00:05:44*
%MOMM*%
%LPD*%
G01*
G04 APERTURE LIST*
%TA.AperFunction,ComponentPad*%
%ADD10C,2.500000*%
%TD*%
%TA.AperFunction,ComponentPad*%
%ADD11C,1.800000*%
%TD*%
%TA.AperFunction,ComponentPad*%
%ADD12R,1.700000X1.700000*%
%TD*%
%TA.AperFunction,ComponentPad*%
%ADD13C,1.700000*%
%TD*%
%TA.AperFunction,ComponentPad*%
%ADD14C,0.800000*%
%TD*%
%TA.AperFunction,ComponentPad*%
%ADD15C,5.400000*%
%TD*%
%TA.AperFunction,ViaPad*%
%ADD16C,0.600000*%
%TD*%
G04 APERTURE END LIST*
D10*
%TO.N,GND*%
%TO.C,J3*%
X123262500Y-77000000D03*
%TO.N,+BAT*%
X123262500Y-82000000D03*
D11*
%TO.N,unconnected-(J3-PadMP1)*%
X113262500Y-74000000D03*
%TO.N,unconnected-(J3-PadMP2)*%
X113262500Y-85000000D03*
%TD*%
D12*
%TO.N,unconnected-(J1-3V3-Pad1)*%
%TO.C,J1*%
X118375000Y-69275000D03*
D13*
%TO.N,+5V*%
X118375000Y-66735000D03*
%TO.N,/MON_SDA*%
X120915000Y-69275000D03*
%TO.N,+5V*%
X120915000Y-66735000D03*
%TO.N,/MON_SCL*%
X123455000Y-69275000D03*
%TO.N,GND*%
X123455000Y-66735000D03*
%TO.N,/RTK_PPS*%
X125995000Y-69275000D03*
%TO.N,/RTK_TXD*%
X125995000Y-66735000D03*
%TO.N,GND*%
X128535000Y-69275000D03*
%TO.N,/RTK_RXD*%
X128535000Y-66735000D03*
%TO.N,unconnected-(J1-GPIO17{slash}SPI1_~{CE1}-Pad11)*%
X131075000Y-69275000D03*
%TO.N,unconnected-(J1-GPIO18{slash}SPI1_~{CE0}{slash}PCM_CLK{slash}PWM0-Pad12)*%
X131075000Y-66735000D03*
%TO.N,unconnected-(J1-GPIO27{slash}SDIO_DAT3-Pad13)*%
X133615000Y-69275000D03*
%TO.N,GND*%
X133615000Y-66735000D03*
%TO.N,unconnected-(J1-GPIO22{slash}SDIO_CLK-Pad15)*%
X136155000Y-69275000D03*
%TO.N,unconnected-(J1-GPIO23{slash}SDIO_CMD-Pad16)*%
X136155000Y-66735000D03*
%TO.N,unconnected-(J1-3V3-Pad17)*%
X138695000Y-69275000D03*
%TO.N,unconnected-(J1-GPIO24{slash}SDIO_DAT0-Pad18)*%
X138695000Y-66735000D03*
%TO.N,/FDCAN/SPI0_MOSI*%
X141235000Y-69275000D03*
%TO.N,GND*%
X141235000Y-66735000D03*
%TO.N,/FDCAN/SPI0_MISO*%
X143775000Y-69275000D03*
%TO.N,unconnected-(J1-GPIO25{slash}SDIO_DAT1-Pad22)*%
X143775000Y-66735000D03*
%TO.N,/FDCAN/SPI0_SCK*%
X146315000Y-69275000D03*
%TO.N,/FDCAN1_CS*%
X146315000Y-66735000D03*
%TO.N,GND*%
X148855000Y-69275000D03*
%TO.N,/FDCAN2_CS*%
X148855000Y-66735000D03*
%TO.N,unconnected-(J1-ID_SD_I2C0{slash}GPIO00-Pad27)*%
X151395000Y-69275000D03*
%TO.N,unconnected-(J1-ID_SC_I2C0{slash}GPIO01-Pad28)*%
X151395000Y-66735000D03*
%TO.N,/FDCAN1_INT*%
X153935000Y-69275000D03*
%TO.N,GND*%
X153935000Y-66735000D03*
%TO.N,/FDCAN2_INT*%
X156475000Y-69275000D03*
%TO.N,unconnected-(J1-GPIO12{slash}PWM0-Pad32)*%
X156475000Y-66735000D03*
%TO.N,unconnected-(J1-GPIO13{slash}PWM1-Pad33)*%
X159015000Y-69275000D03*
%TO.N,GND*%
X159015000Y-66735000D03*
%TO.N,unconnected-(J1-GPIO19{slash}SPI1_MISO{slash}PCM_FS-Pad35)*%
X161555000Y-69275000D03*
%TO.N,unconnected-(J1-GPIO16{slash}SPI1_~{CE2}-Pad36)*%
X161555000Y-66735000D03*
%TO.N,/ADD_LED*%
X164095000Y-69275000D03*
%TO.N,unconnected-(J1-GPIO20{slash}SPI1_MOSI{slash}PCM_DIN{slash}PWM1-Pad38)*%
X164095000Y-66735000D03*
%TO.N,GND*%
X166635000Y-69275000D03*
%TO.N,unconnected-(J1-GPIO21{slash}SPI1_SCLK{slash}PCM_DOUT-Pad40)*%
X166635000Y-66735000D03*
%TD*%
D14*
%TO.N,GND*%
%TO.C,H4*%
X169475000Y-117000000D03*
X170068109Y-115568109D03*
X170068109Y-118431891D03*
X171500000Y-114975000D03*
D15*
X171500000Y-117000000D03*
D14*
X171500000Y-119025000D03*
X172931891Y-115568109D03*
X172931891Y-118431891D03*
X173525000Y-117000000D03*
%TD*%
%TO.N,GND*%
%TO.C,H1*%
X111475000Y-68000000D03*
X112068109Y-66568109D03*
X112068109Y-69431891D03*
X113500000Y-65975000D03*
D15*
X113500000Y-68000000D03*
D14*
X113500000Y-70025000D03*
X114931891Y-66568109D03*
X114931891Y-69431891D03*
X115525000Y-68000000D03*
%TD*%
%TO.N,GND*%
%TO.C,H2*%
X169475000Y-68000000D03*
X170068109Y-66568109D03*
X170068109Y-69431891D03*
X171500000Y-65975000D03*
D15*
X171500000Y-68000000D03*
D14*
X171500000Y-70025000D03*
X172931891Y-66568109D03*
X172931891Y-69431891D03*
X173525000Y-68000000D03*
%TD*%
%TO.N,GND*%
%TO.C,H3*%
X111475000Y-117000000D03*
X112068109Y-115568109D03*
X112068109Y-118431891D03*
X113500000Y-114975000D03*
D15*
X113500000Y-117000000D03*
D14*
X113500000Y-119025000D03*
X114931891Y-115568109D03*
X114931891Y-118431891D03*
X115525000Y-117000000D03*
%TD*%
D16*
%TO.N,GND*%
X113000000Y-105000000D03*
X113000000Y-104000000D03*
X113000000Y-103000000D03*
%TO.N,+3V3*%
X128000000Y-115000000D03*
X127000000Y-115000000D03*
X128000000Y-114000000D03*
X127000000Y-114000000D03*
%TO.N,GND*%
X130200000Y-114300000D03*
X136500000Y-118000000D03*
X131000000Y-118000000D03*
%TO.N,/RTK_TXD*%
X134900000Y-117500000D03*
%TO.N,/RTK_RXD*%
X133650000Y-117500000D03*
%TO.N,/RTK_PPS*%
X132400000Y-116000000D03*
%TO.N,+3V3*%
X157000000Y-73000000D03*
X136400000Y-71500000D03*
%TO.N,/FDCAN1_INT*%
X154000000Y-73000000D03*
X143000000Y-73000000D03*
%TO.N,/FDCAN2_INT*%
X160900000Y-77520859D03*
%TO.N,/FDCAN1_INT*%
X138880000Y-77500000D03*
%TO.N,/FDCAN2_CS*%
X150000000Y-72500000D03*
%TO.N,GND*%
X142500000Y-75000000D03*
X164500000Y-75000000D03*
X158000000Y-75000000D03*
X136000000Y-75000000D03*
X165100000Y-80600000D03*
X143100000Y-80500000D03*
X132500000Y-102700000D03*
X132500000Y-105300000D03*
X132000000Y-101500000D03*
X132000000Y-106500000D03*
X132000000Y-104000000D03*
%TO.N,/MON_SCL*%
X133000000Y-89500000D03*
%TO.N,/MON_SDA*%
X132000000Y-89500000D03*
%TO.N,GND*%
X119500000Y-117000000D03*
X119500000Y-118500000D03*
X117500000Y-118500000D03*
X117500000Y-117000000D03*
X117500000Y-115500000D03*
X143500000Y-111500000D03*
X156500000Y-111500000D03*
X157000000Y-103500000D03*
X144000000Y-103500000D03*
X144500000Y-102500000D03*
X143500000Y-102500000D03*
X157500000Y-102500000D03*
X156500000Y-102500000D03*
X154100000Y-105500000D03*
X140600000Y-105500000D03*
%TO.N,+5V*%
X139000000Y-106500000D03*
X152500000Y-106500000D03*
%TO.N,GND*%
X152400000Y-114400000D03*
X165400000Y-114400000D03*
X164835000Y-117500000D03*
X160165000Y-117500000D03*
X151835000Y-117500000D03*
X147165000Y-117500000D03*
%TO.N,+5V*%
X140600000Y-107000000D03*
%TO.N,/FDCAN/FDCAN1_RX*%
X140900000Y-83000000D03*
%TO.N,/FDCAN/FDCAN2_RX*%
X163000000Y-83000000D03*
%TO.N,+3V3*%
X159500000Y-109500000D03*
X146500000Y-109500000D03*
%TO.N,/FDCAN/FDCAN1_RX*%
X141000000Y-81000000D03*
%TO.N,/FDCAN/FDCAN2_RX*%
X163000000Y-81000000D03*
%TO.N,GND*%
X161500000Y-79460000D03*
X166500000Y-76500000D03*
X142500000Y-76000000D03*
X139500000Y-79500000D03*
X144500000Y-76500000D03*
%TO.N,/FDCAN/SPI0_SCK*%
X140118750Y-71800000D03*
%TO.N,/FDCAN/SPI0_MISO*%
X141500000Y-70700000D03*
X138818750Y-70700000D03*
%TO.N,GND*%
X118000000Y-98000000D03*
X173500000Y-104000000D03*
X132000000Y-97500000D03*
X173500000Y-87000000D03*
X123000000Y-84500000D03*
X111510000Y-109510000D03*
X118000000Y-105000000D03*
X168500000Y-77500000D03*
X116500000Y-86000000D03*
X168500000Y-80000000D03*
X168500000Y-74500000D03*
X111500000Y-87500000D03*
X118750000Y-94800000D03*
X117800000Y-108600000D03*
X170000000Y-87500000D03*
X123750000Y-110050000D03*
X128000000Y-97500000D03*
X170000000Y-96000000D03*
X125500000Y-94000000D03*
X123500000Y-97500000D03*
X115500000Y-86000000D03*
X111400000Y-99000000D03*
X118000000Y-103000000D03*
X111500000Y-86500000D03*
X173500000Y-78500000D03*
X120520000Y-95480000D03*
X125500000Y-95000000D03*
X170000000Y-104500000D03*
X173500000Y-95500000D03*
%TO.N,+3V3*%
X130500000Y-94000000D03*
X120000000Y-99000000D03*
X118600000Y-96362500D03*
X121500000Y-93500000D03*
X127500000Y-95000000D03*
X131000000Y-92000000D03*
X126000000Y-115000000D03*
X126000000Y-114000000D03*
X132000000Y-93600000D03*
X125200000Y-118000000D03*
%TO.N,+5V*%
X154224265Y-106875735D03*
%TD*%
%TA.AperFunction,Conductor*%
%TO.N,GND*%
G36*
X127323191Y-67113324D02*
G01*
X127359154Y-67162823D01*
X127376116Y-67215025D01*
X127465476Y-67390405D01*
X127581172Y-67549646D01*
X127720354Y-67688828D01*
X127879595Y-67804524D01*
X128054975Y-67893884D01*
X128242174Y-67954709D01*
X128263553Y-67958095D01*
X128318068Y-67985871D01*
X128345847Y-68040387D01*
X128336277Y-68100819D01*
X128293013Y-68144085D01*
X128269340Y-68151782D01*
X128269491Y-68152408D01*
X128265715Y-68153314D01*
X128093559Y-68209250D01*
X127932269Y-68291431D01*
X127932265Y-68291433D01*
X127834556Y-68362423D01*
X128303461Y-68831328D01*
X128227993Y-68874901D01*
X128134901Y-68967993D01*
X128091328Y-69043461D01*
X127622423Y-68574556D01*
X127551433Y-68672265D01*
X127551431Y-68672269D01*
X127469250Y-68833559D01*
X127413314Y-69005715D01*
X127412408Y-69009491D01*
X127410836Y-69009113D01*
X127385847Y-69058102D01*
X127331317Y-69085854D01*
X127270890Y-69076255D01*
X127227645Y-69032970D01*
X127218095Y-69003554D01*
X127214709Y-68982174D01*
X127153884Y-68794975D01*
X127064524Y-68619595D01*
X126948828Y-68460354D01*
X126809646Y-68321172D01*
X126650405Y-68205476D01*
X126650404Y-68205475D01*
X126650402Y-68205474D01*
X126475025Y-68116116D01*
X126475013Y-68116112D01*
X126422823Y-68099154D01*
X126373324Y-68063191D01*
X126354417Y-68005000D01*
X126373324Y-67946809D01*
X126422823Y-67910845D01*
X126475025Y-67893884D01*
X126650405Y-67804524D01*
X126809646Y-67688828D01*
X126948828Y-67549646D01*
X127064524Y-67390405D01*
X127153884Y-67215025D01*
X127170845Y-67162823D01*
X127206809Y-67113324D01*
X127265000Y-67094417D01*
X127323191Y-67113324D01*
G37*
%TD.AperFunction*%
%TA.AperFunction,Conductor*%
G36*
X147643191Y-67113324D02*
G01*
X147679154Y-67162823D01*
X147696116Y-67215025D01*
X147785476Y-67390405D01*
X147901172Y-67549646D01*
X148040354Y-67688828D01*
X148199595Y-67804524D01*
X148374975Y-67893884D01*
X148562174Y-67954709D01*
X148583553Y-67958095D01*
X148638068Y-67985871D01*
X148665847Y-68040387D01*
X148656277Y-68100819D01*
X148613013Y-68144085D01*
X148589340Y-68151782D01*
X148589491Y-68152408D01*
X148585715Y-68153314D01*
X148413559Y-68209250D01*
X148252269Y-68291431D01*
X148252265Y-68291433D01*
X148154556Y-68362423D01*
X148623461Y-68831328D01*
X148547993Y-68874901D01*
X148454901Y-68967993D01*
X148411328Y-69043461D01*
X147942423Y-68574556D01*
X147871433Y-68672265D01*
X147871431Y-68672269D01*
X147789250Y-68833559D01*
X147733314Y-69005715D01*
X147732408Y-69009491D01*
X147730836Y-69009113D01*
X147705847Y-69058102D01*
X147651317Y-69085854D01*
X147590890Y-69076255D01*
X147547645Y-69032970D01*
X147538095Y-69003554D01*
X147534709Y-68982174D01*
X147473884Y-68794975D01*
X147384524Y-68619595D01*
X147268828Y-68460354D01*
X147129646Y-68321172D01*
X146970405Y-68205476D01*
X146970404Y-68205475D01*
X146970402Y-68205474D01*
X146795025Y-68116116D01*
X146795013Y-68116112D01*
X146742823Y-68099154D01*
X146693324Y-68063191D01*
X146674417Y-68005000D01*
X146693324Y-67946809D01*
X146742823Y-67910845D01*
X146795025Y-67893884D01*
X146970405Y-67804524D01*
X147129646Y-67688828D01*
X147268828Y-67549646D01*
X147384524Y-67390405D01*
X147473884Y-67215025D01*
X147490845Y-67162823D01*
X147526809Y-67113324D01*
X147585000Y-67094417D01*
X147643191Y-67113324D01*
G37*
%TD.AperFunction*%
%TA.AperFunction,Conductor*%
G36*
X165423191Y-67113324D02*
G01*
X165459154Y-67162823D01*
X165476116Y-67215025D01*
X165565476Y-67390405D01*
X165681172Y-67549646D01*
X165820354Y-67688828D01*
X165979595Y-67804524D01*
X166154975Y-67893884D01*
X166342174Y-67954709D01*
X166363553Y-67958095D01*
X166418068Y-67985871D01*
X166445847Y-68040387D01*
X166436277Y-68100819D01*
X166393013Y-68144085D01*
X166369340Y-68151782D01*
X166369491Y-68152408D01*
X166365715Y-68153314D01*
X166193559Y-68209250D01*
X166032269Y-68291431D01*
X166032265Y-68291433D01*
X165934556Y-68362423D01*
X166403461Y-68831328D01*
X166327993Y-68874901D01*
X166234901Y-68967993D01*
X166191328Y-69043461D01*
X165722423Y-68574556D01*
X165651433Y-68672265D01*
X165651431Y-68672269D01*
X165569250Y-68833559D01*
X165513314Y-69005715D01*
X165512408Y-69009491D01*
X165510836Y-69009113D01*
X165485847Y-69058102D01*
X165431317Y-69085854D01*
X165370890Y-69076255D01*
X165327645Y-69032970D01*
X165318095Y-69003554D01*
X165314709Y-68982174D01*
X165253884Y-68794975D01*
X165164524Y-68619595D01*
X165048828Y-68460354D01*
X164909646Y-68321172D01*
X164750405Y-68205476D01*
X164750404Y-68205475D01*
X164750402Y-68205474D01*
X164575025Y-68116116D01*
X164575013Y-68116112D01*
X164522823Y-68099154D01*
X164473324Y-68063191D01*
X164454417Y-68005000D01*
X164473324Y-67946809D01*
X164522823Y-67910845D01*
X164575025Y-67893884D01*
X164750405Y-67804524D01*
X164909646Y-67688828D01*
X165048828Y-67549646D01*
X165164524Y-67390405D01*
X165253884Y-67215025D01*
X165270845Y-67162823D01*
X165306809Y-67113324D01*
X165365000Y-67094417D01*
X165423191Y-67113324D01*
G37*
%TD.AperFunction*%
%TA.AperFunction,Conductor*%
G36*
X129863191Y-67113324D02*
G01*
X129899154Y-67162823D01*
X129916116Y-67215025D01*
X130005476Y-67390405D01*
X130121172Y-67549646D01*
X130260354Y-67688828D01*
X130419595Y-67804524D01*
X130594975Y-67893884D01*
X130594977Y-67893884D01*
X130594978Y-67893885D01*
X130594981Y-67893887D01*
X130647175Y-67910846D01*
X130696675Y-67946810D01*
X130715582Y-68005001D01*
X130696674Y-68063191D01*
X130647175Y-68099154D01*
X130594981Y-68116112D01*
X130594978Y-68116114D01*
X130419597Y-68205474D01*
X130260355Y-68321171D01*
X130121171Y-68460355D01*
X130005474Y-68619597D01*
X129916116Y-68794974D01*
X129855289Y-68982177D01*
X129851904Y-69003554D01*
X129824126Y-69058071D01*
X129769609Y-69085847D01*
X129709177Y-69076275D01*
X129665913Y-69033010D01*
X129658223Y-69009339D01*
X129657592Y-69009491D01*
X129656685Y-69005715D01*
X129600749Y-68833559D01*
X129518568Y-68672269D01*
X129518564Y-68672263D01*
X129447575Y-68574556D01*
X129447574Y-68574556D01*
X128978670Y-69043460D01*
X128935099Y-68967993D01*
X128842007Y-68874901D01*
X128766536Y-68831328D01*
X129235442Y-68362424D01*
X129137728Y-68291430D01*
X128976440Y-68209250D01*
X128804284Y-68153314D01*
X128800509Y-68152408D01*
X128800886Y-68150834D01*
X128751903Y-68125853D01*
X128724146Y-68071326D01*
X128733740Y-68010898D01*
X128777021Y-67967650D01*
X128806444Y-67958095D01*
X128827826Y-67954709D01*
X129015025Y-67893884D01*
X129190405Y-67804524D01*
X129349646Y-67688828D01*
X129488828Y-67549646D01*
X129604524Y-67390405D01*
X129693884Y-67215025D01*
X129710845Y-67162823D01*
X129746809Y-67113324D01*
X129805000Y-67094417D01*
X129863191Y-67113324D01*
G37*
%TD.AperFunction*%
%TA.AperFunction,Conductor*%
G36*
X150183191Y-67113324D02*
G01*
X150219154Y-67162823D01*
X150236116Y-67215025D01*
X150325476Y-67390405D01*
X150441172Y-67549646D01*
X150580354Y-67688828D01*
X150739595Y-67804524D01*
X150914975Y-67893884D01*
X150914977Y-67893884D01*
X150914978Y-67893885D01*
X150914981Y-67893887D01*
X150967175Y-67910846D01*
X151016675Y-67946810D01*
X151035582Y-68005001D01*
X151016674Y-68063191D01*
X150967175Y-68099154D01*
X150914981Y-68116112D01*
X150914978Y-68116114D01*
X150739597Y-68205474D01*
X150580355Y-68321171D01*
X150441171Y-68460355D01*
X150325474Y-68619597D01*
X150236116Y-68794974D01*
X150175289Y-68982177D01*
X150171904Y-69003554D01*
X150144126Y-69058071D01*
X150089609Y-69085847D01*
X150029177Y-69076275D01*
X149985913Y-69033010D01*
X149978223Y-69009339D01*
X149977592Y-69009491D01*
X149976685Y-69005715D01*
X149920749Y-68833559D01*
X149838568Y-68672269D01*
X149838564Y-68672263D01*
X149767575Y-68574556D01*
X149767574Y-68574556D01*
X149298670Y-69043460D01*
X149255099Y-68967993D01*
X149162007Y-68874901D01*
X149086536Y-68831328D01*
X149555442Y-68362424D01*
X149457728Y-68291430D01*
X149296440Y-68209250D01*
X149124284Y-68153314D01*
X149120509Y-68152408D01*
X149120886Y-68150834D01*
X149071903Y-68125853D01*
X149044146Y-68071326D01*
X149053740Y-68010898D01*
X149097021Y-67967650D01*
X149126444Y-67958095D01*
X149147826Y-67954709D01*
X149335025Y-67893884D01*
X149510405Y-67804524D01*
X149669646Y-67688828D01*
X149808828Y-67549646D01*
X149924524Y-67390405D01*
X150013884Y-67215025D01*
X150030845Y-67162823D01*
X150066809Y-67113324D01*
X150125000Y-67094417D01*
X150183191Y-67113324D01*
G37*
%TD.AperFunction*%
%TA.AperFunction,Conductor*%
G36*
X122280818Y-66933722D02*
G01*
X122324084Y-66976985D01*
X122331781Y-67000659D01*
X122332408Y-67000509D01*
X122333314Y-67004284D01*
X122389250Y-67176440D01*
X122471430Y-67337728D01*
X122542424Y-67435442D01*
X123011328Y-66966536D01*
X123054901Y-67042007D01*
X123147993Y-67135099D01*
X123223460Y-67178670D01*
X122754556Y-67647574D01*
X122754556Y-67647575D01*
X122852263Y-67718564D01*
X122852269Y-67718568D01*
X123013559Y-67800749D01*
X123185715Y-67856685D01*
X123189491Y-67857592D01*
X123189110Y-67859176D01*
X123238062Y-67884112D01*
X123265845Y-67938625D01*
X123256281Y-67999058D01*
X123213021Y-68042328D01*
X123183554Y-68051904D01*
X123162177Y-68055289D01*
X122974974Y-68116116D01*
X122799597Y-68205474D01*
X122640355Y-68321171D01*
X122501171Y-68460355D01*
X122385474Y-68619597D01*
X122296114Y-68794978D01*
X122296112Y-68794981D01*
X122279154Y-68847175D01*
X122243190Y-68896675D01*
X122184999Y-68915582D01*
X122126809Y-68896674D01*
X122090846Y-68847175D01*
X122073887Y-68794981D01*
X122073885Y-68794978D01*
X122073884Y-68794977D01*
X122073884Y-68794975D01*
X121984524Y-68619595D01*
X121868828Y-68460354D01*
X121729646Y-68321172D01*
X121570405Y-68205476D01*
X121570404Y-68205475D01*
X121570402Y-68205474D01*
X121395025Y-68116116D01*
X121395013Y-68116112D01*
X121342823Y-68099154D01*
X121293324Y-68063191D01*
X121274417Y-68005000D01*
X121293324Y-67946809D01*
X121342823Y-67910845D01*
X121395025Y-67893884D01*
X121570405Y-67804524D01*
X121729646Y-67688828D01*
X121868828Y-67549646D01*
X121984524Y-67390405D01*
X122073884Y-67215025D01*
X122134709Y-67027826D01*
X122138095Y-67006446D01*
X122165870Y-66951932D01*
X122220386Y-66924152D01*
X122280818Y-66933722D01*
G37*
%TD.AperFunction*%
%TA.AperFunction,Conductor*%
G36*
X124719050Y-66933714D02*
G01*
X124762323Y-66976970D01*
X124771904Y-67006445D01*
X124771905Y-67006449D01*
X124775291Y-67027826D01*
X124836116Y-67215025D01*
X124925476Y-67390405D01*
X125041172Y-67549646D01*
X125180354Y-67688828D01*
X125339595Y-67804524D01*
X125514975Y-67893884D01*
X125514977Y-67893884D01*
X125514978Y-67893885D01*
X125514981Y-67893887D01*
X125567175Y-67910846D01*
X125616675Y-67946810D01*
X125635582Y-68005001D01*
X125616674Y-68063191D01*
X125567175Y-68099154D01*
X125514981Y-68116112D01*
X125514978Y-68116114D01*
X125339597Y-68205474D01*
X125180355Y-68321171D01*
X125041171Y-68460355D01*
X124925474Y-68619597D01*
X124836114Y-68794978D01*
X124836112Y-68794981D01*
X124819154Y-68847175D01*
X124783190Y-68896675D01*
X124724999Y-68915582D01*
X124666809Y-68896674D01*
X124630846Y-68847175D01*
X124613887Y-68794981D01*
X124613885Y-68794978D01*
X124613884Y-68794977D01*
X124613884Y-68794975D01*
X124524524Y-68619595D01*
X124408828Y-68460354D01*
X124269646Y-68321172D01*
X124110405Y-68205476D01*
X124110404Y-68205475D01*
X124110402Y-68205474D01*
X123935025Y-68116116D01*
X123887946Y-68100819D01*
X123747826Y-68055291D01*
X123747824Y-68055290D01*
X123747822Y-68055290D01*
X123726445Y-68051904D01*
X123671929Y-68024126D01*
X123644152Y-67969609D01*
X123653724Y-67909177D01*
X123696989Y-67865913D01*
X123720660Y-67858224D01*
X123720509Y-67857592D01*
X123724284Y-67856685D01*
X123896440Y-67800749D01*
X124057730Y-67718568D01*
X124057735Y-67718564D01*
X124155442Y-67647575D01*
X124155442Y-67647574D01*
X123686538Y-67178670D01*
X123762007Y-67135099D01*
X123855099Y-67042007D01*
X123898670Y-66966538D01*
X124367574Y-67435442D01*
X124367575Y-67435442D01*
X124438564Y-67337735D01*
X124438568Y-67337730D01*
X124520749Y-67176440D01*
X124576685Y-67004284D01*
X124577592Y-67000509D01*
X124579178Y-67000889D01*
X124604105Y-66951944D01*
X124658616Y-66924155D01*
X124719050Y-66933714D01*
G37*
%TD.AperFunction*%
%TA.AperFunction,Conductor*%
G36*
X132440818Y-66933722D02*
G01*
X132484084Y-66976985D01*
X132491781Y-67000659D01*
X132492408Y-67000509D01*
X132493314Y-67004284D01*
X132549250Y-67176440D01*
X132631430Y-67337728D01*
X132702424Y-67435442D01*
X133171328Y-66966536D01*
X133214901Y-67042007D01*
X133307993Y-67135099D01*
X133383460Y-67178670D01*
X132914556Y-67647574D01*
X132914556Y-67647575D01*
X133012263Y-67718564D01*
X133012269Y-67718568D01*
X133173559Y-67800749D01*
X133345715Y-67856685D01*
X133349491Y-67857592D01*
X133349110Y-67859176D01*
X133398062Y-67884112D01*
X133425845Y-67938625D01*
X133416281Y-67999058D01*
X133373021Y-68042328D01*
X133343554Y-68051904D01*
X133322177Y-68055289D01*
X133134974Y-68116116D01*
X132959597Y-68205474D01*
X132800355Y-68321171D01*
X132661171Y-68460355D01*
X132545474Y-68619597D01*
X132456114Y-68794978D01*
X132456112Y-68794981D01*
X132439154Y-68847175D01*
X132403190Y-68896675D01*
X132344999Y-68915582D01*
X132286809Y-68896674D01*
X132250846Y-68847175D01*
X132233887Y-68794981D01*
X132233885Y-68794978D01*
X132233884Y-68794977D01*
X132233884Y-68794975D01*
X132144524Y-68619595D01*
X132028828Y-68460354D01*
X131889646Y-68321172D01*
X131730405Y-68205476D01*
X131730404Y-68205475D01*
X131730402Y-68205474D01*
X131555025Y-68116116D01*
X131555013Y-68116112D01*
X131502823Y-68099154D01*
X131453324Y-68063191D01*
X131434417Y-68005000D01*
X131453324Y-67946809D01*
X131502823Y-67910845D01*
X131555025Y-67893884D01*
X131730405Y-67804524D01*
X131889646Y-67688828D01*
X132028828Y-67549646D01*
X132144524Y-67390405D01*
X132233884Y-67215025D01*
X132294709Y-67027826D01*
X132298095Y-67006446D01*
X132325870Y-66951932D01*
X132380386Y-66924152D01*
X132440818Y-66933722D01*
G37*
%TD.AperFunction*%
%TA.AperFunction,Conductor*%
G36*
X134879050Y-66933714D02*
G01*
X134922323Y-66976970D01*
X134931904Y-67006445D01*
X134931905Y-67006449D01*
X134935291Y-67027826D01*
X134996116Y-67215025D01*
X135085476Y-67390405D01*
X135201172Y-67549646D01*
X135340354Y-67688828D01*
X135499595Y-67804524D01*
X135674975Y-67893884D01*
X135674977Y-67893884D01*
X135674978Y-67893885D01*
X135674981Y-67893887D01*
X135727175Y-67910846D01*
X135776675Y-67946810D01*
X135795582Y-68005001D01*
X135776674Y-68063191D01*
X135727175Y-68099154D01*
X135674981Y-68116112D01*
X135674978Y-68116114D01*
X135499597Y-68205474D01*
X135340355Y-68321171D01*
X135201171Y-68460355D01*
X135085474Y-68619597D01*
X134996114Y-68794978D01*
X134996112Y-68794981D01*
X134979154Y-68847175D01*
X134943190Y-68896675D01*
X134884999Y-68915582D01*
X134826809Y-68896674D01*
X134790846Y-68847175D01*
X134773887Y-68794981D01*
X134773885Y-68794978D01*
X134773884Y-68794977D01*
X134773884Y-68794975D01*
X134684524Y-68619595D01*
X134568828Y-68460354D01*
X134429646Y-68321172D01*
X134270405Y-68205476D01*
X134270404Y-68205475D01*
X134270402Y-68205474D01*
X134095025Y-68116116D01*
X134047946Y-68100819D01*
X133907826Y-68055291D01*
X133907824Y-68055290D01*
X133907822Y-68055290D01*
X133886445Y-68051904D01*
X133831929Y-68024126D01*
X133804152Y-67969609D01*
X133813724Y-67909177D01*
X133856989Y-67865913D01*
X133880660Y-67858224D01*
X133880509Y-67857592D01*
X133884284Y-67856685D01*
X134056440Y-67800749D01*
X134217730Y-67718568D01*
X134217735Y-67718564D01*
X134315442Y-67647575D01*
X134315442Y-67647574D01*
X133846538Y-67178670D01*
X133922007Y-67135099D01*
X134015099Y-67042007D01*
X134058670Y-66966538D01*
X134527574Y-67435442D01*
X134527575Y-67435442D01*
X134598564Y-67337735D01*
X134598568Y-67337730D01*
X134680749Y-67176440D01*
X134736685Y-67004284D01*
X134737592Y-67000509D01*
X134739178Y-67000889D01*
X134764105Y-66951944D01*
X134818616Y-66924155D01*
X134879050Y-66933714D01*
G37*
%TD.AperFunction*%
%TA.AperFunction,Conductor*%
G36*
X140060818Y-66933722D02*
G01*
X140104084Y-66976985D01*
X140111781Y-67000659D01*
X140112408Y-67000509D01*
X140113314Y-67004284D01*
X140169250Y-67176440D01*
X140251430Y-67337728D01*
X140322424Y-67435442D01*
X140791328Y-66966536D01*
X140834901Y-67042007D01*
X140927993Y-67135099D01*
X141003460Y-67178670D01*
X140534556Y-67647574D01*
X140534556Y-67647575D01*
X140632263Y-67718564D01*
X140632269Y-67718568D01*
X140793559Y-67800749D01*
X140965715Y-67856685D01*
X140969491Y-67857592D01*
X140969110Y-67859176D01*
X141018062Y-67884112D01*
X141045845Y-67938625D01*
X141036281Y-67999058D01*
X140993021Y-68042328D01*
X140963554Y-68051904D01*
X140942177Y-68055289D01*
X140754974Y-68116116D01*
X140579597Y-68205474D01*
X140420355Y-68321171D01*
X140281171Y-68460355D01*
X140165474Y-68619597D01*
X140076114Y-68794978D01*
X140076112Y-68794981D01*
X140059154Y-68847175D01*
X140023190Y-68896675D01*
X139964999Y-68915582D01*
X139906809Y-68896674D01*
X139870846Y-68847175D01*
X139853887Y-68794981D01*
X139853885Y-68794978D01*
X139853884Y-68794977D01*
X139853884Y-68794975D01*
X139764524Y-68619595D01*
X139648828Y-68460354D01*
X139509646Y-68321172D01*
X139350405Y-68205476D01*
X139350404Y-68205475D01*
X139350402Y-68205474D01*
X139175025Y-68116116D01*
X139175013Y-68116112D01*
X139122823Y-68099154D01*
X139073324Y-68063191D01*
X139054417Y-68005000D01*
X139073324Y-67946809D01*
X139122823Y-67910845D01*
X139175025Y-67893884D01*
X139350405Y-67804524D01*
X139509646Y-67688828D01*
X139648828Y-67549646D01*
X139764524Y-67390405D01*
X139853884Y-67215025D01*
X139914709Y-67027826D01*
X139918095Y-67006446D01*
X139945870Y-66951932D01*
X140000386Y-66924152D01*
X140060818Y-66933722D01*
G37*
%TD.AperFunction*%
%TA.AperFunction,Conductor*%
G36*
X142499050Y-66933714D02*
G01*
X142542323Y-66976970D01*
X142551904Y-67006445D01*
X142551905Y-67006449D01*
X142555291Y-67027826D01*
X142616116Y-67215025D01*
X142705476Y-67390405D01*
X142821172Y-67549646D01*
X142960354Y-67688828D01*
X143119595Y-67804524D01*
X143294975Y-67893884D01*
X143294977Y-67893884D01*
X143294978Y-67893885D01*
X143294981Y-67893887D01*
X143347175Y-67910846D01*
X143396675Y-67946810D01*
X143415582Y-68005001D01*
X143396674Y-68063191D01*
X143347175Y-68099154D01*
X143294981Y-68116112D01*
X143294978Y-68116114D01*
X143119597Y-68205474D01*
X142960355Y-68321171D01*
X142821171Y-68460355D01*
X142705474Y-68619597D01*
X142616114Y-68794978D01*
X142616112Y-68794981D01*
X142599154Y-68847175D01*
X142563190Y-68896675D01*
X142504999Y-68915582D01*
X142446809Y-68896674D01*
X142410846Y-68847175D01*
X142393887Y-68794981D01*
X142393885Y-68794978D01*
X142393884Y-68794977D01*
X142393884Y-68794975D01*
X142304524Y-68619595D01*
X142188828Y-68460354D01*
X142049646Y-68321172D01*
X141890405Y-68205476D01*
X141890404Y-68205475D01*
X141890402Y-68205474D01*
X141715025Y-68116116D01*
X141667946Y-68100819D01*
X141527826Y-68055291D01*
X141527824Y-68055290D01*
X141527822Y-68055290D01*
X141506445Y-68051904D01*
X141451929Y-68024126D01*
X141424152Y-67969609D01*
X141433724Y-67909177D01*
X141476989Y-67865913D01*
X141500660Y-67858224D01*
X141500509Y-67857592D01*
X141504284Y-67856685D01*
X141676440Y-67800749D01*
X141837730Y-67718568D01*
X141837735Y-67718564D01*
X141935442Y-67647575D01*
X141935442Y-67647574D01*
X141466538Y-67178670D01*
X141542007Y-67135099D01*
X141635099Y-67042007D01*
X141678670Y-66966538D01*
X142147574Y-67435442D01*
X142147575Y-67435442D01*
X142218564Y-67337735D01*
X142218568Y-67337730D01*
X142300749Y-67176440D01*
X142356685Y-67004284D01*
X142357592Y-67000509D01*
X142359178Y-67000889D01*
X142384105Y-66951944D01*
X142438616Y-66924155D01*
X142499050Y-66933714D01*
G37*
%TD.AperFunction*%
%TA.AperFunction,Conductor*%
G36*
X152760818Y-66933722D02*
G01*
X152804084Y-66976985D01*
X152811781Y-67000659D01*
X152812408Y-67000509D01*
X152813314Y-67004284D01*
X152869250Y-67176440D01*
X152951430Y-67337728D01*
X153022424Y-67435442D01*
X153491328Y-66966536D01*
X153534901Y-67042007D01*
X153627993Y-67135099D01*
X153703460Y-67178670D01*
X153234556Y-67647574D01*
X153234556Y-67647575D01*
X153332263Y-67718564D01*
X153332269Y-67718568D01*
X153493559Y-67800749D01*
X153665715Y-67856685D01*
X153669491Y-67857592D01*
X153669110Y-67859176D01*
X153718062Y-67884112D01*
X153745845Y-67938625D01*
X153736281Y-67999058D01*
X153693021Y-68042328D01*
X153663554Y-68051904D01*
X153642177Y-68055289D01*
X153454974Y-68116116D01*
X153279597Y-68205474D01*
X153120355Y-68321171D01*
X152981171Y-68460355D01*
X152865474Y-68619597D01*
X152776114Y-68794978D01*
X152776112Y-68794981D01*
X152759154Y-68847175D01*
X152723190Y-68896675D01*
X152664999Y-68915582D01*
X152606809Y-68896674D01*
X152570846Y-68847175D01*
X152553887Y-68794981D01*
X152553885Y-68794978D01*
X152553884Y-68794977D01*
X152553884Y-68794975D01*
X152464524Y-68619595D01*
X152348828Y-68460354D01*
X152209646Y-68321172D01*
X152050405Y-68205476D01*
X152050404Y-68205475D01*
X152050402Y-68205474D01*
X151875025Y-68116116D01*
X151875013Y-68116112D01*
X151822823Y-68099154D01*
X151773324Y-68063191D01*
X151754417Y-68005000D01*
X151773324Y-67946809D01*
X151822823Y-67910845D01*
X151875025Y-67893884D01*
X152050405Y-67804524D01*
X152209646Y-67688828D01*
X152348828Y-67549646D01*
X152464524Y-67390405D01*
X152553884Y-67215025D01*
X152614709Y-67027826D01*
X152618095Y-67006446D01*
X152645870Y-66951932D01*
X152700386Y-66924152D01*
X152760818Y-66933722D01*
G37*
%TD.AperFunction*%
%TA.AperFunction,Conductor*%
G36*
X155199050Y-66933714D02*
G01*
X155242323Y-66976970D01*
X155251904Y-67006445D01*
X155251905Y-67006449D01*
X155255291Y-67027826D01*
X155316116Y-67215025D01*
X155405476Y-67390405D01*
X155521172Y-67549646D01*
X155660354Y-67688828D01*
X155819595Y-67804524D01*
X155994975Y-67893884D01*
X155994977Y-67893884D01*
X155994978Y-67893885D01*
X155994981Y-67893887D01*
X156047175Y-67910846D01*
X156096675Y-67946810D01*
X156115582Y-68005001D01*
X156096674Y-68063191D01*
X156047175Y-68099154D01*
X155994981Y-68116112D01*
X155994978Y-68116114D01*
X155819597Y-68205474D01*
X155660355Y-68321171D01*
X155521171Y-68460355D01*
X155405474Y-68619597D01*
X155316114Y-68794978D01*
X155316112Y-68794981D01*
X155299154Y-68847175D01*
X155263190Y-68896675D01*
X155204999Y-68915582D01*
X155146809Y-68896674D01*
X155110846Y-68847175D01*
X155093887Y-68794981D01*
X155093885Y-68794978D01*
X155093884Y-68794977D01*
X155093884Y-68794975D01*
X155004524Y-68619595D01*
X154888828Y-68460354D01*
X154749646Y-68321172D01*
X154590405Y-68205476D01*
X154590404Y-68205475D01*
X154590402Y-68205474D01*
X154415025Y-68116116D01*
X154367946Y-68100819D01*
X154227826Y-68055291D01*
X154227824Y-68055290D01*
X154227822Y-68055290D01*
X154206445Y-68051904D01*
X154151929Y-68024126D01*
X154124152Y-67969609D01*
X154133724Y-67909177D01*
X154176989Y-67865913D01*
X154200660Y-67858224D01*
X154200509Y-67857592D01*
X154204284Y-67856685D01*
X154376440Y-67800749D01*
X154537730Y-67718568D01*
X154537735Y-67718564D01*
X154635442Y-67647575D01*
X154635442Y-67647574D01*
X154166538Y-67178670D01*
X154242007Y-67135099D01*
X154335099Y-67042007D01*
X154378670Y-66966538D01*
X154847574Y-67435442D01*
X154847575Y-67435442D01*
X154918564Y-67337735D01*
X154918568Y-67337730D01*
X155000749Y-67176440D01*
X155056685Y-67004284D01*
X155057592Y-67000509D01*
X155059178Y-67000889D01*
X155084105Y-66951944D01*
X155138616Y-66924155D01*
X155199050Y-66933714D01*
G37*
%TD.AperFunction*%
%TA.AperFunction,Conductor*%
G36*
X157840818Y-66933722D02*
G01*
X157884084Y-66976985D01*
X157891781Y-67000659D01*
X157892408Y-67000509D01*
X157893314Y-67004284D01*
X157949250Y-67176440D01*
X158031430Y-67337728D01*
X158102424Y-67435442D01*
X158571328Y-66966536D01*
X158614901Y-67042007D01*
X158707993Y-67135099D01*
X158783460Y-67178670D01*
X158314556Y-67647574D01*
X158314556Y-67647575D01*
X158412263Y-67718564D01*
X158412269Y-67718568D01*
X158573559Y-67800749D01*
X158745715Y-67856685D01*
X158749491Y-67857592D01*
X158749110Y-67859176D01*
X158798062Y-67884112D01*
X158825845Y-67938625D01*
X158816281Y-67999058D01*
X158773021Y-68042328D01*
X158743554Y-68051904D01*
X158722177Y-68055289D01*
X158534974Y-68116116D01*
X158359597Y-68205474D01*
X158200355Y-68321171D01*
X158061171Y-68460355D01*
X157945474Y-68619597D01*
X157856114Y-68794978D01*
X157856112Y-68794981D01*
X157839154Y-68847175D01*
X157803190Y-68896675D01*
X157744999Y-68915582D01*
X157686809Y-68896674D01*
X157650846Y-68847175D01*
X157633887Y-68794981D01*
X157633885Y-68794978D01*
X157633884Y-68794977D01*
X157633884Y-68794975D01*
X157544524Y-68619595D01*
X157428828Y-68460354D01*
X157289646Y-68321172D01*
X157130405Y-68205476D01*
X157130404Y-68205475D01*
X157130402Y-68205474D01*
X156955025Y-68116116D01*
X156955013Y-68116112D01*
X156902823Y-68099154D01*
X156853324Y-68063191D01*
X156834417Y-68005000D01*
X156853324Y-67946809D01*
X156902823Y-67910845D01*
X156955025Y-67893884D01*
X157130405Y-67804524D01*
X157289646Y-67688828D01*
X157428828Y-67549646D01*
X157544524Y-67390405D01*
X157633884Y-67215025D01*
X157694709Y-67027826D01*
X157698095Y-67006446D01*
X157725870Y-66951932D01*
X157780386Y-66924152D01*
X157840818Y-66933722D01*
G37*
%TD.AperFunction*%
%TA.AperFunction,Conductor*%
G36*
X160279050Y-66933714D02*
G01*
X160322323Y-66976970D01*
X160331904Y-67006445D01*
X160331905Y-67006449D01*
X160335291Y-67027826D01*
X160396116Y-67215025D01*
X160485476Y-67390405D01*
X160601172Y-67549646D01*
X160740354Y-67688828D01*
X160899595Y-67804524D01*
X161074975Y-67893884D01*
X161074977Y-67893884D01*
X161074978Y-67893885D01*
X161074981Y-67893887D01*
X161127175Y-67910846D01*
X161176675Y-67946810D01*
X161195582Y-68005001D01*
X161176674Y-68063191D01*
X161127175Y-68099154D01*
X161074981Y-68116112D01*
X161074978Y-68116114D01*
X160899597Y-68205474D01*
X160740355Y-68321171D01*
X160601171Y-68460355D01*
X160485474Y-68619597D01*
X160396114Y-68794978D01*
X160396112Y-68794981D01*
X160379154Y-68847175D01*
X160343190Y-68896675D01*
X160284999Y-68915582D01*
X160226809Y-68896674D01*
X160190846Y-68847175D01*
X160173887Y-68794981D01*
X160173885Y-68794978D01*
X160173884Y-68794977D01*
X160173884Y-68794975D01*
X160084524Y-68619595D01*
X159968828Y-68460354D01*
X159829646Y-68321172D01*
X159670405Y-68205476D01*
X159670404Y-68205475D01*
X159670402Y-68205474D01*
X159495025Y-68116116D01*
X159447946Y-68100819D01*
X159307826Y-68055291D01*
X159307824Y-68055290D01*
X159307822Y-68055290D01*
X159286445Y-68051904D01*
X159231929Y-68024126D01*
X159204152Y-67969609D01*
X159213724Y-67909177D01*
X159256989Y-67865913D01*
X159280660Y-67858224D01*
X159280509Y-67857592D01*
X159284284Y-67856685D01*
X159456440Y-67800749D01*
X159617730Y-67718568D01*
X159617735Y-67718564D01*
X159715442Y-67647575D01*
X159715442Y-67647574D01*
X159246538Y-67178670D01*
X159322007Y-67135099D01*
X159415099Y-67042007D01*
X159458670Y-66966538D01*
X159927574Y-67435442D01*
X159927575Y-67435442D01*
X159998564Y-67337735D01*
X159998568Y-67337730D01*
X160080749Y-67176440D01*
X160136685Y-67004284D01*
X160137592Y-67000509D01*
X160139178Y-67000889D01*
X160164105Y-66951944D01*
X160218616Y-66924155D01*
X160279050Y-66933714D01*
G37*
%TD.AperFunction*%
%TA.AperFunction,Conductor*%
G36*
X172002992Y-64500681D02*
G01*
X172295309Y-64518362D01*
X172307164Y-64519802D01*
X172592281Y-64572051D01*
X172603883Y-64574911D01*
X172880623Y-64661147D01*
X172891786Y-64665380D01*
X173156119Y-64784347D01*
X173166704Y-64789903D01*
X173414758Y-64939856D01*
X173424583Y-64946638D01*
X173652755Y-65125399D01*
X173661704Y-65133326D01*
X173866673Y-65338295D01*
X173874600Y-65347244D01*
X174006256Y-65515291D01*
X174053356Y-65575409D01*
X174060145Y-65585245D01*
X174108645Y-65665474D01*
X174210096Y-65833295D01*
X174215652Y-65843880D01*
X174334616Y-66108206D01*
X174338855Y-66119384D01*
X174425087Y-66396113D01*
X174427948Y-66407721D01*
X174480196Y-66692828D01*
X174481637Y-66704695D01*
X174499319Y-66997006D01*
X174499500Y-67002984D01*
X174499500Y-117497015D01*
X174499319Y-117502993D01*
X174481637Y-117795304D01*
X174480196Y-117807171D01*
X174427948Y-118092278D01*
X174425087Y-118103886D01*
X174338855Y-118380615D01*
X174334616Y-118391793D01*
X174215652Y-118656119D01*
X174210096Y-118666704D01*
X174060147Y-118914751D01*
X174053356Y-118924590D01*
X173874600Y-119152755D01*
X173866673Y-119161704D01*
X173661704Y-119366673D01*
X173652755Y-119374600D01*
X173424590Y-119553356D01*
X173414751Y-119560147D01*
X173166704Y-119710096D01*
X173156119Y-119715652D01*
X172891793Y-119834616D01*
X172880615Y-119838855D01*
X172603886Y-119925087D01*
X172592278Y-119927948D01*
X172307171Y-119980196D01*
X172295304Y-119981637D01*
X172023993Y-119998048D01*
X172002991Y-119999319D01*
X171997015Y-119999500D01*
X113002985Y-119999500D01*
X112997008Y-119999319D01*
X112973564Y-119997900D01*
X112704695Y-119981637D01*
X112692828Y-119980196D01*
X112407721Y-119927948D01*
X112396113Y-119925087D01*
X112119384Y-119838855D01*
X112108206Y-119834616D01*
X111843880Y-119715652D01*
X111833295Y-119710096D01*
X111585248Y-119560147D01*
X111575413Y-119553358D01*
X111347244Y-119374600D01*
X111338295Y-119366673D01*
X111133326Y-119161704D01*
X111125399Y-119152755D01*
X110946638Y-118924583D01*
X110939856Y-118914758D01*
X110789903Y-118666704D01*
X110784347Y-118656119D01*
X110768438Y-118620771D01*
X110665380Y-118391786D01*
X110661147Y-118380623D01*
X110574911Y-118103883D01*
X110572051Y-118092278D01*
X110544876Y-117943988D01*
X110542497Y-117931004D01*
X124499500Y-117931004D01*
X124499500Y-118068995D01*
X124517446Y-118159216D01*
X124525658Y-118200499D01*
X124526420Y-118204327D01*
X124526420Y-118204329D01*
X124579222Y-118331806D01*
X124579228Y-118331817D01*
X124655885Y-118446541D01*
X124753458Y-118544114D01*
X124868182Y-118620771D01*
X124868193Y-118620777D01*
X124915283Y-118640282D01*
X124995672Y-118673580D01*
X125131007Y-118700500D01*
X125131008Y-118700500D01*
X125268992Y-118700500D01*
X125268993Y-118700500D01*
X125404328Y-118673580D01*
X125531811Y-118620775D01*
X125646542Y-118544114D01*
X125744114Y-118446542D01*
X125820775Y-118331811D01*
X125873580Y-118204328D01*
X125900500Y-118068993D01*
X125900500Y-117931007D01*
X125873580Y-117795672D01*
X125820775Y-117668189D01*
X125820774Y-117668187D01*
X125820771Y-117668182D01*
X125744114Y-117553458D01*
X125646541Y-117455885D01*
X125609304Y-117431004D01*
X132949500Y-117431004D01*
X132949500Y-117568995D01*
X132976420Y-117704327D01*
X132976420Y-117704329D01*
X133029222Y-117831806D01*
X133029228Y-117831817D01*
X133105885Y-117946541D01*
X133203458Y-118044114D01*
X133318182Y-118120771D01*
X133318193Y-118120777D01*
X133365283Y-118140282D01*
X133445672Y-118173580D01*
X133581007Y-118200500D01*
X133581008Y-118200500D01*
X133718992Y-118200500D01*
X133718993Y-118200500D01*
X133854328Y-118173580D01*
X133981811Y-118120775D01*
X134096542Y-118044114D01*
X134194114Y-117946542D01*
X134194120Y-117946531D01*
X134197191Y-117942791D01*
X134198646Y-117943985D01*
X134240716Y-117910807D01*
X134301854Y-117908393D01*
X134352734Y-117942375D01*
X134354791Y-117945207D01*
X134355883Y-117946538D01*
X134355886Y-117946542D01*
X134355889Y-117946545D01*
X134453458Y-118044114D01*
X134568182Y-118120771D01*
X134568193Y-118120777D01*
X134615283Y-118140282D01*
X134695672Y-118173580D01*
X134831007Y-118200500D01*
X134831008Y-118200500D01*
X134968992Y-118200500D01*
X134968993Y-118200500D01*
X135104328Y-118173580D01*
X135231811Y-118120775D01*
X135346542Y-118044114D01*
X135444114Y-117946542D01*
X135520775Y-117831811D01*
X135573580Y-117704328D01*
X135600500Y-117568993D01*
X135600500Y-117431007D01*
X135573580Y-117295672D01*
X135520775Y-117168189D01*
X135520774Y-117168187D01*
X135520771Y-117168182D01*
X135444114Y-117053458D01*
X135346541Y-116955885D01*
X135231817Y-116879228D01*
X135231806Y-116879222D01*
X135104328Y-116826420D01*
X134968995Y-116799500D01*
X134968993Y-116799500D01*
X134831007Y-116799500D01*
X134831004Y-116799500D01*
X134695672Y-116826420D01*
X134695670Y-116826420D01*
X134568193Y-116879222D01*
X134568182Y-116879228D01*
X134453458Y-116955885D01*
X134355889Y-117053454D01*
X134352809Y-117057209D01*
X134351357Y-117056017D01*
X134309262Y-117089200D01*
X134248123Y-117091600D01*
X134197251Y-117057605D01*
X134195202Y-117054785D01*
X134194117Y-117053462D01*
X134194114Y-117053458D01*
X134096542Y-116955886D01*
X134096541Y-116955885D01*
X133981817Y-116879228D01*
X133981806Y-116879222D01*
X133854328Y-116826420D01*
X133718995Y-116799500D01*
X133718993Y-116799500D01*
X133581007Y-116799500D01*
X133581004Y-116799500D01*
X133445672Y-116826420D01*
X133445670Y-116826420D01*
X133318193Y-116879222D01*
X133318182Y-116879228D01*
X133203458Y-116955885D01*
X133105885Y-117053458D01*
X133029228Y-117168182D01*
X133029222Y-117168193D01*
X132976420Y-117295670D01*
X132976420Y-117295672D01*
X132949500Y-117431004D01*
X125609304Y-117431004D01*
X125531817Y-117379228D01*
X125531806Y-117379222D01*
X125404328Y-117326420D01*
X125268995Y-117299500D01*
X125268993Y-117299500D01*
X125131007Y-117299500D01*
X125131004Y-117299500D01*
X124995672Y-117326420D01*
X124995670Y-117326420D01*
X124868193Y-117379222D01*
X124868182Y-117379228D01*
X124753458Y-117455885D01*
X124655885Y-117553458D01*
X124579228Y-117668182D01*
X124579222Y-117668193D01*
X124526420Y-117795670D01*
X124526420Y-117795672D01*
X124499500Y-117931004D01*
X110542497Y-117931004D01*
X110519802Y-117807164D01*
X110518362Y-117795303D01*
X110512859Y-117704329D01*
X110500681Y-117502992D01*
X110500500Y-117497015D01*
X110500500Y-115931004D01*
X131699500Y-115931004D01*
X131699500Y-116068995D01*
X131726420Y-116204327D01*
X131726420Y-116204329D01*
X131779222Y-116331806D01*
X131779228Y-116331817D01*
X131855885Y-116446541D01*
X131953458Y-116544114D01*
X132068182Y-116620771D01*
X132068193Y-116620777D01*
X132115283Y-116640282D01*
X132195672Y-116673580D01*
X132331007Y-116700500D01*
X132331008Y-116700500D01*
X132468992Y-116700500D01*
X132468993Y-116700500D01*
X132604328Y-116673580D01*
X132731811Y-116620775D01*
X132846542Y-116544114D01*
X132944114Y-116446542D01*
X133020775Y-116331811D01*
X133073580Y-116204328D01*
X133100500Y-116068993D01*
X133100500Y-115931007D01*
X133073580Y-115795672D01*
X133020775Y-115668189D01*
X133020774Y-115668187D01*
X133020771Y-115668182D01*
X132944114Y-115553458D01*
X132846541Y-115455885D01*
X132731817Y-115379228D01*
X132731806Y-115379222D01*
X132604328Y-115326420D01*
X132468995Y-115299500D01*
X132468993Y-115299500D01*
X132331007Y-115299500D01*
X132331004Y-115299500D01*
X132195672Y-115326420D01*
X132195670Y-115326420D01*
X132068193Y-115379222D01*
X132068182Y-115379228D01*
X131953458Y-115455885D01*
X131855885Y-115553458D01*
X131779228Y-115668182D01*
X131779222Y-115668193D01*
X131726420Y-115795670D01*
X131726420Y-115795672D01*
X131699500Y-115931004D01*
X110500500Y-115931004D01*
X110500500Y-113931004D01*
X125299500Y-113931004D01*
X125299500Y-114068995D01*
X125326420Y-114204327D01*
X125326420Y-114204329D01*
X125379222Y-114331806D01*
X125379228Y-114331818D01*
X125454854Y-114444998D01*
X125471463Y-114503886D01*
X125454854Y-114555002D01*
X125379228Y-114668181D01*
X125379222Y-114668193D01*
X125326420Y-114795670D01*
X125326420Y-114795672D01*
X125299500Y-114931004D01*
X125299500Y-115068995D01*
X125326420Y-115204327D01*
X125326420Y-115204329D01*
X125379222Y-115331806D01*
X125379228Y-115331817D01*
X125455885Y-115446541D01*
X125553458Y-115544114D01*
X125668182Y-115620771D01*
X125668193Y-115620777D01*
X125715283Y-115640282D01*
X125795672Y-115673580D01*
X125931007Y-115700500D01*
X125931008Y-115700500D01*
X126068992Y-115700500D01*
X126068993Y-115700500D01*
X126204328Y-115673580D01*
X126331811Y-115620775D01*
X126444999Y-115545144D01*
X126503886Y-115528536D01*
X126555000Y-115545144D01*
X126611306Y-115582767D01*
X126668182Y-115620771D01*
X126668193Y-115620777D01*
X126715283Y-115640282D01*
X126795672Y-115673580D01*
X126931007Y-115700500D01*
X126931008Y-115700500D01*
X127068992Y-115700500D01*
X127068993Y-115700500D01*
X127204328Y-115673580D01*
X127331811Y-115620775D01*
X127444999Y-115545144D01*
X127503886Y-115528536D01*
X127555000Y-115545144D01*
X127611306Y-115582767D01*
X127668182Y-115620771D01*
X127668193Y-115620777D01*
X127715283Y-115640282D01*
X127795672Y-115673580D01*
X127931007Y-115700500D01*
X127931008Y-115700500D01*
X128068992Y-115700500D01*
X128068993Y-115700500D01*
X128204328Y-115673580D01*
X128331811Y-115620775D01*
X128446542Y-115544114D01*
X128544114Y-115446542D01*
X128620775Y-115331811D01*
X128673580Y-115204328D01*
X128700500Y-115068993D01*
X128700500Y-114931007D01*
X128673580Y-114795672D01*
X128620775Y-114668189D01*
X128620774Y-114668187D01*
X128620771Y-114668182D01*
X128582767Y-114611306D01*
X128545144Y-114555000D01*
X128528536Y-114496114D01*
X128545144Y-114444999D01*
X128620775Y-114331811D01*
X128673580Y-114204328D01*
X128700500Y-114068993D01*
X128700500Y-113931007D01*
X128673580Y-113795672D01*
X128620775Y-113668189D01*
X128620774Y-113668187D01*
X128620771Y-113668182D01*
X128544114Y-113553458D01*
X128446541Y-113455885D01*
X128331817Y-113379228D01*
X128331806Y-113379222D01*
X128204328Y-113326420D01*
X128068995Y-113299500D01*
X128068993Y-113299500D01*
X127931007Y-113299500D01*
X127931004Y-113299500D01*
X127795672Y-113326420D01*
X127795670Y-113326420D01*
X127668193Y-113379222D01*
X127668181Y-113379228D01*
X127555002Y-113454854D01*
X127496114Y-113471463D01*
X127444998Y-113454854D01*
X127331818Y-113379228D01*
X127331806Y-113379222D01*
X127204328Y-113326420D01*
X127068995Y-113299500D01*
X127068993Y-113299500D01*
X126931007Y-113299500D01*
X126931004Y-113299500D01*
X126795672Y-113326420D01*
X126795670Y-113326420D01*
X126668193Y-113379222D01*
X126668181Y-113379228D01*
X126555002Y-113454854D01*
X126496114Y-113471463D01*
X126444998Y-113454854D01*
X126331818Y-113379228D01*
X126331806Y-113379222D01*
X126204328Y-113326420D01*
X126068995Y-113299500D01*
X126068993Y-113299500D01*
X125931007Y-113299500D01*
X125931004Y-113299500D01*
X125795672Y-113326420D01*
X125795670Y-113326420D01*
X125668193Y-113379222D01*
X125668182Y-113379228D01*
X125553458Y-113455885D01*
X125455885Y-113553458D01*
X125379228Y-113668182D01*
X125379222Y-113668193D01*
X125326420Y-113795670D01*
X125326420Y-113795672D01*
X125299500Y-113931004D01*
X110500500Y-113931004D01*
X110500500Y-109431004D01*
X145799500Y-109431004D01*
X145799500Y-109568995D01*
X145826420Y-109704327D01*
X145826420Y-109704329D01*
X145879222Y-109831806D01*
X145879228Y-109831817D01*
X145955885Y-109946541D01*
X146053458Y-110044114D01*
X146168182Y-110120771D01*
X146168193Y-110120777D01*
X146215283Y-110140282D01*
X146295672Y-110173580D01*
X146431007Y-110200500D01*
X146431008Y-110200500D01*
X146568992Y-110200500D01*
X146568993Y-110200500D01*
X146704328Y-110173580D01*
X146831811Y-110120775D01*
X146946542Y-110044114D01*
X147044114Y-109946542D01*
X147120775Y-109831811D01*
X147173580Y-109704328D01*
X147200500Y-109568993D01*
X147200500Y-109431007D01*
X147200499Y-109431004D01*
X158799500Y-109431004D01*
X158799500Y-109568995D01*
X158826420Y-109704327D01*
X158826420Y-109704329D01*
X158879222Y-109831806D01*
X158879228Y-109831817D01*
X158955885Y-109946541D01*
X159053458Y-110044114D01*
X159168182Y-110120771D01*
X159168193Y-110120777D01*
X159215283Y-110140282D01*
X159295672Y-110173580D01*
X159431007Y-110200500D01*
X159431008Y-110200500D01*
X159568992Y-110200500D01*
X159568993Y-110200500D01*
X159704328Y-110173580D01*
X159831811Y-110120775D01*
X159946542Y-110044114D01*
X160044114Y-109946542D01*
X160120775Y-109831811D01*
X160173580Y-109704328D01*
X160200500Y-109568993D01*
X160200500Y-109431007D01*
X160173580Y-109295672D01*
X160120775Y-109168189D01*
X160120774Y-109168187D01*
X160120771Y-109168182D01*
X160044114Y-109053458D01*
X159946541Y-108955885D01*
X159831817Y-108879228D01*
X159831806Y-108879222D01*
X159704328Y-108826420D01*
X159568995Y-108799500D01*
X159568993Y-108799500D01*
X159431007Y-108799500D01*
X159431004Y-108799500D01*
X159295672Y-108826420D01*
X159295670Y-108826420D01*
X159168193Y-108879222D01*
X159168182Y-108879228D01*
X159053458Y-108955885D01*
X158955885Y-109053458D01*
X158879228Y-109168182D01*
X158879222Y-109168193D01*
X158826420Y-109295670D01*
X158826420Y-109295672D01*
X158799500Y-109431004D01*
X147200499Y-109431004D01*
X147173580Y-109295672D01*
X147120775Y-109168189D01*
X147120774Y-109168187D01*
X147120771Y-109168182D01*
X147044114Y-109053458D01*
X146946541Y-108955885D01*
X146831817Y-108879228D01*
X146831806Y-108879222D01*
X146704328Y-108826420D01*
X146568995Y-108799500D01*
X146568993Y-108799500D01*
X146431007Y-108799500D01*
X146431004Y-108799500D01*
X146295672Y-108826420D01*
X146295670Y-108826420D01*
X146168193Y-108879222D01*
X146168182Y-108879228D01*
X146053458Y-108955885D01*
X145955885Y-109053458D01*
X145879228Y-109168182D01*
X145879222Y-109168193D01*
X145826420Y-109295670D01*
X145826420Y-109295672D01*
X145799500Y-109431004D01*
X110500500Y-109431004D01*
X110500500Y-106431004D01*
X138299500Y-106431004D01*
X138299500Y-106568995D01*
X138326420Y-106704327D01*
X138326420Y-106704329D01*
X138379222Y-106831806D01*
X138379228Y-106831817D01*
X138455885Y-106946541D01*
X138553458Y-107044114D01*
X138668182Y-107120771D01*
X138668193Y-107120777D01*
X138715283Y-107140282D01*
X138795672Y-107173580D01*
X138931007Y-107200500D01*
X138931008Y-107200500D01*
X139068992Y-107200500D01*
X139068993Y-107200500D01*
X139204328Y-107173580D01*
X139331811Y-107120775D01*
X139446542Y-107044114D01*
X139544114Y-106946542D01*
X139554496Y-106931004D01*
X139899500Y-106931004D01*
X139899500Y-107068995D01*
X139917446Y-107159216D01*
X139925658Y-107200499D01*
X139926420Y-107204327D01*
X139926420Y-107204329D01*
X139979222Y-107331806D01*
X139979228Y-107331817D01*
X140055885Y-107446541D01*
X140153458Y-107544114D01*
X140268182Y-107620771D01*
X140268193Y-107620777D01*
X140315283Y-107640282D01*
X140395672Y-107673580D01*
X140531007Y-107700500D01*
X140531008Y-107700500D01*
X140668992Y-107700500D01*
X140668993Y-107700500D01*
X140804328Y-107673580D01*
X140931811Y-107620775D01*
X141046542Y-107544114D01*
X141144114Y-107446542D01*
X141220775Y-107331811D01*
X141273580Y-107204328D01*
X141300500Y-107068993D01*
X141300500Y-106931007D01*
X141273580Y-106795672D01*
X141235744Y-106704327D01*
X141220777Y-106668193D01*
X141220771Y-106668182D01*
X141144114Y-106553458D01*
X141046541Y-106455885D01*
X141009304Y-106431004D01*
X151799500Y-106431004D01*
X151799500Y-106568995D01*
X151826420Y-106704327D01*
X151826420Y-106704329D01*
X151879222Y-106831806D01*
X151879228Y-106831817D01*
X151955885Y-106946541D01*
X152053458Y-107044114D01*
X152168182Y-107120771D01*
X152168193Y-107120777D01*
X152215283Y-107140282D01*
X152295672Y-107173580D01*
X152431007Y-107200500D01*
X152431008Y-107200500D01*
X152568992Y-107200500D01*
X152568993Y-107200500D01*
X152704328Y-107173580D01*
X152831811Y-107120775D01*
X152946542Y-107044114D01*
X153044114Y-106946542D01*
X153120775Y-106831811D01*
X153131160Y-106806739D01*
X153523765Y-106806739D01*
X153523765Y-106944730D01*
X153541711Y-107034951D01*
X153548483Y-107068995D01*
X153550685Y-107080062D01*
X153550685Y-107080064D01*
X153603487Y-107207541D01*
X153603493Y-107207552D01*
X153680150Y-107322276D01*
X153777723Y-107419849D01*
X153892447Y-107496506D01*
X153892458Y-107496512D01*
X153939548Y-107516017D01*
X154019937Y-107549315D01*
X154155272Y-107576235D01*
X154155273Y-107576235D01*
X154293257Y-107576235D01*
X154293258Y-107576235D01*
X154428593Y-107549315D01*
X154556076Y-107496510D01*
X154670807Y-107419849D01*
X154768379Y-107322277D01*
X154845040Y-107207546D01*
X154897845Y-107080063D01*
X154924765Y-106944728D01*
X154924765Y-106806742D01*
X154897845Y-106671407D01*
X154845040Y-106543924D01*
X154845039Y-106543922D01*
X154845036Y-106543917D01*
X154768379Y-106429193D01*
X154670806Y-106331620D01*
X154556082Y-106254963D01*
X154556071Y-106254957D01*
X154428593Y-106202155D01*
X154293260Y-106175235D01*
X154293258Y-106175235D01*
X154155272Y-106175235D01*
X154155269Y-106175235D01*
X154019937Y-106202155D01*
X154019935Y-106202155D01*
X153892458Y-106254957D01*
X153892447Y-106254963D01*
X153777723Y-106331620D01*
X153680150Y-106429193D01*
X153603493Y-106543917D01*
X153603487Y-106543928D01*
X153550685Y-106671405D01*
X153550685Y-106671407D01*
X153523765Y-106806739D01*
X153131160Y-106806739D01*
X153173580Y-106704328D01*
X153200500Y-106568993D01*
X153200500Y-106431007D01*
X153173580Y-106295672D01*
X153120775Y-106168189D01*
X153120774Y-106168187D01*
X153120771Y-106168182D01*
X153044114Y-106053458D01*
X152946541Y-105955885D01*
X152831817Y-105879228D01*
X152831806Y-105879222D01*
X152704328Y-105826420D01*
X152568995Y-105799500D01*
X152568993Y-105799500D01*
X152431007Y-105799500D01*
X152431004Y-105799500D01*
X152295672Y-105826420D01*
X152295670Y-105826420D01*
X152168193Y-105879222D01*
X152168182Y-105879228D01*
X152053458Y-105955885D01*
X151955885Y-106053458D01*
X151879228Y-106168182D01*
X151879222Y-106168193D01*
X151826420Y-106295670D01*
X151826420Y-106295672D01*
X151799500Y-106431004D01*
X141009304Y-106431004D01*
X140931817Y-106379228D01*
X140931806Y-106379222D01*
X140804328Y-106326420D01*
X140668995Y-106299500D01*
X140668993Y-106299500D01*
X140531007Y-106299500D01*
X140531004Y-106299500D01*
X140395672Y-106326420D01*
X140395670Y-106326420D01*
X140268193Y-106379222D01*
X140268182Y-106379228D01*
X140153458Y-106455885D01*
X140055885Y-106553458D01*
X139979228Y-106668182D01*
X139979222Y-106668193D01*
X139926420Y-106795670D01*
X139926420Y-106795672D01*
X139899500Y-106931004D01*
X139554496Y-106931004D01*
X139572134Y-106904607D01*
X139594496Y-106871141D01*
X139620771Y-106831818D01*
X139620777Y-106831806D01*
X139648866Y-106763992D01*
X139673580Y-106704328D01*
X139700500Y-106568993D01*
X139700500Y-106431007D01*
X139673580Y-106295672D01*
X139620775Y-106168189D01*
X139620774Y-106168187D01*
X139620771Y-106168182D01*
X139544114Y-106053458D01*
X139446541Y-105955885D01*
X139331817Y-105879228D01*
X139331806Y-105879222D01*
X139204328Y-105826420D01*
X139068995Y-105799500D01*
X139068993Y-105799500D01*
X138931007Y-105799500D01*
X138931004Y-105799500D01*
X138795672Y-105826420D01*
X138795670Y-105826420D01*
X138668193Y-105879222D01*
X138668182Y-105879228D01*
X138553458Y-105955885D01*
X138455885Y-106053458D01*
X138379228Y-106168182D01*
X138379222Y-106168193D01*
X138326420Y-106295670D01*
X138326420Y-106295672D01*
X138299500Y-106431004D01*
X110500500Y-106431004D01*
X110500500Y-98931004D01*
X119299500Y-98931004D01*
X119299500Y-99068995D01*
X119326420Y-99204327D01*
X119326420Y-99204329D01*
X119379222Y-99331806D01*
X119379228Y-99331817D01*
X119455885Y-99446541D01*
X119553458Y-99544114D01*
X119668182Y-99620771D01*
X119668193Y-99620777D01*
X119715283Y-99640282D01*
X119795672Y-99673580D01*
X119931007Y-99700500D01*
X119931008Y-99700500D01*
X120068992Y-99700500D01*
X120068993Y-99700500D01*
X120204328Y-99673580D01*
X120331811Y-99620775D01*
X120446542Y-99544114D01*
X120544114Y-99446542D01*
X120620775Y-99331811D01*
X120673580Y-99204328D01*
X120700500Y-99068993D01*
X120700500Y-98931007D01*
X120673580Y-98795672D01*
X120620775Y-98668189D01*
X120620774Y-98668187D01*
X120620771Y-98668182D01*
X120544114Y-98553458D01*
X120446541Y-98455885D01*
X120331817Y-98379228D01*
X120331806Y-98379222D01*
X120204328Y-98326420D01*
X120068995Y-98299500D01*
X120068993Y-98299500D01*
X119931007Y-98299500D01*
X119931004Y-98299500D01*
X119795672Y-98326420D01*
X119795670Y-98326420D01*
X119668193Y-98379222D01*
X119668182Y-98379228D01*
X119553458Y-98455885D01*
X119455885Y-98553458D01*
X119379228Y-98668182D01*
X119379222Y-98668193D01*
X119326420Y-98795670D01*
X119326420Y-98795672D01*
X119299500Y-98931004D01*
X110500500Y-98931004D01*
X110500500Y-96293504D01*
X117899500Y-96293504D01*
X117899500Y-96431495D01*
X117917446Y-96521716D01*
X117925238Y-96560888D01*
X117926420Y-96566827D01*
X117926420Y-96566829D01*
X117979222Y-96694306D01*
X117979228Y-96694317D01*
X118055885Y-96809041D01*
X118153458Y-96906614D01*
X118268182Y-96983271D01*
X118268193Y-96983277D01*
X118315283Y-97002782D01*
X118395672Y-97036080D01*
X118531007Y-97063000D01*
X118531008Y-97063000D01*
X118668992Y-97063000D01*
X118668993Y-97063000D01*
X118804328Y-97036080D01*
X118931811Y-96983275D01*
X119046542Y-96906614D01*
X119144114Y-96809042D01*
X119220775Y-96694311D01*
X119273580Y-96566828D01*
X119300500Y-96431493D01*
X119300500Y-96293507D01*
X119273580Y-96158172D01*
X119220775Y-96030689D01*
X119220774Y-96030687D01*
X119220771Y-96030682D01*
X119144114Y-95915958D01*
X119046541Y-95818385D01*
X118931817Y-95741728D01*
X118931806Y-95741722D01*
X118804328Y-95688920D01*
X118668995Y-95662000D01*
X118668993Y-95662000D01*
X118531007Y-95662000D01*
X118531004Y-95662000D01*
X118395672Y-95688920D01*
X118395670Y-95688920D01*
X118268193Y-95741722D01*
X118268182Y-95741728D01*
X118153458Y-95818385D01*
X118055885Y-95915958D01*
X117979228Y-96030682D01*
X117979222Y-96030693D01*
X117926420Y-96158170D01*
X117926420Y-96158172D01*
X117899500Y-96293504D01*
X110500500Y-96293504D01*
X110500500Y-94931004D01*
X126799500Y-94931004D01*
X126799500Y-95068995D01*
X126826420Y-95204327D01*
X126826420Y-95204329D01*
X126879222Y-95331806D01*
X126879228Y-95331817D01*
X126955885Y-95446541D01*
X127053458Y-95544114D01*
X127168182Y-95620771D01*
X127168193Y-95620777D01*
X127215283Y-95640282D01*
X127295672Y-95673580D01*
X127431007Y-95700500D01*
X127431008Y-95700500D01*
X127568992Y-95700500D01*
X127568993Y-95700500D01*
X127704328Y-95673580D01*
X127831811Y-95620775D01*
X127946542Y-95544114D01*
X128044114Y-95446542D01*
X128120775Y-95331811D01*
X128173580Y-95204328D01*
X128200500Y-95068993D01*
X128200500Y-94931007D01*
X128173580Y-94795672D01*
X128120775Y-94668189D01*
X128120774Y-94668187D01*
X128120771Y-94668182D01*
X128044114Y-94553458D01*
X127946541Y-94455885D01*
X127831817Y-94379228D01*
X127831806Y-94379222D01*
X127704328Y-94326420D01*
X127568995Y-94299500D01*
X127568993Y-94299500D01*
X127431007Y-94299500D01*
X127431004Y-94299500D01*
X127295672Y-94326420D01*
X127295670Y-94326420D01*
X127168193Y-94379222D01*
X127168182Y-94379228D01*
X127053458Y-94455885D01*
X126955885Y-94553458D01*
X126879228Y-94668182D01*
X126879222Y-94668193D01*
X126826420Y-94795670D01*
X126826420Y-94795672D01*
X126799500Y-94931004D01*
X110500500Y-94931004D01*
X110500500Y-93431004D01*
X120799500Y-93431004D01*
X120799500Y-93568995D01*
X120826420Y-93704327D01*
X120826420Y-93704329D01*
X120879222Y-93831806D01*
X120879228Y-93831817D01*
X120955885Y-93946541D01*
X121053458Y-94044114D01*
X121168182Y-94120771D01*
X121168193Y-94120777D01*
X121215283Y-94140282D01*
X121295672Y-94173580D01*
X121431007Y-94200500D01*
X121431008Y-94200500D01*
X121568992Y-94200500D01*
X121568993Y-94200500D01*
X121704328Y-94173580D01*
X121831811Y-94120775D01*
X121946542Y-94044114D01*
X122044114Y-93946542D01*
X122054496Y-93931004D01*
X129799500Y-93931004D01*
X129799500Y-94068995D01*
X129814443Y-94144114D01*
X129825658Y-94200499D01*
X129826420Y-94204327D01*
X129826420Y-94204329D01*
X129879222Y-94331806D01*
X129879228Y-94331817D01*
X129955885Y-94446541D01*
X130053458Y-94544114D01*
X130168182Y-94620771D01*
X130168193Y-94620777D01*
X130215283Y-94640282D01*
X130295672Y-94673580D01*
X130431007Y-94700500D01*
X130431008Y-94700500D01*
X130568992Y-94700500D01*
X130568993Y-94700500D01*
X130704328Y-94673580D01*
X130831811Y-94620775D01*
X130946542Y-94544114D01*
X131044114Y-94446542D01*
X131120775Y-94331811D01*
X131173580Y-94204328D01*
X131200500Y-94068993D01*
X131200500Y-93990690D01*
X131219407Y-93932499D01*
X131268907Y-93896535D01*
X131330093Y-93896535D01*
X131379593Y-93932499D01*
X131381815Y-93935688D01*
X131389067Y-93946541D01*
X131455886Y-94046542D01*
X131455889Y-94046545D01*
X131553458Y-94144114D01*
X131668182Y-94220771D01*
X131668193Y-94220777D01*
X131715283Y-94240282D01*
X131795672Y-94273580D01*
X131931007Y-94300500D01*
X131931008Y-94300500D01*
X132068992Y-94300500D01*
X132068993Y-94300500D01*
X132204328Y-94273580D01*
X132331811Y-94220775D01*
X132446542Y-94144114D01*
X132544114Y-94046542D01*
X132620775Y-93931811D01*
X132673580Y-93804328D01*
X132700500Y-93668993D01*
X132700500Y-93531007D01*
X132673580Y-93395672D01*
X132644895Y-93326420D01*
X132620777Y-93268193D01*
X132620771Y-93268182D01*
X132544114Y-93153458D01*
X132446541Y-93055885D01*
X132331817Y-92979228D01*
X132331806Y-92979222D01*
X132204328Y-92926420D01*
X132068995Y-92899500D01*
X132068993Y-92899500D01*
X131931007Y-92899500D01*
X131931004Y-92899500D01*
X131795672Y-92926420D01*
X131795670Y-92926420D01*
X131668193Y-92979222D01*
X131668182Y-92979228D01*
X131553458Y-93055885D01*
X131455885Y-93153458D01*
X131379228Y-93268182D01*
X131379222Y-93268193D01*
X131326420Y-93395670D01*
X131326420Y-93395672D01*
X131299500Y-93531004D01*
X131299500Y-93609309D01*
X131280593Y-93667500D01*
X131231093Y-93703464D01*
X131169907Y-93703464D01*
X131120407Y-93667500D01*
X131118185Y-93664311D01*
X131044114Y-93553458D01*
X130946541Y-93455885D01*
X130831817Y-93379228D01*
X130831806Y-93379222D01*
X130704328Y-93326420D01*
X130568995Y-93299500D01*
X130568993Y-93299500D01*
X130431007Y-93299500D01*
X130431004Y-93299500D01*
X130295672Y-93326420D01*
X130295670Y-93326420D01*
X130168193Y-93379222D01*
X130168182Y-93379228D01*
X130053458Y-93455885D01*
X129955885Y-93553458D01*
X129879228Y-93668182D01*
X129879222Y-93668193D01*
X129826420Y-93795670D01*
X129826420Y-93795672D01*
X129799500Y-93931004D01*
X122054496Y-93931004D01*
X122077528Y-93896535D01*
X122094496Y-93871141D01*
X122120771Y-93831818D01*
X122120777Y-93831806D01*
X122135745Y-93795670D01*
X122173580Y-93704328D01*
X122200500Y-93568993D01*
X122200500Y-93431007D01*
X122173580Y-93295672D01*
X122120775Y-93168189D01*
X122120774Y-93168187D01*
X122120771Y-93168182D01*
X122044114Y-93053458D01*
X121946541Y-92955885D01*
X121831817Y-92879228D01*
X121831806Y-92879222D01*
X121704328Y-92826420D01*
X121568995Y-92799500D01*
X121568993Y-92799500D01*
X121431007Y-92799500D01*
X121431004Y-92799500D01*
X121295672Y-92826420D01*
X121295670Y-92826420D01*
X121168193Y-92879222D01*
X121168182Y-92879228D01*
X121053458Y-92955885D01*
X120955885Y-93053458D01*
X120879228Y-93168182D01*
X120879222Y-93168193D01*
X120826420Y-93295670D01*
X120826420Y-93295672D01*
X120799500Y-93431004D01*
X110500500Y-93431004D01*
X110500500Y-91931004D01*
X130299500Y-91931004D01*
X130299500Y-92068995D01*
X130326420Y-92204327D01*
X130326420Y-92204329D01*
X130379222Y-92331806D01*
X130379228Y-92331817D01*
X130455885Y-92446541D01*
X130553458Y-92544114D01*
X130668182Y-92620771D01*
X130668193Y-92620777D01*
X130715283Y-92640282D01*
X130795672Y-92673580D01*
X130931007Y-92700500D01*
X130931008Y-92700500D01*
X131068992Y-92700500D01*
X131068993Y-92700500D01*
X131204328Y-92673580D01*
X131331811Y-92620775D01*
X131446542Y-92544114D01*
X131544114Y-92446542D01*
X131620775Y-92331811D01*
X131673580Y-92204328D01*
X131700500Y-92068993D01*
X131700500Y-91931007D01*
X131673580Y-91795672D01*
X131620775Y-91668189D01*
X131620774Y-91668187D01*
X131620771Y-91668182D01*
X131544114Y-91553458D01*
X131446541Y-91455885D01*
X131331817Y-91379228D01*
X131331806Y-91379222D01*
X131204328Y-91326420D01*
X131068995Y-91299500D01*
X131068993Y-91299500D01*
X130931007Y-91299500D01*
X130931004Y-91299500D01*
X130795672Y-91326420D01*
X130795670Y-91326420D01*
X130668193Y-91379222D01*
X130668182Y-91379228D01*
X130553458Y-91455885D01*
X130455885Y-91553458D01*
X130379228Y-91668182D01*
X130379222Y-91668193D01*
X130326420Y-91795670D01*
X130326420Y-91795672D01*
X130299500Y-91931004D01*
X110500500Y-91931004D01*
X110500500Y-89431004D01*
X131299500Y-89431004D01*
X131299500Y-89568995D01*
X131326420Y-89704327D01*
X131326420Y-89704329D01*
X131379222Y-89831806D01*
X131379228Y-89831817D01*
X131455885Y-89946541D01*
X131553458Y-90044114D01*
X131668182Y-90120771D01*
X131668193Y-90120777D01*
X131715283Y-90140282D01*
X131795672Y-90173580D01*
X131931007Y-90200500D01*
X131931008Y-90200500D01*
X132068992Y-90200500D01*
X132068993Y-90200500D01*
X132204328Y-90173580D01*
X132331811Y-90120775D01*
X132444999Y-90045144D01*
X132503886Y-90028536D01*
X132555000Y-90045144D01*
X132611306Y-90082767D01*
X132668182Y-90120771D01*
X132668193Y-90120777D01*
X132715283Y-90140282D01*
X132795672Y-90173580D01*
X132931007Y-90200500D01*
X132931008Y-90200500D01*
X133068992Y-90200500D01*
X133068993Y-90200500D01*
X133204328Y-90173580D01*
X133331811Y-90120775D01*
X133446542Y-90044114D01*
X133544114Y-89946542D01*
X133620775Y-89831811D01*
X133673580Y-89704328D01*
X133700500Y-89568993D01*
X133700500Y-89431007D01*
X133673580Y-89295672D01*
X133620775Y-89168189D01*
X133620774Y-89168187D01*
X133620771Y-89168182D01*
X133544114Y-89053458D01*
X133446541Y-88955885D01*
X133331817Y-88879228D01*
X133331806Y-88879222D01*
X133204328Y-88826420D01*
X133068995Y-88799500D01*
X133068993Y-88799500D01*
X132931007Y-88799500D01*
X132931004Y-88799500D01*
X132795672Y-88826420D01*
X132795670Y-88826420D01*
X132668193Y-88879222D01*
X132668181Y-88879228D01*
X132555002Y-88954854D01*
X132496114Y-88971463D01*
X132444998Y-88954854D01*
X132331818Y-88879228D01*
X132331806Y-88879222D01*
X132204328Y-88826420D01*
X132068995Y-88799500D01*
X132068993Y-88799500D01*
X131931007Y-88799500D01*
X131931004Y-88799500D01*
X131795672Y-88826420D01*
X131795670Y-88826420D01*
X131668193Y-88879222D01*
X131668182Y-88879228D01*
X131553458Y-88955885D01*
X131455885Y-89053458D01*
X131379228Y-89168182D01*
X131379222Y-89168193D01*
X131326420Y-89295670D01*
X131326420Y-89295672D01*
X131299500Y-89431004D01*
X110500500Y-89431004D01*
X110500500Y-87702696D01*
X142309500Y-87702696D01*
X142309500Y-88337303D01*
X142347813Y-88970696D01*
X142347815Y-88970722D01*
X142424304Y-89600675D01*
X142538686Y-90224832D01*
X142538695Y-90224877D01*
X142623987Y-90570918D01*
X142690558Y-90841006D01*
X142858272Y-91379222D01*
X142879346Y-91446849D01*
X142879351Y-91446865D01*
X142919777Y-91553458D01*
X143104375Y-92040202D01*
X143104380Y-92040213D01*
X143104381Y-92040216D01*
X143364817Y-92618880D01*
X143365812Y-92620775D01*
X143659722Y-93180774D01*
X143659730Y-93180788D01*
X143659739Y-93180803D01*
X143988002Y-93723817D01*
X143988030Y-93723862D01*
X144348481Y-94246063D01*
X144348500Y-94246090D01*
X144739859Y-94745623D01*
X145160666Y-95220616D01*
X145609384Y-95669334D01*
X146084377Y-96090141D01*
X146583910Y-96481500D01*
X146583934Y-96481517D01*
X146583936Y-96481518D01*
X147106137Y-96841969D01*
X147106155Y-96841980D01*
X147106162Y-96841985D01*
X147106182Y-96841997D01*
X147471764Y-97062999D01*
X147649226Y-97170278D01*
X148211122Y-97465184D01*
X148789798Y-97725625D01*
X149383144Y-97950652D01*
X149988994Y-98139442D01*
X150605138Y-98291308D01*
X150893390Y-98344132D01*
X151229324Y-98405695D01*
X151526765Y-98441810D01*
X151859283Y-98482185D01*
X152492696Y-98520499D01*
X152492697Y-98520500D01*
X152492708Y-98520500D01*
X153127303Y-98520500D01*
X153127303Y-98520499D01*
X153760717Y-98482185D01*
X154241954Y-98423752D01*
X154390675Y-98405695D01*
X154558641Y-98374913D01*
X155014862Y-98291308D01*
X155631006Y-98139442D01*
X156236856Y-97950652D01*
X156830202Y-97725625D01*
X157408878Y-97465184D01*
X157970774Y-97170278D01*
X158513838Y-96841985D01*
X158513853Y-96841974D01*
X158513862Y-96841969D01*
X158759603Y-96672345D01*
X159036090Y-96481500D01*
X159535623Y-96090141D01*
X160010616Y-95669334D01*
X160459334Y-95220616D01*
X160880141Y-94745623D01*
X161271500Y-94246090D01*
X161488427Y-93931817D01*
X161631969Y-93723862D01*
X161631974Y-93723853D01*
X161631985Y-93723838D01*
X161960278Y-93180774D01*
X162255184Y-92618878D01*
X162515625Y-92040202D01*
X162740652Y-91446856D01*
X162929442Y-90841006D01*
X163081308Y-90224862D01*
X163164913Y-89768641D01*
X163195695Y-89600675D01*
X163248208Y-89168189D01*
X163272185Y-88970717D01*
X163310499Y-88337303D01*
X163310500Y-88337303D01*
X163310500Y-87702697D01*
X163310499Y-87702696D01*
X163272186Y-87069303D01*
X163272185Y-87069283D01*
X163195695Y-86439326D01*
X163081308Y-85815138D01*
X162929442Y-85198994D01*
X162740652Y-84593144D01*
X162515625Y-83999798D01*
X162333449Y-83595021D01*
X162326809Y-83534199D01*
X162357188Y-83481088D01*
X162412983Y-83455977D01*
X162472882Y-83468457D01*
X162493732Y-83484388D01*
X162553458Y-83544114D01*
X162668182Y-83620771D01*
X162668193Y-83620777D01*
X162715283Y-83640282D01*
X162795672Y-83673580D01*
X162931007Y-83700500D01*
X162931008Y-83700500D01*
X163068992Y-83700500D01*
X163068993Y-83700500D01*
X163204328Y-83673580D01*
X163331811Y-83620775D01*
X163446542Y-83544114D01*
X163544114Y-83446542D01*
X163620775Y-83331811D01*
X163673580Y-83204328D01*
X163700500Y-83068993D01*
X163700500Y-82931007D01*
X163673580Y-82795672D01*
X163620775Y-82668189D01*
X163620774Y-82668187D01*
X163620771Y-82668182D01*
X163544114Y-82553458D01*
X163446541Y-82455885D01*
X163331817Y-82379228D01*
X163331806Y-82379222D01*
X163204328Y-82326420D01*
X163068995Y-82299500D01*
X163068993Y-82299500D01*
X162931007Y-82299500D01*
X162931004Y-82299500D01*
X162795672Y-82326420D01*
X162795670Y-82326420D01*
X162668193Y-82379222D01*
X162668182Y-82379228D01*
X162553458Y-82455885D01*
X162455885Y-82553458D01*
X162379228Y-82668182D01*
X162379222Y-82668193D01*
X162326420Y-82795670D01*
X162326420Y-82795672D01*
X162299500Y-82931004D01*
X162299500Y-83068996D01*
X162305655Y-83099938D01*
X162298463Y-83160700D01*
X162256930Y-83205629D01*
X162196920Y-83217566D01*
X162141355Y-83191950D01*
X162120897Y-83165260D01*
X162118504Y-83160700D01*
X161960278Y-82859226D01*
X161631985Y-82316162D01*
X161631980Y-82316155D01*
X161631969Y-82316137D01*
X161271518Y-81793936D01*
X161271517Y-81793934D01*
X161271500Y-81793910D01*
X160880141Y-81294377D01*
X160612073Y-80991791D01*
X160612073Y-80991789D01*
X160558222Y-80931004D01*
X162299500Y-80931004D01*
X162299500Y-81068995D01*
X162326420Y-81204327D01*
X162326420Y-81204329D01*
X162379222Y-81331806D01*
X162379228Y-81331817D01*
X162455885Y-81446541D01*
X162553458Y-81544114D01*
X162668182Y-81620771D01*
X162668193Y-81620777D01*
X162715283Y-81640282D01*
X162795672Y-81673580D01*
X162931007Y-81700500D01*
X162931008Y-81700500D01*
X163068992Y-81700500D01*
X163068993Y-81700500D01*
X163204328Y-81673580D01*
X163331811Y-81620775D01*
X163446542Y-81544114D01*
X163544114Y-81446542D01*
X163620775Y-81331811D01*
X163673580Y-81204328D01*
X163700500Y-81068993D01*
X163700500Y-80931007D01*
X163673580Y-80795672D01*
X163620775Y-80668189D01*
X163620774Y-80668187D01*
X163620771Y-80668182D01*
X163544114Y-80553458D01*
X163446541Y-80455885D01*
X163331817Y-80379228D01*
X163331806Y-80379222D01*
X163204328Y-80326420D01*
X163068995Y-80299500D01*
X163068993Y-80299500D01*
X162931007Y-80299500D01*
X162931004Y-80299500D01*
X162795672Y-80326420D01*
X162795670Y-80326420D01*
X162668193Y-80379222D01*
X162668182Y-80379228D01*
X162553458Y-80455885D01*
X162455885Y-80553458D01*
X162379228Y-80668182D01*
X162379222Y-80668193D01*
X162326420Y-80795670D01*
X162326420Y-80795672D01*
X162299500Y-80931004D01*
X160558222Y-80931004D01*
X160459344Y-80819395D01*
X160459341Y-80819392D01*
X160459334Y-80819384D01*
X160010616Y-80370666D01*
X159535623Y-79949859D01*
X159036090Y-79558500D01*
X159036071Y-79558486D01*
X159036063Y-79558481D01*
X158513862Y-79198030D01*
X158513817Y-79198002D01*
X157970803Y-78869739D01*
X157970788Y-78869730D01*
X157970774Y-78869722D01*
X157408878Y-78574816D01*
X156855321Y-78325680D01*
X156830216Y-78314381D01*
X156830213Y-78314380D01*
X156830202Y-78314375D01*
X156374712Y-78141630D01*
X156236865Y-78089351D01*
X156236858Y-78089349D01*
X156236856Y-78089348D01*
X156073943Y-78038582D01*
X155631014Y-77900560D01*
X155631007Y-77900558D01*
X155631006Y-77900558D01*
X155476970Y-77862591D01*
X155014877Y-77748695D01*
X155014832Y-77748686D01*
X154390675Y-77634304D01*
X153760722Y-77557815D01*
X153760696Y-77557813D01*
X153562438Y-77545821D01*
X153127303Y-77519500D01*
X153127292Y-77519500D01*
X152492708Y-77519500D01*
X152492697Y-77519500D01*
X151859303Y-77557813D01*
X151859277Y-77557815D01*
X151229324Y-77634304D01*
X150605167Y-77748686D01*
X150605122Y-77748695D01*
X149988998Y-77900557D01*
X149988985Y-77900560D01*
X149383150Y-78089346D01*
X149383134Y-78089351D01*
X149035063Y-78221358D01*
X148789798Y-78314375D01*
X148789791Y-78314377D01*
X148789786Y-78314380D01*
X148789783Y-78314381D01*
X148211119Y-78574817D01*
X147649233Y-78869718D01*
X147649196Y-78869739D01*
X147106182Y-79198002D01*
X147106137Y-79198030D01*
X146583936Y-79558481D01*
X146583902Y-79558506D01*
X146084381Y-79949855D01*
X145609387Y-80370663D01*
X145160663Y-80819387D01*
X144739855Y-81294381D01*
X144348506Y-81793902D01*
X144348481Y-81793936D01*
X143988030Y-82316137D01*
X143988002Y-82316182D01*
X143659739Y-82859196D01*
X143659718Y-82859233D01*
X143364817Y-83421119D01*
X143104381Y-83999783D01*
X143104380Y-83999786D01*
X143104375Y-83999798D01*
X143046356Y-84152781D01*
X142879351Y-84593134D01*
X142879346Y-84593150D01*
X142690560Y-85198985D01*
X142690557Y-85198998D01*
X142538695Y-85815122D01*
X142538686Y-85815167D01*
X142424304Y-86439324D01*
X142347815Y-87069277D01*
X142347813Y-87069303D01*
X142309500Y-87702696D01*
X110500500Y-87702696D01*
X110500500Y-84897644D01*
X111962000Y-84897644D01*
X111962000Y-85102355D01*
X111994021Y-85304529D01*
X112057280Y-85499219D01*
X112150212Y-85681609D01*
X112150214Y-85681613D01*
X112270529Y-85847213D01*
X112270531Y-85847215D01*
X112270534Y-85847219D01*
X112415281Y-85991966D01*
X112415284Y-85991968D01*
X112415286Y-85991970D01*
X112580886Y-86112285D01*
X112580890Y-86112287D01*
X112763281Y-86205220D01*
X112957966Y-86268477D01*
X112957967Y-86268477D01*
X112957970Y-86268478D01*
X113160145Y-86300500D01*
X113160148Y-86300500D01*
X113364855Y-86300500D01*
X113567029Y-86268478D01*
X113567030Y-86268477D01*
X113567034Y-86268477D01*
X113761719Y-86205220D01*
X113944110Y-86112287D01*
X114109719Y-85991966D01*
X114254466Y-85847219D01*
X114374787Y-85681610D01*
X114467720Y-85499219D01*
X114530977Y-85304534D01*
X114547693Y-85198998D01*
X114563000Y-85102355D01*
X114563000Y-84897644D01*
X114530978Y-84695470D01*
X114530977Y-84695466D01*
X114467720Y-84500781D01*
X114374787Y-84318390D01*
X114374785Y-84318386D01*
X114254470Y-84152786D01*
X114254468Y-84152784D01*
X114254466Y-84152781D01*
X114109719Y-84008034D01*
X114109715Y-84008031D01*
X114109713Y-84008029D01*
X113944113Y-83887714D01*
X113944109Y-83887712D01*
X113761719Y-83794780D01*
X113567029Y-83731521D01*
X113364855Y-83699500D01*
X113364852Y-83699500D01*
X113160148Y-83699500D01*
X113160145Y-83699500D01*
X112957970Y-83731521D01*
X112763280Y-83794780D01*
X112580890Y-83887712D01*
X112580886Y-83887714D01*
X112415286Y-84008029D01*
X112270529Y-84152786D01*
X112150214Y-84318386D01*
X112150212Y-84318390D01*
X112057280Y-84500780D01*
X111994021Y-84695470D01*
X111962000Y-84897644D01*
X110500500Y-84897644D01*
X110500500Y-81870099D01*
X121612000Y-81870099D01*
X121612000Y-82129900D01*
X121652638Y-82386488D01*
X121675187Y-82455885D01*
X121732921Y-82633572D01*
X121796302Y-82757964D01*
X121849441Y-82862256D01*
X121850866Y-82865051D01*
X122003569Y-83075229D01*
X122187271Y-83258931D01*
X122397449Y-83411634D01*
X122628928Y-83529579D01*
X122876007Y-83609860D01*
X122876008Y-83609860D01*
X122876011Y-83609861D01*
X123132600Y-83650500D01*
X123132603Y-83650500D01*
X123392400Y-83650500D01*
X123648988Y-83609861D01*
X123648989Y-83609860D01*
X123648993Y-83609860D01*
X123896072Y-83529579D01*
X124127551Y-83411634D01*
X124337729Y-83258931D01*
X124521431Y-83075229D01*
X124626216Y-82931004D01*
X140199500Y-82931004D01*
X140199500Y-83068995D01*
X140226420Y-83204327D01*
X140226420Y-83204329D01*
X140279222Y-83331806D01*
X140279228Y-83331817D01*
X140355885Y-83446541D01*
X140453458Y-83544114D01*
X140568182Y-83620771D01*
X140568193Y-83620777D01*
X140615283Y-83640282D01*
X140695672Y-83673580D01*
X140831007Y-83700500D01*
X140831008Y-83700500D01*
X140968992Y-83700500D01*
X140968993Y-83700500D01*
X141104328Y-83673580D01*
X141231811Y-83620775D01*
X141346542Y-83544114D01*
X141444114Y-83446542D01*
X141520775Y-83331811D01*
X141573580Y-83204328D01*
X141600500Y-83068993D01*
X141600500Y-82931007D01*
X141573580Y-82795672D01*
X141520775Y-82668189D01*
X141520774Y-82668187D01*
X141520771Y-82668182D01*
X141444114Y-82553458D01*
X141346541Y-82455885D01*
X141231817Y-82379228D01*
X141231806Y-82379222D01*
X141104328Y-82326420D01*
X140968995Y-82299500D01*
X140968993Y-82299500D01*
X140831007Y-82299500D01*
X140831004Y-82299500D01*
X140695672Y-82326420D01*
X140695670Y-82326420D01*
X140568193Y-82379222D01*
X140568182Y-82379228D01*
X140453458Y-82455885D01*
X140355885Y-82553458D01*
X140279228Y-82668182D01*
X140279222Y-82668193D01*
X140226420Y-82795670D01*
X140226420Y-82795672D01*
X140199500Y-82931004D01*
X124626216Y-82931004D01*
X124674134Y-82865051D01*
X124792079Y-82633572D01*
X124872360Y-82386493D01*
X124873512Y-82379222D01*
X124913000Y-82129900D01*
X124913000Y-81870099D01*
X124872361Y-81613511D01*
X124838333Y-81508782D01*
X124792079Y-81366428D01*
X124674134Y-81134949D01*
X124525960Y-80931004D01*
X140299500Y-80931004D01*
X140299500Y-81068995D01*
X140326420Y-81204327D01*
X140326420Y-81204329D01*
X140379222Y-81331806D01*
X140379228Y-81331817D01*
X140455885Y-81446541D01*
X140553458Y-81544114D01*
X140668182Y-81620771D01*
X140668193Y-81620777D01*
X140715283Y-81640282D01*
X140795672Y-81673580D01*
X140931007Y-81700500D01*
X140931008Y-81700500D01*
X141068992Y-81700500D01*
X141068993Y-81700500D01*
X141204328Y-81673580D01*
X141331811Y-81620775D01*
X141446542Y-81544114D01*
X141544114Y-81446542D01*
X141620775Y-81331811D01*
X141673580Y-81204328D01*
X141700500Y-81068993D01*
X141700500Y-80931007D01*
X141673580Y-80795672D01*
X141620775Y-80668189D01*
X141620774Y-80668187D01*
X141620771Y-80668182D01*
X141544114Y-80553458D01*
X141446541Y-80455885D01*
X141331817Y-80379228D01*
X141331806Y-80379222D01*
X141204328Y-80326420D01*
X141068995Y-80299500D01*
X141068993Y-80299500D01*
X140931007Y-80299500D01*
X140931004Y-80299500D01*
X140795672Y-80326420D01*
X140795670Y-80326420D01*
X140668193Y-80379222D01*
X140668182Y-80379228D01*
X140553458Y-80455885D01*
X140455885Y-80553458D01*
X140379228Y-80668182D01*
X140379222Y-80668193D01*
X140326420Y-80795670D01*
X140326420Y-80795672D01*
X140299500Y-80931004D01*
X124525960Y-80931004D01*
X124521431Y-80924771D01*
X124337729Y-80741069D01*
X124127551Y-80588366D01*
X124127550Y-80588365D01*
X124127548Y-80588364D01*
X124020464Y-80533802D01*
X123896072Y-80470421D01*
X123896069Y-80470420D01*
X123896067Y-80470419D01*
X123648988Y-80390138D01*
X123392400Y-80349500D01*
X123392397Y-80349500D01*
X123132603Y-80349500D01*
X123132600Y-80349500D01*
X122876011Y-80390138D01*
X122628932Y-80470419D01*
X122397451Y-80588364D01*
X122187272Y-80741068D01*
X122003568Y-80924772D01*
X121850864Y-81134951D01*
X121732919Y-81366432D01*
X121652638Y-81613511D01*
X121612000Y-81870099D01*
X110500500Y-81870099D01*
X110500500Y-76878008D01*
X121712500Y-76878008D01*
X121712500Y-77121991D01*
X121750664Y-77362954D01*
X121826059Y-77594994D01*
X121936820Y-77812376D01*
X121936822Y-77812380D01*
X122063554Y-77986811D01*
X122528668Y-77521696D01*
X122563426Y-77573715D01*
X122688785Y-77699074D01*
X122740800Y-77733829D01*
X122275687Y-78198943D01*
X122450125Y-78325680D01*
X122667505Y-78436440D01*
X122899545Y-78511835D01*
X123140509Y-78550000D01*
X123384491Y-78550000D01*
X123625454Y-78511835D01*
X123857494Y-78436440D01*
X124074874Y-78325680D01*
X124249311Y-78198943D01*
X123784198Y-77733830D01*
X123836215Y-77699074D01*
X123961574Y-77573715D01*
X123996330Y-77521698D01*
X124461443Y-77986811D01*
X124588180Y-77812374D01*
X124698940Y-77594994D01*
X124752224Y-77431004D01*
X138179500Y-77431004D01*
X138179500Y-77568995D01*
X138206420Y-77704327D01*
X138206420Y-77704329D01*
X138259222Y-77831806D01*
X138259228Y-77831817D01*
X138335885Y-77946541D01*
X138433458Y-78044114D01*
X138548182Y-78120771D01*
X138548193Y-78120777D01*
X138595283Y-78140282D01*
X138675672Y-78173580D01*
X138811007Y-78200500D01*
X138811008Y-78200500D01*
X138948992Y-78200500D01*
X138948993Y-78200500D01*
X139084328Y-78173580D01*
X139211811Y-78120775D01*
X139326542Y-78044114D01*
X139424114Y-77946542D01*
X139500775Y-77831811D01*
X139553580Y-77704328D01*
X139580500Y-77568993D01*
X139580500Y-77451863D01*
X160199500Y-77451863D01*
X160199500Y-77589854D01*
X160226420Y-77725186D01*
X160226420Y-77725188D01*
X160279222Y-77852665D01*
X160279228Y-77852676D01*
X160355885Y-77967400D01*
X160453458Y-78064973D01*
X160568182Y-78141630D01*
X160568193Y-78141636D01*
X160615283Y-78161141D01*
X160695672Y-78194439D01*
X160831007Y-78221359D01*
X160831008Y-78221359D01*
X160968992Y-78221359D01*
X160968993Y-78221359D01*
X161104328Y-78194439D01*
X161231811Y-78141634D01*
X161346542Y-78064973D01*
X161444114Y-77967401D01*
X161520775Y-77852670D01*
X161573580Y-77725187D01*
X161600500Y-77589852D01*
X161600500Y-77451866D01*
X161573580Y-77316531D01*
X161520775Y-77189048D01*
X161520774Y-77189046D01*
X161520771Y-77189041D01*
X161444114Y-77074317D01*
X161346541Y-76976744D01*
X161231817Y-76900087D01*
X161231806Y-76900081D01*
X161104328Y-76847279D01*
X160968995Y-76820359D01*
X160968993Y-76820359D01*
X160831007Y-76820359D01*
X160831004Y-76820359D01*
X160695672Y-76847279D01*
X160695670Y-76847279D01*
X160568193Y-76900081D01*
X160568182Y-76900087D01*
X160453458Y-76976744D01*
X160355885Y-77074317D01*
X160279228Y-77189041D01*
X160279222Y-77189052D01*
X160226420Y-77316529D01*
X160226420Y-77316531D01*
X160199500Y-77451863D01*
X139580500Y-77451863D01*
X139580500Y-77431007D01*
X139553580Y-77295672D01*
X139500775Y-77168189D01*
X139500774Y-77168187D01*
X139500771Y-77168182D01*
X139424114Y-77053458D01*
X139326541Y-76955885D01*
X139211817Y-76879228D01*
X139211806Y-76879222D01*
X139084328Y-76826420D01*
X138948995Y-76799500D01*
X138948993Y-76799500D01*
X138811007Y-76799500D01*
X138811004Y-76799500D01*
X138675672Y-76826420D01*
X138675670Y-76826420D01*
X138548193Y-76879222D01*
X138548182Y-76879228D01*
X138433458Y-76955885D01*
X138335885Y-77053458D01*
X138259228Y-77168182D01*
X138259222Y-77168193D01*
X138206420Y-77295670D01*
X138206420Y-77295672D01*
X138179500Y-77431004D01*
X124752224Y-77431004D01*
X124763744Y-77395550D01*
X124763745Y-77395547D01*
X124774334Y-77362960D01*
X124812500Y-77121991D01*
X124812500Y-76878008D01*
X124774335Y-76637045D01*
X124698940Y-76405005D01*
X124588180Y-76187625D01*
X124461443Y-76013187D01*
X123996329Y-76478300D01*
X123961574Y-76426285D01*
X123836215Y-76300926D01*
X123784196Y-76266168D01*
X124249311Y-75801054D01*
X124074880Y-75674322D01*
X124074876Y-75674320D01*
X123857494Y-75563559D01*
X123625454Y-75488164D01*
X123384491Y-75450000D01*
X123140509Y-75450000D01*
X122899545Y-75488164D01*
X122667505Y-75563559D01*
X122450123Y-75674320D01*
X122450119Y-75674322D01*
X122275687Y-75801054D01*
X122740802Y-76266169D01*
X122688785Y-76300926D01*
X122563426Y-76426285D01*
X122528669Y-76478302D01*
X122063554Y-76013187D01*
X121936822Y-76187619D01*
X121936820Y-76187623D01*
X121826059Y-76405005D01*
X121750664Y-76637045D01*
X121712500Y-76878008D01*
X110500500Y-76878008D01*
X110500500Y-73897644D01*
X111962000Y-73897644D01*
X111962000Y-74102355D01*
X111994021Y-74304529D01*
X112057280Y-74499219D01*
X112150212Y-74681609D01*
X112150214Y-74681613D01*
X112270529Y-74847213D01*
X112270531Y-74847215D01*
X112270534Y-74847219D01*
X112415281Y-74991966D01*
X112415284Y-74991968D01*
X112415286Y-74991970D01*
X112580886Y-75112285D01*
X112580890Y-75112287D01*
X112763281Y-75205220D01*
X112957966Y-75268477D01*
X112957967Y-75268477D01*
X112957970Y-75268478D01*
X113160145Y-75300500D01*
X113160148Y-75300500D01*
X113364855Y-75300500D01*
X113567029Y-75268478D01*
X113567030Y-75268477D01*
X113567034Y-75268477D01*
X113761719Y-75205220D01*
X113944110Y-75112287D01*
X114109719Y-74991966D01*
X114254466Y-74847219D01*
X114374787Y-74681610D01*
X114467720Y-74499219D01*
X114530977Y-74304534D01*
X114563000Y-74102352D01*
X114563000Y-73897648D01*
X114563000Y-73897644D01*
X114530978Y-73695470D01*
X114530977Y-73695466D01*
X114467720Y-73500781D01*
X114374787Y-73318390D01*
X114374785Y-73318386D01*
X114254470Y-73152786D01*
X114254468Y-73152784D01*
X114254466Y-73152781D01*
X114109719Y-73008034D01*
X114107243Y-73006235D01*
X114107242Y-73006234D01*
X114003697Y-72931004D01*
X142299500Y-72931004D01*
X142299500Y-73068995D01*
X142316167Y-73152781D01*
X142325658Y-73200499D01*
X142326420Y-73204327D01*
X142326420Y-73204329D01*
X142379222Y-73331806D01*
X142379228Y-73331817D01*
X142455885Y-73446541D01*
X142553458Y-73544114D01*
X142668182Y-73620771D01*
X142668193Y-73620777D01*
X142715283Y-73640282D01*
X142795672Y-73673580D01*
X142931007Y-73700500D01*
X142931008Y-73700500D01*
X143068992Y-73700500D01*
X143068993Y-73700500D01*
X143204328Y-73673580D01*
X143331811Y-73620775D01*
X143446542Y-73544114D01*
X143544114Y-73446542D01*
X143620775Y-73331811D01*
X143673580Y-73204328D01*
X143700500Y-73068993D01*
X143700500Y-72931007D01*
X143673580Y-72795672D01*
X143635744Y-72704327D01*
X143620777Y-72668193D01*
X143620771Y-72668182D01*
X143544114Y-72553458D01*
X143446541Y-72455885D01*
X143409304Y-72431004D01*
X149299500Y-72431004D01*
X149299500Y-72568995D01*
X149326420Y-72704327D01*
X149326420Y-72704329D01*
X149379222Y-72831806D01*
X149379228Y-72831817D01*
X149455885Y-72946541D01*
X149553458Y-73044114D01*
X149668182Y-73120771D01*
X149668193Y-73120777D01*
X149715283Y-73140282D01*
X149795672Y-73173580D01*
X149931007Y-73200500D01*
X149931008Y-73200500D01*
X150068992Y-73200500D01*
X150068993Y-73200500D01*
X150204328Y-73173580D01*
X150331811Y-73120775D01*
X150446542Y-73044114D01*
X150544114Y-72946542D01*
X150554496Y-72931004D01*
X153299500Y-72931004D01*
X153299500Y-73068995D01*
X153316167Y-73152781D01*
X153325658Y-73200499D01*
X153326420Y-73204327D01*
X153326420Y-73204329D01*
X153379222Y-73331806D01*
X153379228Y-73331817D01*
X153455885Y-73446541D01*
X153553458Y-73544114D01*
X153668182Y-73620771D01*
X153668193Y-73620777D01*
X153715283Y-73640282D01*
X153795672Y-73673580D01*
X153931007Y-73700500D01*
X153931008Y-73700500D01*
X154068992Y-73700500D01*
X154068993Y-73700500D01*
X154204328Y-73673580D01*
X154331811Y-73620775D01*
X154446542Y-73544114D01*
X154544114Y-73446542D01*
X154620775Y-73331811D01*
X154673580Y-73204328D01*
X154700500Y-73068993D01*
X154700500Y-72931007D01*
X154700499Y-72931004D01*
X156299500Y-72931004D01*
X156299500Y-73068995D01*
X156316167Y-73152781D01*
X156325658Y-73200499D01*
X156326420Y-73204327D01*
X156326420Y-73204329D01*
X156379222Y-73331806D01*
X156379228Y-73331817D01*
X156455885Y-73446541D01*
X156553458Y-73544114D01*
X156668182Y-73620771D01*
X156668193Y-73620777D01*
X156715283Y-73640282D01*
X156795672Y-73673580D01*
X156931007Y-73700500D01*
X156931008Y-73700500D01*
X157068992Y-73700500D01*
X157068993Y-73700500D01*
X157204328Y-73673580D01*
X157331811Y-73620775D01*
X157446542Y-73544114D01*
X157544114Y-73446542D01*
X157620775Y-73331811D01*
X157673580Y-73204328D01*
X157700500Y-73068993D01*
X157700500Y-72931007D01*
X157673580Y-72795672D01*
X157635744Y-72704327D01*
X157620777Y-72668193D01*
X157620771Y-72668182D01*
X157544114Y-72553458D01*
X157446541Y-72455885D01*
X157331817Y-72379228D01*
X157331806Y-72379222D01*
X157204328Y-72326420D01*
X157068995Y-72299500D01*
X157068993Y-72299500D01*
X156931007Y-72299500D01*
X156931004Y-72299500D01*
X156795672Y-72326420D01*
X156795670Y-72326420D01*
X156668193Y-72379222D01*
X156668182Y-72379228D01*
X156553458Y-72455885D01*
X156455885Y-72553458D01*
X156379228Y-72668182D01*
X156379222Y-72668193D01*
X156326420Y-72795670D01*
X156326420Y-72795672D01*
X156299500Y-72931004D01*
X154700499Y-72931004D01*
X154673580Y-72795672D01*
X154635744Y-72704327D01*
X154620777Y-72668193D01*
X154620771Y-72668182D01*
X154544114Y-72553458D01*
X154446541Y-72455885D01*
X154331817Y-72379228D01*
X154331806Y-72379222D01*
X154204328Y-72326420D01*
X154068995Y-72299500D01*
X154068993Y-72299500D01*
X153931007Y-72299500D01*
X153931004Y-72299500D01*
X153795672Y-72326420D01*
X153795670Y-72326420D01*
X153668193Y-72379222D01*
X153668182Y-72379228D01*
X153553458Y-72455885D01*
X153455885Y-72553458D01*
X153379228Y-72668182D01*
X153379222Y-72668193D01*
X153326420Y-72795670D01*
X153326420Y-72795672D01*
X153299500Y-72931004D01*
X150554496Y-72931004D01*
X150583422Y-72887714D01*
X150594496Y-72871141D01*
X150620771Y-72831818D01*
X150620777Y-72831806D01*
X150635745Y-72795670D01*
X150673580Y-72704328D01*
X150700500Y-72568993D01*
X150700500Y-72431007D01*
X150673580Y-72295672D01*
X150620775Y-72168189D01*
X150620774Y-72168187D01*
X150620771Y-72168182D01*
X150544114Y-72053458D01*
X150446541Y-71955885D01*
X150331817Y-71879228D01*
X150331806Y-71879222D01*
X150204328Y-71826420D01*
X150068995Y-71799500D01*
X150068993Y-71799500D01*
X149931007Y-71799500D01*
X149931004Y-71799500D01*
X149795672Y-71826420D01*
X149795670Y-71826420D01*
X149668193Y-71879222D01*
X149668182Y-71879228D01*
X149553458Y-71955885D01*
X149455885Y-72053458D01*
X149379228Y-72168182D01*
X149379222Y-72168193D01*
X149326420Y-72295670D01*
X149326420Y-72295672D01*
X149299500Y-72431004D01*
X143409304Y-72431004D01*
X143331817Y-72379228D01*
X143331806Y-72379222D01*
X143204328Y-72326420D01*
X143068995Y-72299500D01*
X143068993Y-72299500D01*
X142931007Y-72299500D01*
X142931004Y-72299500D01*
X142795672Y-72326420D01*
X142795670Y-72326420D01*
X142668193Y-72379222D01*
X142668182Y-72379228D01*
X142553458Y-72455885D01*
X142455885Y-72553458D01*
X142379228Y-72668182D01*
X142379222Y-72668193D01*
X142326420Y-72795670D01*
X142326420Y-72795672D01*
X142299500Y-72931004D01*
X114003697Y-72931004D01*
X113944113Y-72887714D01*
X113944109Y-72887712D01*
X113761719Y-72794780D01*
X113567029Y-72731521D01*
X113364855Y-72699500D01*
X113364852Y-72699500D01*
X113160148Y-72699500D01*
X113160145Y-72699500D01*
X112957970Y-72731521D01*
X112763280Y-72794780D01*
X112580890Y-72887712D01*
X112580886Y-72887714D01*
X112415286Y-73008029D01*
X112270529Y-73152786D01*
X112150214Y-73318386D01*
X112150212Y-73318390D01*
X112057280Y-73500780D01*
X111994021Y-73695470D01*
X111962000Y-73897644D01*
X110500500Y-73897644D01*
X110500500Y-71431004D01*
X135699500Y-71431004D01*
X135699500Y-71568995D01*
X135726420Y-71704327D01*
X135726420Y-71704329D01*
X135779222Y-71831806D01*
X135779228Y-71831817D01*
X135855885Y-71946541D01*
X135953458Y-72044114D01*
X136068182Y-72120771D01*
X136068193Y-72120777D01*
X136115283Y-72140282D01*
X136195672Y-72173580D01*
X136331007Y-72200500D01*
X136331008Y-72200500D01*
X136468992Y-72200500D01*
X136468993Y-72200500D01*
X136604328Y-72173580D01*
X136731811Y-72120775D01*
X136846542Y-72044114D01*
X136944114Y-71946542D01*
X137020775Y-71831811D01*
X137062530Y-71731004D01*
X139418250Y-71731004D01*
X139418250Y-71868995D01*
X139445170Y-72004327D01*
X139445170Y-72004329D01*
X139497972Y-72131806D01*
X139497978Y-72131817D01*
X139574635Y-72246541D01*
X139672208Y-72344114D01*
X139786932Y-72420771D01*
X139786943Y-72420777D01*
X139834033Y-72440282D01*
X139914422Y-72473580D01*
X140049757Y-72500500D01*
X140049758Y-72500500D01*
X140187742Y-72500500D01*
X140187743Y-72500500D01*
X140323078Y-72473580D01*
X140450561Y-72420775D01*
X140565292Y-72344114D01*
X140662864Y-72246542D01*
X140739525Y-72131811D01*
X140792330Y-72004328D01*
X140819250Y-71868993D01*
X140819250Y-71731007D01*
X140792330Y-71595672D01*
X140739525Y-71468189D01*
X140739524Y-71468187D01*
X140739521Y-71468182D01*
X140662864Y-71353458D01*
X140565291Y-71255885D01*
X140450567Y-71179228D01*
X140450556Y-71179222D01*
X140323078Y-71126420D01*
X140187745Y-71099500D01*
X140187743Y-71099500D01*
X140049757Y-71099500D01*
X140049754Y-71099500D01*
X139914422Y-71126420D01*
X139914420Y-71126420D01*
X139786943Y-71179222D01*
X139786932Y-71179228D01*
X139672208Y-71255885D01*
X139574635Y-71353458D01*
X139497978Y-71468182D01*
X139497972Y-71468193D01*
X139445170Y-71595670D01*
X139445170Y-71595672D01*
X139418250Y-71731004D01*
X137062530Y-71731004D01*
X137073580Y-71704328D01*
X137100500Y-71568993D01*
X137100500Y-71431007D01*
X137073580Y-71295672D01*
X137052224Y-71244114D01*
X137020777Y-71168193D01*
X137020771Y-71168182D01*
X136944114Y-71053458D01*
X136846541Y-70955885D01*
X136731817Y-70879228D01*
X136731806Y-70879222D01*
X136604328Y-70826420D01*
X136468995Y-70799500D01*
X136468993Y-70799500D01*
X136331007Y-70799500D01*
X136331004Y-70799500D01*
X136195672Y-70826420D01*
X136195670Y-70826420D01*
X136068193Y-70879222D01*
X136068182Y-70879228D01*
X135953458Y-70955885D01*
X135855885Y-71053458D01*
X135779228Y-71168182D01*
X135779222Y-71168193D01*
X135726420Y-71295670D01*
X135726420Y-71295672D01*
X135699500Y-71431004D01*
X110500500Y-71431004D01*
X110500500Y-67002984D01*
X110500681Y-66997007D01*
X110503407Y-66951944D01*
X110518362Y-66704688D01*
X110519801Y-66692837D01*
X110530111Y-66636579D01*
X117124500Y-66636579D01*
X117124500Y-66833420D01*
X117155289Y-67027821D01*
X117176928Y-67094417D01*
X117216116Y-67215025D01*
X117305476Y-67390405D01*
X117421172Y-67549646D01*
X117560354Y-67688828D01*
X117714399Y-67800749D01*
X117719598Y-67804526D01*
X117719600Y-67804527D01*
X117783902Y-67837290D01*
X117827167Y-67880554D01*
X117836739Y-67940986D01*
X117808962Y-67995503D01*
X117754446Y-68023281D01*
X117738958Y-68024500D01*
X117493478Y-68024500D01*
X117493476Y-68024501D01*
X117399700Y-68039352D01*
X117399695Y-68039354D01*
X117286659Y-68096949D01*
X117196949Y-68186659D01*
X117139354Y-68299695D01*
X117124500Y-68393478D01*
X117124500Y-70156521D01*
X117124501Y-70156523D01*
X117139352Y-70250299D01*
X117139354Y-70250304D01*
X117196950Y-70363342D01*
X117286658Y-70453050D01*
X117399696Y-70510646D01*
X117493481Y-70525500D01*
X119256518Y-70525499D01*
X119256521Y-70525499D01*
X119256522Y-70525498D01*
X119303411Y-70518072D01*
X119350299Y-70510647D01*
X119350299Y-70510646D01*
X119350304Y-70510646D01*
X119463342Y-70453050D01*
X119553050Y-70363342D01*
X119610646Y-70250304D01*
X119625500Y-70156519D01*
X119625499Y-69911039D01*
X119644406Y-69852852D01*
X119693906Y-69816888D01*
X119755091Y-69816887D01*
X119804591Y-69852851D01*
X119812708Y-69866097D01*
X119845469Y-69930394D01*
X119845473Y-69930401D01*
X119845474Y-69930402D01*
X119845476Y-69930405D01*
X119961172Y-70089646D01*
X120100354Y-70228828D01*
X120259595Y-70344524D01*
X120434975Y-70433884D01*
X120622174Y-70494709D01*
X120622175Y-70494709D01*
X120622178Y-70494710D01*
X120816580Y-70525500D01*
X120816583Y-70525500D01*
X121013420Y-70525500D01*
X121207821Y-70494710D01*
X121207822Y-70494709D01*
X121207826Y-70494709D01*
X121395025Y-70433884D01*
X121570405Y-70344524D01*
X121729646Y-70228828D01*
X121868828Y-70089646D01*
X121984524Y-69930405D01*
X122073884Y-69755025D01*
X122090845Y-69702823D01*
X122126809Y-69653324D01*
X122185000Y-69634417D01*
X122243191Y-69653324D01*
X122279155Y-69702824D01*
X122296116Y-69755025D01*
X122385473Y-69930401D01*
X122385476Y-69930405D01*
X122501172Y-70089646D01*
X122640354Y-70228828D01*
X122799595Y-70344524D01*
X122974975Y-70433884D01*
X123162174Y-70494709D01*
X123162175Y-70494709D01*
X123162178Y-70494710D01*
X123356580Y-70525500D01*
X123356583Y-70525500D01*
X123553420Y-70525500D01*
X123747821Y-70494710D01*
X123747822Y-70494709D01*
X123747826Y-70494709D01*
X123935025Y-70433884D01*
X124110405Y-70344524D01*
X124269646Y-70228828D01*
X124408828Y-70089646D01*
X124524524Y-69930405D01*
X124613884Y-69755025D01*
X124630845Y-69702823D01*
X124666809Y-69653324D01*
X124725000Y-69634417D01*
X124783191Y-69653324D01*
X124819155Y-69702824D01*
X124836116Y-69755025D01*
X124925473Y-69930401D01*
X124925476Y-69930405D01*
X125041172Y-70089646D01*
X125180354Y-70228828D01*
X125339595Y-70344524D01*
X125514975Y-70433884D01*
X125702174Y-70494709D01*
X125702175Y-70494709D01*
X125702178Y-70494710D01*
X125896580Y-70525500D01*
X125896583Y-70525500D01*
X126093420Y-70525500D01*
X126287821Y-70494710D01*
X126287822Y-70494709D01*
X126287826Y-70494709D01*
X126475025Y-70433884D01*
X126650405Y-70344524D01*
X126809646Y-70228828D01*
X126948828Y-70089646D01*
X127064524Y-69930405D01*
X127153884Y-69755025D01*
X127214709Y-69567826D01*
X127218095Y-69546446D01*
X127245870Y-69491932D01*
X127300386Y-69464152D01*
X127360818Y-69473722D01*
X127404084Y-69516985D01*
X127411781Y-69540659D01*
X127412408Y-69540509D01*
X127413314Y-69544284D01*
X127469250Y-69716440D01*
X127551430Y-69877728D01*
X127622424Y-69975442D01*
X128091328Y-69506536D01*
X128134901Y-69582007D01*
X128227993Y-69675099D01*
X128303460Y-69718670D01*
X127834556Y-70187574D01*
X127834556Y-70187575D01*
X127932263Y-70258564D01*
X127932269Y-70258568D01*
X128093559Y-70340749D01*
X128265710Y-70396683D01*
X128444490Y-70425000D01*
X128625510Y-70425000D01*
X128804289Y-70396683D01*
X128976440Y-70340749D01*
X129137730Y-70258568D01*
X129137735Y-70258564D01*
X129235442Y-70187575D01*
X129235442Y-70187574D01*
X128766538Y-69718670D01*
X128842007Y-69675099D01*
X128935099Y-69582007D01*
X128978670Y-69506538D01*
X129447574Y-69975442D01*
X129447575Y-69975442D01*
X129518564Y-69877735D01*
X129518568Y-69877730D01*
X129600749Y-69716440D01*
X129656685Y-69544284D01*
X129657592Y-69540509D01*
X129659178Y-69540889D01*
X129684105Y-69491944D01*
X129738616Y-69464155D01*
X129799050Y-69473714D01*
X129842323Y-69516970D01*
X129851904Y-69546445D01*
X129855290Y-69567822D01*
X129916116Y-69755025D01*
X130005473Y-69930401D01*
X130005476Y-69930405D01*
X130121172Y-70089646D01*
X130260354Y-70228828D01*
X130419595Y-70344524D01*
X130594975Y-70433884D01*
X130782174Y-70494709D01*
X130782175Y-70494709D01*
X130782178Y-70494710D01*
X130976580Y-70525500D01*
X130976583Y-70525500D01*
X131173420Y-70525500D01*
X131367821Y-70494710D01*
X131367822Y-70494709D01*
X131367826Y-70494709D01*
X131555025Y-70433884D01*
X131730405Y-70344524D01*
X131889646Y-70228828D01*
X132028828Y-70089646D01*
X132144524Y-69930405D01*
X132233884Y-69755025D01*
X132250845Y-69702823D01*
X132286809Y-69653324D01*
X132345000Y-69634417D01*
X132403191Y-69653324D01*
X132439155Y-69702824D01*
X132456116Y-69755025D01*
X132545473Y-69930401D01*
X132545476Y-69930405D01*
X132661172Y-70089646D01*
X132800354Y-70228828D01*
X132959595Y-70344524D01*
X133134975Y-70433884D01*
X133322174Y-70494709D01*
X133322175Y-70494709D01*
X133322178Y-70494710D01*
X133516580Y-70525500D01*
X133516583Y-70525500D01*
X133713420Y-70525500D01*
X133907821Y-70494710D01*
X133907822Y-70494709D01*
X133907826Y-70494709D01*
X134095025Y-70433884D01*
X134270405Y-70344524D01*
X134429646Y-70228828D01*
X134568828Y-70089646D01*
X134684524Y-69930405D01*
X134773884Y-69755025D01*
X134790845Y-69702823D01*
X134826809Y-69653324D01*
X134885000Y-69634417D01*
X134943191Y-69653324D01*
X134979155Y-69702824D01*
X134996116Y-69755025D01*
X135085473Y-69930401D01*
X135085476Y-69930405D01*
X135201172Y-70089646D01*
X135340354Y-70228828D01*
X135499595Y-70344524D01*
X135674975Y-70433884D01*
X135862174Y-70494709D01*
X135862175Y-70494709D01*
X135862178Y-70494710D01*
X136056580Y-70525500D01*
X136056583Y-70525500D01*
X136253420Y-70525500D01*
X136447821Y-70494710D01*
X136447822Y-70494709D01*
X136447826Y-70494709D01*
X136635025Y-70433884D01*
X136810405Y-70344524D01*
X136969646Y-70228828D01*
X137108828Y-70089646D01*
X137224524Y-69930405D01*
X137313884Y-69755025D01*
X137330845Y-69702823D01*
X137366809Y-69653324D01*
X137425000Y-69634417D01*
X137483191Y-69653324D01*
X137519155Y-69702824D01*
X137536116Y-69755025D01*
X137625473Y-69930401D01*
X137625476Y-69930405D01*
X137741172Y-70089646D01*
X137880354Y-70228828D01*
X138039595Y-70344524D01*
X138096928Y-70373736D01*
X138140192Y-70416999D01*
X138149764Y-70477431D01*
X138145995Y-70490844D01*
X138146581Y-70491022D01*
X138145170Y-70495672D01*
X138118250Y-70631004D01*
X138118250Y-70768995D01*
X138145170Y-70904327D01*
X138145170Y-70904329D01*
X138197972Y-71031806D01*
X138197978Y-71031817D01*
X138274635Y-71146541D01*
X138372208Y-71244114D01*
X138486932Y-71320771D01*
X138486943Y-71320777D01*
X138534033Y-71340282D01*
X138614422Y-71373580D01*
X138749757Y-71400500D01*
X138749758Y-71400500D01*
X138887742Y-71400500D01*
X138887743Y-71400500D01*
X139023078Y-71373580D01*
X139150561Y-71320775D01*
X139265292Y-71244114D01*
X139362864Y-71146542D01*
X139439525Y-71031811D01*
X139492330Y-70904328D01*
X139519250Y-70768993D01*
X139519250Y-70631007D01*
X139492330Y-70495672D01*
X139441239Y-70372329D01*
X139436439Y-70311334D01*
X139468409Y-70259165D01*
X139474502Y-70254360D01*
X139509646Y-70228828D01*
X139648828Y-70089646D01*
X139764524Y-69930405D01*
X139853884Y-69755025D01*
X139870845Y-69702823D01*
X139906809Y-69653324D01*
X139965000Y-69634417D01*
X140023191Y-69653324D01*
X140059155Y-69702824D01*
X140076116Y-69755025D01*
X140165473Y-69930401D01*
X140165476Y-69930405D01*
X140281172Y-70089646D01*
X140420354Y-70228828D01*
X140579595Y-70344524D01*
X140626048Y-70368193D01*
X140754975Y-70433884D01*
X140757271Y-70434835D01*
X140757906Y-70435377D01*
X140758441Y-70435650D01*
X140758375Y-70435778D01*
X140803797Y-70474571D01*
X140818082Y-70534066D01*
X140816485Y-70545613D01*
X140799500Y-70631001D01*
X140799500Y-70768995D01*
X140826420Y-70904327D01*
X140826420Y-70904329D01*
X140879222Y-71031806D01*
X140879228Y-71031817D01*
X140955885Y-71146541D01*
X141053458Y-71244114D01*
X141168182Y-71320771D01*
X141168193Y-71320777D01*
X141215283Y-71340282D01*
X141295672Y-71373580D01*
X141431007Y-71400500D01*
X141431008Y-71400500D01*
X141568992Y-71400500D01*
X141568993Y-71400500D01*
X141704328Y-71373580D01*
X141831811Y-71320775D01*
X141946542Y-71244114D01*
X142044114Y-71146542D01*
X142120775Y-71031811D01*
X142173580Y-70904328D01*
X142200500Y-70768993D01*
X142200500Y-70631007D01*
X142173580Y-70495672D01*
X142140993Y-70416999D01*
X142120777Y-70368193D01*
X142120771Y-70368182D01*
X142081603Y-70309564D01*
X142064994Y-70250676D01*
X142086171Y-70193272D01*
X142093907Y-70184566D01*
X142188828Y-70089646D01*
X142304524Y-69930405D01*
X142393884Y-69755025D01*
X142410845Y-69702823D01*
X142446809Y-69653324D01*
X142505000Y-69634417D01*
X142563191Y-69653324D01*
X142599155Y-69702824D01*
X142616116Y-69755025D01*
X142705473Y-69930401D01*
X142705476Y-69930405D01*
X142821172Y-70089646D01*
X142960354Y-70228828D01*
X143119595Y-70344524D01*
X143294975Y-70433884D01*
X143482174Y-70494709D01*
X143482175Y-70494709D01*
X143482178Y-70494710D01*
X143676580Y-70525500D01*
X143676583Y-70525500D01*
X143873420Y-70525500D01*
X144067821Y-70494710D01*
X144067822Y-70494709D01*
X144067826Y-70494709D01*
X144255025Y-70433884D01*
X144430405Y-70344524D01*
X144589646Y-70228828D01*
X144728828Y-70089646D01*
X144844524Y-69930405D01*
X144933884Y-69755025D01*
X144950845Y-69702823D01*
X144986809Y-69653324D01*
X145045000Y-69634417D01*
X145103191Y-69653324D01*
X145139155Y-69702824D01*
X145156116Y-69755025D01*
X145245473Y-69930401D01*
X145245476Y-69930405D01*
X145361172Y-70089646D01*
X145500354Y-70228828D01*
X145659595Y-70344524D01*
X145834975Y-70433884D01*
X146022174Y-70494709D01*
X146022175Y-70494709D01*
X146022178Y-70494710D01*
X146216580Y-70525500D01*
X146216583Y-70525500D01*
X146413420Y-70525500D01*
X146607821Y-70494710D01*
X146607822Y-70494709D01*
X146607826Y-70494709D01*
X146795025Y-70433884D01*
X146970405Y-70344524D01*
X147129646Y-70228828D01*
X147268828Y-70089646D01*
X147384524Y-69930405D01*
X147473884Y-69755025D01*
X147534709Y-69567826D01*
X147538095Y-69546446D01*
X147565870Y-69491932D01*
X147620386Y-69464152D01*
X147680818Y-69473722D01*
X147724084Y-69516985D01*
X147731781Y-69540659D01*
X147732408Y-69540509D01*
X147733314Y-69544284D01*
X147789250Y-69716440D01*
X147871430Y-69877728D01*
X147942424Y-69975442D01*
X148411328Y-69506536D01*
X148454901Y-69582007D01*
X148547993Y-69675099D01*
X148623460Y-69718670D01*
X148154556Y-70187574D01*
X148154556Y-70187575D01*
X148252263Y-70258564D01*
X148252269Y-70258568D01*
X148413559Y-70340749D01*
X148585710Y-70396683D01*
X148764490Y-70425000D01*
X148945510Y-70425000D01*
X149124289Y-70396683D01*
X149296440Y-70340749D01*
X149457730Y-70258568D01*
X149457735Y-70258564D01*
X149555442Y-70187575D01*
X149555442Y-70187574D01*
X149086538Y-69718670D01*
X149162007Y-69675099D01*
X149255099Y-69582007D01*
X149298670Y-69506538D01*
X149767574Y-69975442D01*
X149767575Y-69975442D01*
X149838564Y-69877735D01*
X149838568Y-69877730D01*
X149920749Y-69716440D01*
X149976685Y-69544284D01*
X149977592Y-69540509D01*
X149979178Y-69540889D01*
X150004105Y-69491944D01*
X150058616Y-69464155D01*
X150119050Y-69473714D01*
X150162323Y-69516970D01*
X150171904Y-69546445D01*
X150175290Y-69567822D01*
X150236116Y-69755025D01*
X150325473Y-69930401D01*
X150325476Y-69930405D01*
X150441172Y-70089646D01*
X150580354Y-70228828D01*
X150739595Y-70344524D01*
X150914975Y-70433884D01*
X151102174Y-70494709D01*
X151102175Y-70494709D01*
X151102178Y-70494710D01*
X151296580Y-70525500D01*
X151296583Y-70525500D01*
X151493420Y-70525500D01*
X151687821Y-70494710D01*
X151687822Y-70494709D01*
X151687826Y-70494709D01*
X151875025Y-70433884D01*
X152050405Y-70344524D01*
X152209646Y-70228828D01*
X152348828Y-70089646D01*
X152464524Y-69930405D01*
X152553884Y-69755025D01*
X152570845Y-69702823D01*
X152606809Y-69653324D01*
X152665000Y-69634417D01*
X152723191Y-69653324D01*
X152759155Y-69702824D01*
X152776116Y-69755025D01*
X152865473Y-69930401D01*
X152865476Y-69930405D01*
X152981172Y-70089646D01*
X153120354Y-70228828D01*
X153279595Y-70344524D01*
X153454975Y-70433884D01*
X153642174Y-70494709D01*
X153642175Y-70494709D01*
X153642178Y-70494710D01*
X153836580Y-70525500D01*
X153836583Y-70525500D01*
X154033420Y-70525500D01*
X154227821Y-70494710D01*
X154227822Y-70494709D01*
X154227826Y-70494709D01*
X154415025Y-70433884D01*
X154590405Y-70344524D01*
X154749646Y-70228828D01*
X154888828Y-70089646D01*
X155004524Y-69930405D01*
X155093884Y-69755025D01*
X155110845Y-69702823D01*
X155146809Y-69653324D01*
X155205000Y-69634417D01*
X155263191Y-69653324D01*
X155299155Y-69702824D01*
X155316116Y-69755025D01*
X155405473Y-69930401D01*
X155405476Y-69930405D01*
X155521172Y-70089646D01*
X155660354Y-70228828D01*
X155819595Y-70344524D01*
X155994975Y-70433884D01*
X156182174Y-70494709D01*
X156182175Y-70494709D01*
X156182178Y-70494710D01*
X156376580Y-70525500D01*
X156376583Y-70525500D01*
X156573420Y-70525500D01*
X156767821Y-70494710D01*
X156767822Y-70494709D01*
X156767826Y-70494709D01*
X156955025Y-70433884D01*
X157130405Y-70344524D01*
X157289646Y-70228828D01*
X157428828Y-70089646D01*
X157544524Y-69930405D01*
X157633884Y-69755025D01*
X157650845Y-69702823D01*
X157686809Y-69653324D01*
X157745000Y-69634417D01*
X157803191Y-69653324D01*
X157839155Y-69702824D01*
X157856116Y-69755025D01*
X157945473Y-69930401D01*
X157945476Y-69930405D01*
X158061172Y-70089646D01*
X158200354Y-70228828D01*
X158359595Y-70344524D01*
X158534975Y-70433884D01*
X158722174Y-70494709D01*
X158722175Y-70494709D01*
X158722178Y-70494710D01*
X158916580Y-70525500D01*
X158916583Y-70525500D01*
X159113420Y-70525500D01*
X159307821Y-70494710D01*
X159307822Y-70494709D01*
X159307826Y-70494709D01*
X159495025Y-70433884D01*
X159670405Y-70344524D01*
X159829646Y-70228828D01*
X159968828Y-70089646D01*
X160084524Y-69930405D01*
X160173884Y-69755025D01*
X160190845Y-69702823D01*
X160226809Y-69653324D01*
X160285000Y-69634417D01*
X160343191Y-69653324D01*
X160379155Y-69702824D01*
X160396116Y-69755025D01*
X160485473Y-69930401D01*
X160485476Y-69930405D01*
X160601172Y-70089646D01*
X160740354Y-70228828D01*
X160899595Y-70344524D01*
X161074975Y-70433884D01*
X161262174Y-70494709D01*
X161262175Y-70494709D01*
X161262178Y-70494710D01*
X161456580Y-70525500D01*
X161456583Y-70525500D01*
X161653420Y-70525500D01*
X161847821Y-70494710D01*
X161847822Y-70494709D01*
X161847826Y-70494709D01*
X162035025Y-70433884D01*
X162210405Y-70344524D01*
X162369646Y-70228828D01*
X162508828Y-70089646D01*
X162624524Y-69930405D01*
X162713884Y-69755025D01*
X162730845Y-69702823D01*
X162766809Y-69653324D01*
X162825000Y-69634417D01*
X162883191Y-69653324D01*
X162919155Y-69702824D01*
X162936116Y-69755025D01*
X163025473Y-69930401D01*
X163025476Y-69930405D01*
X163141172Y-70089646D01*
X163280354Y-70228828D01*
X163439595Y-70344524D01*
X163614975Y-70433884D01*
X163802174Y-70494709D01*
X163802175Y-70494709D01*
X163802178Y-70494710D01*
X163996580Y-70525500D01*
X163996583Y-70525500D01*
X164193420Y-70525500D01*
X164387821Y-70494710D01*
X164387822Y-70494709D01*
X164387826Y-70494709D01*
X164575025Y-70433884D01*
X164750405Y-70344524D01*
X164909646Y-70228828D01*
X165048828Y-70089646D01*
X165164524Y-69930405D01*
X165253884Y-69755025D01*
X165314709Y-69567826D01*
X165318095Y-69546446D01*
X165345870Y-69491932D01*
X165400386Y-69464152D01*
X165460818Y-69473722D01*
X165504084Y-69516985D01*
X165511781Y-69540659D01*
X165512408Y-69540509D01*
X165513314Y-69544284D01*
X165569250Y-69716440D01*
X165651430Y-69877728D01*
X165722424Y-69975442D01*
X166191328Y-69506536D01*
X166234901Y-69582007D01*
X166327993Y-69675099D01*
X166403460Y-69718670D01*
X165934556Y-70187574D01*
X165934556Y-70187575D01*
X166032263Y-70258564D01*
X166032269Y-70258568D01*
X166193559Y-70340749D01*
X166365710Y-70396683D01*
X166544490Y-70425000D01*
X166725510Y-70425000D01*
X166904289Y-70396683D01*
X167076440Y-70340749D01*
X167237730Y-70258568D01*
X167237735Y-70258564D01*
X167335442Y-70187575D01*
X167335442Y-70187574D01*
X166866538Y-69718670D01*
X166942007Y-69675099D01*
X167035099Y-69582007D01*
X167078670Y-69506538D01*
X167547574Y-69975442D01*
X167547575Y-69975442D01*
X167618564Y-69877735D01*
X167618568Y-69877730D01*
X167700749Y-69716440D01*
X167756683Y-69544289D01*
X167785000Y-69365510D01*
X167785000Y-69184489D01*
X167756683Y-69005710D01*
X167700749Y-68833559D01*
X167618568Y-68672269D01*
X167618564Y-68672263D01*
X167547575Y-68574556D01*
X167547574Y-68574556D01*
X167078670Y-69043460D01*
X167035099Y-68967993D01*
X166942007Y-68874901D01*
X166866536Y-68831328D01*
X167335442Y-68362424D01*
X167237728Y-68291430D01*
X167076440Y-68209250D01*
X166904284Y-68153314D01*
X166900509Y-68152408D01*
X166900886Y-68150834D01*
X166851903Y-68125853D01*
X166824146Y-68071326D01*
X166833740Y-68010898D01*
X166877021Y-67967650D01*
X166906444Y-67958095D01*
X166927826Y-67954709D01*
X167115025Y-67893884D01*
X167290405Y-67804524D01*
X167449646Y-67688828D01*
X167588828Y-67549646D01*
X167704524Y-67390405D01*
X167793884Y-67215025D01*
X167854709Y-67027826D01*
X167858095Y-67006449D01*
X167885500Y-66833420D01*
X167885500Y-66636579D01*
X167854710Y-66442178D01*
X167854709Y-66442174D01*
X167793884Y-66254975D01*
X167704524Y-66079595D01*
X167588828Y-65920354D01*
X167449646Y-65781172D01*
X167290405Y-65665476D01*
X167290404Y-65665475D01*
X167290402Y-65665474D01*
X167115025Y-65576116D01*
X166927821Y-65515289D01*
X166733420Y-65484500D01*
X166733417Y-65484500D01*
X166536583Y-65484500D01*
X166536580Y-65484500D01*
X166342178Y-65515289D01*
X166154974Y-65576116D01*
X165979597Y-65665474D01*
X165820355Y-65781171D01*
X165681171Y-65920355D01*
X165565474Y-66079597D01*
X165476114Y-66254978D01*
X165476112Y-66254981D01*
X165459154Y-66307175D01*
X165423190Y-66356675D01*
X165364999Y-66375582D01*
X165306809Y-66356674D01*
X165270846Y-66307175D01*
X165253887Y-66254981D01*
X165253885Y-66254978D01*
X165253884Y-66254977D01*
X165253884Y-66254975D01*
X165164524Y-66079595D01*
X165048828Y-65920354D01*
X164909646Y-65781172D01*
X164750405Y-65665476D01*
X164750404Y-65665475D01*
X164750402Y-65665474D01*
X164575025Y-65576116D01*
X164387821Y-65515289D01*
X164193420Y-65484500D01*
X164193417Y-65484500D01*
X163996583Y-65484500D01*
X163996580Y-65484500D01*
X163802178Y-65515289D01*
X163614974Y-65576116D01*
X163439597Y-65665474D01*
X163280355Y-65781171D01*
X163141171Y-65920355D01*
X163025474Y-66079597D01*
X162936114Y-66254978D01*
X162936112Y-66254981D01*
X162919154Y-66307175D01*
X162883190Y-66356675D01*
X162824999Y-66375582D01*
X162766809Y-66356674D01*
X162730846Y-66307175D01*
X162713887Y-66254981D01*
X162713885Y-66254978D01*
X162713884Y-66254977D01*
X162713884Y-66254975D01*
X162624524Y-66079595D01*
X162508828Y-65920354D01*
X162369646Y-65781172D01*
X162210405Y-65665476D01*
X162210404Y-65665475D01*
X162210402Y-65665474D01*
X162035025Y-65576116D01*
X161847821Y-65515289D01*
X161653420Y-65484500D01*
X161653417Y-65484500D01*
X161456583Y-65484500D01*
X161456580Y-65484500D01*
X161262178Y-65515289D01*
X161074974Y-65576116D01*
X160899597Y-65665474D01*
X160740355Y-65781171D01*
X160601171Y-65920355D01*
X160485474Y-66079597D01*
X160396116Y-66254974D01*
X160335289Y-66442177D01*
X160331904Y-66463554D01*
X160304126Y-66518071D01*
X160249609Y-66545847D01*
X160189177Y-66536275D01*
X160145913Y-66493010D01*
X160138223Y-66469339D01*
X160137592Y-66469491D01*
X160136685Y-66465715D01*
X160080749Y-66293559D01*
X159998568Y-66132269D01*
X159998564Y-66132263D01*
X159927575Y-66034556D01*
X159927574Y-66034556D01*
X159458670Y-66503460D01*
X159415099Y-66427993D01*
X159322007Y-66334901D01*
X159246536Y-66291328D01*
X159715442Y-65822424D01*
X159617728Y-65751430D01*
X159456440Y-65669250D01*
X159284289Y-65613316D01*
X159105510Y-65585000D01*
X158924490Y-65585000D01*
X158745710Y-65613316D01*
X158573559Y-65669250D01*
X158412269Y-65751431D01*
X158412265Y-65751433D01*
X158314556Y-65822423D01*
X158783461Y-66291328D01*
X158707993Y-66334901D01*
X158614901Y-66427993D01*
X158571328Y-66503461D01*
X158102423Y-66034556D01*
X158031433Y-66132265D01*
X158031431Y-66132269D01*
X157949250Y-66293559D01*
X157893314Y-66465715D01*
X157892408Y-66469491D01*
X157890836Y-66469113D01*
X157865847Y-66518102D01*
X157811317Y-66545854D01*
X157750890Y-66536255D01*
X157707645Y-66492970D01*
X157698095Y-66463554D01*
X157694709Y-66442174D01*
X157633884Y-66254975D01*
X157544524Y-66079595D01*
X157428828Y-65920354D01*
X157289646Y-65781172D01*
X157130405Y-65665476D01*
X157130404Y-65665475D01*
X157130402Y-65665474D01*
X156955025Y-65576116D01*
X156767821Y-65515289D01*
X156573420Y-65484500D01*
X156573417Y-65484500D01*
X156376583Y-65484500D01*
X156376580Y-65484500D01*
X156182178Y-65515289D01*
X155994974Y-65576116D01*
X155819597Y-65665474D01*
X155660355Y-65781171D01*
X155521171Y-65920355D01*
X155405474Y-66079597D01*
X155316116Y-66254974D01*
X155255289Y-66442177D01*
X155251904Y-66463554D01*
X155224126Y-66518071D01*
X155169609Y-66545847D01*
X155109177Y-66536275D01*
X155065913Y-66493010D01*
X155058223Y-66469339D01*
X155057592Y-66469491D01*
X155056685Y-66465715D01*
X155000749Y-66293559D01*
X154918568Y-66132269D01*
X154918564Y-66132263D01*
X154847575Y-66034556D01*
X154847574Y-66034556D01*
X154378670Y-66503460D01*
X154335099Y-66427993D01*
X154242007Y-66334901D01*
X154166536Y-66291328D01*
X154635442Y-65822424D01*
X154537728Y-65751430D01*
X154376440Y-65669250D01*
X154204289Y-65613316D01*
X154025510Y-65585000D01*
X153844490Y-65585000D01*
X153665710Y-65613316D01*
X153493559Y-65669250D01*
X153332269Y-65751431D01*
X153332265Y-65751433D01*
X153234556Y-65822423D01*
X153703461Y-66291328D01*
X153627993Y-66334901D01*
X153534901Y-66427993D01*
X153491328Y-66503461D01*
X153022423Y-66034556D01*
X152951433Y-66132265D01*
X152951431Y-66132269D01*
X152869250Y-66293559D01*
X152813314Y-66465715D01*
X152812408Y-66469491D01*
X152810836Y-66469113D01*
X152785847Y-66518102D01*
X152731317Y-66545854D01*
X152670890Y-66536255D01*
X152627645Y-66492970D01*
X152618095Y-66463554D01*
X152614709Y-66442174D01*
X152553884Y-66254975D01*
X152464524Y-66079595D01*
X152348828Y-65920354D01*
X152209646Y-65781172D01*
X152050405Y-65665476D01*
X152050404Y-65665475D01*
X152050402Y-65665474D01*
X151875025Y-65576116D01*
X151687821Y-65515289D01*
X151493420Y-65484500D01*
X151493417Y-65484500D01*
X151296583Y-65484500D01*
X151296580Y-65484500D01*
X151102178Y-65515289D01*
X150914974Y-65576116D01*
X150739597Y-65665474D01*
X150580355Y-65781171D01*
X150441171Y-65920355D01*
X150325474Y-66079597D01*
X150236114Y-66254978D01*
X150236112Y-66254981D01*
X150219154Y-66307175D01*
X150183190Y-66356675D01*
X150124999Y-66375582D01*
X150066809Y-66356674D01*
X150030846Y-66307175D01*
X150013887Y-66254981D01*
X150013885Y-66254978D01*
X150013884Y-66254977D01*
X150013884Y-66254975D01*
X149924524Y-66079595D01*
X149808828Y-65920354D01*
X149669646Y-65781172D01*
X149510405Y-65665476D01*
X149510404Y-65665475D01*
X149510402Y-65665474D01*
X149335025Y-65576116D01*
X149147821Y-65515289D01*
X148953420Y-65484500D01*
X148953417Y-65484500D01*
X148756583Y-65484500D01*
X148756580Y-65484500D01*
X148562178Y-65515289D01*
X148374974Y-65576116D01*
X148199597Y-65665474D01*
X148040355Y-65781171D01*
X147901171Y-65920355D01*
X147785474Y-66079597D01*
X147696114Y-66254978D01*
X147696112Y-66254981D01*
X147679154Y-66307175D01*
X147643190Y-66356675D01*
X147584999Y-66375582D01*
X147526809Y-66356674D01*
X147490846Y-66307175D01*
X147473887Y-66254981D01*
X147473885Y-66254978D01*
X147473884Y-66254977D01*
X147473884Y-66254975D01*
X147384524Y-66079595D01*
X147268828Y-65920354D01*
X147129646Y-65781172D01*
X146970405Y-65665476D01*
X146970404Y-65665475D01*
X146970402Y-65665474D01*
X146795025Y-65576116D01*
X146607821Y-65515289D01*
X146413420Y-65484500D01*
X146413417Y-65484500D01*
X146216583Y-65484500D01*
X146216580Y-65484500D01*
X146022178Y-65515289D01*
X145834974Y-65576116D01*
X145659597Y-65665474D01*
X145500355Y-65781171D01*
X145361171Y-65920355D01*
X145245474Y-66079597D01*
X145156114Y-66254978D01*
X145156112Y-66254981D01*
X145139154Y-66307175D01*
X145103190Y-66356675D01*
X145044999Y-66375582D01*
X144986809Y-66356674D01*
X144950846Y-66307175D01*
X144933887Y-66254981D01*
X144933885Y-66254978D01*
X144933884Y-66254977D01*
X144933884Y-66254975D01*
X144844524Y-66079595D01*
X144728828Y-65920354D01*
X144589646Y-65781172D01*
X144430405Y-65665476D01*
X144430404Y-65665475D01*
X144430402Y-65665474D01*
X144255025Y-65576116D01*
X144067821Y-65515289D01*
X143873420Y-65484500D01*
X143873417Y-65484500D01*
X143676583Y-65484500D01*
X143676580Y-65484500D01*
X143482178Y-65515289D01*
X143294974Y-65576116D01*
X143119597Y-65665474D01*
X142960355Y-65781171D01*
X142821171Y-65920355D01*
X142705474Y-66079597D01*
X142616116Y-66254974D01*
X142555289Y-66442177D01*
X142551904Y-66463554D01*
X142524126Y-66518071D01*
X142469609Y-66545847D01*
X142409177Y-66536275D01*
X142365913Y-66493010D01*
X142358223Y-66469339D01*
X142357592Y-66469491D01*
X142356685Y-66465715D01*
X142300749Y-66293559D01*
X142218568Y-66132269D01*
X142218564Y-66132263D01*
X142147575Y-66034556D01*
X142147574Y-66034556D01*
X141678670Y-66503460D01*
X141635099Y-66427993D01*
X141542007Y-66334901D01*
X141466536Y-66291328D01*
X141935442Y-65822424D01*
X141837728Y-65751430D01*
X141676440Y-65669250D01*
X141504289Y-65613316D01*
X141325510Y-65585000D01*
X141144490Y-65585000D01*
X140965710Y-65613316D01*
X140793559Y-65669250D01*
X140632269Y-65751431D01*
X140632265Y-65751433D01*
X140534556Y-65822423D01*
X141003461Y-66291328D01*
X140927993Y-66334901D01*
X140834901Y-66427993D01*
X140791328Y-66503461D01*
X140322423Y-66034556D01*
X140251433Y-66132265D01*
X140251431Y-66132269D01*
X140169250Y-66293559D01*
X140113314Y-66465715D01*
X140112408Y-66469491D01*
X140110836Y-66469113D01*
X140085847Y-66518102D01*
X140031317Y-66545854D01*
X139970890Y-66536255D01*
X139927645Y-66492970D01*
X139918095Y-66463554D01*
X139914709Y-66442174D01*
X139853884Y-66254975D01*
X139764524Y-66079595D01*
X139648828Y-65920354D01*
X139509646Y-65781172D01*
X139350405Y-65665476D01*
X139350404Y-65665475D01*
X139350402Y-65665474D01*
X139175025Y-65576116D01*
X138987821Y-65515289D01*
X138793420Y-65484500D01*
X138793417Y-65484500D01*
X138596583Y-65484500D01*
X138596580Y-65484500D01*
X138402178Y-65515289D01*
X138214974Y-65576116D01*
X138039597Y-65665474D01*
X137880355Y-65781171D01*
X137741171Y-65920355D01*
X137625474Y-66079597D01*
X137536114Y-66254978D01*
X137536112Y-66254981D01*
X137519154Y-66307175D01*
X137483190Y-66356675D01*
X137424999Y-66375582D01*
X137366809Y-66356674D01*
X137330846Y-66307175D01*
X137313887Y-66254981D01*
X137313885Y-66254978D01*
X137313884Y-66254977D01*
X137313884Y-66254975D01*
X137224524Y-66079595D01*
X137108828Y-65920354D01*
X136969646Y-65781172D01*
X136810405Y-65665476D01*
X136810404Y-65665475D01*
X136810402Y-65665474D01*
X136635025Y-65576116D01*
X136447821Y-65515289D01*
X136253420Y-65484500D01*
X136253417Y-65484500D01*
X136056583Y-65484500D01*
X136056580Y-65484500D01*
X135862178Y-65515289D01*
X135674974Y-65576116D01*
X135499597Y-65665474D01*
X135340355Y-65781171D01*
X135201171Y-65920355D01*
X135085474Y-66079597D01*
X134996116Y-66254974D01*
X134935289Y-66442177D01*
X134931904Y-66463554D01*
X134904126Y-66518071D01*
X134849609Y-66545847D01*
X134789177Y-66536275D01*
X134745913Y-66493010D01*
X134738223Y-66469339D01*
X134737592Y-66469491D01*
X134736685Y-66465715D01*
X134680749Y-66293559D01*
X134598568Y-66132269D01*
X134598564Y-66132263D01*
X134527575Y-66034556D01*
X134527574Y-66034556D01*
X134058670Y-66503460D01*
X134015099Y-66427993D01*
X133922007Y-66334901D01*
X133846536Y-66291328D01*
X134315442Y-65822424D01*
X134217728Y-65751430D01*
X134056440Y-65669250D01*
X133884289Y-65613316D01*
X133705510Y-65585000D01*
X133524490Y-65585000D01*
X133345710Y-65613316D01*
X133173559Y-65669250D01*
X133012269Y-65751431D01*
X133012265Y-65751433D01*
X132914556Y-65822423D01*
X133383461Y-66291328D01*
X133307993Y-66334901D01*
X133214901Y-66427993D01*
X133171328Y-66503461D01*
X132702423Y-66034556D01*
X132631433Y-66132265D01*
X132631431Y-66132269D01*
X132549250Y-66293559D01*
X132493314Y-66465715D01*
X132492408Y-66469491D01*
X132490836Y-66469113D01*
X132465847Y-66518102D01*
X132411317Y-66545854D01*
X132350890Y-66536255D01*
X132307645Y-66492970D01*
X132298095Y-66463554D01*
X132294709Y-66442174D01*
X132233884Y-66254975D01*
X132144524Y-66079595D01*
X132028828Y-65920354D01*
X131889646Y-65781172D01*
X131730405Y-65665476D01*
X131730404Y-65665475D01*
X131730402Y-65665474D01*
X131555025Y-65576116D01*
X131367821Y-65515289D01*
X131173420Y-65484500D01*
X131173417Y-65484500D01*
X130976583Y-65484500D01*
X130976580Y-65484500D01*
X130782178Y-65515289D01*
X130594974Y-65576116D01*
X130419597Y-65665474D01*
X130260355Y-65781171D01*
X130121171Y-65920355D01*
X130005474Y-66079597D01*
X129916114Y-66254978D01*
X129916112Y-66254981D01*
X129899154Y-66307175D01*
X129863190Y-66356675D01*
X129804999Y-66375582D01*
X129746809Y-66356674D01*
X129710846Y-66307175D01*
X129693887Y-66254981D01*
X129693885Y-66254978D01*
X129693884Y-66254977D01*
X129693884Y-66254975D01*
X129604524Y-66079595D01*
X129488828Y-65920354D01*
X129349646Y-65781172D01*
X129190405Y-65665476D01*
X129190404Y-65665475D01*
X129190402Y-65665474D01*
X129015025Y-65576116D01*
X128827821Y-65515289D01*
X128633420Y-65484500D01*
X128633417Y-65484500D01*
X128436583Y-65484500D01*
X128436580Y-65484500D01*
X128242178Y-65515289D01*
X128054974Y-65576116D01*
X127879597Y-65665474D01*
X127720355Y-65781171D01*
X127581171Y-65920355D01*
X127465474Y-66079597D01*
X127376114Y-66254978D01*
X127376112Y-66254981D01*
X127359154Y-66307175D01*
X127323190Y-66356675D01*
X127264999Y-66375582D01*
X127206809Y-66356674D01*
X127170846Y-66307175D01*
X127153887Y-66254981D01*
X127153885Y-66254978D01*
X127153884Y-66254977D01*
X127153884Y-66254975D01*
X127064524Y-66079595D01*
X126948828Y-65920354D01*
X126809646Y-65781172D01*
X126650405Y-65665476D01*
X126650404Y-65665475D01*
X126650402Y-65665474D01*
X126475025Y-65576116D01*
X126287821Y-65515289D01*
X126093420Y-65484500D01*
X126093417Y-65484500D01*
X125896583Y-65484500D01*
X125896580Y-65484500D01*
X125702178Y-65515289D01*
X125514974Y-65576116D01*
X125339597Y-65665474D01*
X125180355Y-65781171D01*
X125041171Y-65920355D01*
X124925474Y-66079597D01*
X124836116Y-66254974D01*
X124775289Y-66442177D01*
X124771904Y-66463554D01*
X124744126Y-66518071D01*
X124689609Y-66545847D01*
X124629177Y-66536275D01*
X124585913Y-66493010D01*
X124578223Y-66469339D01*
X124577592Y-66469491D01*
X124576685Y-66465715D01*
X124520749Y-66293559D01*
X124438568Y-66132269D01*
X124438564Y-66132263D01*
X124367575Y-66034556D01*
X124367574Y-66034556D01*
X123898670Y-66503460D01*
X123855099Y-66427993D01*
X123762007Y-66334901D01*
X123686536Y-66291328D01*
X124155442Y-65822424D01*
X124057728Y-65751430D01*
X123896440Y-65669250D01*
X123724289Y-65613316D01*
X123545510Y-65585000D01*
X123364490Y-65585000D01*
X123185710Y-65613316D01*
X123013559Y-65669250D01*
X122852269Y-65751431D01*
X122852265Y-65751433D01*
X122754556Y-65822423D01*
X123223461Y-66291328D01*
X123147993Y-66334901D01*
X123054901Y-66427993D01*
X123011328Y-66503461D01*
X122542423Y-66034556D01*
X122471433Y-66132265D01*
X122471431Y-66132269D01*
X122389250Y-66293559D01*
X122333314Y-66465715D01*
X122332408Y-66469491D01*
X122330836Y-66469113D01*
X122305847Y-66518102D01*
X122251317Y-66545854D01*
X122190890Y-66536255D01*
X122147645Y-66492970D01*
X122138095Y-66463554D01*
X122134709Y-66442174D01*
X122073884Y-66254975D01*
X121984524Y-66079595D01*
X121868828Y-65920354D01*
X121729646Y-65781172D01*
X121570405Y-65665476D01*
X121570404Y-65665475D01*
X121570402Y-65665474D01*
X121395025Y-65576116D01*
X121207821Y-65515289D01*
X121013420Y-65484500D01*
X121013417Y-65484500D01*
X120816583Y-65484500D01*
X120816580Y-65484500D01*
X120622178Y-65515289D01*
X120434974Y-65576116D01*
X120259597Y-65665474D01*
X120100355Y-65781171D01*
X119961171Y-65920355D01*
X119845474Y-66079597D01*
X119756114Y-66254978D01*
X119756112Y-66254981D01*
X119739154Y-66307175D01*
X119703190Y-66356675D01*
X119644999Y-66375582D01*
X119586809Y-66356674D01*
X119550846Y-66307175D01*
X119533887Y-66254981D01*
X119533885Y-66254978D01*
X119533884Y-66254977D01*
X119533884Y-66254975D01*
X119444524Y-66079595D01*
X119328828Y-65920354D01*
X119189646Y-65781172D01*
X119030405Y-65665476D01*
X119030404Y-65665475D01*
X119030402Y-65665474D01*
X118855025Y-65576116D01*
X118667821Y-65515289D01*
X118473420Y-65484500D01*
X118473417Y-65484500D01*
X118276583Y-65484500D01*
X118276580Y-65484500D01*
X118082178Y-65515289D01*
X117894974Y-65576116D01*
X117719597Y-65665474D01*
X117560355Y-65781171D01*
X117421171Y-65920355D01*
X117305474Y-66079597D01*
X117216116Y-66254974D01*
X117155289Y-66442178D01*
X117124500Y-66636579D01*
X110530111Y-66636579D01*
X110572053Y-66407710D01*
X110574912Y-66396113D01*
X110581310Y-66375582D01*
X110661148Y-66119370D01*
X110665378Y-66108218D01*
X110784350Y-65843873D01*
X110789899Y-65833302D01*
X110939861Y-65585233D01*
X110946632Y-65575423D01*
X111125406Y-65347235D01*
X111133318Y-65338303D01*
X111338303Y-65133318D01*
X111347235Y-65125406D01*
X111575423Y-64946632D01*
X111585233Y-64939861D01*
X111833302Y-64789899D01*
X111843873Y-64784350D01*
X112108218Y-64665378D01*
X112119370Y-64661148D01*
X112396120Y-64574910D01*
X112407714Y-64572052D01*
X112692837Y-64519801D01*
X112704688Y-64518362D01*
X112997008Y-64500681D01*
X113002985Y-64500500D01*
X113065892Y-64500500D01*
X171934108Y-64500500D01*
X171997015Y-64500500D01*
X172002992Y-64500681D01*
G37*
%TD.AperFunction*%
%TD*%
M02*
