%TF.GenerationSoftware,KiCad,Pcbnew,9.0.7-9.0.7~ubuntu24.04.1*%
%TF.CreationDate,2026-01-19T15:25:12+01:00*%
%TF.ProjectId,fdcanhat,66646361-6e68-4617-942e-6b696361645f,rev?*%
%TF.SameCoordinates,Original*%
%TF.FileFunction,Soldermask,Bot*%
%TF.FilePolarity,Negative*%
%FSLAX46Y46*%
G04 Gerber Fmt 4.6, Leading zero omitted, Abs format (unit mm)*
G04 Created by KiCad (PCBNEW 9.0.7-9.0.7~ubuntu24.04.1) date 2026-01-19 15:25:12*
%MOMM*%
%LPD*%
G01*
G04 APERTURE LIST*
G04 APERTURE END LIST*
G36*
X113969017Y-114239561D02*
G01*
X114275139Y-114309431D01*
X114571514Y-114413137D01*
X114854413Y-114549374D01*
X115120280Y-114716430D01*
X115365770Y-114912202D01*
X115587798Y-115134230D01*
X115783570Y-115379720D01*
X115950626Y-115645587D01*
X116086863Y-115928486D01*
X116190569Y-116224861D01*
X116260439Y-116530983D01*
X116295595Y-116843003D01*
X116295595Y-117156997D01*
X116260439Y-117469017D01*
X116190569Y-117775139D01*
X116086863Y-118071514D01*
X115950626Y-118354413D01*
X115783570Y-118620280D01*
X115587798Y-118865770D01*
X115365770Y-119087798D01*
X115120280Y-119283570D01*
X114854413Y-119450626D01*
X114571514Y-119586863D01*
X114275139Y-119690569D01*
X113969017Y-119760439D01*
X113656997Y-119795595D01*
X113343003Y-119795595D01*
X113030983Y-119760439D01*
X112724861Y-119690569D01*
X112428486Y-119586863D01*
X112145587Y-119450626D01*
X111879720Y-119283570D01*
X111634230Y-119087798D01*
X111412202Y-118865770D01*
X111216430Y-118620280D01*
X111049374Y-118354413D01*
X110913137Y-118071514D01*
X110809431Y-117775139D01*
X110739561Y-117469017D01*
X110704405Y-117156997D01*
X110704405Y-116843003D01*
X110739561Y-116530983D01*
X110809431Y-116224861D01*
X110913137Y-115928486D01*
X111049374Y-115645587D01*
X111216430Y-115379720D01*
X111412202Y-115134230D01*
X111634230Y-114912202D01*
X111879720Y-114716430D01*
X112145587Y-114549374D01*
X112428486Y-114413137D01*
X112724861Y-114309431D01*
X113030983Y-114239561D01*
X113343003Y-114204405D01*
X113656997Y-114204405D01*
X113969017Y-114239561D01*
G37*
G36*
X171969017Y-114239561D02*
G01*
X172275139Y-114309431D01*
X172571514Y-114413137D01*
X172854413Y-114549374D01*
X173120280Y-114716430D01*
X173365770Y-114912202D01*
X173587798Y-115134230D01*
X173783570Y-115379720D01*
X173950626Y-115645587D01*
X174086863Y-115928486D01*
X174190569Y-116224861D01*
X174260439Y-116530983D01*
X174295595Y-116843003D01*
X174295595Y-117156997D01*
X174260439Y-117469017D01*
X174190569Y-117775139D01*
X174086863Y-118071514D01*
X173950626Y-118354413D01*
X173783570Y-118620280D01*
X173587798Y-118865770D01*
X173365770Y-119087798D01*
X173120280Y-119283570D01*
X172854413Y-119450626D01*
X172571514Y-119586863D01*
X172275139Y-119690569D01*
X171969017Y-119760439D01*
X171656997Y-119795595D01*
X171343003Y-119795595D01*
X171030983Y-119760439D01*
X170724861Y-119690569D01*
X170428486Y-119586863D01*
X170145587Y-119450626D01*
X169879720Y-119283570D01*
X169634230Y-119087798D01*
X169412202Y-118865770D01*
X169216430Y-118620280D01*
X169049374Y-118354413D01*
X168913137Y-118071514D01*
X168809431Y-117775139D01*
X168739561Y-117469017D01*
X168704405Y-117156997D01*
X168704405Y-116843003D01*
X168739561Y-116530983D01*
X168809431Y-116224861D01*
X168913137Y-115928486D01*
X169049374Y-115645587D01*
X169216430Y-115379720D01*
X169412202Y-115134230D01*
X169634230Y-114912202D01*
X169879720Y-114716430D01*
X170145587Y-114549374D01*
X170428486Y-114413137D01*
X170724861Y-114309431D01*
X171030983Y-114239561D01*
X171343003Y-114204405D01*
X171656997Y-114204405D01*
X171969017Y-114239561D01*
G37*
G36*
X113552785Y-83543060D02*
G01*
X113733897Y-83618079D01*
X113896893Y-83726990D01*
X114035510Y-83865607D01*
X114144421Y-84028603D01*
X114219440Y-84209715D01*
X114257685Y-84401983D01*
X114257685Y-84598017D01*
X114219440Y-84790285D01*
X114144421Y-84971397D01*
X114035510Y-85134393D01*
X113896893Y-85273010D01*
X113733897Y-85381921D01*
X113552785Y-85456940D01*
X113360517Y-85495185D01*
X113164483Y-85495185D01*
X112972215Y-85456940D01*
X112791103Y-85381921D01*
X112628107Y-85273010D01*
X112489490Y-85134393D01*
X112380579Y-84971397D01*
X112305560Y-84790285D01*
X112267315Y-84598017D01*
X112267315Y-84401983D01*
X112305560Y-84209715D01*
X112380579Y-84028603D01*
X112489490Y-83865607D01*
X112628107Y-83726990D01*
X112791103Y-83618079D01*
X112972215Y-83543060D01*
X113164483Y-83504815D01*
X113360517Y-83504815D01*
X113552785Y-83543060D01*
G37*
G36*
X123577651Y-80187301D02*
G01*
X123779123Y-80252763D01*
X123967873Y-80348936D01*
X124139255Y-80473452D01*
X124289048Y-80623245D01*
X124413564Y-80794627D01*
X124509737Y-80983377D01*
X124575199Y-81184849D01*
X124608338Y-81394080D01*
X124608338Y-81605920D01*
X124575199Y-81815151D01*
X124509737Y-82016623D01*
X124413564Y-82205373D01*
X124289048Y-82376755D01*
X124139255Y-82526548D01*
X123967873Y-82651064D01*
X123779123Y-82747237D01*
X123577651Y-82812699D01*
X123368420Y-82845838D01*
X123156580Y-82845838D01*
X122947349Y-82812699D01*
X122745877Y-82747237D01*
X122557127Y-82651064D01*
X122385745Y-82526548D01*
X122235952Y-82376755D01*
X122111436Y-82205373D01*
X122015263Y-82016623D01*
X121949801Y-81815151D01*
X121916662Y-81605920D01*
X121916662Y-81394080D01*
X121949801Y-81184849D01*
X122015263Y-80983377D01*
X122111436Y-80794627D01*
X122235952Y-80623245D01*
X122385745Y-80473452D01*
X122557127Y-80348936D01*
X122745877Y-80252763D01*
X122947349Y-80187301D01*
X123156580Y-80154162D01*
X123368420Y-80154162D01*
X123577651Y-80187301D01*
G37*
G36*
X123577651Y-75187301D02*
G01*
X123779123Y-75252763D01*
X123967873Y-75348936D01*
X124139255Y-75473452D01*
X124289048Y-75623245D01*
X124413564Y-75794627D01*
X124509737Y-75983377D01*
X124575199Y-76184849D01*
X124608338Y-76394080D01*
X124608338Y-76605920D01*
X124575199Y-76815151D01*
X124509737Y-77016623D01*
X124413564Y-77205373D01*
X124289048Y-77376755D01*
X124139255Y-77526548D01*
X123967873Y-77651064D01*
X123779123Y-77747237D01*
X123577651Y-77812699D01*
X123368420Y-77845838D01*
X123156580Y-77845838D01*
X122947349Y-77812699D01*
X122745877Y-77747237D01*
X122557127Y-77651064D01*
X122385745Y-77526548D01*
X122235952Y-77376755D01*
X122111436Y-77205373D01*
X122015263Y-77016623D01*
X121949801Y-76815151D01*
X121916662Y-76605920D01*
X121916662Y-76394080D01*
X121949801Y-76184849D01*
X122015263Y-75983377D01*
X122111436Y-75794627D01*
X122235952Y-75623245D01*
X122385745Y-75473452D01*
X122557127Y-75348936D01*
X122745877Y-75252763D01*
X122947349Y-75187301D01*
X123156580Y-75154162D01*
X123368420Y-75154162D01*
X123577651Y-75187301D01*
G37*
G36*
X113552785Y-72543060D02*
G01*
X113733897Y-72618079D01*
X113896893Y-72726990D01*
X114035510Y-72865607D01*
X114144421Y-73028603D01*
X114219440Y-73209715D01*
X114257685Y-73401983D01*
X114257685Y-73598017D01*
X114219440Y-73790285D01*
X114144421Y-73971397D01*
X114035510Y-74134393D01*
X113896893Y-74273010D01*
X113733897Y-74381921D01*
X113552785Y-74456940D01*
X113360517Y-74495185D01*
X113164483Y-74495185D01*
X112972215Y-74456940D01*
X112791103Y-74381921D01*
X112628107Y-74273010D01*
X112489490Y-74134393D01*
X112380579Y-73971397D01*
X112305560Y-73790285D01*
X112267315Y-73598017D01*
X112267315Y-73401983D01*
X112305560Y-73209715D01*
X112380579Y-73028603D01*
X112489490Y-72865607D01*
X112628107Y-72726990D01*
X112791103Y-72618079D01*
X112972215Y-72543060D01*
X113164483Y-72504815D01*
X113360517Y-72504815D01*
X113552785Y-72543060D01*
G37*
G36*
X113969017Y-65239561D02*
G01*
X114275139Y-65309431D01*
X114571514Y-65413137D01*
X114854413Y-65549374D01*
X115120280Y-65716430D01*
X115365770Y-65912202D01*
X115587798Y-66134230D01*
X115783570Y-66379720D01*
X115950626Y-66645587D01*
X116086863Y-66928486D01*
X116190569Y-67224861D01*
X116260439Y-67530983D01*
X116295595Y-67843003D01*
X116295595Y-68156997D01*
X116260439Y-68469017D01*
X116190569Y-68775139D01*
X116086863Y-69071514D01*
X115950626Y-69354413D01*
X115783570Y-69620280D01*
X115587798Y-69865770D01*
X115365770Y-70087798D01*
X115120280Y-70283570D01*
X114854413Y-70450626D01*
X114571514Y-70586863D01*
X114275139Y-70690569D01*
X113969017Y-70760439D01*
X113656997Y-70795595D01*
X113343003Y-70795595D01*
X113030983Y-70760439D01*
X112724861Y-70690569D01*
X112428486Y-70586863D01*
X112145587Y-70450626D01*
X111879720Y-70283570D01*
X111634230Y-70087798D01*
X111412202Y-69865770D01*
X111216430Y-69620280D01*
X111049374Y-69354413D01*
X110913137Y-69071514D01*
X110809431Y-68775139D01*
X110739561Y-68469017D01*
X110704405Y-68156997D01*
X110704405Y-67843003D01*
X110739561Y-67530983D01*
X110809431Y-67224861D01*
X110913137Y-66928486D01*
X111049374Y-66645587D01*
X111216430Y-66379720D01*
X111412202Y-66134230D01*
X111634230Y-65912202D01*
X111879720Y-65716430D01*
X112145587Y-65549374D01*
X112428486Y-65413137D01*
X112724861Y-65309431D01*
X113030983Y-65239561D01*
X113343003Y-65204405D01*
X113656997Y-65204405D01*
X113969017Y-65239561D01*
G37*
G36*
X171969017Y-65239561D02*
G01*
X172275139Y-65309431D01*
X172571514Y-65413137D01*
X172854413Y-65549374D01*
X173120280Y-65716430D01*
X173365770Y-65912202D01*
X173587798Y-66134230D01*
X173783570Y-66379720D01*
X173950626Y-66645587D01*
X174086863Y-66928486D01*
X174190569Y-67224861D01*
X174260439Y-67530983D01*
X174295595Y-67843003D01*
X174295595Y-68156997D01*
X174260439Y-68469017D01*
X174190569Y-68775139D01*
X174086863Y-69071514D01*
X173950626Y-69354413D01*
X173783570Y-69620280D01*
X173587798Y-69865770D01*
X173365770Y-70087798D01*
X173120280Y-70283570D01*
X172854413Y-70450626D01*
X172571514Y-70586863D01*
X172275139Y-70690569D01*
X171969017Y-70760439D01*
X171656997Y-70795595D01*
X171343003Y-70795595D01*
X171030983Y-70760439D01*
X170724861Y-70690569D01*
X170428486Y-70586863D01*
X170145587Y-70450626D01*
X169879720Y-70283570D01*
X169634230Y-70087798D01*
X169412202Y-69865770D01*
X169216430Y-69620280D01*
X169049374Y-69354413D01*
X168913137Y-69071514D01*
X168809431Y-68775139D01*
X168739561Y-68469017D01*
X168704405Y-68156997D01*
X168704405Y-67843003D01*
X168739561Y-67530983D01*
X168809431Y-67224861D01*
X168913137Y-66928486D01*
X169049374Y-66645587D01*
X169216430Y-66379720D01*
X169412202Y-66134230D01*
X169634230Y-65912202D01*
X169879720Y-65716430D01*
X170145587Y-65549374D01*
X170428486Y-65413137D01*
X170724861Y-65309431D01*
X171030983Y-65239561D01*
X171343003Y-65204405D01*
X171656997Y-65204405D01*
X171969017Y-65239561D01*
G37*
G36*
X119263268Y-68332612D02*
G01*
X119295711Y-68354289D01*
X119317388Y-68386732D01*
X119325000Y-68425000D01*
X119325000Y-70125000D01*
X119317388Y-70163268D01*
X119295711Y-70195711D01*
X119263268Y-70217388D01*
X119225000Y-70225000D01*
X117525000Y-70225000D01*
X117486732Y-70217388D01*
X117454289Y-70195711D01*
X117432612Y-70163268D01*
X117425000Y-70125000D01*
X117425000Y-68425000D01*
X117432612Y-68386732D01*
X117454289Y-68354289D01*
X117486732Y-68332612D01*
X117525000Y-68325000D01*
X119225000Y-68325000D01*
X119263268Y-68332612D01*
G37*
G36*
X121190770Y-68365907D02*
G01*
X121362827Y-68437175D01*
X121517674Y-68540640D01*
X121649360Y-68672326D01*
X121752825Y-68827173D01*
X121824093Y-68999230D01*
X121860425Y-69181884D01*
X121860425Y-69368116D01*
X121824093Y-69550770D01*
X121752825Y-69722827D01*
X121649360Y-69877674D01*
X121517674Y-70009360D01*
X121362827Y-70112825D01*
X121190770Y-70184093D01*
X121008116Y-70220425D01*
X120821884Y-70220425D01*
X120639230Y-70184093D01*
X120467173Y-70112825D01*
X120312326Y-70009360D01*
X120180640Y-69877674D01*
X120077175Y-69722827D01*
X120005907Y-69550770D01*
X119969575Y-69368116D01*
X119969575Y-69181884D01*
X120005907Y-68999230D01*
X120077175Y-68827173D01*
X120180640Y-68672326D01*
X120312326Y-68540640D01*
X120467173Y-68437175D01*
X120639230Y-68365907D01*
X120821884Y-68329575D01*
X121008116Y-68329575D01*
X121190770Y-68365907D01*
G37*
G36*
X123730770Y-68365907D02*
G01*
X123902827Y-68437175D01*
X124057674Y-68540640D01*
X124189360Y-68672326D01*
X124292825Y-68827173D01*
X124364093Y-68999230D01*
X124400425Y-69181884D01*
X124400425Y-69368116D01*
X124364093Y-69550770D01*
X124292825Y-69722827D01*
X124189360Y-69877674D01*
X124057674Y-70009360D01*
X123902827Y-70112825D01*
X123730770Y-70184093D01*
X123548116Y-70220425D01*
X123361884Y-70220425D01*
X123179230Y-70184093D01*
X123007173Y-70112825D01*
X122852326Y-70009360D01*
X122720640Y-69877674D01*
X122617175Y-69722827D01*
X122545907Y-69550770D01*
X122509575Y-69368116D01*
X122509575Y-69181884D01*
X122545907Y-68999230D01*
X122617175Y-68827173D01*
X122720640Y-68672326D01*
X122852326Y-68540640D01*
X123007173Y-68437175D01*
X123179230Y-68365907D01*
X123361884Y-68329575D01*
X123548116Y-68329575D01*
X123730770Y-68365907D01*
G37*
G36*
X126270770Y-68365907D02*
G01*
X126442827Y-68437175D01*
X126597674Y-68540640D01*
X126729360Y-68672326D01*
X126832825Y-68827173D01*
X126904093Y-68999230D01*
X126940425Y-69181884D01*
X126940425Y-69368116D01*
X126904093Y-69550770D01*
X126832825Y-69722827D01*
X126729360Y-69877674D01*
X126597674Y-70009360D01*
X126442827Y-70112825D01*
X126270770Y-70184093D01*
X126088116Y-70220425D01*
X125901884Y-70220425D01*
X125719230Y-70184093D01*
X125547173Y-70112825D01*
X125392326Y-70009360D01*
X125260640Y-69877674D01*
X125157175Y-69722827D01*
X125085907Y-69550770D01*
X125049575Y-69368116D01*
X125049575Y-69181884D01*
X125085907Y-68999230D01*
X125157175Y-68827173D01*
X125260640Y-68672326D01*
X125392326Y-68540640D01*
X125547173Y-68437175D01*
X125719230Y-68365907D01*
X125901884Y-68329575D01*
X126088116Y-68329575D01*
X126270770Y-68365907D01*
G37*
G36*
X128810770Y-68365907D02*
G01*
X128982827Y-68437175D01*
X129137674Y-68540640D01*
X129269360Y-68672326D01*
X129372825Y-68827173D01*
X129444093Y-68999230D01*
X129480425Y-69181884D01*
X129480425Y-69368116D01*
X129444093Y-69550770D01*
X129372825Y-69722827D01*
X129269360Y-69877674D01*
X129137674Y-70009360D01*
X128982827Y-70112825D01*
X128810770Y-70184093D01*
X128628116Y-70220425D01*
X128441884Y-70220425D01*
X128259230Y-70184093D01*
X128087173Y-70112825D01*
X127932326Y-70009360D01*
X127800640Y-69877674D01*
X127697175Y-69722827D01*
X127625907Y-69550770D01*
X127589575Y-69368116D01*
X127589575Y-69181884D01*
X127625907Y-68999230D01*
X127697175Y-68827173D01*
X127800640Y-68672326D01*
X127932326Y-68540640D01*
X128087173Y-68437175D01*
X128259230Y-68365907D01*
X128441884Y-68329575D01*
X128628116Y-68329575D01*
X128810770Y-68365907D01*
G37*
G36*
X131350770Y-68365907D02*
G01*
X131522827Y-68437175D01*
X131677674Y-68540640D01*
X131809360Y-68672326D01*
X131912825Y-68827173D01*
X131984093Y-68999230D01*
X132020425Y-69181884D01*
X132020425Y-69368116D01*
X131984093Y-69550770D01*
X131912825Y-69722827D01*
X131809360Y-69877674D01*
X131677674Y-70009360D01*
X131522827Y-70112825D01*
X131350770Y-70184093D01*
X131168116Y-70220425D01*
X130981884Y-70220425D01*
X130799230Y-70184093D01*
X130627173Y-70112825D01*
X130472326Y-70009360D01*
X130340640Y-69877674D01*
X130237175Y-69722827D01*
X130165907Y-69550770D01*
X130129575Y-69368116D01*
X130129575Y-69181884D01*
X130165907Y-68999230D01*
X130237175Y-68827173D01*
X130340640Y-68672326D01*
X130472326Y-68540640D01*
X130627173Y-68437175D01*
X130799230Y-68365907D01*
X130981884Y-68329575D01*
X131168116Y-68329575D01*
X131350770Y-68365907D01*
G37*
G36*
X133890770Y-68365907D02*
G01*
X134062827Y-68437175D01*
X134217674Y-68540640D01*
X134349360Y-68672326D01*
X134452825Y-68827173D01*
X134524093Y-68999230D01*
X134560425Y-69181884D01*
X134560425Y-69368116D01*
X134524093Y-69550770D01*
X134452825Y-69722827D01*
X134349360Y-69877674D01*
X134217674Y-70009360D01*
X134062827Y-70112825D01*
X133890770Y-70184093D01*
X133708116Y-70220425D01*
X133521884Y-70220425D01*
X133339230Y-70184093D01*
X133167173Y-70112825D01*
X133012326Y-70009360D01*
X132880640Y-69877674D01*
X132777175Y-69722827D01*
X132705907Y-69550770D01*
X132669575Y-69368116D01*
X132669575Y-69181884D01*
X132705907Y-68999230D01*
X132777175Y-68827173D01*
X132880640Y-68672326D01*
X133012326Y-68540640D01*
X133167173Y-68437175D01*
X133339230Y-68365907D01*
X133521884Y-68329575D01*
X133708116Y-68329575D01*
X133890770Y-68365907D01*
G37*
G36*
X136430770Y-68365907D02*
G01*
X136602827Y-68437175D01*
X136757674Y-68540640D01*
X136889360Y-68672326D01*
X136992825Y-68827173D01*
X137064093Y-68999230D01*
X137100425Y-69181884D01*
X137100425Y-69368116D01*
X137064093Y-69550770D01*
X136992825Y-69722827D01*
X136889360Y-69877674D01*
X136757674Y-70009360D01*
X136602827Y-70112825D01*
X136430770Y-70184093D01*
X136248116Y-70220425D01*
X136061884Y-70220425D01*
X135879230Y-70184093D01*
X135707173Y-70112825D01*
X135552326Y-70009360D01*
X135420640Y-69877674D01*
X135317175Y-69722827D01*
X135245907Y-69550770D01*
X135209575Y-69368116D01*
X135209575Y-69181884D01*
X135245907Y-68999230D01*
X135317175Y-68827173D01*
X135420640Y-68672326D01*
X135552326Y-68540640D01*
X135707173Y-68437175D01*
X135879230Y-68365907D01*
X136061884Y-68329575D01*
X136248116Y-68329575D01*
X136430770Y-68365907D01*
G37*
G36*
X138970770Y-68365907D02*
G01*
X139142827Y-68437175D01*
X139297674Y-68540640D01*
X139429360Y-68672326D01*
X139532825Y-68827173D01*
X139604093Y-68999230D01*
X139640425Y-69181884D01*
X139640425Y-69368116D01*
X139604093Y-69550770D01*
X139532825Y-69722827D01*
X139429360Y-69877674D01*
X139297674Y-70009360D01*
X139142827Y-70112825D01*
X138970770Y-70184093D01*
X138788116Y-70220425D01*
X138601884Y-70220425D01*
X138419230Y-70184093D01*
X138247173Y-70112825D01*
X138092326Y-70009360D01*
X137960640Y-69877674D01*
X137857175Y-69722827D01*
X137785907Y-69550770D01*
X137749575Y-69368116D01*
X137749575Y-69181884D01*
X137785907Y-68999230D01*
X137857175Y-68827173D01*
X137960640Y-68672326D01*
X138092326Y-68540640D01*
X138247173Y-68437175D01*
X138419230Y-68365907D01*
X138601884Y-68329575D01*
X138788116Y-68329575D01*
X138970770Y-68365907D01*
G37*
G36*
X141510770Y-68365907D02*
G01*
X141682827Y-68437175D01*
X141837674Y-68540640D01*
X141969360Y-68672326D01*
X142072825Y-68827173D01*
X142144093Y-68999230D01*
X142180425Y-69181884D01*
X142180425Y-69368116D01*
X142144093Y-69550770D01*
X142072825Y-69722827D01*
X141969360Y-69877674D01*
X141837674Y-70009360D01*
X141682827Y-70112825D01*
X141510770Y-70184093D01*
X141328116Y-70220425D01*
X141141884Y-70220425D01*
X140959230Y-70184093D01*
X140787173Y-70112825D01*
X140632326Y-70009360D01*
X140500640Y-69877674D01*
X140397175Y-69722827D01*
X140325907Y-69550770D01*
X140289575Y-69368116D01*
X140289575Y-69181884D01*
X140325907Y-68999230D01*
X140397175Y-68827173D01*
X140500640Y-68672326D01*
X140632326Y-68540640D01*
X140787173Y-68437175D01*
X140959230Y-68365907D01*
X141141884Y-68329575D01*
X141328116Y-68329575D01*
X141510770Y-68365907D01*
G37*
G36*
X144050770Y-68365907D02*
G01*
X144222827Y-68437175D01*
X144377674Y-68540640D01*
X144509360Y-68672326D01*
X144612825Y-68827173D01*
X144684093Y-68999230D01*
X144720425Y-69181884D01*
X144720425Y-69368116D01*
X144684093Y-69550770D01*
X144612825Y-69722827D01*
X144509360Y-69877674D01*
X144377674Y-70009360D01*
X144222827Y-70112825D01*
X144050770Y-70184093D01*
X143868116Y-70220425D01*
X143681884Y-70220425D01*
X143499230Y-70184093D01*
X143327173Y-70112825D01*
X143172326Y-70009360D01*
X143040640Y-69877674D01*
X142937175Y-69722827D01*
X142865907Y-69550770D01*
X142829575Y-69368116D01*
X142829575Y-69181884D01*
X142865907Y-68999230D01*
X142937175Y-68827173D01*
X143040640Y-68672326D01*
X143172326Y-68540640D01*
X143327173Y-68437175D01*
X143499230Y-68365907D01*
X143681884Y-68329575D01*
X143868116Y-68329575D01*
X144050770Y-68365907D01*
G37*
G36*
X146590770Y-68365907D02*
G01*
X146762827Y-68437175D01*
X146917674Y-68540640D01*
X147049360Y-68672326D01*
X147152825Y-68827173D01*
X147224093Y-68999230D01*
X147260425Y-69181884D01*
X147260425Y-69368116D01*
X147224093Y-69550770D01*
X147152825Y-69722827D01*
X147049360Y-69877674D01*
X146917674Y-70009360D01*
X146762827Y-70112825D01*
X146590770Y-70184093D01*
X146408116Y-70220425D01*
X146221884Y-70220425D01*
X146039230Y-70184093D01*
X145867173Y-70112825D01*
X145712326Y-70009360D01*
X145580640Y-69877674D01*
X145477175Y-69722827D01*
X145405907Y-69550770D01*
X145369575Y-69368116D01*
X145369575Y-69181884D01*
X145405907Y-68999230D01*
X145477175Y-68827173D01*
X145580640Y-68672326D01*
X145712326Y-68540640D01*
X145867173Y-68437175D01*
X146039230Y-68365907D01*
X146221884Y-68329575D01*
X146408116Y-68329575D01*
X146590770Y-68365907D01*
G37*
G36*
X149130770Y-68365907D02*
G01*
X149302827Y-68437175D01*
X149457674Y-68540640D01*
X149589360Y-68672326D01*
X149692825Y-68827173D01*
X149764093Y-68999230D01*
X149800425Y-69181884D01*
X149800425Y-69368116D01*
X149764093Y-69550770D01*
X149692825Y-69722827D01*
X149589360Y-69877674D01*
X149457674Y-70009360D01*
X149302827Y-70112825D01*
X149130770Y-70184093D01*
X148948116Y-70220425D01*
X148761884Y-70220425D01*
X148579230Y-70184093D01*
X148407173Y-70112825D01*
X148252326Y-70009360D01*
X148120640Y-69877674D01*
X148017175Y-69722827D01*
X147945907Y-69550770D01*
X147909575Y-69368116D01*
X147909575Y-69181884D01*
X147945907Y-68999230D01*
X148017175Y-68827173D01*
X148120640Y-68672326D01*
X148252326Y-68540640D01*
X148407173Y-68437175D01*
X148579230Y-68365907D01*
X148761884Y-68329575D01*
X148948116Y-68329575D01*
X149130770Y-68365907D01*
G37*
G36*
X151670770Y-68365907D02*
G01*
X151842827Y-68437175D01*
X151997674Y-68540640D01*
X152129360Y-68672326D01*
X152232825Y-68827173D01*
X152304093Y-68999230D01*
X152340425Y-69181884D01*
X152340425Y-69368116D01*
X152304093Y-69550770D01*
X152232825Y-69722827D01*
X152129360Y-69877674D01*
X151997674Y-70009360D01*
X151842827Y-70112825D01*
X151670770Y-70184093D01*
X151488116Y-70220425D01*
X151301884Y-70220425D01*
X151119230Y-70184093D01*
X150947173Y-70112825D01*
X150792326Y-70009360D01*
X150660640Y-69877674D01*
X150557175Y-69722827D01*
X150485907Y-69550770D01*
X150449575Y-69368116D01*
X150449575Y-69181884D01*
X150485907Y-68999230D01*
X150557175Y-68827173D01*
X150660640Y-68672326D01*
X150792326Y-68540640D01*
X150947173Y-68437175D01*
X151119230Y-68365907D01*
X151301884Y-68329575D01*
X151488116Y-68329575D01*
X151670770Y-68365907D01*
G37*
G36*
X154210770Y-68365907D02*
G01*
X154382827Y-68437175D01*
X154537674Y-68540640D01*
X154669360Y-68672326D01*
X154772825Y-68827173D01*
X154844093Y-68999230D01*
X154880425Y-69181884D01*
X154880425Y-69368116D01*
X154844093Y-69550770D01*
X154772825Y-69722827D01*
X154669360Y-69877674D01*
X154537674Y-70009360D01*
X154382827Y-70112825D01*
X154210770Y-70184093D01*
X154028116Y-70220425D01*
X153841884Y-70220425D01*
X153659230Y-70184093D01*
X153487173Y-70112825D01*
X153332326Y-70009360D01*
X153200640Y-69877674D01*
X153097175Y-69722827D01*
X153025907Y-69550770D01*
X152989575Y-69368116D01*
X152989575Y-69181884D01*
X153025907Y-68999230D01*
X153097175Y-68827173D01*
X153200640Y-68672326D01*
X153332326Y-68540640D01*
X153487173Y-68437175D01*
X153659230Y-68365907D01*
X153841884Y-68329575D01*
X154028116Y-68329575D01*
X154210770Y-68365907D01*
G37*
G36*
X156750770Y-68365907D02*
G01*
X156922827Y-68437175D01*
X157077674Y-68540640D01*
X157209360Y-68672326D01*
X157312825Y-68827173D01*
X157384093Y-68999230D01*
X157420425Y-69181884D01*
X157420425Y-69368116D01*
X157384093Y-69550770D01*
X157312825Y-69722827D01*
X157209360Y-69877674D01*
X157077674Y-70009360D01*
X156922827Y-70112825D01*
X156750770Y-70184093D01*
X156568116Y-70220425D01*
X156381884Y-70220425D01*
X156199230Y-70184093D01*
X156027173Y-70112825D01*
X155872326Y-70009360D01*
X155740640Y-69877674D01*
X155637175Y-69722827D01*
X155565907Y-69550770D01*
X155529575Y-69368116D01*
X155529575Y-69181884D01*
X155565907Y-68999230D01*
X155637175Y-68827173D01*
X155740640Y-68672326D01*
X155872326Y-68540640D01*
X156027173Y-68437175D01*
X156199230Y-68365907D01*
X156381884Y-68329575D01*
X156568116Y-68329575D01*
X156750770Y-68365907D01*
G37*
G36*
X159290770Y-68365907D02*
G01*
X159462827Y-68437175D01*
X159617674Y-68540640D01*
X159749360Y-68672326D01*
X159852825Y-68827173D01*
X159924093Y-68999230D01*
X159960425Y-69181884D01*
X159960425Y-69368116D01*
X159924093Y-69550770D01*
X159852825Y-69722827D01*
X159749360Y-69877674D01*
X159617674Y-70009360D01*
X159462827Y-70112825D01*
X159290770Y-70184093D01*
X159108116Y-70220425D01*
X158921884Y-70220425D01*
X158739230Y-70184093D01*
X158567173Y-70112825D01*
X158412326Y-70009360D01*
X158280640Y-69877674D01*
X158177175Y-69722827D01*
X158105907Y-69550770D01*
X158069575Y-69368116D01*
X158069575Y-69181884D01*
X158105907Y-68999230D01*
X158177175Y-68827173D01*
X158280640Y-68672326D01*
X158412326Y-68540640D01*
X158567173Y-68437175D01*
X158739230Y-68365907D01*
X158921884Y-68329575D01*
X159108116Y-68329575D01*
X159290770Y-68365907D01*
G37*
G36*
X161830770Y-68365907D02*
G01*
X162002827Y-68437175D01*
X162157674Y-68540640D01*
X162289360Y-68672326D01*
X162392825Y-68827173D01*
X162464093Y-68999230D01*
X162500425Y-69181884D01*
X162500425Y-69368116D01*
X162464093Y-69550770D01*
X162392825Y-69722827D01*
X162289360Y-69877674D01*
X162157674Y-70009360D01*
X162002827Y-70112825D01*
X161830770Y-70184093D01*
X161648116Y-70220425D01*
X161461884Y-70220425D01*
X161279230Y-70184093D01*
X161107173Y-70112825D01*
X160952326Y-70009360D01*
X160820640Y-69877674D01*
X160717175Y-69722827D01*
X160645907Y-69550770D01*
X160609575Y-69368116D01*
X160609575Y-69181884D01*
X160645907Y-68999230D01*
X160717175Y-68827173D01*
X160820640Y-68672326D01*
X160952326Y-68540640D01*
X161107173Y-68437175D01*
X161279230Y-68365907D01*
X161461884Y-68329575D01*
X161648116Y-68329575D01*
X161830770Y-68365907D01*
G37*
G36*
X164370770Y-68365907D02*
G01*
X164542827Y-68437175D01*
X164697674Y-68540640D01*
X164829360Y-68672326D01*
X164932825Y-68827173D01*
X165004093Y-68999230D01*
X165040425Y-69181884D01*
X165040425Y-69368116D01*
X165004093Y-69550770D01*
X164932825Y-69722827D01*
X164829360Y-69877674D01*
X164697674Y-70009360D01*
X164542827Y-70112825D01*
X164370770Y-70184093D01*
X164188116Y-70220425D01*
X164001884Y-70220425D01*
X163819230Y-70184093D01*
X163647173Y-70112825D01*
X163492326Y-70009360D01*
X163360640Y-69877674D01*
X163257175Y-69722827D01*
X163185907Y-69550770D01*
X163149575Y-69368116D01*
X163149575Y-69181884D01*
X163185907Y-68999230D01*
X163257175Y-68827173D01*
X163360640Y-68672326D01*
X163492326Y-68540640D01*
X163647173Y-68437175D01*
X163819230Y-68365907D01*
X164001884Y-68329575D01*
X164188116Y-68329575D01*
X164370770Y-68365907D01*
G37*
G36*
X166910770Y-68365907D02*
G01*
X167082827Y-68437175D01*
X167237674Y-68540640D01*
X167369360Y-68672326D01*
X167472825Y-68827173D01*
X167544093Y-68999230D01*
X167580425Y-69181884D01*
X167580425Y-69368116D01*
X167544093Y-69550770D01*
X167472825Y-69722827D01*
X167369360Y-69877674D01*
X167237674Y-70009360D01*
X167082827Y-70112825D01*
X166910770Y-70184093D01*
X166728116Y-70220425D01*
X166541884Y-70220425D01*
X166359230Y-70184093D01*
X166187173Y-70112825D01*
X166032326Y-70009360D01*
X165900640Y-69877674D01*
X165797175Y-69722827D01*
X165725907Y-69550770D01*
X165689575Y-69368116D01*
X165689575Y-69181884D01*
X165725907Y-68999230D01*
X165797175Y-68827173D01*
X165900640Y-68672326D01*
X166032326Y-68540640D01*
X166187173Y-68437175D01*
X166359230Y-68365907D01*
X166541884Y-68329575D01*
X166728116Y-68329575D01*
X166910770Y-68365907D01*
G37*
G36*
X118650770Y-65825907D02*
G01*
X118822827Y-65897175D01*
X118977674Y-66000640D01*
X119109360Y-66132326D01*
X119212825Y-66287173D01*
X119284093Y-66459230D01*
X119320425Y-66641884D01*
X119320425Y-66828116D01*
X119284093Y-67010770D01*
X119212825Y-67182827D01*
X119109360Y-67337674D01*
X118977674Y-67469360D01*
X118822827Y-67572825D01*
X118650770Y-67644093D01*
X118468116Y-67680425D01*
X118281884Y-67680425D01*
X118099230Y-67644093D01*
X117927173Y-67572825D01*
X117772326Y-67469360D01*
X117640640Y-67337674D01*
X117537175Y-67182827D01*
X117465907Y-67010770D01*
X117429575Y-66828116D01*
X117429575Y-66641884D01*
X117465907Y-66459230D01*
X117537175Y-66287173D01*
X117640640Y-66132326D01*
X117772326Y-66000640D01*
X117927173Y-65897175D01*
X118099230Y-65825907D01*
X118281884Y-65789575D01*
X118468116Y-65789575D01*
X118650770Y-65825907D01*
G37*
G36*
X121190770Y-65825907D02*
G01*
X121362827Y-65897175D01*
X121517674Y-66000640D01*
X121649360Y-66132326D01*
X121752825Y-66287173D01*
X121824093Y-66459230D01*
X121860425Y-66641884D01*
X121860425Y-66828116D01*
X121824093Y-67010770D01*
X121752825Y-67182827D01*
X121649360Y-67337674D01*
X121517674Y-67469360D01*
X121362827Y-67572825D01*
X121190770Y-67644093D01*
X121008116Y-67680425D01*
X120821884Y-67680425D01*
X120639230Y-67644093D01*
X120467173Y-67572825D01*
X120312326Y-67469360D01*
X120180640Y-67337674D01*
X120077175Y-67182827D01*
X120005907Y-67010770D01*
X119969575Y-66828116D01*
X119969575Y-66641884D01*
X120005907Y-66459230D01*
X120077175Y-66287173D01*
X120180640Y-66132326D01*
X120312326Y-66000640D01*
X120467173Y-65897175D01*
X120639230Y-65825907D01*
X120821884Y-65789575D01*
X121008116Y-65789575D01*
X121190770Y-65825907D01*
G37*
G36*
X123730770Y-65825907D02*
G01*
X123902827Y-65897175D01*
X124057674Y-66000640D01*
X124189360Y-66132326D01*
X124292825Y-66287173D01*
X124364093Y-66459230D01*
X124400425Y-66641884D01*
X124400425Y-66828116D01*
X124364093Y-67010770D01*
X124292825Y-67182827D01*
X124189360Y-67337674D01*
X124057674Y-67469360D01*
X123902827Y-67572825D01*
X123730770Y-67644093D01*
X123548116Y-67680425D01*
X123361884Y-67680425D01*
X123179230Y-67644093D01*
X123007173Y-67572825D01*
X122852326Y-67469360D01*
X122720640Y-67337674D01*
X122617175Y-67182827D01*
X122545907Y-67010770D01*
X122509575Y-66828116D01*
X122509575Y-66641884D01*
X122545907Y-66459230D01*
X122617175Y-66287173D01*
X122720640Y-66132326D01*
X122852326Y-66000640D01*
X123007173Y-65897175D01*
X123179230Y-65825907D01*
X123361884Y-65789575D01*
X123548116Y-65789575D01*
X123730770Y-65825907D01*
G37*
G36*
X126270770Y-65825907D02*
G01*
X126442827Y-65897175D01*
X126597674Y-66000640D01*
X126729360Y-66132326D01*
X126832825Y-66287173D01*
X126904093Y-66459230D01*
X126940425Y-66641884D01*
X126940425Y-66828116D01*
X126904093Y-67010770D01*
X126832825Y-67182827D01*
X126729360Y-67337674D01*
X126597674Y-67469360D01*
X126442827Y-67572825D01*
X126270770Y-67644093D01*
X126088116Y-67680425D01*
X125901884Y-67680425D01*
X125719230Y-67644093D01*
X125547173Y-67572825D01*
X125392326Y-67469360D01*
X125260640Y-67337674D01*
X125157175Y-67182827D01*
X125085907Y-67010770D01*
X125049575Y-66828116D01*
X125049575Y-66641884D01*
X125085907Y-66459230D01*
X125157175Y-66287173D01*
X125260640Y-66132326D01*
X125392326Y-66000640D01*
X125547173Y-65897175D01*
X125719230Y-65825907D01*
X125901884Y-65789575D01*
X126088116Y-65789575D01*
X126270770Y-65825907D01*
G37*
G36*
X128810770Y-65825907D02*
G01*
X128982827Y-65897175D01*
X129137674Y-66000640D01*
X129269360Y-66132326D01*
X129372825Y-66287173D01*
X129444093Y-66459230D01*
X129480425Y-66641884D01*
X129480425Y-66828116D01*
X129444093Y-67010770D01*
X129372825Y-67182827D01*
X129269360Y-67337674D01*
X129137674Y-67469360D01*
X128982827Y-67572825D01*
X128810770Y-67644093D01*
X128628116Y-67680425D01*
X128441884Y-67680425D01*
X128259230Y-67644093D01*
X128087173Y-67572825D01*
X127932326Y-67469360D01*
X127800640Y-67337674D01*
X127697175Y-67182827D01*
X127625907Y-67010770D01*
X127589575Y-66828116D01*
X127589575Y-66641884D01*
X127625907Y-66459230D01*
X127697175Y-66287173D01*
X127800640Y-66132326D01*
X127932326Y-66000640D01*
X128087173Y-65897175D01*
X128259230Y-65825907D01*
X128441884Y-65789575D01*
X128628116Y-65789575D01*
X128810770Y-65825907D01*
G37*
G36*
X131350770Y-65825907D02*
G01*
X131522827Y-65897175D01*
X131677674Y-66000640D01*
X131809360Y-66132326D01*
X131912825Y-66287173D01*
X131984093Y-66459230D01*
X132020425Y-66641884D01*
X132020425Y-66828116D01*
X131984093Y-67010770D01*
X131912825Y-67182827D01*
X131809360Y-67337674D01*
X131677674Y-67469360D01*
X131522827Y-67572825D01*
X131350770Y-67644093D01*
X131168116Y-67680425D01*
X130981884Y-67680425D01*
X130799230Y-67644093D01*
X130627173Y-67572825D01*
X130472326Y-67469360D01*
X130340640Y-67337674D01*
X130237175Y-67182827D01*
X130165907Y-67010770D01*
X130129575Y-66828116D01*
X130129575Y-66641884D01*
X130165907Y-66459230D01*
X130237175Y-66287173D01*
X130340640Y-66132326D01*
X130472326Y-66000640D01*
X130627173Y-65897175D01*
X130799230Y-65825907D01*
X130981884Y-65789575D01*
X131168116Y-65789575D01*
X131350770Y-65825907D01*
G37*
G36*
X133890770Y-65825907D02*
G01*
X134062827Y-65897175D01*
X134217674Y-66000640D01*
X134349360Y-66132326D01*
X134452825Y-66287173D01*
X134524093Y-66459230D01*
X134560425Y-66641884D01*
X134560425Y-66828116D01*
X134524093Y-67010770D01*
X134452825Y-67182827D01*
X134349360Y-67337674D01*
X134217674Y-67469360D01*
X134062827Y-67572825D01*
X133890770Y-67644093D01*
X133708116Y-67680425D01*
X133521884Y-67680425D01*
X133339230Y-67644093D01*
X133167173Y-67572825D01*
X133012326Y-67469360D01*
X132880640Y-67337674D01*
X132777175Y-67182827D01*
X132705907Y-67010770D01*
X132669575Y-66828116D01*
X132669575Y-66641884D01*
X132705907Y-66459230D01*
X132777175Y-66287173D01*
X132880640Y-66132326D01*
X133012326Y-66000640D01*
X133167173Y-65897175D01*
X133339230Y-65825907D01*
X133521884Y-65789575D01*
X133708116Y-65789575D01*
X133890770Y-65825907D01*
G37*
G36*
X136430770Y-65825907D02*
G01*
X136602827Y-65897175D01*
X136757674Y-66000640D01*
X136889360Y-66132326D01*
X136992825Y-66287173D01*
X137064093Y-66459230D01*
X137100425Y-66641884D01*
X137100425Y-66828116D01*
X137064093Y-67010770D01*
X136992825Y-67182827D01*
X136889360Y-67337674D01*
X136757674Y-67469360D01*
X136602827Y-67572825D01*
X136430770Y-67644093D01*
X136248116Y-67680425D01*
X136061884Y-67680425D01*
X135879230Y-67644093D01*
X135707173Y-67572825D01*
X135552326Y-67469360D01*
X135420640Y-67337674D01*
X135317175Y-67182827D01*
X135245907Y-67010770D01*
X135209575Y-66828116D01*
X135209575Y-66641884D01*
X135245907Y-66459230D01*
X135317175Y-66287173D01*
X135420640Y-66132326D01*
X135552326Y-66000640D01*
X135707173Y-65897175D01*
X135879230Y-65825907D01*
X136061884Y-65789575D01*
X136248116Y-65789575D01*
X136430770Y-65825907D01*
G37*
G36*
X138970770Y-65825907D02*
G01*
X139142827Y-65897175D01*
X139297674Y-66000640D01*
X139429360Y-66132326D01*
X139532825Y-66287173D01*
X139604093Y-66459230D01*
X139640425Y-66641884D01*
X139640425Y-66828116D01*
X139604093Y-67010770D01*
X139532825Y-67182827D01*
X139429360Y-67337674D01*
X139297674Y-67469360D01*
X139142827Y-67572825D01*
X138970770Y-67644093D01*
X138788116Y-67680425D01*
X138601884Y-67680425D01*
X138419230Y-67644093D01*
X138247173Y-67572825D01*
X138092326Y-67469360D01*
X137960640Y-67337674D01*
X137857175Y-67182827D01*
X137785907Y-67010770D01*
X137749575Y-66828116D01*
X137749575Y-66641884D01*
X137785907Y-66459230D01*
X137857175Y-66287173D01*
X137960640Y-66132326D01*
X138092326Y-66000640D01*
X138247173Y-65897175D01*
X138419230Y-65825907D01*
X138601884Y-65789575D01*
X138788116Y-65789575D01*
X138970770Y-65825907D01*
G37*
G36*
X141510770Y-65825907D02*
G01*
X141682827Y-65897175D01*
X141837674Y-66000640D01*
X141969360Y-66132326D01*
X142072825Y-66287173D01*
X142144093Y-66459230D01*
X142180425Y-66641884D01*
X142180425Y-66828116D01*
X142144093Y-67010770D01*
X142072825Y-67182827D01*
X141969360Y-67337674D01*
X141837674Y-67469360D01*
X141682827Y-67572825D01*
X141510770Y-67644093D01*
X141328116Y-67680425D01*
X141141884Y-67680425D01*
X140959230Y-67644093D01*
X140787173Y-67572825D01*
X140632326Y-67469360D01*
X140500640Y-67337674D01*
X140397175Y-67182827D01*
X140325907Y-67010770D01*
X140289575Y-66828116D01*
X140289575Y-66641884D01*
X140325907Y-66459230D01*
X140397175Y-66287173D01*
X140500640Y-66132326D01*
X140632326Y-66000640D01*
X140787173Y-65897175D01*
X140959230Y-65825907D01*
X141141884Y-65789575D01*
X141328116Y-65789575D01*
X141510770Y-65825907D01*
G37*
G36*
X144050770Y-65825907D02*
G01*
X144222827Y-65897175D01*
X144377674Y-66000640D01*
X144509360Y-66132326D01*
X144612825Y-66287173D01*
X144684093Y-66459230D01*
X144720425Y-66641884D01*
X144720425Y-66828116D01*
X144684093Y-67010770D01*
X144612825Y-67182827D01*
X144509360Y-67337674D01*
X144377674Y-67469360D01*
X144222827Y-67572825D01*
X144050770Y-67644093D01*
X143868116Y-67680425D01*
X143681884Y-67680425D01*
X143499230Y-67644093D01*
X143327173Y-67572825D01*
X143172326Y-67469360D01*
X143040640Y-67337674D01*
X142937175Y-67182827D01*
X142865907Y-67010770D01*
X142829575Y-66828116D01*
X142829575Y-66641884D01*
X142865907Y-66459230D01*
X142937175Y-66287173D01*
X143040640Y-66132326D01*
X143172326Y-66000640D01*
X143327173Y-65897175D01*
X143499230Y-65825907D01*
X143681884Y-65789575D01*
X143868116Y-65789575D01*
X144050770Y-65825907D01*
G37*
G36*
X146590770Y-65825907D02*
G01*
X146762827Y-65897175D01*
X146917674Y-66000640D01*
X147049360Y-66132326D01*
X147152825Y-66287173D01*
X147224093Y-66459230D01*
X147260425Y-66641884D01*
X147260425Y-66828116D01*
X147224093Y-67010770D01*
X147152825Y-67182827D01*
X147049360Y-67337674D01*
X146917674Y-67469360D01*
X146762827Y-67572825D01*
X146590770Y-67644093D01*
X146408116Y-67680425D01*
X146221884Y-67680425D01*
X146039230Y-67644093D01*
X145867173Y-67572825D01*
X145712326Y-67469360D01*
X145580640Y-67337674D01*
X145477175Y-67182827D01*
X145405907Y-67010770D01*
X145369575Y-66828116D01*
X145369575Y-66641884D01*
X145405907Y-66459230D01*
X145477175Y-66287173D01*
X145580640Y-66132326D01*
X145712326Y-66000640D01*
X145867173Y-65897175D01*
X146039230Y-65825907D01*
X146221884Y-65789575D01*
X146408116Y-65789575D01*
X146590770Y-65825907D01*
G37*
G36*
X149130770Y-65825907D02*
G01*
X149302827Y-65897175D01*
X149457674Y-66000640D01*
X149589360Y-66132326D01*
X149692825Y-66287173D01*
X149764093Y-66459230D01*
X149800425Y-66641884D01*
X149800425Y-66828116D01*
X149764093Y-67010770D01*
X149692825Y-67182827D01*
X149589360Y-67337674D01*
X149457674Y-67469360D01*
X149302827Y-67572825D01*
X149130770Y-67644093D01*
X148948116Y-67680425D01*
X148761884Y-67680425D01*
X148579230Y-67644093D01*
X148407173Y-67572825D01*
X148252326Y-67469360D01*
X148120640Y-67337674D01*
X148017175Y-67182827D01*
X147945907Y-67010770D01*
X147909575Y-66828116D01*
X147909575Y-66641884D01*
X147945907Y-66459230D01*
X148017175Y-66287173D01*
X148120640Y-66132326D01*
X148252326Y-66000640D01*
X148407173Y-65897175D01*
X148579230Y-65825907D01*
X148761884Y-65789575D01*
X148948116Y-65789575D01*
X149130770Y-65825907D01*
G37*
G36*
X151670770Y-65825907D02*
G01*
X151842827Y-65897175D01*
X151997674Y-66000640D01*
X152129360Y-66132326D01*
X152232825Y-66287173D01*
X152304093Y-66459230D01*
X152340425Y-66641884D01*
X152340425Y-66828116D01*
X152304093Y-67010770D01*
X152232825Y-67182827D01*
X152129360Y-67337674D01*
X151997674Y-67469360D01*
X151842827Y-67572825D01*
X151670770Y-67644093D01*
X151488116Y-67680425D01*
X151301884Y-67680425D01*
X151119230Y-67644093D01*
X150947173Y-67572825D01*
X150792326Y-67469360D01*
X150660640Y-67337674D01*
X150557175Y-67182827D01*
X150485907Y-67010770D01*
X150449575Y-66828116D01*
X150449575Y-66641884D01*
X150485907Y-66459230D01*
X150557175Y-66287173D01*
X150660640Y-66132326D01*
X150792326Y-66000640D01*
X150947173Y-65897175D01*
X151119230Y-65825907D01*
X151301884Y-65789575D01*
X151488116Y-65789575D01*
X151670770Y-65825907D01*
G37*
G36*
X154210770Y-65825907D02*
G01*
X154382827Y-65897175D01*
X154537674Y-66000640D01*
X154669360Y-66132326D01*
X154772825Y-66287173D01*
X154844093Y-66459230D01*
X154880425Y-66641884D01*
X154880425Y-66828116D01*
X154844093Y-67010770D01*
X154772825Y-67182827D01*
X154669360Y-67337674D01*
X154537674Y-67469360D01*
X154382827Y-67572825D01*
X154210770Y-67644093D01*
X154028116Y-67680425D01*
X153841884Y-67680425D01*
X153659230Y-67644093D01*
X153487173Y-67572825D01*
X153332326Y-67469360D01*
X153200640Y-67337674D01*
X153097175Y-67182827D01*
X153025907Y-67010770D01*
X152989575Y-66828116D01*
X152989575Y-66641884D01*
X153025907Y-66459230D01*
X153097175Y-66287173D01*
X153200640Y-66132326D01*
X153332326Y-66000640D01*
X153487173Y-65897175D01*
X153659230Y-65825907D01*
X153841884Y-65789575D01*
X154028116Y-65789575D01*
X154210770Y-65825907D01*
G37*
G36*
X156750770Y-65825907D02*
G01*
X156922827Y-65897175D01*
X157077674Y-66000640D01*
X157209360Y-66132326D01*
X157312825Y-66287173D01*
X157384093Y-66459230D01*
X157420425Y-66641884D01*
X157420425Y-66828116D01*
X157384093Y-67010770D01*
X157312825Y-67182827D01*
X157209360Y-67337674D01*
X157077674Y-67469360D01*
X156922827Y-67572825D01*
X156750770Y-67644093D01*
X156568116Y-67680425D01*
X156381884Y-67680425D01*
X156199230Y-67644093D01*
X156027173Y-67572825D01*
X155872326Y-67469360D01*
X155740640Y-67337674D01*
X155637175Y-67182827D01*
X155565907Y-67010770D01*
X155529575Y-66828116D01*
X155529575Y-66641884D01*
X155565907Y-66459230D01*
X155637175Y-66287173D01*
X155740640Y-66132326D01*
X155872326Y-66000640D01*
X156027173Y-65897175D01*
X156199230Y-65825907D01*
X156381884Y-65789575D01*
X156568116Y-65789575D01*
X156750770Y-65825907D01*
G37*
G36*
X159290770Y-65825907D02*
G01*
X159462827Y-65897175D01*
X159617674Y-66000640D01*
X159749360Y-66132326D01*
X159852825Y-66287173D01*
X159924093Y-66459230D01*
X159960425Y-66641884D01*
X159960425Y-66828116D01*
X159924093Y-67010770D01*
X159852825Y-67182827D01*
X159749360Y-67337674D01*
X159617674Y-67469360D01*
X159462827Y-67572825D01*
X159290770Y-67644093D01*
X159108116Y-67680425D01*
X158921884Y-67680425D01*
X158739230Y-67644093D01*
X158567173Y-67572825D01*
X158412326Y-67469360D01*
X158280640Y-67337674D01*
X158177175Y-67182827D01*
X158105907Y-67010770D01*
X158069575Y-66828116D01*
X158069575Y-66641884D01*
X158105907Y-66459230D01*
X158177175Y-66287173D01*
X158280640Y-66132326D01*
X158412326Y-66000640D01*
X158567173Y-65897175D01*
X158739230Y-65825907D01*
X158921884Y-65789575D01*
X159108116Y-65789575D01*
X159290770Y-65825907D01*
G37*
G36*
X161830770Y-65825907D02*
G01*
X162002827Y-65897175D01*
X162157674Y-66000640D01*
X162289360Y-66132326D01*
X162392825Y-66287173D01*
X162464093Y-66459230D01*
X162500425Y-66641884D01*
X162500425Y-66828116D01*
X162464093Y-67010770D01*
X162392825Y-67182827D01*
X162289360Y-67337674D01*
X162157674Y-67469360D01*
X162002827Y-67572825D01*
X161830770Y-67644093D01*
X161648116Y-67680425D01*
X161461884Y-67680425D01*
X161279230Y-67644093D01*
X161107173Y-67572825D01*
X160952326Y-67469360D01*
X160820640Y-67337674D01*
X160717175Y-67182827D01*
X160645907Y-67010770D01*
X160609575Y-66828116D01*
X160609575Y-66641884D01*
X160645907Y-66459230D01*
X160717175Y-66287173D01*
X160820640Y-66132326D01*
X160952326Y-66000640D01*
X161107173Y-65897175D01*
X161279230Y-65825907D01*
X161461884Y-65789575D01*
X161648116Y-65789575D01*
X161830770Y-65825907D01*
G37*
G36*
X164370770Y-65825907D02*
G01*
X164542827Y-65897175D01*
X164697674Y-66000640D01*
X164829360Y-66132326D01*
X164932825Y-66287173D01*
X165004093Y-66459230D01*
X165040425Y-66641884D01*
X165040425Y-66828116D01*
X165004093Y-67010770D01*
X164932825Y-67182827D01*
X164829360Y-67337674D01*
X164697674Y-67469360D01*
X164542827Y-67572825D01*
X164370770Y-67644093D01*
X164188116Y-67680425D01*
X164001884Y-67680425D01*
X163819230Y-67644093D01*
X163647173Y-67572825D01*
X163492326Y-67469360D01*
X163360640Y-67337674D01*
X163257175Y-67182827D01*
X163185907Y-67010770D01*
X163149575Y-66828116D01*
X163149575Y-66641884D01*
X163185907Y-66459230D01*
X163257175Y-66287173D01*
X163360640Y-66132326D01*
X163492326Y-66000640D01*
X163647173Y-65897175D01*
X163819230Y-65825907D01*
X164001884Y-65789575D01*
X164188116Y-65789575D01*
X164370770Y-65825907D01*
G37*
G36*
X166910770Y-65825907D02*
G01*
X167082827Y-65897175D01*
X167237674Y-66000640D01*
X167369360Y-66132326D01*
X167472825Y-66287173D01*
X167544093Y-66459230D01*
X167580425Y-66641884D01*
X167580425Y-66828116D01*
X167544093Y-67010770D01*
X167472825Y-67182827D01*
X167369360Y-67337674D01*
X167237674Y-67469360D01*
X167082827Y-67572825D01*
X166910770Y-67644093D01*
X166728116Y-67680425D01*
X166541884Y-67680425D01*
X166359230Y-67644093D01*
X166187173Y-67572825D01*
X166032326Y-67469360D01*
X165900640Y-67337674D01*
X165797175Y-67182827D01*
X165725907Y-67010770D01*
X165689575Y-66828116D01*
X165689575Y-66641884D01*
X165725907Y-66459230D01*
X165797175Y-66287173D01*
X165900640Y-66132326D01*
X166032326Y-66000640D01*
X166187173Y-65897175D01*
X166359230Y-65825907D01*
X166541884Y-65789575D01*
X166728116Y-65789575D01*
X166910770Y-65825907D01*
G37*
M02*
