%TF.GenerationSoftware,KiCad,Pcbnew,9.0.6*%
%TF.CreationDate,2026-01-16T00:05:44+01:00*%
%TF.ProjectId,fdcanhat,66646361-6e68-4617-942e-6b696361645f,rev?*%
%TF.SameCoordinates,Original*%
%TF.FileFunction,Copper,L4,Bot*%
%TF.FilePolarity,Positive*%
%FSLAX46Y46*%
G04 Gerber Fmt 4.6, Leading zero omitted, Abs format (unit mm)*
G04 Created by KiCad (PCBNEW 9.0.6) date 2026-01-16 00:05:44*
%MOMM*%
%LPD*%
G01*
G04 APERTURE LIST*
%TA.AperFunction,ComponentPad*%
%ADD10C,2.500000*%
%TD*%
%TA.AperFunction,ComponentPad*%
%ADD11C,1.800000*%
%TD*%
%TA.AperFunction,ComponentPad*%
%ADD12R,1.700000X1.700000*%
%TD*%
%TA.AperFunction,ComponentPad*%
%ADD13C,1.700000*%
%TD*%
%TA.AperFunction,ComponentPad*%
%ADD14C,0.800000*%
%TD*%
%TA.AperFunction,ComponentPad*%
%ADD15C,5.400000*%
%TD*%
%TA.AperFunction,ViaPad*%
%ADD16C,0.600000*%
%TD*%
%TA.AperFunction,Conductor*%
%ADD17C,0.200000*%
%TD*%
G04 APERTURE END LIST*
D10*
%TO.P,J3,1,Pin_1*%
%TO.N,GND*%
X123262500Y-77000000D03*
%TO.P,J3,2,Pin_2*%
%TO.N,+BAT*%
X123262500Y-82000000D03*
D11*
%TO.P,J3,MP1,MP1*%
%TO.N,unconnected-(J3-PadMP1)*%
X113262500Y-74000000D03*
%TO.P,J3,MP2,MP2*%
%TO.N,unconnected-(J3-PadMP2)*%
X113262500Y-85000000D03*
%TD*%
D12*
%TO.P,J1,1,3V3*%
%TO.N,unconnected-(J1-3V3-Pad1)*%
X118375000Y-69275000D03*
D13*
%TO.P,J1,2,5V*%
%TO.N,+5V*%
X118375000Y-66735000D03*
%TO.P,J1,3,SDA_I2C1/GPIO02*%
%TO.N,/MON_SDA*%
X120915000Y-69275000D03*
%TO.P,J1,4,5V*%
%TO.N,+5V*%
X120915000Y-66735000D03*
%TO.P,J1,5,SCL_I2C1/GPIO03*%
%TO.N,/MON_SCL*%
X123455000Y-69275000D03*
%TO.P,J1,6,GND*%
%TO.N,GND*%
X123455000Y-66735000D03*
%TO.P,J1,7,GPCLK0/GPIO04*%
%TO.N,/RTK_PPS*%
X125995000Y-69275000D03*
%TO.P,J1,8,GPIO14/UART_TXD*%
%TO.N,/RTK_TXD*%
X125995000Y-66735000D03*
%TO.P,J1,9,GND*%
%TO.N,GND*%
X128535000Y-69275000D03*
%TO.P,J1,10,GPIO15/UART_RXD*%
%TO.N,/RTK_RXD*%
X128535000Y-66735000D03*
%TO.P,J1,11,GPIO17/SPI1_~{CE1}*%
%TO.N,unconnected-(J1-GPIO17{slash}SPI1_~{CE1}-Pad11)*%
X131075000Y-69275000D03*
%TO.P,J1,12,GPIO18/SPI1_~{CE0}/PCM_CLK/PWM0*%
%TO.N,unconnected-(J1-GPIO18{slash}SPI1_~{CE0}{slash}PCM_CLK{slash}PWM0-Pad12)*%
X131075000Y-66735000D03*
%TO.P,J1,13,GPIO27/SDIO_DAT3*%
%TO.N,unconnected-(J1-GPIO27{slash}SDIO_DAT3-Pad13)*%
X133615000Y-69275000D03*
%TO.P,J1,14,GND*%
%TO.N,GND*%
X133615000Y-66735000D03*
%TO.P,J1,15,GPIO22/SDIO_CLK*%
%TO.N,unconnected-(J1-GPIO22{slash}SDIO_CLK-Pad15)*%
X136155000Y-69275000D03*
%TO.P,J1,16,GPIO23/SDIO_CMD*%
%TO.N,unconnected-(J1-GPIO23{slash}SDIO_CMD-Pad16)*%
X136155000Y-66735000D03*
%TO.P,J1,17,3V3*%
%TO.N,unconnected-(J1-3V3-Pad17)*%
X138695000Y-69275000D03*
%TO.P,J1,18,GPIO24/SDIO_DAT0*%
%TO.N,unconnected-(J1-GPIO24{slash}SDIO_DAT0-Pad18)*%
X138695000Y-66735000D03*
%TO.P,J1,19,MOSI_SPI0/GPIO10*%
%TO.N,/FDCAN/SPI0_MOSI*%
X141235000Y-69275000D03*
%TO.P,J1,20,GND*%
%TO.N,GND*%
X141235000Y-66735000D03*
%TO.P,J1,21,MISO_SPI0/GPIO09*%
%TO.N,/FDCAN/SPI0_MISO*%
X143775000Y-69275000D03*
%TO.P,J1,22,GPIO25/SDIO_DAT1*%
%TO.N,unconnected-(J1-GPIO25{slash}SDIO_DAT1-Pad22)*%
X143775000Y-66735000D03*
%TO.P,J1,23,SCLK_SPI0/GPIO11*%
%TO.N,/FDCAN/SPI0_SCK*%
X146315000Y-69275000D03*
%TO.P,J1,24,~{CE0}_SPI0/GPIO08*%
%TO.N,/FDCAN1_CS*%
X146315000Y-66735000D03*
%TO.P,J1,25,GND*%
%TO.N,GND*%
X148855000Y-69275000D03*
%TO.P,J1,26,~{CE1}_SPI0/GPIO07*%
%TO.N,/FDCAN2_CS*%
X148855000Y-66735000D03*
%TO.P,J1,27,ID_SD_I2C0/GPIO00*%
%TO.N,unconnected-(J1-ID_SD_I2C0{slash}GPIO00-Pad27)*%
X151395000Y-69275000D03*
%TO.P,J1,28,ID_SC_I2C0/GPIO01*%
%TO.N,unconnected-(J1-ID_SC_I2C0{slash}GPIO01-Pad28)*%
X151395000Y-66735000D03*
%TO.P,J1,29,GPCLK1/GPIO05*%
%TO.N,/FDCAN1_INT*%
X153935000Y-69275000D03*
%TO.P,J1,30,GND*%
%TO.N,GND*%
X153935000Y-66735000D03*
%TO.P,J1,31,GPCLK2/GPIO06*%
%TO.N,/FDCAN2_INT*%
X156475000Y-69275000D03*
%TO.P,J1,32,GPIO12/PWM0*%
%TO.N,unconnected-(J1-GPIO12{slash}PWM0-Pad32)*%
X156475000Y-66735000D03*
%TO.P,J1,33,GPIO13/PWM1*%
%TO.N,unconnected-(J1-GPIO13{slash}PWM1-Pad33)*%
X159015000Y-69275000D03*
%TO.P,J1,34,GND*%
%TO.N,GND*%
X159015000Y-66735000D03*
%TO.P,J1,35,GPIO19/SPI1_MISO/PCM_FS*%
%TO.N,unconnected-(J1-GPIO19{slash}SPI1_MISO{slash}PCM_FS-Pad35)*%
X161555000Y-69275000D03*
%TO.P,J1,36,GPIO16/SPI1_~{CE2}*%
%TO.N,unconnected-(J1-GPIO16{slash}SPI1_~{CE2}-Pad36)*%
X161555000Y-66735000D03*
%TO.P,J1,37,GPIO26/SDIO_DAT2*%
%TO.N,/ADD_LED*%
X164095000Y-69275000D03*
%TO.P,J1,38,GPIO20/SPI1_MOSI/PCM_DIN/PWM1*%
%TO.N,unconnected-(J1-GPIO20{slash}SPI1_MOSI{slash}PCM_DIN{slash}PWM1-Pad38)*%
X164095000Y-66735000D03*
%TO.P,J1,39,GND*%
%TO.N,GND*%
X166635000Y-69275000D03*
%TO.P,J1,40,GPIO21/SPI1_SCLK/PCM_DOUT*%
%TO.N,unconnected-(J1-GPIO21{slash}SPI1_SCLK{slash}PCM_DOUT-Pad40)*%
X166635000Y-66735000D03*
%TD*%
D14*
%TO.P,H4,1,1*%
%TO.N,GND*%
X169475000Y-117000000D03*
X170068109Y-115568109D03*
X170068109Y-118431891D03*
X171500000Y-114975000D03*
D15*
X171500000Y-117000000D03*
D14*
X171500000Y-119025000D03*
X172931891Y-115568109D03*
X172931891Y-118431891D03*
X173525000Y-117000000D03*
%TD*%
%TO.P,H1,1,1*%
%TO.N,GND*%
X111475000Y-68000000D03*
X112068109Y-66568109D03*
X112068109Y-69431891D03*
X113500000Y-65975000D03*
D15*
X113500000Y-68000000D03*
D14*
X113500000Y-70025000D03*
X114931891Y-66568109D03*
X114931891Y-69431891D03*
X115525000Y-68000000D03*
%TD*%
%TO.P,H2,1,1*%
%TO.N,GND*%
X169475000Y-68000000D03*
X170068109Y-66568109D03*
X170068109Y-69431891D03*
X171500000Y-65975000D03*
D15*
X171500000Y-68000000D03*
D14*
X171500000Y-70025000D03*
X172931891Y-66568109D03*
X172931891Y-69431891D03*
X173525000Y-68000000D03*
%TD*%
%TO.P,H3,1,1*%
%TO.N,GND*%
X111475000Y-117000000D03*
X112068109Y-115568109D03*
X112068109Y-118431891D03*
X113500000Y-114975000D03*
D15*
X113500000Y-117000000D03*
D14*
X113500000Y-119025000D03*
X114931891Y-115568109D03*
X114931891Y-118431891D03*
X115525000Y-117000000D03*
%TD*%
D16*
%TO.N,GND*%
X113000000Y-105000000D03*
X113000000Y-104000000D03*
X113000000Y-103000000D03*
%TO.N,+3V3*%
X128000000Y-115000000D03*
X127000000Y-115000000D03*
X128000000Y-114000000D03*
X127000000Y-114000000D03*
%TO.N,GND*%
X130200000Y-114300000D03*
X136500000Y-118000000D03*
X131000000Y-118000000D03*
%TO.N,/RTK_TXD*%
X134900000Y-117500000D03*
%TO.N,/RTK_RXD*%
X133650000Y-117500000D03*
%TO.N,/RTK_PPS*%
X132400000Y-116000000D03*
%TO.N,+3V3*%
X157000000Y-73000000D03*
X136400000Y-71500000D03*
%TO.N,/FDCAN1_INT*%
X154000000Y-73000000D03*
X143000000Y-73000000D03*
%TO.N,/FDCAN2_INT*%
X160900000Y-77520859D03*
%TO.N,/FDCAN1_INT*%
X138880000Y-77500000D03*
%TO.N,/FDCAN2_CS*%
X150000000Y-72500000D03*
%TO.N,GND*%
X142500000Y-75000000D03*
X164500000Y-75000000D03*
X158000000Y-75000000D03*
X136000000Y-75000000D03*
X165100000Y-80600000D03*
X143100000Y-80500000D03*
X132500000Y-102700000D03*
X132500000Y-105300000D03*
X132000000Y-101500000D03*
X132000000Y-106500000D03*
X132000000Y-104000000D03*
%TO.N,/MON_SCL*%
X133000000Y-89500000D03*
%TO.N,/MON_SDA*%
X132000000Y-89500000D03*
%TO.N,GND*%
X119500000Y-117000000D03*
X119500000Y-118500000D03*
X117500000Y-118500000D03*
X117500000Y-117000000D03*
X117500000Y-115500000D03*
X143500000Y-111500000D03*
X156500000Y-111500000D03*
X157000000Y-103500000D03*
X144000000Y-103500000D03*
X144500000Y-102500000D03*
X143500000Y-102500000D03*
X157500000Y-102500000D03*
X156500000Y-102500000D03*
X154100000Y-105500000D03*
X140600000Y-105500000D03*
%TO.N,+5V*%
X139000000Y-106500000D03*
X152500000Y-106500000D03*
%TO.N,GND*%
X152400000Y-114400000D03*
X165400000Y-114400000D03*
X164835000Y-117500000D03*
X160165000Y-117500000D03*
X151835000Y-117500000D03*
X147165000Y-117500000D03*
%TO.N,+5V*%
X140600000Y-107000000D03*
%TO.N,/FDCAN/FDCAN1_RX*%
X140900000Y-83000000D03*
%TO.N,/FDCAN/FDCAN2_RX*%
X163000000Y-83000000D03*
%TO.N,+3V3*%
X159500000Y-109500000D03*
X146500000Y-109500000D03*
%TO.N,/FDCAN/FDCAN1_RX*%
X141000000Y-81000000D03*
%TO.N,/FDCAN/FDCAN2_RX*%
X163000000Y-81000000D03*
%TO.N,GND*%
X161500000Y-79460000D03*
X166500000Y-76500000D03*
X142500000Y-76000000D03*
X139500000Y-79500000D03*
X144500000Y-76500000D03*
%TO.N,/FDCAN/SPI0_SCK*%
X140118750Y-71800000D03*
%TO.N,/FDCAN/SPI0_MISO*%
X141500000Y-70700000D03*
X138818750Y-70700000D03*
%TO.N,GND*%
X118000000Y-98000000D03*
X173500000Y-104000000D03*
X132000000Y-97500000D03*
X173500000Y-87000000D03*
X123000000Y-84500000D03*
X111510000Y-109510000D03*
X118000000Y-105000000D03*
X168500000Y-77500000D03*
X116500000Y-86000000D03*
X168500000Y-80000000D03*
X168500000Y-74500000D03*
X111500000Y-87500000D03*
X118750000Y-94800000D03*
X117800000Y-108600000D03*
X170000000Y-87500000D03*
X123750000Y-110050000D03*
X128000000Y-97500000D03*
X170000000Y-96000000D03*
X125500000Y-94000000D03*
X123500000Y-97500000D03*
X115500000Y-86000000D03*
X111400000Y-99000000D03*
X118000000Y-103000000D03*
X111500000Y-86500000D03*
X173500000Y-78500000D03*
X120520000Y-95480000D03*
X125500000Y-95000000D03*
X170000000Y-104500000D03*
X173500000Y-95500000D03*
%TO.N,+3V3*%
X130500000Y-94000000D03*
X120000000Y-99000000D03*
X118600000Y-96362500D03*
X121500000Y-93500000D03*
X127500000Y-95000000D03*
X131000000Y-92000000D03*
X126000000Y-115000000D03*
X126000000Y-114000000D03*
X132000000Y-93600000D03*
X125200000Y-118000000D03*
%TO.N,+5V*%
X154224265Y-106875735D03*
%TD*%
D17*
%TO.N,/RTK_TXD*%
X124260000Y-65000000D02*
X125995000Y-66735000D01*
X116966450Y-65000000D02*
X124260000Y-65000000D01*
X116500000Y-65466450D02*
X116966450Y-65000000D01*
X116500000Y-70999998D02*
X116500000Y-65466450D01*
X117500002Y-72000000D02*
X116500000Y-70999998D01*
X116500002Y-87378680D02*
X117500002Y-86378680D01*
X116500002Y-94878680D02*
X116500002Y-87378680D01*
X111000000Y-107500000D02*
X111000000Y-100378682D01*
X117500002Y-86378680D02*
X117500002Y-72000000D01*
X122601000Y-119101000D02*
X111000000Y-107500000D01*
X111000000Y-100378682D02*
X116500002Y-94878680D01*
X134799000Y-119101000D02*
X122601000Y-119101000D01*
X134900000Y-119000000D02*
X134799000Y-119101000D01*
X134900000Y-117500000D02*
X134900000Y-119000000D01*
%TO.N,/FDCAN/SPI0_SCK*%
X143790000Y-71800000D02*
X146315000Y-69275000D01*
X140118750Y-71800000D02*
X143790000Y-71800000D01*
%TO.N,/RTK_RXD*%
X121500000Y-116500000D02*
X121674972Y-116674972D01*
X122500000Y-117500000D02*
X121500000Y-116500000D01*
X124850057Y-117500000D02*
X122500000Y-117500000D01*
X125549943Y-117500000D02*
X125448943Y-117399000D01*
X125448943Y-117399000D02*
X124951057Y-117399000D01*
X130650057Y-117500000D02*
X125549943Y-117500000D01*
X130751057Y-117399000D02*
X130650057Y-117500000D01*
X131248943Y-117399000D02*
X130751057Y-117399000D01*
X124951057Y-117399000D02*
X124850057Y-117500000D01*
X131349943Y-117500000D02*
X131248943Y-117399000D01*
X133650000Y-117500000D02*
X131349943Y-117500000D01*
X128535000Y-68000000D02*
X128535000Y-66735000D01*
X125632240Y-68000000D02*
X128535000Y-68000000D01*
X124844000Y-66344000D02*
X124844000Y-67211760D01*
X124084000Y-65584000D02*
X124844000Y-66344000D01*
X117416000Y-65584000D02*
X124084000Y-65584000D01*
X117000000Y-70500000D02*
X117000000Y-66000000D01*
X117000000Y-95085786D02*
X117000000Y-87585786D01*
X111500000Y-100585786D02*
X117000000Y-95085786D01*
X118000000Y-86585786D02*
X118000000Y-71500000D01*
X118000000Y-71500000D02*
X117000000Y-70500000D01*
X117000000Y-66000000D02*
X117416000Y-65584000D01*
X111500000Y-106500000D02*
X111500000Y-100585786D01*
X117000000Y-87585786D02*
X118000000Y-86585786D01*
X124844000Y-67211760D02*
X125632240Y-68000000D01*
X121674972Y-116674972D02*
X111500000Y-106500000D01*
%TO.N,/RTK_PPS*%
X124844000Y-68124000D02*
X125995000Y-69275000D01*
X120438240Y-68124000D02*
X124844000Y-68124000D01*
X119764000Y-70736001D02*
X119764000Y-68798240D01*
X117500001Y-95292893D02*
X117500001Y-87792893D01*
X117500001Y-87792893D02*
X118500001Y-86792893D01*
X112000000Y-105500000D02*
X112000000Y-100792894D01*
X112000000Y-100792894D02*
X117500001Y-95292893D01*
X122500000Y-116000000D02*
X112000000Y-105500000D01*
X118500001Y-86792893D02*
X118500001Y-72000000D01*
X119764000Y-68798240D02*
X120438240Y-68124000D01*
X132400000Y-116000000D02*
X122500000Y-116000000D01*
X118500001Y-72000000D02*
X119764000Y-70736001D01*
%TO.N,/FDCAN1_INT*%
X138880000Y-77120000D02*
X138880000Y-77500000D01*
X143000000Y-73000000D02*
X138880000Y-77120000D01*
X153935000Y-72935000D02*
X153935000Y-69275000D01*
X154000000Y-73000000D02*
X153935000Y-72935000D01*
%TO.N,/FDCAN2_INT*%
X160900000Y-73700000D02*
X156475000Y-69275000D01*
X160900000Y-77520859D02*
X160900000Y-73700000D01*
%TO.N,/FDCAN2_CS*%
X150006000Y-67886000D02*
X148855000Y-66735000D01*
X150006000Y-72494000D02*
X150006000Y-67886000D01*
X150000000Y-72500000D02*
X150006000Y-72494000D01*
%TO.N,/MON_SCL*%
X124090000Y-73000000D02*
X123455000Y-72365000D01*
X131500000Y-73000000D02*
X124090000Y-73000000D01*
X133000000Y-74500000D02*
X131500000Y-73000000D01*
X123455000Y-72365000D02*
X123455000Y-69275000D01*
X133000000Y-89500000D02*
X133000000Y-74500000D01*
%TO.N,/MON_SDA*%
X120915000Y-73415000D02*
X120915000Y-69275000D01*
X121500000Y-74000000D02*
X120915000Y-73415000D01*
X131000000Y-74000000D02*
X121500000Y-74000000D01*
X132000000Y-75000000D02*
X131000000Y-74000000D01*
X132000000Y-89500000D02*
X132000000Y-75000000D01*
%TO.N,+5V*%
X139500000Y-107000000D02*
X139000000Y-106500000D01*
X140600000Y-107000000D02*
X139500000Y-107000000D01*
X152875735Y-106875735D02*
X152500000Y-106500000D01*
X154224265Y-106875735D02*
X152875735Y-106875735D01*
%TO.N,/FDCAN/FDCAN1_RX*%
X141000000Y-82900000D02*
X140900000Y-83000000D01*
X141000000Y-81000000D02*
X141000000Y-82900000D01*
%TO.N,/FDCAN/FDCAN2_RX*%
X163000000Y-81000000D02*
X163000000Y-83000000D01*
%TO.N,/FDCAN/SPI0_MISO*%
X142350000Y-70700000D02*
X143775000Y-69275000D01*
X138818750Y-70700000D02*
X142350000Y-70700000D01*
%TD*%
%TA.AperFunction,Conductor*%
%TO.N,+3V3*%
G36*
X138181994Y-71018907D02*
G01*
X138206118Y-71043998D01*
X138274636Y-71146542D01*
X138274639Y-71146545D01*
X138372208Y-71244114D01*
X138486932Y-71320771D01*
X138486943Y-71320777D01*
X138534033Y-71340282D01*
X138614422Y-71373580D01*
X138749757Y-71400500D01*
X138749758Y-71400500D01*
X138887742Y-71400500D01*
X138887743Y-71400500D01*
X139023078Y-71373580D01*
X139150561Y-71320775D01*
X139265292Y-71244114D01*
X139279910Y-71229496D01*
X139287027Y-71225869D01*
X139291723Y-71219407D01*
X139313771Y-71212243D01*
X139334427Y-71201719D01*
X139349914Y-71200500D01*
X139491624Y-71200500D01*
X139549815Y-71219407D01*
X139585779Y-71268907D01*
X139585779Y-71330093D01*
X139573940Y-71354498D01*
X139561192Y-71373579D01*
X139497978Y-71468182D01*
X139497972Y-71468193D01*
X139445170Y-71595670D01*
X139445170Y-71595672D01*
X139418250Y-71731004D01*
X139418250Y-71868995D01*
X139445170Y-72004327D01*
X139445170Y-72004329D01*
X139497972Y-72131806D01*
X139497978Y-72131817D01*
X139574635Y-72246541D01*
X139672208Y-72344114D01*
X139786932Y-72420771D01*
X139786943Y-72420777D01*
X139811849Y-72431093D01*
X139914422Y-72473580D01*
X140049757Y-72500500D01*
X140049758Y-72500500D01*
X140187742Y-72500500D01*
X140187743Y-72500500D01*
X140323078Y-72473580D01*
X140450561Y-72420775D01*
X140565292Y-72344114D01*
X140579910Y-72329496D01*
X140634427Y-72301719D01*
X140649914Y-72300500D01*
X142469836Y-72300500D01*
X142528027Y-72319407D01*
X142563991Y-72368907D01*
X142563991Y-72430093D01*
X142539840Y-72469504D01*
X142455889Y-72553454D01*
X142455885Y-72553458D01*
X142379228Y-72668182D01*
X142379222Y-72668193D01*
X142326420Y-72795670D01*
X142326420Y-72795672D01*
X142299500Y-72931004D01*
X142299500Y-72951678D01*
X142280593Y-73009869D01*
X142270504Y-73021682D01*
X138572686Y-76719500D01*
X138572685Y-76719499D01*
X138479500Y-76812685D01*
X138479496Y-76812690D01*
X138413609Y-76926810D01*
X138413608Y-76926812D01*
X138402566Y-76968020D01*
X138376945Y-77012397D01*
X138335884Y-77053458D01*
X138259228Y-77168181D01*
X138259222Y-77168193D01*
X138206420Y-77295670D01*
X138206420Y-77295672D01*
X138179500Y-77431004D01*
X138179500Y-77568995D01*
X138206420Y-77704327D01*
X138206420Y-77704329D01*
X138259222Y-77831806D01*
X138259228Y-77831817D01*
X138335885Y-77946541D01*
X138433458Y-78044114D01*
X138548182Y-78120771D01*
X138548193Y-78120777D01*
X138595283Y-78140282D01*
X138675672Y-78173580D01*
X138811007Y-78200500D01*
X138811008Y-78200500D01*
X138948992Y-78200500D01*
X138948993Y-78200500D01*
X139084328Y-78173580D01*
X139211811Y-78120775D01*
X139326542Y-78044114D01*
X139424114Y-77946542D01*
X139500775Y-77831811D01*
X139553580Y-77704328D01*
X139580500Y-77568993D01*
X139580500Y-77431007D01*
X139553580Y-77295672D01*
X139553577Y-77295664D01*
X139537468Y-77256773D01*
X139532667Y-77195777D01*
X139558926Y-77148886D01*
X141641875Y-75065937D01*
X141696390Y-75038162D01*
X141756822Y-75047733D01*
X141800087Y-75090998D01*
X141808975Y-75116628D01*
X141826420Y-75204329D01*
X141879222Y-75331806D01*
X141879228Y-75331818D01*
X141954854Y-75444998D01*
X141971463Y-75503886D01*
X141954854Y-75555002D01*
X141879228Y-75668181D01*
X141879222Y-75668193D01*
X141826420Y-75795670D01*
X141826420Y-75795672D01*
X141799500Y-75931004D01*
X141799500Y-76068995D01*
X141826420Y-76204327D01*
X141826420Y-76204329D01*
X141879222Y-76331806D01*
X141879228Y-76331817D01*
X141955885Y-76446541D01*
X142053458Y-76544114D01*
X142168182Y-76620771D01*
X142168193Y-76620777D01*
X142215283Y-76640282D01*
X142295672Y-76673580D01*
X142431007Y-76700500D01*
X142431008Y-76700500D01*
X142568992Y-76700500D01*
X142568993Y-76700500D01*
X142704328Y-76673580D01*
X142831811Y-76620775D01*
X142946542Y-76544114D01*
X143044114Y-76446542D01*
X143054496Y-76431004D01*
X143799500Y-76431004D01*
X143799500Y-76568995D01*
X143817446Y-76659216D01*
X143825658Y-76700499D01*
X143826420Y-76704327D01*
X143826420Y-76704329D01*
X143879222Y-76831806D01*
X143879228Y-76831817D01*
X143955885Y-76946541D01*
X144053458Y-77044114D01*
X144168182Y-77120771D01*
X144168193Y-77120777D01*
X144215283Y-77140282D01*
X144295672Y-77173580D01*
X144431007Y-77200500D01*
X144431008Y-77200500D01*
X144568992Y-77200500D01*
X144568993Y-77200500D01*
X144704328Y-77173580D01*
X144831811Y-77120775D01*
X144946542Y-77044114D01*
X145044114Y-76946542D01*
X145120775Y-76831811D01*
X145173580Y-76704328D01*
X145200500Y-76568993D01*
X145200500Y-76431007D01*
X145173580Y-76295672D01*
X145120775Y-76168189D01*
X145120774Y-76168187D01*
X145120771Y-76168182D01*
X145044114Y-76053458D01*
X144946541Y-75955885D01*
X144831817Y-75879228D01*
X144831806Y-75879222D01*
X144704328Y-75826420D01*
X144568995Y-75799500D01*
X144568993Y-75799500D01*
X144431007Y-75799500D01*
X144431004Y-75799500D01*
X144295672Y-75826420D01*
X144295670Y-75826420D01*
X144168193Y-75879222D01*
X144168182Y-75879228D01*
X144053458Y-75955885D01*
X143955885Y-76053458D01*
X143879228Y-76168182D01*
X143879222Y-76168193D01*
X143826420Y-76295670D01*
X143826420Y-76295672D01*
X143799500Y-76431004D01*
X143054496Y-76431004D01*
X143072134Y-76404607D01*
X143094496Y-76371141D01*
X143120771Y-76331818D01*
X143120777Y-76331806D01*
X143135745Y-76295670D01*
X143173580Y-76204328D01*
X143200500Y-76068993D01*
X143200500Y-75931007D01*
X143173580Y-75795672D01*
X143120775Y-75668189D01*
X143120774Y-75668187D01*
X143120771Y-75668182D01*
X143067439Y-75588366D01*
X143045144Y-75555000D01*
X143028536Y-75496114D01*
X143045144Y-75444999D01*
X143120775Y-75331811D01*
X143173580Y-75204328D01*
X143200500Y-75068993D01*
X143200500Y-74931007D01*
X143200499Y-74931004D01*
X157299500Y-74931004D01*
X157299500Y-75068995D01*
X157326420Y-75204327D01*
X157326420Y-75204329D01*
X157379222Y-75331806D01*
X157379228Y-75331817D01*
X157455885Y-75446541D01*
X157553458Y-75544114D01*
X157668182Y-75620771D01*
X157668193Y-75620777D01*
X157715283Y-75640282D01*
X157795672Y-75673580D01*
X157931007Y-75700500D01*
X157931008Y-75700500D01*
X158068992Y-75700500D01*
X158068993Y-75700500D01*
X158204328Y-75673580D01*
X158331811Y-75620775D01*
X158446542Y-75544114D01*
X158544114Y-75446542D01*
X158620775Y-75331811D01*
X158673580Y-75204328D01*
X158700500Y-75068993D01*
X158700500Y-74931007D01*
X158673580Y-74795672D01*
X158620775Y-74668189D01*
X158620774Y-74668187D01*
X158620771Y-74668182D01*
X158544114Y-74553458D01*
X158446541Y-74455885D01*
X158331817Y-74379228D01*
X158331806Y-74379222D01*
X158204328Y-74326420D01*
X158068995Y-74299500D01*
X158068993Y-74299500D01*
X157931007Y-74299500D01*
X157931004Y-74299500D01*
X157795672Y-74326420D01*
X157795670Y-74326420D01*
X157668193Y-74379222D01*
X157668182Y-74379228D01*
X157553458Y-74455885D01*
X157455885Y-74553458D01*
X157379228Y-74668182D01*
X157379222Y-74668193D01*
X157326420Y-74795670D01*
X157326420Y-74795672D01*
X157299500Y-74931004D01*
X143200499Y-74931004D01*
X143173580Y-74795672D01*
X143120775Y-74668189D01*
X143120774Y-74668187D01*
X143120771Y-74668182D01*
X143044114Y-74553458D01*
X142946541Y-74455885D01*
X142831817Y-74379228D01*
X142831806Y-74379222D01*
X142704329Y-74326420D01*
X142616628Y-74308975D01*
X142563245Y-74279078D01*
X142537629Y-74223512D01*
X142549566Y-74163503D01*
X142565940Y-74141873D01*
X142978319Y-73729496D01*
X143032835Y-73701719D01*
X143048322Y-73700500D01*
X143068992Y-73700500D01*
X143068993Y-73700500D01*
X143204328Y-73673580D01*
X143331811Y-73620775D01*
X143446542Y-73544114D01*
X143544114Y-73446542D01*
X143620775Y-73331811D01*
X143673580Y-73204328D01*
X143700500Y-73068993D01*
X143700500Y-72931007D01*
X143673580Y-72795672D01*
X143620775Y-72668189D01*
X143620774Y-72668187D01*
X143620771Y-72668182D01*
X143544114Y-72553458D01*
X143460160Y-72469504D01*
X143432383Y-72414987D01*
X143441954Y-72354555D01*
X143485219Y-72311290D01*
X143530164Y-72300500D01*
X143855890Y-72300500D01*
X143855892Y-72300500D01*
X143983186Y-72266392D01*
X143983188Y-72266390D01*
X143983190Y-72266390D01*
X144097309Y-72200503D01*
X144097309Y-72200502D01*
X144097314Y-72200500D01*
X145268818Y-71028996D01*
X145323335Y-71001219D01*
X145338822Y-71000000D01*
X149406500Y-71000000D01*
X149464691Y-71018907D01*
X149500655Y-71068407D01*
X149505500Y-71099000D01*
X149505500Y-71962836D01*
X149486593Y-72021027D01*
X149476504Y-72032840D01*
X149455889Y-72053454D01*
X149455885Y-72053458D01*
X149379228Y-72168182D01*
X149379222Y-72168193D01*
X149326420Y-72295670D01*
X149326420Y-72295672D01*
X149299500Y-72431004D01*
X149299500Y-72568995D01*
X149326420Y-72704327D01*
X149326420Y-72704329D01*
X149379222Y-72831806D01*
X149379228Y-72831817D01*
X149455885Y-72946541D01*
X149553458Y-73044114D01*
X149668182Y-73120771D01*
X149668193Y-73120777D01*
X149715283Y-73140282D01*
X149795672Y-73173580D01*
X149931007Y-73200500D01*
X149931008Y-73200500D01*
X150068992Y-73200500D01*
X150068993Y-73200500D01*
X150204328Y-73173580D01*
X150331811Y-73120775D01*
X150446542Y-73044114D01*
X150544114Y-72946542D01*
X150620775Y-72831811D01*
X150673580Y-72704328D01*
X150700500Y-72568993D01*
X150700500Y-72431007D01*
X150673580Y-72295672D01*
X150634160Y-72200503D01*
X150620777Y-72168193D01*
X150620771Y-72168182D01*
X150544114Y-72053458D01*
X150535496Y-72044840D01*
X150507719Y-71990323D01*
X150506500Y-71974836D01*
X150506500Y-71099000D01*
X150525407Y-71040809D01*
X150574907Y-71004845D01*
X150605500Y-71000000D01*
X153335500Y-71000000D01*
X153393691Y-71018907D01*
X153429655Y-71068407D01*
X153434500Y-71099000D01*
X153434500Y-72555432D01*
X153417816Y-72610433D01*
X153379223Y-72668191D01*
X153326420Y-72795670D01*
X153326420Y-72795672D01*
X153299500Y-72931004D01*
X153299500Y-73068995D01*
X153317446Y-73159216D01*
X153325658Y-73200499D01*
X153326420Y-73204327D01*
X153326420Y-73204329D01*
X153379222Y-73331806D01*
X153379228Y-73331817D01*
X153455885Y-73446541D01*
X153553458Y-73544114D01*
X153668182Y-73620771D01*
X153668193Y-73620777D01*
X153700378Y-73634108D01*
X153795672Y-73673580D01*
X153931007Y-73700500D01*
X153931008Y-73700500D01*
X154068992Y-73700500D01*
X154068993Y-73700500D01*
X154204328Y-73673580D01*
X154331811Y-73620775D01*
X154446542Y-73544114D01*
X154544114Y-73446542D01*
X154620775Y-73331811D01*
X154673580Y-73204328D01*
X154700500Y-73068993D01*
X154700500Y-72931007D01*
X154673580Y-72795672D01*
X154620775Y-72668189D01*
X154620774Y-72668187D01*
X154620771Y-72668182D01*
X154544114Y-72553458D01*
X154464496Y-72473840D01*
X154436719Y-72419323D01*
X154435500Y-72403836D01*
X154435500Y-71099000D01*
X154454407Y-71040809D01*
X154503907Y-71004845D01*
X154534500Y-71000000D01*
X157451178Y-71000000D01*
X157509369Y-71018907D01*
X157521182Y-71028996D01*
X160370504Y-73878318D01*
X160398281Y-73932835D01*
X160399500Y-73948322D01*
X160399500Y-76989695D01*
X160380593Y-77047886D01*
X160370504Y-77059699D01*
X160355889Y-77074313D01*
X160355885Y-77074317D01*
X160279228Y-77189041D01*
X160279222Y-77189052D01*
X160226420Y-77316529D01*
X160226420Y-77316531D01*
X160199500Y-77451863D01*
X160199500Y-77589854D01*
X160226420Y-77725186D01*
X160226420Y-77725188D01*
X160279222Y-77852665D01*
X160279228Y-77852676D01*
X160355885Y-77967400D01*
X160453458Y-78064973D01*
X160568182Y-78141630D01*
X160568193Y-78141636D01*
X160615283Y-78161141D01*
X160695672Y-78194439D01*
X160831007Y-78221359D01*
X160831008Y-78221359D01*
X160968992Y-78221359D01*
X160968993Y-78221359D01*
X161104328Y-78194439D01*
X161231811Y-78141634D01*
X161346542Y-78064973D01*
X161444114Y-77967401D01*
X161520775Y-77852670D01*
X161573580Y-77725187D01*
X161600500Y-77589852D01*
X161600500Y-77451866D01*
X161573580Y-77316531D01*
X161525518Y-77200499D01*
X161520777Y-77189052D01*
X161520771Y-77189041D01*
X161444114Y-77074317D01*
X161429496Y-77059699D01*
X161401719Y-77005182D01*
X161400500Y-76989695D01*
X161400500Y-74931004D01*
X163799500Y-74931004D01*
X163799500Y-75068995D01*
X163826420Y-75204327D01*
X163826420Y-75204329D01*
X163879222Y-75331806D01*
X163879228Y-75331817D01*
X163955885Y-75446541D01*
X164053458Y-75544114D01*
X164168182Y-75620771D01*
X164168193Y-75620777D01*
X164215283Y-75640282D01*
X164295672Y-75673580D01*
X164431007Y-75700500D01*
X164431008Y-75700500D01*
X164568992Y-75700500D01*
X164568993Y-75700500D01*
X164704328Y-75673580D01*
X164831811Y-75620775D01*
X164946542Y-75544114D01*
X165044114Y-75446542D01*
X165120775Y-75331811D01*
X165173580Y-75204328D01*
X165200500Y-75068993D01*
X165200500Y-74931007D01*
X165173580Y-74795672D01*
X165120775Y-74668189D01*
X165120774Y-74668187D01*
X165120771Y-74668182D01*
X165044114Y-74553458D01*
X164946541Y-74455885D01*
X164831817Y-74379228D01*
X164831806Y-74379222D01*
X164704328Y-74326420D01*
X164568995Y-74299500D01*
X164568993Y-74299500D01*
X164431007Y-74299500D01*
X164431004Y-74299500D01*
X164295672Y-74326420D01*
X164295670Y-74326420D01*
X164168193Y-74379222D01*
X164168182Y-74379228D01*
X164053458Y-74455885D01*
X163955885Y-74553458D01*
X163879228Y-74668182D01*
X163879222Y-74668193D01*
X163826420Y-74795670D01*
X163826420Y-74795672D01*
X163799500Y-74931004D01*
X161400500Y-74931004D01*
X161400500Y-73634109D01*
X161373571Y-73533608D01*
X161366392Y-73506814D01*
X161366390Y-73506811D01*
X161366390Y-73506809D01*
X161300503Y-73392690D01*
X161300499Y-73392685D01*
X161207314Y-73299499D01*
X161207314Y-73299500D01*
X159076818Y-71169004D01*
X159049041Y-71114487D01*
X159058612Y-71054055D01*
X159101877Y-71010790D01*
X159146822Y-71000000D01*
X165401000Y-71000000D01*
X165459191Y-71018907D01*
X165495155Y-71068407D01*
X165500000Y-71099000D01*
X165500000Y-79859306D01*
X165481093Y-79917497D01*
X165431593Y-79953461D01*
X165370407Y-79953461D01*
X165363115Y-79950770D01*
X165304328Y-79926420D01*
X165168995Y-79899500D01*
X165168993Y-79899500D01*
X165031007Y-79899500D01*
X165031004Y-79899500D01*
X164895672Y-79926420D01*
X164895670Y-79926420D01*
X164768193Y-79979222D01*
X164768182Y-79979228D01*
X164653458Y-80055885D01*
X164555885Y-80153458D01*
X164479228Y-80268182D01*
X164479222Y-80268193D01*
X164426420Y-80395670D01*
X164426420Y-80395672D01*
X164399500Y-80531004D01*
X164399500Y-80668995D01*
X164426420Y-80804327D01*
X164426420Y-80804329D01*
X164479222Y-80931806D01*
X164479228Y-80931817D01*
X164555885Y-81046541D01*
X164653458Y-81144114D01*
X164768182Y-81220771D01*
X164768193Y-81220777D01*
X164815283Y-81240282D01*
X164895672Y-81273580D01*
X165031007Y-81300500D01*
X165031008Y-81300500D01*
X165168992Y-81300500D01*
X165168993Y-81300500D01*
X165304328Y-81273580D01*
X165363117Y-81249228D01*
X165424110Y-81244428D01*
X165476280Y-81276397D01*
X165499695Y-81332925D01*
X165500000Y-81340693D01*
X165500000Y-113600500D01*
X165481093Y-113658691D01*
X165431593Y-113694655D01*
X165401000Y-113699500D01*
X165331004Y-113699500D01*
X165195672Y-113726420D01*
X165195670Y-113726420D01*
X165068193Y-113779222D01*
X165068182Y-113779228D01*
X164953458Y-113855885D01*
X164855885Y-113953458D01*
X164779228Y-114068182D01*
X164779222Y-114068193D01*
X164726420Y-114195670D01*
X164726420Y-114195672D01*
X164699500Y-114331004D01*
X164699500Y-114468995D01*
X164726420Y-114604327D01*
X164726420Y-114604329D01*
X164779222Y-114731806D01*
X164779228Y-114731817D01*
X164855885Y-114846541D01*
X164953458Y-114944114D01*
X165068182Y-115020771D01*
X165068193Y-115020777D01*
X165115283Y-115040282D01*
X165195672Y-115073580D01*
X165331007Y-115100500D01*
X165331008Y-115100500D01*
X165401000Y-115100500D01*
X165459191Y-115119407D01*
X165495155Y-115168907D01*
X165500000Y-115199500D01*
X165500000Y-116935336D01*
X165481093Y-116993527D01*
X165431593Y-117029491D01*
X165370407Y-117029491D01*
X165330996Y-117005340D01*
X165281541Y-116955885D01*
X165166817Y-116879228D01*
X165166806Y-116879222D01*
X165039328Y-116826420D01*
X164903995Y-116799500D01*
X164903993Y-116799500D01*
X164766007Y-116799500D01*
X164766004Y-116799500D01*
X164630672Y-116826420D01*
X164630670Y-116826420D01*
X164503193Y-116879222D01*
X164503182Y-116879228D01*
X164388458Y-116955885D01*
X164290885Y-117053458D01*
X164214228Y-117168182D01*
X164214222Y-117168193D01*
X164161420Y-117295670D01*
X164161420Y-117295672D01*
X164134500Y-117431004D01*
X164134500Y-117568995D01*
X164152311Y-117658536D01*
X164160215Y-117698272D01*
X164161420Y-117704327D01*
X164161420Y-117704329D01*
X164214222Y-117831806D01*
X164214228Y-117831817D01*
X164290885Y-117946541D01*
X164388458Y-118044114D01*
X164503182Y-118120771D01*
X164503193Y-118120777D01*
X164550283Y-118140282D01*
X164630672Y-118173580D01*
X164766007Y-118200500D01*
X164766008Y-118200500D01*
X164903992Y-118200500D01*
X164903993Y-118200500D01*
X165039328Y-118173580D01*
X165166811Y-118120775D01*
X165281542Y-118044114D01*
X165330996Y-117994660D01*
X165385513Y-117966883D01*
X165445945Y-117976454D01*
X165489210Y-118019719D01*
X165500000Y-118064664D01*
X165500000Y-119900500D01*
X165481093Y-119958691D01*
X165431593Y-119994655D01*
X165401000Y-119999500D01*
X118599000Y-119999500D01*
X118540809Y-119980593D01*
X118504845Y-119931093D01*
X118500000Y-119900500D01*
X118500000Y-115946822D01*
X118518907Y-115888631D01*
X118568407Y-115852667D01*
X118629593Y-115852667D01*
X118669004Y-115876818D01*
X119084821Y-116292635D01*
X119112598Y-116347152D01*
X119103027Y-116407584D01*
X119069821Y-116444952D01*
X119053458Y-116455886D01*
X119053454Y-116455889D01*
X118955885Y-116553458D01*
X118879228Y-116668182D01*
X118879222Y-116668193D01*
X118826420Y-116795670D01*
X118826420Y-116795672D01*
X118799500Y-116931004D01*
X118799500Y-117068995D01*
X118826420Y-117204327D01*
X118826420Y-117204329D01*
X118879222Y-117331806D01*
X118879228Y-117331817D01*
X118955885Y-117446541D01*
X119053458Y-117544114D01*
X119168182Y-117620771D01*
X119168193Y-117620777D01*
X119259352Y-117658536D01*
X119305878Y-117698272D01*
X119320162Y-117757767D01*
X119296747Y-117814295D01*
X119259352Y-117841464D01*
X119168193Y-117879222D01*
X119168182Y-117879228D01*
X119053458Y-117955885D01*
X118955885Y-118053458D01*
X118879228Y-118168182D01*
X118879222Y-118168193D01*
X118826420Y-118295670D01*
X118826420Y-118295672D01*
X118799500Y-118431004D01*
X118799500Y-118568995D01*
X118817446Y-118659216D01*
X118825658Y-118700499D01*
X118826420Y-118704327D01*
X118826420Y-118704329D01*
X118879222Y-118831806D01*
X118879228Y-118831817D01*
X118955885Y-118946541D01*
X119053458Y-119044114D01*
X119168182Y-119120771D01*
X119168193Y-119120777D01*
X119215283Y-119140282D01*
X119295672Y-119173580D01*
X119431007Y-119200500D01*
X119431008Y-119200500D01*
X119568992Y-119200500D01*
X119568993Y-119200500D01*
X119704328Y-119173580D01*
X119831811Y-119120775D01*
X119946542Y-119044114D01*
X120044114Y-118946542D01*
X120120775Y-118831811D01*
X120173580Y-118704328D01*
X120200500Y-118568993D01*
X120200500Y-118431007D01*
X120173580Y-118295672D01*
X120120775Y-118168189D01*
X120120774Y-118168187D01*
X120120771Y-118168182D01*
X120044114Y-118053458D01*
X119946541Y-117955885D01*
X119831817Y-117879228D01*
X119831806Y-117879222D01*
X119758805Y-117848985D01*
X119740646Y-117841463D01*
X119694121Y-117801728D01*
X119679837Y-117742233D01*
X119703251Y-117685705D01*
X119740646Y-117658536D01*
X119831811Y-117620775D01*
X119946542Y-117544114D01*
X120044114Y-117446542D01*
X120055046Y-117430180D01*
X120103091Y-117392302D01*
X120164229Y-117389898D01*
X120207364Y-117415178D01*
X122200500Y-119408314D01*
X122200499Y-119408314D01*
X122293685Y-119501499D01*
X122293690Y-119501503D01*
X122407810Y-119567390D01*
X122407808Y-119567390D01*
X122407812Y-119567391D01*
X122407814Y-119567392D01*
X122535108Y-119601500D01*
X122535110Y-119601500D01*
X134864890Y-119601500D01*
X134864892Y-119601500D01*
X134992186Y-119567392D01*
X134992188Y-119567390D01*
X134992190Y-119567390D01*
X135106309Y-119501503D01*
X135106309Y-119501502D01*
X135106314Y-119501500D01*
X135300500Y-119307314D01*
X135300503Y-119307309D01*
X135366390Y-119193190D01*
X135366390Y-119193188D01*
X135366392Y-119193186D01*
X135400500Y-119065892D01*
X135400500Y-118934107D01*
X135400500Y-118031164D01*
X135419407Y-117972973D01*
X135419773Y-117972473D01*
X135424208Y-117966447D01*
X135444114Y-117946542D01*
X135454496Y-117931004D01*
X135799500Y-117931004D01*
X135799500Y-118068995D01*
X135817446Y-118159216D01*
X135825658Y-118200499D01*
X135826420Y-118204327D01*
X135826420Y-118204329D01*
X135879222Y-118331806D01*
X135879228Y-118331817D01*
X135955885Y-118446541D01*
X136053458Y-118544114D01*
X136168182Y-118620771D01*
X136168193Y-118620777D01*
X136215283Y-118640282D01*
X136295672Y-118673580D01*
X136431007Y-118700500D01*
X136431008Y-118700500D01*
X136568992Y-118700500D01*
X136568993Y-118700500D01*
X136704328Y-118673580D01*
X136831811Y-118620775D01*
X136946542Y-118544114D01*
X137044114Y-118446542D01*
X137120775Y-118331811D01*
X137173580Y-118204328D01*
X137200500Y-118068993D01*
X137200500Y-117931007D01*
X137173580Y-117795672D01*
X137133236Y-117698272D01*
X137120777Y-117668193D01*
X137120771Y-117668182D01*
X137044114Y-117553458D01*
X136946541Y-117455885D01*
X136909304Y-117431004D01*
X146464500Y-117431004D01*
X146464500Y-117568995D01*
X146482311Y-117658536D01*
X146490215Y-117698272D01*
X146491420Y-117704327D01*
X146491420Y-117704329D01*
X146544222Y-117831806D01*
X146544228Y-117831817D01*
X146620885Y-117946541D01*
X146718458Y-118044114D01*
X146833182Y-118120771D01*
X146833193Y-118120777D01*
X146880283Y-118140282D01*
X146960672Y-118173580D01*
X147096007Y-118200500D01*
X147096008Y-118200500D01*
X147233992Y-118200500D01*
X147233993Y-118200500D01*
X147369328Y-118173580D01*
X147496811Y-118120775D01*
X147611542Y-118044114D01*
X147709114Y-117946542D01*
X147785775Y-117831811D01*
X147838580Y-117704328D01*
X147865500Y-117568993D01*
X147865500Y-117431007D01*
X147865499Y-117431004D01*
X151134500Y-117431004D01*
X151134500Y-117568995D01*
X151152311Y-117658536D01*
X151160215Y-117698272D01*
X151161420Y-117704327D01*
X151161420Y-117704329D01*
X151214222Y-117831806D01*
X151214228Y-117831817D01*
X151290885Y-117946541D01*
X151388458Y-118044114D01*
X151503182Y-118120771D01*
X151503193Y-118120777D01*
X151550283Y-118140282D01*
X151630672Y-118173580D01*
X151766007Y-118200500D01*
X151766008Y-118200500D01*
X151903992Y-118200500D01*
X151903993Y-118200500D01*
X152039328Y-118173580D01*
X152166811Y-118120775D01*
X152281542Y-118044114D01*
X152379114Y-117946542D01*
X152455775Y-117831811D01*
X152508580Y-117704328D01*
X152535500Y-117568993D01*
X152535500Y-117431007D01*
X152535499Y-117431004D01*
X159464500Y-117431004D01*
X159464500Y-117568995D01*
X159482311Y-117658536D01*
X159490215Y-117698272D01*
X159491420Y-117704327D01*
X159491420Y-117704329D01*
X159544222Y-117831806D01*
X159544228Y-117831817D01*
X159620885Y-117946541D01*
X159718458Y-118044114D01*
X159833182Y-118120771D01*
X159833193Y-118120777D01*
X159880283Y-118140282D01*
X159960672Y-118173580D01*
X160096007Y-118200500D01*
X160096008Y-118200500D01*
X160233992Y-118200500D01*
X160233993Y-118200500D01*
X160369328Y-118173580D01*
X160496811Y-118120775D01*
X160611542Y-118044114D01*
X160709114Y-117946542D01*
X160785775Y-117831811D01*
X160838580Y-117704328D01*
X160865500Y-117568993D01*
X160865500Y-117431007D01*
X160838580Y-117295672D01*
X160785775Y-117168189D01*
X160785774Y-117168187D01*
X160785771Y-117168182D01*
X160709114Y-117053458D01*
X160611541Y-116955885D01*
X160496817Y-116879228D01*
X160496806Y-116879222D01*
X160369328Y-116826420D01*
X160233995Y-116799500D01*
X160233993Y-116799500D01*
X160096007Y-116799500D01*
X160096004Y-116799500D01*
X159960672Y-116826420D01*
X159960670Y-116826420D01*
X159833193Y-116879222D01*
X159833182Y-116879228D01*
X159718458Y-116955885D01*
X159620885Y-117053458D01*
X159544228Y-117168182D01*
X159544222Y-117168193D01*
X159491420Y-117295670D01*
X159491420Y-117295672D01*
X159464500Y-117431004D01*
X152535499Y-117431004D01*
X152508580Y-117295672D01*
X152455775Y-117168189D01*
X152455774Y-117168187D01*
X152455771Y-117168182D01*
X152379114Y-117053458D01*
X152281541Y-116955885D01*
X152166817Y-116879228D01*
X152166806Y-116879222D01*
X152039328Y-116826420D01*
X151903995Y-116799500D01*
X151903993Y-116799500D01*
X151766007Y-116799500D01*
X151766004Y-116799500D01*
X151630672Y-116826420D01*
X151630670Y-116826420D01*
X151503193Y-116879222D01*
X151503182Y-116879228D01*
X151388458Y-116955885D01*
X151290885Y-117053458D01*
X151214228Y-117168182D01*
X151214222Y-117168193D01*
X151161420Y-117295670D01*
X151161420Y-117295672D01*
X151134500Y-117431004D01*
X147865499Y-117431004D01*
X147838580Y-117295672D01*
X147785775Y-117168189D01*
X147785774Y-117168187D01*
X147785771Y-117168182D01*
X147709114Y-117053458D01*
X147611541Y-116955885D01*
X147496817Y-116879228D01*
X147496806Y-116879222D01*
X147369328Y-116826420D01*
X147233995Y-116799500D01*
X147233993Y-116799500D01*
X147096007Y-116799500D01*
X147096004Y-116799500D01*
X146960672Y-116826420D01*
X146960670Y-116826420D01*
X146833193Y-116879222D01*
X146833182Y-116879228D01*
X146718458Y-116955885D01*
X146620885Y-117053458D01*
X146544228Y-117168182D01*
X146544222Y-117168193D01*
X146491420Y-117295670D01*
X146491420Y-117295672D01*
X146464500Y-117431004D01*
X136909304Y-117431004D01*
X136831817Y-117379228D01*
X136831806Y-117379222D01*
X136704328Y-117326420D01*
X136568995Y-117299500D01*
X136568993Y-117299500D01*
X136431007Y-117299500D01*
X136431004Y-117299500D01*
X136295672Y-117326420D01*
X136295670Y-117326420D01*
X136168193Y-117379222D01*
X136168182Y-117379228D01*
X136053458Y-117455885D01*
X135955885Y-117553458D01*
X135879228Y-117668182D01*
X135879222Y-117668193D01*
X135826420Y-117795670D01*
X135826420Y-117795672D01*
X135799500Y-117931004D01*
X135454496Y-117931004D01*
X135495751Y-117869262D01*
X135520771Y-117831818D01*
X135520777Y-117831806D01*
X135533236Y-117801728D01*
X135573580Y-117704328D01*
X135600500Y-117568993D01*
X135600500Y-117431007D01*
X135573580Y-117295672D01*
X135520775Y-117168189D01*
X135520774Y-117168187D01*
X135520771Y-117168182D01*
X135444114Y-117053458D01*
X135346541Y-116955885D01*
X135231817Y-116879228D01*
X135231806Y-116879222D01*
X135104328Y-116826420D01*
X134968995Y-116799500D01*
X134968993Y-116799500D01*
X134831007Y-116799500D01*
X134831004Y-116799500D01*
X134695672Y-116826420D01*
X134695670Y-116826420D01*
X134568193Y-116879222D01*
X134568182Y-116879228D01*
X134453458Y-116955885D01*
X134355889Y-117053454D01*
X134352809Y-117057209D01*
X134351357Y-117056017D01*
X134309262Y-117089200D01*
X134248123Y-117091600D01*
X134197251Y-117057605D01*
X134195202Y-117054785D01*
X134194117Y-117053462D01*
X134194114Y-117053458D01*
X134096542Y-116955886D01*
X134096541Y-116955885D01*
X133981817Y-116879228D01*
X133981806Y-116879222D01*
X133854328Y-116826420D01*
X133718995Y-116799500D01*
X133718993Y-116799500D01*
X133581007Y-116799500D01*
X133581004Y-116799500D01*
X133445672Y-116826420D01*
X133445670Y-116826420D01*
X133318193Y-116879222D01*
X133318182Y-116879228D01*
X133203458Y-116955885D01*
X133203454Y-116955889D01*
X133188840Y-116970504D01*
X133134323Y-116998281D01*
X133118836Y-116999500D01*
X131584516Y-116999500D01*
X131535016Y-116986236D01*
X131442132Y-116932609D01*
X131442134Y-116932609D01*
X131392742Y-116919375D01*
X131314835Y-116898500D01*
X130816950Y-116898500D01*
X130685165Y-116898500D01*
X130607257Y-116919375D01*
X130557866Y-116932609D01*
X130464984Y-116986236D01*
X130415484Y-116999500D01*
X125784516Y-116999500D01*
X125735016Y-116986236D01*
X125642132Y-116932609D01*
X125642134Y-116932609D01*
X125592742Y-116919375D01*
X125514835Y-116898500D01*
X125016950Y-116898500D01*
X124885165Y-116898500D01*
X124807257Y-116919375D01*
X124757866Y-116932609D01*
X124664984Y-116986236D01*
X124615484Y-116999500D01*
X122748322Y-116999500D01*
X122690131Y-116980593D01*
X122678318Y-116970504D01*
X122377318Y-116669504D01*
X122349541Y-116614987D01*
X122359112Y-116554555D01*
X122402377Y-116511290D01*
X122447322Y-116500500D01*
X131868836Y-116500500D01*
X131927027Y-116519407D01*
X131938840Y-116529496D01*
X131953458Y-116544114D01*
X132068182Y-116620771D01*
X132068193Y-116620777D01*
X132115283Y-116640282D01*
X132195672Y-116673580D01*
X132331007Y-116700500D01*
X132331008Y-116700500D01*
X132468992Y-116700500D01*
X132468993Y-116700500D01*
X132604328Y-116673580D01*
X132731811Y-116620775D01*
X132846542Y-116544114D01*
X132944114Y-116446542D01*
X133020775Y-116331811D01*
X133073580Y-116204328D01*
X133100500Y-116068993D01*
X133100500Y-115931007D01*
X133073580Y-115795672D01*
X133020775Y-115668189D01*
X133020774Y-115668187D01*
X133020771Y-115668182D01*
X132944114Y-115553458D01*
X132846541Y-115455885D01*
X132731817Y-115379228D01*
X132731806Y-115379222D01*
X132604328Y-115326420D01*
X132468995Y-115299500D01*
X132468993Y-115299500D01*
X132331007Y-115299500D01*
X132331004Y-115299500D01*
X132195672Y-115326420D01*
X132195670Y-115326420D01*
X132068193Y-115379222D01*
X132068182Y-115379228D01*
X131953458Y-115455885D01*
X131953454Y-115455889D01*
X131938840Y-115470504D01*
X131884323Y-115498281D01*
X131868836Y-115499500D01*
X122748322Y-115499500D01*
X122690131Y-115480593D01*
X122678318Y-115470504D01*
X121438818Y-114231004D01*
X129499500Y-114231004D01*
X129499500Y-114368995D01*
X129526420Y-114504327D01*
X129526420Y-114504329D01*
X129579222Y-114631806D01*
X129579228Y-114631817D01*
X129655885Y-114746541D01*
X129753458Y-114844114D01*
X129868182Y-114920771D01*
X129868193Y-114920777D01*
X129915283Y-114940282D01*
X129995672Y-114973580D01*
X130131007Y-115000500D01*
X130131008Y-115000500D01*
X130268992Y-115000500D01*
X130268993Y-115000500D01*
X130404328Y-114973580D01*
X130531811Y-114920775D01*
X130646542Y-114844114D01*
X130744114Y-114746542D01*
X130820775Y-114631811D01*
X130873580Y-114504328D01*
X130900500Y-114368993D01*
X130900500Y-114331004D01*
X151699500Y-114331004D01*
X151699500Y-114468995D01*
X151726420Y-114604327D01*
X151726420Y-114604329D01*
X151779222Y-114731806D01*
X151779228Y-114731817D01*
X151855885Y-114846541D01*
X151953458Y-114944114D01*
X152068182Y-115020771D01*
X152068193Y-115020777D01*
X152115283Y-115040282D01*
X152195672Y-115073580D01*
X152331007Y-115100500D01*
X152331008Y-115100500D01*
X152468992Y-115100500D01*
X152468993Y-115100500D01*
X152604328Y-115073580D01*
X152731811Y-115020775D01*
X152846542Y-114944114D01*
X152944114Y-114846542D01*
X153020775Y-114731811D01*
X153073580Y-114604328D01*
X153100500Y-114468993D01*
X153100500Y-114331007D01*
X153073580Y-114195672D01*
X153020775Y-114068189D01*
X153020774Y-114068187D01*
X153020771Y-114068182D01*
X152944114Y-113953458D01*
X152846541Y-113855885D01*
X152731817Y-113779228D01*
X152731806Y-113779222D01*
X152604328Y-113726420D01*
X152468995Y-113699500D01*
X152468993Y-113699500D01*
X152331007Y-113699500D01*
X152331004Y-113699500D01*
X152195672Y-113726420D01*
X152195670Y-113726420D01*
X152068193Y-113779222D01*
X152068182Y-113779228D01*
X151953458Y-113855885D01*
X151855885Y-113953458D01*
X151779228Y-114068182D01*
X151779222Y-114068193D01*
X151726420Y-114195670D01*
X151726420Y-114195672D01*
X151699500Y-114331004D01*
X130900500Y-114331004D01*
X130900500Y-114231007D01*
X130873580Y-114095672D01*
X130820775Y-113968189D01*
X130820774Y-113968187D01*
X130820771Y-113968182D01*
X130744114Y-113853458D01*
X130646541Y-113755885D01*
X130531817Y-113679228D01*
X130531806Y-113679222D01*
X130404328Y-113626420D01*
X130268995Y-113599500D01*
X130268993Y-113599500D01*
X130131007Y-113599500D01*
X130131004Y-113599500D01*
X129995672Y-113626420D01*
X129995670Y-113626420D01*
X129868193Y-113679222D01*
X129868182Y-113679228D01*
X129753458Y-113755885D01*
X129655885Y-113853458D01*
X129579228Y-113968182D01*
X129579222Y-113968193D01*
X129526420Y-114095670D01*
X129526420Y-114095672D01*
X129499500Y-114231004D01*
X121438818Y-114231004D01*
X118638818Y-111431004D01*
X142799500Y-111431004D01*
X142799500Y-111568995D01*
X142826420Y-111704327D01*
X142826420Y-111704329D01*
X142879222Y-111831806D01*
X142879228Y-111831817D01*
X142955885Y-111946541D01*
X143053458Y-112044114D01*
X143168182Y-112120771D01*
X143168193Y-112120777D01*
X143215283Y-112140282D01*
X143295672Y-112173580D01*
X143431007Y-112200500D01*
X143431008Y-112200500D01*
X143568992Y-112200500D01*
X143568993Y-112200500D01*
X143704328Y-112173580D01*
X143831811Y-112120775D01*
X143946542Y-112044114D01*
X144044114Y-111946542D01*
X144120775Y-111831811D01*
X144173580Y-111704328D01*
X144200500Y-111568993D01*
X144200500Y-111431007D01*
X144200499Y-111431004D01*
X155799500Y-111431004D01*
X155799500Y-111568995D01*
X155826420Y-111704327D01*
X155826420Y-111704329D01*
X155879222Y-111831806D01*
X155879228Y-111831817D01*
X155955885Y-111946541D01*
X156053458Y-112044114D01*
X156168182Y-112120771D01*
X156168193Y-112120777D01*
X156215283Y-112140282D01*
X156295672Y-112173580D01*
X156431007Y-112200500D01*
X156431008Y-112200500D01*
X156568992Y-112200500D01*
X156568993Y-112200500D01*
X156704328Y-112173580D01*
X156831811Y-112120775D01*
X156946542Y-112044114D01*
X157044114Y-111946542D01*
X157120775Y-111831811D01*
X157173580Y-111704328D01*
X157200500Y-111568993D01*
X157200500Y-111431007D01*
X157173580Y-111295672D01*
X157120775Y-111168189D01*
X157120774Y-111168187D01*
X157120771Y-111168182D01*
X157044114Y-111053458D01*
X156946541Y-110955885D01*
X156831817Y-110879228D01*
X156831806Y-110879222D01*
X156704328Y-110826420D01*
X156568995Y-110799500D01*
X156568993Y-110799500D01*
X156431007Y-110799500D01*
X156431004Y-110799500D01*
X156295672Y-110826420D01*
X156295670Y-110826420D01*
X156168193Y-110879222D01*
X156168182Y-110879228D01*
X156053458Y-110955885D01*
X155955885Y-111053458D01*
X155879228Y-111168182D01*
X155879222Y-111168193D01*
X155826420Y-111295670D01*
X155826420Y-111295672D01*
X155799500Y-111431004D01*
X144200499Y-111431004D01*
X144173580Y-111295672D01*
X144120775Y-111168189D01*
X144120774Y-111168187D01*
X144120771Y-111168182D01*
X144044114Y-111053458D01*
X143946541Y-110955885D01*
X143831817Y-110879228D01*
X143831806Y-110879222D01*
X143704328Y-110826420D01*
X143568995Y-110799500D01*
X143568993Y-110799500D01*
X143431007Y-110799500D01*
X143431004Y-110799500D01*
X143295672Y-110826420D01*
X143295670Y-110826420D01*
X143168193Y-110879222D01*
X143168182Y-110879228D01*
X143053458Y-110955885D01*
X142955885Y-111053458D01*
X142879228Y-111168182D01*
X142879222Y-111168193D01*
X142826420Y-111295670D01*
X142826420Y-111295672D01*
X142799500Y-111431004D01*
X118638818Y-111431004D01*
X118528996Y-111321182D01*
X118501219Y-111266665D01*
X118500000Y-111251178D01*
X118500000Y-109981004D01*
X123049500Y-109981004D01*
X123049500Y-110118995D01*
X123076420Y-110254327D01*
X123076420Y-110254329D01*
X123129222Y-110381806D01*
X123129228Y-110381817D01*
X123205885Y-110496541D01*
X123303458Y-110594114D01*
X123418182Y-110670771D01*
X123418193Y-110670777D01*
X123465283Y-110690282D01*
X123545672Y-110723580D01*
X123681007Y-110750500D01*
X123681008Y-110750500D01*
X123818992Y-110750500D01*
X123818993Y-110750500D01*
X123954328Y-110723580D01*
X124081811Y-110670775D01*
X124196542Y-110594114D01*
X124294114Y-110496542D01*
X124370775Y-110381811D01*
X124423580Y-110254328D01*
X124450500Y-110118993D01*
X124450500Y-109981007D01*
X124423580Y-109845672D01*
X124370775Y-109718189D01*
X124370774Y-109718187D01*
X124370771Y-109718182D01*
X124294114Y-109603458D01*
X124196541Y-109505885D01*
X124081817Y-109429228D01*
X124081806Y-109429222D01*
X123954328Y-109376420D01*
X123818995Y-109349500D01*
X123818993Y-109349500D01*
X123681007Y-109349500D01*
X123681004Y-109349500D01*
X123545672Y-109376420D01*
X123545670Y-109376420D01*
X123418193Y-109429222D01*
X123418182Y-109429228D01*
X123303458Y-109505885D01*
X123205885Y-109603458D01*
X123129228Y-109718182D01*
X123129222Y-109718193D01*
X123076420Y-109845670D01*
X123076420Y-109845672D01*
X123049500Y-109981004D01*
X118500000Y-109981004D01*
X118500000Y-108671506D01*
X118500500Y-108668993D01*
X118500500Y-108531007D01*
X118500000Y-108528493D01*
X118500000Y-105531664D01*
X118518907Y-105473473D01*
X118528996Y-105461660D01*
X118544114Y-105446542D01*
X118620775Y-105331811D01*
X118673580Y-105204328D01*
X118700500Y-105068993D01*
X118700500Y-104931007D01*
X118673580Y-104795672D01*
X118631465Y-104693996D01*
X118620777Y-104668193D01*
X118620771Y-104668182D01*
X118544114Y-104553458D01*
X118528996Y-104538340D01*
X118501219Y-104483823D01*
X118500000Y-104468336D01*
X118500000Y-103531664D01*
X118518907Y-103473473D01*
X118528996Y-103461660D01*
X118534771Y-103455885D01*
X118544114Y-103446542D01*
X118620775Y-103331811D01*
X118673580Y-103204328D01*
X118700500Y-103068993D01*
X118700500Y-102931007D01*
X118673580Y-102795672D01*
X118620775Y-102668189D01*
X118620774Y-102668187D01*
X118620771Y-102668182D01*
X118544114Y-102553458D01*
X118528996Y-102538340D01*
X118501219Y-102483823D01*
X118500000Y-102468336D01*
X118500000Y-101431004D01*
X131299500Y-101431004D01*
X131299500Y-101568995D01*
X131326420Y-101704327D01*
X131326420Y-101704329D01*
X131379222Y-101831806D01*
X131379228Y-101831817D01*
X131455885Y-101946541D01*
X131553458Y-102044114D01*
X131668182Y-102120771D01*
X131668193Y-102120777D01*
X131715283Y-102140282D01*
X131795672Y-102173580D01*
X131838883Y-102182175D01*
X131892267Y-102212072D01*
X131917883Y-102267637D01*
X131905946Y-102327646D01*
X131901885Y-102334273D01*
X131879230Y-102368178D01*
X131879222Y-102368193D01*
X131826420Y-102495670D01*
X131826420Y-102495672D01*
X131799500Y-102631004D01*
X131799500Y-102768995D01*
X131826420Y-102904327D01*
X131826420Y-102904329D01*
X131879222Y-103031806D01*
X131879228Y-103031817D01*
X131930696Y-103108843D01*
X131955885Y-103146541D01*
X131958588Y-103150585D01*
X131957550Y-103151278D01*
X131977824Y-103203077D01*
X131962375Y-103262280D01*
X131915078Y-103301095D01*
X131898311Y-103306003D01*
X131795670Y-103326420D01*
X131668193Y-103379222D01*
X131668182Y-103379228D01*
X131553458Y-103455885D01*
X131455885Y-103553458D01*
X131379228Y-103668182D01*
X131379222Y-103668193D01*
X131326420Y-103795670D01*
X131326420Y-103795672D01*
X131299500Y-103931004D01*
X131299500Y-104068995D01*
X131317446Y-104159216D01*
X131325658Y-104200499D01*
X131326420Y-104204327D01*
X131326420Y-104204329D01*
X131379222Y-104331806D01*
X131379228Y-104331817D01*
X131455885Y-104446541D01*
X131553458Y-104544114D01*
X131668182Y-104620771D01*
X131668193Y-104620777D01*
X131681817Y-104626420D01*
X131795672Y-104673580D01*
X131898310Y-104693996D01*
X131951694Y-104723893D01*
X131977310Y-104779458D01*
X131965373Y-104839468D01*
X131958585Y-104849413D01*
X131958588Y-104849415D01*
X131879228Y-104968182D01*
X131879222Y-104968193D01*
X131826420Y-105095670D01*
X131826420Y-105095672D01*
X131799500Y-105231004D01*
X131799500Y-105368995D01*
X131826420Y-105504327D01*
X131826420Y-105504329D01*
X131879222Y-105631806D01*
X131879227Y-105631815D01*
X131901885Y-105665725D01*
X131918493Y-105724613D01*
X131897315Y-105782016D01*
X131846442Y-105816009D01*
X131838885Y-105817823D01*
X131795678Y-105826418D01*
X131795670Y-105826420D01*
X131668193Y-105879222D01*
X131668182Y-105879228D01*
X131553458Y-105955885D01*
X131455885Y-106053458D01*
X131379228Y-106168182D01*
X131379222Y-106168193D01*
X131326420Y-106295670D01*
X131326420Y-106295672D01*
X131299500Y-106431004D01*
X131299500Y-106568995D01*
X131326420Y-106704327D01*
X131326420Y-106704329D01*
X131379222Y-106831806D01*
X131379228Y-106831817D01*
X131455885Y-106946541D01*
X131553458Y-107044114D01*
X131668182Y-107120771D01*
X131668193Y-107120777D01*
X131715283Y-107140282D01*
X131795672Y-107173580D01*
X131931007Y-107200500D01*
X131931008Y-107200500D01*
X132068992Y-107200500D01*
X132068993Y-107200500D01*
X132204328Y-107173580D01*
X132331811Y-107120775D01*
X132446542Y-107044114D01*
X132544114Y-106946542D01*
X132620775Y-106831811D01*
X132673580Y-106704328D01*
X132700500Y-106568993D01*
X132700500Y-106431007D01*
X132700499Y-106431004D01*
X138299500Y-106431004D01*
X138299500Y-106568995D01*
X138326420Y-106704327D01*
X138326420Y-106704329D01*
X138379222Y-106831806D01*
X138379228Y-106831817D01*
X138455885Y-106946541D01*
X138553458Y-107044114D01*
X138668182Y-107120771D01*
X138668193Y-107120777D01*
X138715283Y-107140282D01*
X138795672Y-107173580D01*
X138931007Y-107200500D01*
X138951678Y-107200500D01*
X139009869Y-107219407D01*
X139021682Y-107229496D01*
X139099500Y-107307314D01*
X139099499Y-107307314D01*
X139192685Y-107400499D01*
X139192690Y-107400503D01*
X139306810Y-107466390D01*
X139306808Y-107466390D01*
X139306812Y-107466391D01*
X139306814Y-107466392D01*
X139434108Y-107500500D01*
X140068836Y-107500500D01*
X140127027Y-107519407D01*
X140138840Y-107529496D01*
X140153458Y-107544114D01*
X140268182Y-107620771D01*
X140268193Y-107620777D01*
X140315283Y-107640282D01*
X140395672Y-107673580D01*
X140531007Y-107700500D01*
X140531008Y-107700500D01*
X140668992Y-107700500D01*
X140668993Y-107700500D01*
X140804328Y-107673580D01*
X140931811Y-107620775D01*
X141046542Y-107544114D01*
X141144114Y-107446542D01*
X141220775Y-107331811D01*
X141273580Y-107204328D01*
X141300500Y-107068993D01*
X141300500Y-106931007D01*
X141273580Y-106795672D01*
X141220775Y-106668189D01*
X141220774Y-106668187D01*
X141220771Y-106668182D01*
X141144114Y-106553458D01*
X141046541Y-106455885D01*
X141009304Y-106431004D01*
X151799500Y-106431004D01*
X151799500Y-106568995D01*
X151826420Y-106704327D01*
X151826420Y-106704329D01*
X151879222Y-106831806D01*
X151879228Y-106831817D01*
X151955885Y-106946541D01*
X152053458Y-107044114D01*
X152168182Y-107120771D01*
X152168193Y-107120777D01*
X152215283Y-107140282D01*
X152295672Y-107173580D01*
X152431007Y-107200500D01*
X152451678Y-107200500D01*
X152509869Y-107219407D01*
X152521681Y-107229496D01*
X152568419Y-107276234D01*
X152568425Y-107276238D01*
X152682545Y-107342125D01*
X152682543Y-107342125D01*
X152682547Y-107342126D01*
X152682549Y-107342127D01*
X152809843Y-107376235D01*
X153693101Y-107376235D01*
X153751292Y-107395142D01*
X153763105Y-107405231D01*
X153777723Y-107419849D01*
X153892447Y-107496506D01*
X153892458Y-107496512D01*
X153939548Y-107516017D01*
X154019937Y-107549315D01*
X154155272Y-107576235D01*
X154155273Y-107576235D01*
X154293257Y-107576235D01*
X154293258Y-107576235D01*
X154428593Y-107549315D01*
X154556076Y-107496510D01*
X154670807Y-107419849D01*
X154768379Y-107322277D01*
X154845040Y-107207546D01*
X154897845Y-107080063D01*
X154924765Y-106944728D01*
X154924765Y-106806742D01*
X154897845Y-106671407D01*
X154855423Y-106568991D01*
X154845042Y-106543928D01*
X154845036Y-106543917D01*
X154768379Y-106429193D01*
X154670806Y-106331620D01*
X154556082Y-106254963D01*
X154556074Y-106254959D01*
X154526510Y-106242713D01*
X154479984Y-106202976D01*
X154465701Y-106143481D01*
X154489116Y-106086953D01*
X154509390Y-106068937D01*
X154546542Y-106044114D01*
X154644114Y-105946542D01*
X154720775Y-105831811D01*
X154773580Y-105704328D01*
X154800500Y-105568993D01*
X154800500Y-105431007D01*
X154773580Y-105295672D01*
X154720775Y-105168189D01*
X154720774Y-105168187D01*
X154720771Y-105168182D01*
X154644114Y-105053458D01*
X154546541Y-104955885D01*
X154431817Y-104879228D01*
X154431806Y-104879222D01*
X154304328Y-104826420D01*
X154168995Y-104799500D01*
X154168993Y-104799500D01*
X154031007Y-104799500D01*
X154031004Y-104799500D01*
X153895672Y-104826420D01*
X153895670Y-104826420D01*
X153768193Y-104879222D01*
X153768182Y-104879228D01*
X153653458Y-104955885D01*
X153555885Y-105053458D01*
X153479228Y-105168182D01*
X153479222Y-105168193D01*
X153426420Y-105295670D01*
X153426420Y-105295672D01*
X153399500Y-105431004D01*
X153399500Y-105568995D01*
X153426420Y-105704327D01*
X153426420Y-105704329D01*
X153479222Y-105831806D01*
X153479228Y-105831817D01*
X153555885Y-105946541D01*
X153653458Y-106044114D01*
X153768182Y-106120771D01*
X153768193Y-106120777D01*
X153797753Y-106133021D01*
X153805615Y-106139736D01*
X153815545Y-106142625D01*
X153828365Y-106159166D01*
X153844279Y-106172757D01*
X153846693Y-106182811D01*
X153853028Y-106190985D01*
X153853677Y-106211903D01*
X153858563Y-106232252D01*
X153854606Y-106241805D01*
X153854927Y-106252141D01*
X153844342Y-106266583D01*
X153835149Y-106288780D01*
X153820517Y-106302733D01*
X153817767Y-106304863D01*
X153777723Y-106331621D01*
X153758689Y-106350654D01*
X153753750Y-106354483D01*
X153730553Y-106362824D01*
X153708588Y-106374016D01*
X153696864Y-106374938D01*
X153696174Y-106375187D01*
X153695649Y-106375034D01*
X153693101Y-106375235D01*
X153270653Y-106375235D01*
X153212462Y-106356328D01*
X153176498Y-106306828D01*
X153173637Y-106295862D01*
X153173579Y-106295670D01*
X153120777Y-106168193D01*
X153120771Y-106168182D01*
X153044114Y-106053458D01*
X152946541Y-105955885D01*
X152831817Y-105879228D01*
X152831806Y-105879222D01*
X152704328Y-105826420D01*
X152568995Y-105799500D01*
X152568993Y-105799500D01*
X152431007Y-105799500D01*
X152431004Y-105799500D01*
X152295672Y-105826420D01*
X152295670Y-105826420D01*
X152168193Y-105879222D01*
X152168182Y-105879228D01*
X152053458Y-105955885D01*
X151955885Y-106053458D01*
X151879228Y-106168182D01*
X151879222Y-106168193D01*
X151826420Y-106295670D01*
X151826420Y-106295672D01*
X151799500Y-106431004D01*
X141009304Y-106431004D01*
X140931817Y-106379228D01*
X140931806Y-106379222D01*
X140858805Y-106348985D01*
X140840646Y-106341463D01*
X140794121Y-106301728D01*
X140779837Y-106242233D01*
X140803251Y-106185705D01*
X140840646Y-106158536D01*
X140931811Y-106120775D01*
X141046542Y-106044114D01*
X141144114Y-105946542D01*
X141220775Y-105831811D01*
X141273580Y-105704328D01*
X141300500Y-105568993D01*
X141300500Y-105431007D01*
X141273580Y-105295672D01*
X141220775Y-105168189D01*
X141220774Y-105168187D01*
X141220771Y-105168182D01*
X141144114Y-105053458D01*
X141046541Y-104955885D01*
X140931817Y-104879228D01*
X140931806Y-104879222D01*
X140804328Y-104826420D01*
X140668995Y-104799500D01*
X140668993Y-104799500D01*
X140531007Y-104799500D01*
X140531004Y-104799500D01*
X140395672Y-104826420D01*
X140395670Y-104826420D01*
X140268193Y-104879222D01*
X140268182Y-104879228D01*
X140153458Y-104955885D01*
X140055885Y-105053458D01*
X139979228Y-105168182D01*
X139979222Y-105168193D01*
X139926420Y-105295670D01*
X139926420Y-105295672D01*
X139899500Y-105431004D01*
X139899500Y-105568995D01*
X139926420Y-105704327D01*
X139926420Y-105704329D01*
X139979222Y-105831806D01*
X139979228Y-105831817D01*
X140055885Y-105946541D01*
X140153458Y-106044114D01*
X140268182Y-106120771D01*
X140268193Y-106120777D01*
X140359352Y-106158536D01*
X140405878Y-106198272D01*
X140420162Y-106257767D01*
X140396747Y-106314295D01*
X140359352Y-106341464D01*
X140268193Y-106379222D01*
X140268182Y-106379228D01*
X140153458Y-106455885D01*
X140153454Y-106455889D01*
X140138840Y-106470504D01*
X140084323Y-106498281D01*
X140068836Y-106499500D01*
X139795372Y-106499500D01*
X139737181Y-106480593D01*
X139701217Y-106431093D01*
X139698274Y-106419815D01*
X139685278Y-106354483D01*
X139673580Y-106295672D01*
X139630922Y-106192686D01*
X139620777Y-106168193D01*
X139620771Y-106168182D01*
X139544114Y-106053458D01*
X139446541Y-105955885D01*
X139331817Y-105879228D01*
X139331806Y-105879222D01*
X139204328Y-105826420D01*
X139068995Y-105799500D01*
X139068993Y-105799500D01*
X138931007Y-105799500D01*
X138931004Y-105799500D01*
X138795672Y-105826420D01*
X138795670Y-105826420D01*
X138668193Y-105879222D01*
X138668182Y-105879228D01*
X138553458Y-105955885D01*
X138455885Y-106053458D01*
X138379228Y-106168182D01*
X138379222Y-106168193D01*
X138326420Y-106295670D01*
X138326420Y-106295672D01*
X138299500Y-106431004D01*
X132700499Y-106431004D01*
X132673580Y-106295672D01*
X132630922Y-106192686D01*
X132620777Y-106168193D01*
X132620771Y-106168181D01*
X132598115Y-106134275D01*
X132581506Y-106075387D01*
X132602683Y-106017983D01*
X132653557Y-105983990D01*
X132661104Y-105982177D01*
X132704328Y-105973580D01*
X132831811Y-105920775D01*
X132946542Y-105844114D01*
X133044114Y-105746542D01*
X133120775Y-105631811D01*
X133173580Y-105504328D01*
X133200500Y-105368993D01*
X133200500Y-105231007D01*
X133173580Y-105095672D01*
X133147872Y-105033608D01*
X133120777Y-104968193D01*
X133120771Y-104968182D01*
X133044114Y-104853458D01*
X132946541Y-104755885D01*
X132831817Y-104679228D01*
X132831806Y-104679222D01*
X132704329Y-104626420D01*
X132601688Y-104606003D01*
X132548304Y-104576106D01*
X132522689Y-104520540D01*
X132534626Y-104460531D01*
X132541414Y-104450586D01*
X132541412Y-104450585D01*
X132544112Y-104446543D01*
X132544114Y-104446542D01*
X132620775Y-104331811D01*
X132673580Y-104204328D01*
X132700500Y-104068993D01*
X132700500Y-103931007D01*
X132673580Y-103795672D01*
X132620775Y-103668189D01*
X132620774Y-103668187D01*
X132620771Y-103668182D01*
X132576863Y-103602471D01*
X132544114Y-103553458D01*
X132544112Y-103553456D01*
X132541412Y-103549415D01*
X132542449Y-103548721D01*
X132522175Y-103496925D01*
X132537622Y-103437722D01*
X132584918Y-103398905D01*
X132601685Y-103393996D01*
X132704328Y-103373580D01*
X132831811Y-103320775D01*
X132946542Y-103244114D01*
X133044114Y-103146542D01*
X133120775Y-103031811D01*
X133173580Y-102904328D01*
X133200500Y-102768993D01*
X133200500Y-102631007D01*
X133173580Y-102495672D01*
X133157100Y-102455886D01*
X133146794Y-102431004D01*
X142799500Y-102431004D01*
X142799500Y-102568995D01*
X142826420Y-102704327D01*
X142826420Y-102704329D01*
X142879222Y-102831806D01*
X142879228Y-102831817D01*
X142955885Y-102946541D01*
X143053458Y-103044114D01*
X143168182Y-103120771D01*
X143168193Y-103120777D01*
X143273618Y-103164445D01*
X143320144Y-103204181D01*
X143334428Y-103263676D01*
X143327202Y-103293783D01*
X143326421Y-103295668D01*
X143326420Y-103295672D01*
X143299500Y-103431004D01*
X143299500Y-103568995D01*
X143326420Y-103704327D01*
X143326420Y-103704329D01*
X143379222Y-103831806D01*
X143379228Y-103831817D01*
X143455885Y-103946541D01*
X143553458Y-104044114D01*
X143668182Y-104120771D01*
X143668193Y-104120777D01*
X143715283Y-104140282D01*
X143795672Y-104173580D01*
X143931007Y-104200500D01*
X143931008Y-104200500D01*
X144068992Y-104200500D01*
X144068993Y-104200500D01*
X144204328Y-104173580D01*
X144331811Y-104120775D01*
X144446542Y-104044114D01*
X144544114Y-103946542D01*
X144620775Y-103831811D01*
X144673580Y-103704328D01*
X144700500Y-103568993D01*
X144700500Y-103431007D01*
X144673580Y-103295672D01*
X144672801Y-103293793D01*
X144672729Y-103292867D01*
X144672169Y-103291022D01*
X144672574Y-103290899D01*
X144668001Y-103232798D01*
X144699970Y-103180629D01*
X144726379Y-103164446D01*
X144831811Y-103120775D01*
X144946542Y-103044114D01*
X145044114Y-102946542D01*
X145120775Y-102831811D01*
X145173580Y-102704328D01*
X145200500Y-102568993D01*
X145200500Y-102431007D01*
X145200499Y-102431004D01*
X155799500Y-102431004D01*
X155799500Y-102568995D01*
X155826420Y-102704327D01*
X155826420Y-102704329D01*
X155879222Y-102831806D01*
X155879228Y-102831817D01*
X155955885Y-102946541D01*
X156053458Y-103044114D01*
X156168182Y-103120771D01*
X156168193Y-103120777D01*
X156273618Y-103164445D01*
X156320144Y-103204181D01*
X156334428Y-103263676D01*
X156327202Y-103293783D01*
X156326421Y-103295668D01*
X156326420Y-103295672D01*
X156299500Y-103431004D01*
X156299500Y-103568995D01*
X156326420Y-103704327D01*
X156326420Y-103704329D01*
X156379222Y-103831806D01*
X156379228Y-103831817D01*
X156455885Y-103946541D01*
X156553458Y-104044114D01*
X156668182Y-104120771D01*
X156668193Y-104120777D01*
X156715283Y-104140282D01*
X156795672Y-104173580D01*
X156931007Y-104200500D01*
X156931008Y-104200500D01*
X157068992Y-104200500D01*
X157068993Y-104200500D01*
X157204328Y-104173580D01*
X157331811Y-104120775D01*
X157446542Y-104044114D01*
X157544114Y-103946542D01*
X157620775Y-103831811D01*
X157673580Y-103704328D01*
X157700500Y-103568993D01*
X157700500Y-103431007D01*
X157673580Y-103295672D01*
X157672801Y-103293793D01*
X157672729Y-103292867D01*
X157672169Y-103291022D01*
X157672574Y-103290899D01*
X157668001Y-103232798D01*
X157699970Y-103180629D01*
X157726379Y-103164446D01*
X157831811Y-103120775D01*
X157946542Y-103044114D01*
X158044114Y-102946542D01*
X158120775Y-102831811D01*
X158173580Y-102704328D01*
X158200500Y-102568993D01*
X158200500Y-102431007D01*
X158173580Y-102295672D01*
X158120775Y-102168189D01*
X158120774Y-102168187D01*
X158120771Y-102168182D01*
X158044114Y-102053458D01*
X157946541Y-101955885D01*
X157831817Y-101879228D01*
X157831806Y-101879222D01*
X157704328Y-101826420D01*
X157568995Y-101799500D01*
X157568993Y-101799500D01*
X157431007Y-101799500D01*
X157431004Y-101799500D01*
X157295672Y-101826420D01*
X157295670Y-101826420D01*
X157168193Y-101879222D01*
X157168181Y-101879228D01*
X157055002Y-101954854D01*
X156996114Y-101971463D01*
X156944998Y-101954854D01*
X156831818Y-101879228D01*
X156831806Y-101879222D01*
X156704328Y-101826420D01*
X156568995Y-101799500D01*
X156568993Y-101799500D01*
X156431007Y-101799500D01*
X156431004Y-101799500D01*
X156295672Y-101826420D01*
X156295670Y-101826420D01*
X156168193Y-101879222D01*
X156168182Y-101879228D01*
X156053458Y-101955885D01*
X155955885Y-102053458D01*
X155879228Y-102168182D01*
X155879222Y-102168193D01*
X155826420Y-102295670D01*
X155826420Y-102295672D01*
X155799500Y-102431004D01*
X145200499Y-102431004D01*
X145173580Y-102295672D01*
X145120775Y-102168189D01*
X145120774Y-102168187D01*
X145120771Y-102168182D01*
X145044114Y-102053458D01*
X144946541Y-101955885D01*
X144831817Y-101879228D01*
X144831806Y-101879222D01*
X144704328Y-101826420D01*
X144568995Y-101799500D01*
X144568993Y-101799500D01*
X144431007Y-101799500D01*
X144431004Y-101799500D01*
X144295672Y-101826420D01*
X144295670Y-101826420D01*
X144168193Y-101879222D01*
X144168181Y-101879228D01*
X144055002Y-101954854D01*
X143996114Y-101971463D01*
X143944998Y-101954854D01*
X143831818Y-101879228D01*
X143831806Y-101879222D01*
X143704328Y-101826420D01*
X143568995Y-101799500D01*
X143568993Y-101799500D01*
X143431007Y-101799500D01*
X143431004Y-101799500D01*
X143295672Y-101826420D01*
X143295670Y-101826420D01*
X143168193Y-101879222D01*
X143168182Y-101879228D01*
X143053458Y-101955885D01*
X142955885Y-102053458D01*
X142879228Y-102168182D01*
X142879222Y-102168193D01*
X142826420Y-102295670D01*
X142826420Y-102295672D01*
X142799500Y-102431004D01*
X133146794Y-102431004D01*
X133120777Y-102368193D01*
X133120771Y-102368182D01*
X133044114Y-102253458D01*
X132946541Y-102155885D01*
X132831817Y-102079228D01*
X132831806Y-102079222D01*
X132704329Y-102026420D01*
X132704319Y-102026417D01*
X132661115Y-102017823D01*
X132607731Y-101987926D01*
X132582116Y-101932361D01*
X132594054Y-101872351D01*
X132598107Y-101865735D01*
X132620775Y-101831811D01*
X132673580Y-101704328D01*
X132700500Y-101568993D01*
X132700500Y-101431007D01*
X132673580Y-101295672D01*
X132620775Y-101168189D01*
X132620774Y-101168187D01*
X132620771Y-101168182D01*
X132544114Y-101053458D01*
X132446541Y-100955885D01*
X132331817Y-100879228D01*
X132331806Y-100879222D01*
X132204328Y-100826420D01*
X132068995Y-100799500D01*
X132068993Y-100799500D01*
X131931007Y-100799500D01*
X131931004Y-100799500D01*
X131795672Y-100826420D01*
X131795670Y-100826420D01*
X131668193Y-100879222D01*
X131668182Y-100879228D01*
X131553458Y-100955885D01*
X131455885Y-101053458D01*
X131379228Y-101168182D01*
X131379222Y-101168193D01*
X131326420Y-101295670D01*
X131326420Y-101295672D01*
X131299500Y-101431004D01*
X118500000Y-101431004D01*
X118500000Y-98531664D01*
X118518907Y-98473473D01*
X118528996Y-98461660D01*
X118544114Y-98446542D01*
X118620775Y-98331811D01*
X118673580Y-98204328D01*
X118700500Y-98068993D01*
X118700500Y-97931007D01*
X118673580Y-97795672D01*
X118620775Y-97668189D01*
X118620774Y-97668187D01*
X118620771Y-97668182D01*
X118544114Y-97553458D01*
X118528996Y-97538340D01*
X118525369Y-97531222D01*
X118518907Y-97526527D01*
X118511743Y-97504478D01*
X118501219Y-97483823D01*
X118500000Y-97468336D01*
X118500000Y-97431004D01*
X122799500Y-97431004D01*
X122799500Y-97568995D01*
X122826420Y-97704327D01*
X122826420Y-97704329D01*
X122879222Y-97831806D01*
X122879228Y-97831817D01*
X122955885Y-97946541D01*
X123053458Y-98044114D01*
X123168182Y-98120771D01*
X123168193Y-98120777D01*
X123213248Y-98139439D01*
X123295672Y-98173580D01*
X123431007Y-98200500D01*
X123431008Y-98200500D01*
X123568992Y-98200500D01*
X123568993Y-98200500D01*
X123704328Y-98173580D01*
X123831811Y-98120775D01*
X123946542Y-98044114D01*
X124044114Y-97946542D01*
X124120775Y-97831811D01*
X124173580Y-97704328D01*
X124200500Y-97568993D01*
X124200500Y-97431007D01*
X124200499Y-97431004D01*
X127299500Y-97431004D01*
X127299500Y-97568995D01*
X127326420Y-97704327D01*
X127326420Y-97704329D01*
X127379222Y-97831806D01*
X127379228Y-97831817D01*
X127455885Y-97946541D01*
X127553458Y-98044114D01*
X127668182Y-98120771D01*
X127668193Y-98120777D01*
X127713248Y-98139439D01*
X127795672Y-98173580D01*
X127931007Y-98200500D01*
X127931008Y-98200500D01*
X128068992Y-98200500D01*
X128068993Y-98200500D01*
X128204328Y-98173580D01*
X128331811Y-98120775D01*
X128446542Y-98044114D01*
X128544114Y-97946542D01*
X128620775Y-97831811D01*
X128673580Y-97704328D01*
X128700500Y-97568993D01*
X128700500Y-97431007D01*
X128700499Y-97431004D01*
X131299500Y-97431004D01*
X131299500Y-97568995D01*
X131326420Y-97704327D01*
X131326420Y-97704329D01*
X131379222Y-97831806D01*
X131379228Y-97831817D01*
X131455885Y-97946541D01*
X131553458Y-98044114D01*
X131668182Y-98120771D01*
X131668193Y-98120777D01*
X131713248Y-98139439D01*
X131795672Y-98173580D01*
X131931007Y-98200500D01*
X131931008Y-98200500D01*
X132068992Y-98200500D01*
X132068993Y-98200500D01*
X132204328Y-98173580D01*
X132331811Y-98120775D01*
X132446542Y-98044114D01*
X132544114Y-97946542D01*
X132620775Y-97831811D01*
X132673580Y-97704328D01*
X132700500Y-97568993D01*
X132700500Y-97431007D01*
X132673580Y-97295672D01*
X132621642Y-97170281D01*
X132620777Y-97168193D01*
X132620771Y-97168182D01*
X132544114Y-97053458D01*
X132446541Y-96955885D01*
X132331817Y-96879228D01*
X132331806Y-96879222D01*
X132204328Y-96826420D01*
X132068995Y-96799500D01*
X132068993Y-96799500D01*
X131931007Y-96799500D01*
X131931004Y-96799500D01*
X131795672Y-96826420D01*
X131795670Y-96826420D01*
X131668193Y-96879222D01*
X131668182Y-96879228D01*
X131553458Y-96955885D01*
X131455885Y-97053458D01*
X131379228Y-97168182D01*
X131379222Y-97168193D01*
X131326420Y-97295670D01*
X131326420Y-97295672D01*
X131299500Y-97431004D01*
X128700499Y-97431004D01*
X128673580Y-97295672D01*
X128621642Y-97170281D01*
X128620777Y-97168193D01*
X128620771Y-97168182D01*
X128544114Y-97053458D01*
X128446541Y-96955885D01*
X128331817Y-96879228D01*
X128331806Y-96879222D01*
X128204328Y-96826420D01*
X128068995Y-96799500D01*
X128068993Y-96799500D01*
X127931007Y-96799500D01*
X127931004Y-96799500D01*
X127795672Y-96826420D01*
X127795670Y-96826420D01*
X127668193Y-96879222D01*
X127668182Y-96879228D01*
X127553458Y-96955885D01*
X127455885Y-97053458D01*
X127379228Y-97168182D01*
X127379222Y-97168193D01*
X127326420Y-97295670D01*
X127326420Y-97295672D01*
X127299500Y-97431004D01*
X124200499Y-97431004D01*
X124173580Y-97295672D01*
X124121642Y-97170281D01*
X124120777Y-97168193D01*
X124120771Y-97168182D01*
X124044114Y-97053458D01*
X123946541Y-96955885D01*
X123831817Y-96879228D01*
X123831806Y-96879222D01*
X123704328Y-96826420D01*
X123568995Y-96799500D01*
X123568993Y-96799500D01*
X123431007Y-96799500D01*
X123431004Y-96799500D01*
X123295672Y-96826420D01*
X123295670Y-96826420D01*
X123168193Y-96879222D01*
X123168182Y-96879228D01*
X123053458Y-96955885D01*
X122955885Y-97053458D01*
X122879228Y-97168182D01*
X122879222Y-97168193D01*
X122826420Y-97295670D01*
X122826420Y-97295672D01*
X122799500Y-97431004D01*
X118500000Y-97431004D01*
X118500000Y-95585127D01*
X118518907Y-95526936D01*
X118568407Y-95490972D01*
X118618312Y-95488029D01*
X118681007Y-95500500D01*
X118681008Y-95500500D01*
X118818992Y-95500500D01*
X118818993Y-95500500D01*
X118954328Y-95473580D01*
X119081811Y-95420775D01*
X119096434Y-95411004D01*
X119819500Y-95411004D01*
X119819500Y-95548995D01*
X119833778Y-95620771D01*
X119843437Y-95669334D01*
X119846420Y-95684327D01*
X119846420Y-95684329D01*
X119899222Y-95811806D01*
X119899228Y-95811817D01*
X119975885Y-95926541D01*
X120073458Y-96024114D01*
X120188182Y-96100771D01*
X120188193Y-96100777D01*
X120235283Y-96120282D01*
X120315672Y-96153580D01*
X120451007Y-96180500D01*
X120451008Y-96180500D01*
X120588992Y-96180500D01*
X120588993Y-96180500D01*
X120724328Y-96153580D01*
X120851811Y-96100775D01*
X120966542Y-96024114D01*
X121064114Y-95926542D01*
X121140775Y-95811811D01*
X121193580Y-95684328D01*
X121220500Y-95548993D01*
X121220500Y-95411007D01*
X121193580Y-95275672D01*
X121170775Y-95220616D01*
X121140777Y-95148193D01*
X121140771Y-95148182D01*
X121064114Y-95033458D01*
X120966541Y-94935885D01*
X120851817Y-94859228D01*
X120851806Y-94859222D01*
X120724328Y-94806420D01*
X120588995Y-94779500D01*
X120588993Y-94779500D01*
X120451007Y-94779500D01*
X120451004Y-94779500D01*
X120315672Y-94806420D01*
X120315670Y-94806420D01*
X120188193Y-94859222D01*
X120188182Y-94859228D01*
X120073458Y-94935885D01*
X119975885Y-95033458D01*
X119899228Y-95148182D01*
X119899222Y-95148193D01*
X119846420Y-95275670D01*
X119846420Y-95275672D01*
X119819500Y-95411004D01*
X119096434Y-95411004D01*
X119196542Y-95344114D01*
X119294114Y-95246542D01*
X119370775Y-95131811D01*
X119423580Y-95004328D01*
X119450500Y-94868993D01*
X119450500Y-94731007D01*
X119423580Y-94595672D01*
X119370775Y-94468189D01*
X119370774Y-94468187D01*
X119370771Y-94468182D01*
X119294114Y-94353458D01*
X119196541Y-94255885D01*
X119081817Y-94179228D01*
X119081806Y-94179222D01*
X118954328Y-94126420D01*
X118818995Y-94099500D01*
X118818993Y-94099500D01*
X118681007Y-94099500D01*
X118681003Y-94099500D01*
X118618314Y-94111970D01*
X118593450Y-94109027D01*
X118568407Y-94109027D01*
X118563533Y-94105485D01*
X118557552Y-94104778D01*
X118539167Y-94087783D01*
X118518907Y-94073063D01*
X118517045Y-94067332D01*
X118512623Y-94063245D01*
X118500000Y-94014872D01*
X118500000Y-93931004D01*
X124799500Y-93931004D01*
X124799500Y-94068995D01*
X124826420Y-94204327D01*
X124826420Y-94204329D01*
X124879222Y-94331806D01*
X124879228Y-94331818D01*
X124954854Y-94444998D01*
X124971463Y-94503886D01*
X124954854Y-94555002D01*
X124879228Y-94668181D01*
X124879222Y-94668193D01*
X124826420Y-94795670D01*
X124826420Y-94795672D01*
X124799500Y-94931004D01*
X124799500Y-95068995D01*
X124826420Y-95204327D01*
X124826420Y-95204329D01*
X124879222Y-95331806D01*
X124879228Y-95331817D01*
X124955885Y-95446541D01*
X125053458Y-95544114D01*
X125168182Y-95620771D01*
X125168193Y-95620777D01*
X125215283Y-95640282D01*
X125295672Y-95673580D01*
X125431007Y-95700500D01*
X125431008Y-95700500D01*
X125568992Y-95700500D01*
X125568993Y-95700500D01*
X125704328Y-95673580D01*
X125831811Y-95620775D01*
X125946542Y-95544114D01*
X126044114Y-95446542D01*
X126120775Y-95331811D01*
X126173580Y-95204328D01*
X126200500Y-95068993D01*
X126200500Y-94931007D01*
X126173580Y-94795672D01*
X126120775Y-94668189D01*
X126120774Y-94668187D01*
X126120771Y-94668182D01*
X126082767Y-94611306D01*
X126045144Y-94555000D01*
X126028536Y-94496114D01*
X126045144Y-94444999D01*
X126120775Y-94331811D01*
X126173580Y-94204328D01*
X126200500Y-94068993D01*
X126200500Y-93931007D01*
X126173580Y-93795672D01*
X126155978Y-93753177D01*
X126120777Y-93668193D01*
X126120771Y-93668182D01*
X126044114Y-93553458D01*
X125946541Y-93455885D01*
X125831817Y-93379228D01*
X125831806Y-93379222D01*
X125704328Y-93326420D01*
X125568995Y-93299500D01*
X125568993Y-93299500D01*
X125431007Y-93299500D01*
X125431004Y-93299500D01*
X125295672Y-93326420D01*
X125295670Y-93326420D01*
X125168193Y-93379222D01*
X125168182Y-93379228D01*
X125053458Y-93455885D01*
X124955885Y-93553458D01*
X124879228Y-93668182D01*
X124879222Y-93668193D01*
X124826420Y-93795670D01*
X124826420Y-93795672D01*
X124799500Y-93931004D01*
X118500000Y-93931004D01*
X118500000Y-92599000D01*
X118518907Y-92540809D01*
X118568407Y-92504845D01*
X118599000Y-92500000D01*
X130999999Y-92500000D01*
X131000000Y-92500000D01*
X131000000Y-74946822D01*
X131018907Y-74888631D01*
X131068407Y-74852667D01*
X131129593Y-74852667D01*
X131169004Y-74876818D01*
X131470504Y-75178318D01*
X131498281Y-75232835D01*
X131499500Y-75248322D01*
X131499500Y-88968836D01*
X131480593Y-89027027D01*
X131470504Y-89038840D01*
X131455889Y-89053454D01*
X131455885Y-89053458D01*
X131379228Y-89168182D01*
X131379222Y-89168193D01*
X131326420Y-89295670D01*
X131326420Y-89295672D01*
X131299500Y-89431004D01*
X131299500Y-89568995D01*
X131326420Y-89704327D01*
X131326420Y-89704329D01*
X131379222Y-89831806D01*
X131379228Y-89831817D01*
X131455885Y-89946541D01*
X131553458Y-90044114D01*
X131668182Y-90120771D01*
X131668193Y-90120777D01*
X131715283Y-90140282D01*
X131795672Y-90173580D01*
X131931007Y-90200500D01*
X131931008Y-90200500D01*
X132068992Y-90200500D01*
X132068993Y-90200500D01*
X132204328Y-90173580D01*
X132331811Y-90120775D01*
X132444999Y-90045144D01*
X132503886Y-90028536D01*
X132555000Y-90045144D01*
X132611306Y-90082767D01*
X132668182Y-90120771D01*
X132668193Y-90120777D01*
X132715283Y-90140282D01*
X132795672Y-90173580D01*
X132931007Y-90200500D01*
X132931008Y-90200500D01*
X133068992Y-90200500D01*
X133068993Y-90200500D01*
X133204328Y-90173580D01*
X133331811Y-90120775D01*
X133446542Y-90044114D01*
X133544114Y-89946542D01*
X133620775Y-89831811D01*
X133673580Y-89704328D01*
X133700500Y-89568993D01*
X133700500Y-89431007D01*
X133673580Y-89295672D01*
X133620775Y-89168189D01*
X133620774Y-89168187D01*
X133620771Y-89168182D01*
X133544114Y-89053458D01*
X133529496Y-89038840D01*
X133501719Y-88984323D01*
X133500500Y-88968836D01*
X133500500Y-87702696D01*
X142309500Y-87702696D01*
X142309500Y-88337303D01*
X142347813Y-88970696D01*
X142347815Y-88970722D01*
X142424304Y-89600675D01*
X142538686Y-90224832D01*
X142538695Y-90224877D01*
X142623987Y-90570918D01*
X142690558Y-90841006D01*
X142879348Y-91446856D01*
X143104375Y-92040202D01*
X143364816Y-92618878D01*
X143659722Y-93180774D01*
X143659730Y-93180788D01*
X143659739Y-93180803D01*
X143988002Y-93723817D01*
X143988030Y-93723862D01*
X144319674Y-94204329D01*
X144348500Y-94246090D01*
X144739859Y-94745623D01*
X145160666Y-95220616D01*
X145609384Y-95669334D01*
X146084377Y-96090141D01*
X146583910Y-96481500D01*
X146583934Y-96481517D01*
X146583936Y-96481518D01*
X147106137Y-96841969D01*
X147106155Y-96841980D01*
X147106162Y-96841985D01*
X147649226Y-97170278D01*
X148211122Y-97465184D01*
X148789798Y-97725625D01*
X149383144Y-97950652D01*
X149988994Y-98139442D01*
X150605138Y-98291308D01*
X150826188Y-98331817D01*
X151229324Y-98405695D01*
X151526765Y-98441810D01*
X151859283Y-98482185D01*
X152492696Y-98520499D01*
X152492697Y-98520500D01*
X152492708Y-98520500D01*
X153127303Y-98520500D01*
X153127303Y-98520499D01*
X153760717Y-98482185D01*
X154241954Y-98423752D01*
X154390675Y-98405695D01*
X154558641Y-98374913D01*
X155014862Y-98291308D01*
X155631006Y-98139442D01*
X156236856Y-97950652D01*
X156830202Y-97725625D01*
X157408878Y-97465184D01*
X157970774Y-97170278D01*
X158513838Y-96841985D01*
X158513853Y-96841974D01*
X158513862Y-96841969D01*
X158759603Y-96672345D01*
X159036090Y-96481500D01*
X159535623Y-96090141D01*
X160010616Y-95669334D01*
X160459334Y-95220616D01*
X160880141Y-94745623D01*
X161271500Y-94246090D01*
X161488986Y-93931007D01*
X161631969Y-93723862D01*
X161631974Y-93723853D01*
X161631985Y-93723838D01*
X161960278Y-93180774D01*
X162255184Y-92618878D01*
X162515625Y-92040202D01*
X162740652Y-91446856D01*
X162929442Y-90841006D01*
X163081308Y-90224862D01*
X163164913Y-89768641D01*
X163195695Y-89600675D01*
X163248208Y-89168189D01*
X163272185Y-88970717D01*
X163310499Y-88337303D01*
X163310500Y-88337303D01*
X163310500Y-87702697D01*
X163310499Y-87702696D01*
X163284838Y-87278472D01*
X163272185Y-87069283D01*
X163195695Y-86439326D01*
X163081308Y-85815138D01*
X162929442Y-85198994D01*
X162740652Y-84593144D01*
X162515625Y-83999798D01*
X162333449Y-83595021D01*
X162326809Y-83534199D01*
X162357188Y-83481088D01*
X162412983Y-83455977D01*
X162472882Y-83468457D01*
X162493732Y-83484388D01*
X162553458Y-83544114D01*
X162668182Y-83620771D01*
X162668193Y-83620777D01*
X162715283Y-83640282D01*
X162795672Y-83673580D01*
X162931007Y-83700500D01*
X162931008Y-83700500D01*
X163068992Y-83700500D01*
X163068993Y-83700500D01*
X163204328Y-83673580D01*
X163331811Y-83620775D01*
X163446542Y-83544114D01*
X163544114Y-83446542D01*
X163620775Y-83331811D01*
X163673580Y-83204328D01*
X163700500Y-83068993D01*
X163700500Y-82931007D01*
X163673580Y-82795672D01*
X163620775Y-82668189D01*
X163620774Y-82668187D01*
X163620771Y-82668182D01*
X163544114Y-82553458D01*
X163529496Y-82538840D01*
X163501719Y-82484323D01*
X163500500Y-82468836D01*
X163500500Y-81531164D01*
X163519407Y-81472973D01*
X163529496Y-81461160D01*
X163544114Y-81446542D01*
X163620775Y-81331811D01*
X163673580Y-81204328D01*
X163700500Y-81068993D01*
X163700500Y-80931007D01*
X163673580Y-80795672D01*
X163620775Y-80668189D01*
X163620774Y-80668187D01*
X163620771Y-80668182D01*
X163544114Y-80553458D01*
X163446541Y-80455885D01*
X163331817Y-80379228D01*
X163331806Y-80379222D01*
X163204328Y-80326420D01*
X163068995Y-80299500D01*
X163068993Y-80299500D01*
X162931007Y-80299500D01*
X162931004Y-80299500D01*
X162795672Y-80326420D01*
X162795670Y-80326420D01*
X162668193Y-80379222D01*
X162668182Y-80379228D01*
X162553458Y-80455885D01*
X162455885Y-80553458D01*
X162379228Y-80668182D01*
X162379222Y-80668193D01*
X162326420Y-80795670D01*
X162326420Y-80795672D01*
X162299500Y-80931004D01*
X162299500Y-81068995D01*
X162314443Y-81144114D01*
X162325658Y-81200499D01*
X162326420Y-81204327D01*
X162326420Y-81204329D01*
X162379222Y-81331806D01*
X162379228Y-81331817D01*
X162455885Y-81446541D01*
X162470504Y-81461160D01*
X162498281Y-81515677D01*
X162499500Y-81531164D01*
X162499500Y-82468836D01*
X162480593Y-82527027D01*
X162470504Y-82538840D01*
X162455889Y-82553454D01*
X162455885Y-82553458D01*
X162379228Y-82668182D01*
X162379222Y-82668193D01*
X162326420Y-82795670D01*
X162326420Y-82795672D01*
X162299500Y-82931004D01*
X162299500Y-83068996D01*
X162305655Y-83099938D01*
X162298463Y-83160700D01*
X162256930Y-83205629D01*
X162196920Y-83217566D01*
X162141355Y-83191950D01*
X162120897Y-83165260D01*
X162118504Y-83160700D01*
X161960278Y-82859226D01*
X161631985Y-82316162D01*
X161631980Y-82316155D01*
X161631969Y-82316137D01*
X161271518Y-81793936D01*
X161271517Y-81793934D01*
X161271500Y-81793910D01*
X160880141Y-81294377D01*
X160459334Y-80819384D01*
X160010616Y-80370666D01*
X159535623Y-79949859D01*
X159036090Y-79558500D01*
X159036071Y-79558486D01*
X159036063Y-79558481D01*
X158904426Y-79467618D01*
X158793432Y-79391004D01*
X160799500Y-79391004D01*
X160799500Y-79528995D01*
X160826420Y-79664327D01*
X160826420Y-79664329D01*
X160879222Y-79791806D01*
X160879228Y-79791817D01*
X160955885Y-79906541D01*
X161053458Y-80004114D01*
X161168182Y-80080771D01*
X161168193Y-80080777D01*
X161215283Y-80100282D01*
X161295672Y-80133580D01*
X161431007Y-80160500D01*
X161431008Y-80160500D01*
X161568992Y-80160500D01*
X161568993Y-80160500D01*
X161704328Y-80133580D01*
X161831811Y-80080775D01*
X161946542Y-80004114D01*
X162044114Y-79906542D01*
X162120775Y-79791811D01*
X162173580Y-79664328D01*
X162200500Y-79528993D01*
X162200500Y-79391007D01*
X162173580Y-79255672D01*
X162137345Y-79168193D01*
X162120777Y-79128193D01*
X162120771Y-79128182D01*
X162044114Y-79013458D01*
X161946541Y-78915885D01*
X161831817Y-78839228D01*
X161831806Y-78839222D01*
X161704328Y-78786420D01*
X161568995Y-78759500D01*
X161568993Y-78759500D01*
X161431007Y-78759500D01*
X161431004Y-78759500D01*
X161295672Y-78786420D01*
X161295670Y-78786420D01*
X161168193Y-78839222D01*
X161168182Y-78839228D01*
X161053458Y-78915885D01*
X160955885Y-79013458D01*
X160879228Y-79128182D01*
X160879222Y-79128193D01*
X160826420Y-79255670D01*
X160826420Y-79255672D01*
X160799500Y-79391004D01*
X158793432Y-79391004D01*
X158513862Y-79198030D01*
X158513817Y-79198002D01*
X157970803Y-78869739D01*
X157970788Y-78869730D01*
X157970774Y-78869722D01*
X157408878Y-78574816D01*
X157046303Y-78411634D01*
X156830216Y-78314381D01*
X156830213Y-78314380D01*
X156830202Y-78314375D01*
X156374712Y-78141630D01*
X156236865Y-78089351D01*
X156236858Y-78089349D01*
X156236856Y-78089348D01*
X156073943Y-78038582D01*
X155631014Y-77900560D01*
X155631007Y-77900558D01*
X155631006Y-77900558D01*
X155476970Y-77862591D01*
X155014877Y-77748695D01*
X155014832Y-77748686D01*
X154390675Y-77634304D01*
X153760722Y-77557815D01*
X153760696Y-77557813D01*
X153127303Y-77519500D01*
X153127292Y-77519500D01*
X152492708Y-77519500D01*
X152492697Y-77519500D01*
X151859303Y-77557813D01*
X151859277Y-77557815D01*
X151229324Y-77634304D01*
X150605167Y-77748686D01*
X150605122Y-77748695D01*
X149988998Y-77900557D01*
X149988985Y-77900560D01*
X149383150Y-78089346D01*
X149383134Y-78089351D01*
X149035063Y-78221358D01*
X148789798Y-78314375D01*
X148789791Y-78314377D01*
X148789786Y-78314380D01*
X148789783Y-78314381D01*
X148211119Y-78574817D01*
X147649233Y-78869718D01*
X147649196Y-78869739D01*
X147106182Y-79198002D01*
X147106137Y-79198030D01*
X146583936Y-79558481D01*
X146583902Y-79558506D01*
X146084381Y-79949855D01*
X145609387Y-80370663D01*
X145160663Y-80819387D01*
X144739855Y-81294381D01*
X144348506Y-81793902D01*
X144348481Y-81793936D01*
X143988030Y-82316137D01*
X143988002Y-82316182D01*
X143659739Y-82859196D01*
X143659718Y-82859233D01*
X143364817Y-83421119D01*
X143104381Y-83999783D01*
X143104380Y-83999786D01*
X143104375Y-83999798D01*
X143040513Y-84168189D01*
X142879351Y-84593134D01*
X142879346Y-84593150D01*
X142690560Y-85198985D01*
X142690557Y-85198998D01*
X142538695Y-85815122D01*
X142538686Y-85815167D01*
X142424304Y-86439324D01*
X142347815Y-87069277D01*
X142347813Y-87069303D01*
X142309500Y-87702696D01*
X133500500Y-87702696D01*
X133500500Y-82931004D01*
X140199500Y-82931004D01*
X140199500Y-83068995D01*
X140226420Y-83204327D01*
X140226420Y-83204329D01*
X140279222Y-83331806D01*
X140279228Y-83331817D01*
X140355885Y-83446541D01*
X140453458Y-83544114D01*
X140568182Y-83620771D01*
X140568193Y-83620777D01*
X140615283Y-83640282D01*
X140695672Y-83673580D01*
X140831007Y-83700500D01*
X140831008Y-83700500D01*
X140968992Y-83700500D01*
X140968993Y-83700500D01*
X141104328Y-83673580D01*
X141231811Y-83620775D01*
X141346542Y-83544114D01*
X141444114Y-83446542D01*
X141520775Y-83331811D01*
X141573580Y-83204328D01*
X141600500Y-83068993D01*
X141600500Y-82931007D01*
X141573580Y-82795672D01*
X141520775Y-82668189D01*
X141517182Y-82662811D01*
X141500500Y-82607813D01*
X141500500Y-81531164D01*
X141519407Y-81472973D01*
X141529496Y-81461160D01*
X141544114Y-81446542D01*
X141620775Y-81331811D01*
X141673580Y-81204328D01*
X141700500Y-81068993D01*
X141700500Y-80931007D01*
X141673580Y-80795672D01*
X141620775Y-80668189D01*
X141620774Y-80668187D01*
X141620771Y-80668182D01*
X141544114Y-80553458D01*
X141446541Y-80455885D01*
X141409304Y-80431004D01*
X142399500Y-80431004D01*
X142399500Y-80568995D01*
X142426420Y-80704327D01*
X142426420Y-80704329D01*
X142479222Y-80831806D01*
X142479228Y-80831817D01*
X142555885Y-80946541D01*
X142653458Y-81044114D01*
X142768182Y-81120771D01*
X142768193Y-81120777D01*
X142802408Y-81134949D01*
X142895672Y-81173580D01*
X143031007Y-81200500D01*
X143031008Y-81200500D01*
X143168992Y-81200500D01*
X143168993Y-81200500D01*
X143304328Y-81173580D01*
X143431811Y-81120775D01*
X143546542Y-81044114D01*
X143644114Y-80946542D01*
X143720775Y-80831811D01*
X143773580Y-80704328D01*
X143800500Y-80568993D01*
X143800500Y-80431007D01*
X143773580Y-80295672D01*
X143720775Y-80168189D01*
X143720774Y-80168187D01*
X143720771Y-80168182D01*
X143644114Y-80053458D01*
X143546541Y-79955885D01*
X143431817Y-79879228D01*
X143431806Y-79879222D01*
X143304328Y-79826420D01*
X143168995Y-79799500D01*
X143168993Y-79799500D01*
X143031007Y-79799500D01*
X143031004Y-79799500D01*
X142895672Y-79826420D01*
X142895670Y-79826420D01*
X142768193Y-79879222D01*
X142768182Y-79879228D01*
X142653458Y-79955885D01*
X142555885Y-80053458D01*
X142479228Y-80168182D01*
X142479222Y-80168193D01*
X142426420Y-80295670D01*
X142426420Y-80295672D01*
X142399500Y-80431004D01*
X141409304Y-80431004D01*
X141331817Y-80379228D01*
X141331806Y-80379222D01*
X141204328Y-80326420D01*
X141068995Y-80299500D01*
X141068993Y-80299500D01*
X140931007Y-80299500D01*
X140931004Y-80299500D01*
X140795672Y-80326420D01*
X140795670Y-80326420D01*
X140668193Y-80379222D01*
X140668182Y-80379228D01*
X140553458Y-80455885D01*
X140455885Y-80553458D01*
X140379228Y-80668182D01*
X140379222Y-80668193D01*
X140326420Y-80795670D01*
X140326420Y-80795672D01*
X140299500Y-80931004D01*
X140299500Y-81068995D01*
X140314443Y-81144114D01*
X140325658Y-81200499D01*
X140326420Y-81204327D01*
X140326420Y-81204329D01*
X140379222Y-81331806D01*
X140379228Y-81331817D01*
X140455885Y-81446541D01*
X140470504Y-81461160D01*
X140498281Y-81515677D01*
X140499500Y-81531164D01*
X140499500Y-82372205D01*
X140480593Y-82430396D01*
X140455504Y-82454518D01*
X140454323Y-82455307D01*
X140453456Y-82455887D01*
X140355893Y-82553449D01*
X140355885Y-82553458D01*
X140279228Y-82668182D01*
X140279222Y-82668193D01*
X140226420Y-82795670D01*
X140226420Y-82795672D01*
X140199500Y-82931004D01*
X133500500Y-82931004D01*
X133500500Y-79431004D01*
X138799500Y-79431004D01*
X138799500Y-79568995D01*
X138826420Y-79704327D01*
X138826420Y-79704329D01*
X138879222Y-79831806D01*
X138879228Y-79831817D01*
X138955885Y-79946541D01*
X139053458Y-80044114D01*
X139168182Y-80120771D01*
X139168193Y-80120777D01*
X139199103Y-80133580D01*
X139295672Y-80173580D01*
X139431007Y-80200500D01*
X139431008Y-80200500D01*
X139568992Y-80200500D01*
X139568993Y-80200500D01*
X139704328Y-80173580D01*
X139831811Y-80120775D01*
X139946542Y-80044114D01*
X140044114Y-79946542D01*
X140120775Y-79831811D01*
X140173580Y-79704328D01*
X140200500Y-79568993D01*
X140200500Y-79431007D01*
X140173580Y-79295672D01*
X140133136Y-79198030D01*
X140120777Y-79168193D01*
X140120771Y-79168182D01*
X140044114Y-79053458D01*
X139946541Y-78955885D01*
X139831817Y-78879228D01*
X139831806Y-78879222D01*
X139704328Y-78826420D01*
X139568995Y-78799500D01*
X139568993Y-78799500D01*
X139431007Y-78799500D01*
X139431004Y-78799500D01*
X139295672Y-78826420D01*
X139295670Y-78826420D01*
X139168193Y-78879222D01*
X139168182Y-78879228D01*
X139053458Y-78955885D01*
X138955885Y-79053458D01*
X138879228Y-79168182D01*
X138879222Y-79168193D01*
X138826420Y-79295670D01*
X138826420Y-79295672D01*
X138799500Y-79431004D01*
X133500500Y-79431004D01*
X133500500Y-74931004D01*
X135299500Y-74931004D01*
X135299500Y-75068995D01*
X135326420Y-75204327D01*
X135326420Y-75204329D01*
X135379222Y-75331806D01*
X135379228Y-75331817D01*
X135455885Y-75446541D01*
X135553458Y-75544114D01*
X135668182Y-75620771D01*
X135668193Y-75620777D01*
X135715283Y-75640282D01*
X135795672Y-75673580D01*
X135931007Y-75700500D01*
X135931008Y-75700500D01*
X136068992Y-75700500D01*
X136068993Y-75700500D01*
X136204328Y-75673580D01*
X136331811Y-75620775D01*
X136446542Y-75544114D01*
X136544114Y-75446542D01*
X136620775Y-75331811D01*
X136673580Y-75204328D01*
X136700500Y-75068993D01*
X136700500Y-74931007D01*
X136673580Y-74795672D01*
X136620775Y-74668189D01*
X136620774Y-74668187D01*
X136620771Y-74668182D01*
X136544114Y-74553458D01*
X136446541Y-74455885D01*
X136331817Y-74379228D01*
X136331806Y-74379222D01*
X136204328Y-74326420D01*
X136068995Y-74299500D01*
X136068993Y-74299500D01*
X135931007Y-74299500D01*
X135931004Y-74299500D01*
X135795672Y-74326420D01*
X135795670Y-74326420D01*
X135668193Y-74379222D01*
X135668182Y-74379228D01*
X135553458Y-74455885D01*
X135455885Y-74553458D01*
X135379228Y-74668182D01*
X135379222Y-74668193D01*
X135326420Y-74795670D01*
X135326420Y-74795672D01*
X135299500Y-74931004D01*
X133500500Y-74931004D01*
X133500500Y-74434109D01*
X133500500Y-74434108D01*
X133466392Y-74306814D01*
X133466390Y-74306811D01*
X133466390Y-74306809D01*
X133400503Y-74192690D01*
X133400499Y-74192685D01*
X133307314Y-74099499D01*
X133307314Y-74099500D01*
X131807314Y-72599500D01*
X131807311Y-72599498D01*
X131807310Y-72599497D01*
X131807309Y-72599496D01*
X131693189Y-72533609D01*
X131693191Y-72533609D01*
X131643799Y-72520375D01*
X131565892Y-72499500D01*
X131565890Y-72499500D01*
X131099000Y-72499500D01*
X131040809Y-72480593D01*
X131004845Y-72431093D01*
X131000000Y-72400500D01*
X131000000Y-71099000D01*
X131018907Y-71040809D01*
X131068407Y-71004845D01*
X131099000Y-71000000D01*
X138123803Y-71000000D01*
X138181994Y-71018907D01*
G37*
%TD.AperFunction*%
%TA.AperFunction,Conductor*%
G36*
X125263870Y-117912764D02*
G01*
X125356753Y-117966390D01*
X125356751Y-117966390D01*
X125356755Y-117966391D01*
X125356757Y-117966392D01*
X125484051Y-118000500D01*
X130204628Y-118000500D01*
X130262819Y-118019407D01*
X130298783Y-118068907D01*
X130301726Y-118080185D01*
X130326420Y-118204329D01*
X130379222Y-118331806D01*
X130379228Y-118331817D01*
X130434106Y-118413946D01*
X130445506Y-118431008D01*
X130455857Y-118446498D01*
X130472466Y-118505386D01*
X130451289Y-118562790D01*
X130400415Y-118596783D01*
X130373542Y-118600500D01*
X122849322Y-118600500D01*
X122791131Y-118581593D01*
X122779318Y-118571504D01*
X122377318Y-118169504D01*
X122349541Y-118114987D01*
X122359112Y-118054555D01*
X122402377Y-118011290D01*
X122447322Y-118000500D01*
X124915947Y-118000500D01*
X124915949Y-118000500D01*
X125043243Y-117966392D01*
X125043245Y-117966390D01*
X125043247Y-117966390D01*
X125136130Y-117912764D01*
X125185630Y-117899500D01*
X125214370Y-117899500D01*
X125263870Y-117912764D01*
G37*
%TD.AperFunction*%
%TD*%
M02*
